G04 #@! TF.GenerationSoftware,KiCad,Pcbnew,(6.0.11)*
G04 #@! TF.CreationDate,2024-11-25T11:34:00+09:00*
G04 #@! TF.ProjectId,Flame60_PCB_Layer1,466c616d-6536-4305-9f50-43425f4c6179,rev?*
G04 #@! TF.SameCoordinates,Original*
G04 #@! TF.FileFunction,Soldermask,Top*
G04 #@! TF.FilePolarity,Negative*
%FSLAX46Y46*%
G04 Gerber Fmt 4.6, Leading zero omitted, Abs format (unit mm)*
G04 Created by KiCad (PCBNEW (6.0.11)) date 2024-11-25 11:34:00*
%MOMM*%
%LPD*%
G01*
G04 APERTURE LIST*
%ADD10C,4.000000*%
%ADD11C,1.900000*%
%ADD12C,2.200000*%
%ADD13C,3.050000*%
%ADD14R,0.950000X1.300000*%
%ADD15R,1.397000X1.397000*%
%ADD16C,1.397000*%
%ADD17R,1.700000X1.700000*%
%ADD18O,1.700000X1.700000*%
G04 APERTURE END LIST*
D10*
X345281250Y-130968750D03*
D11*
X350361250Y-130968750D03*
X340201250Y-130968750D03*
X88423750Y-92868750D03*
X78263750Y-92868750D03*
D10*
X83343750Y-92868750D03*
D11*
X149701250Y-73818750D03*
X159861250Y-73818750D03*
D10*
X154781250Y-73818750D03*
X85725000Y-111918750D03*
D11*
X80645000Y-111918750D03*
X90805000Y-111918750D03*
D12*
X358000000Y-61000000D03*
D10*
X111918750Y-111918750D03*
D11*
X106838750Y-111918750D03*
X116998750Y-111918750D03*
D12*
X358000000Y-141000000D03*
D11*
X255111250Y-73818750D03*
D10*
X250031250Y-73818750D03*
D11*
X244951250Y-73818750D03*
D10*
X333375000Y-111918750D03*
D13*
X321475000Y-104918750D03*
D10*
X345275000Y-120158750D03*
X321475000Y-120158750D03*
D11*
X338455000Y-111918750D03*
X328295000Y-111918750D03*
D13*
X345275000Y-104918750D03*
D10*
X297656250Y-92868750D03*
D11*
X302736250Y-92868750D03*
X292576250Y-92868750D03*
X116363750Y-130968750D03*
D10*
X121443750Y-130968750D03*
D11*
X126523750Y-130968750D03*
X136048750Y-111918750D03*
X125888750Y-111918750D03*
D10*
X130968750Y-111918750D03*
X273843750Y-130968750D03*
D11*
X278923750Y-130968750D03*
X268763750Y-130968750D03*
D10*
X140493750Y-130968750D03*
D11*
X135413750Y-130968750D03*
X145573750Y-130968750D03*
D12*
X162000000Y-163000000D03*
D11*
X240823750Y-130968750D03*
X230663750Y-130968750D03*
D10*
X235743750Y-130968750D03*
D12*
X261000000Y-163000000D03*
X66000000Y-61000000D03*
D10*
X97631250Y-73818750D03*
D11*
X92551250Y-73818750D03*
X102711250Y-73818750D03*
X278288750Y-111918750D03*
D10*
X283368750Y-111918750D03*
D11*
X288448750Y-111918750D03*
X73501250Y-73818750D03*
D10*
X78581250Y-73818750D03*
D11*
X83661250Y-73818750D03*
D10*
X164306250Y-92868750D03*
D11*
X159226250Y-92868750D03*
X169386250Y-92868750D03*
X217011250Y-73818750D03*
D10*
X211931250Y-73818750D03*
D11*
X206851250Y-73818750D03*
X216376250Y-92868750D03*
X226536250Y-92868750D03*
D10*
X221456250Y-92868750D03*
D11*
X125888750Y-150018750D03*
X136048750Y-150018750D03*
D10*
X130968750Y-150018750D03*
D13*
X102387500Y-123968750D03*
D11*
X85407500Y-130968750D03*
D10*
X78587500Y-139208750D03*
X90487500Y-130968750D03*
D13*
X78587500Y-123968750D03*
D11*
X95567500Y-130968750D03*
D10*
X102387500Y-139208750D03*
D11*
X283051250Y-73818750D03*
D10*
X288131250Y-73818750D03*
D11*
X293211250Y-73818750D03*
D12*
X358000000Y-163000000D03*
X66000000Y-83000000D03*
D10*
X154781250Y-158258750D03*
X250031250Y-158258750D03*
X202406250Y-150018750D03*
D11*
X207486250Y-150018750D03*
D13*
X250031250Y-143018750D03*
D11*
X197326250Y-150018750D03*
D13*
X154781250Y-143018750D03*
D10*
X188118750Y-111918750D03*
D11*
X193198750Y-111918750D03*
X183038750Y-111918750D03*
X331311250Y-73818750D03*
D10*
X326231250Y-73818750D03*
D11*
X321151250Y-73818750D03*
X121126250Y-92868750D03*
X131286250Y-92868750D03*
D10*
X126206250Y-92868750D03*
D11*
X188436250Y-92868750D03*
D10*
X183356250Y-92868750D03*
D11*
X178276250Y-92868750D03*
D10*
X169068750Y-111918750D03*
D11*
X174148750Y-111918750D03*
X163988750Y-111918750D03*
D10*
X269081250Y-73818750D03*
D11*
X264001250Y-73818750D03*
X274161250Y-73818750D03*
X140811250Y-73818750D03*
X130651250Y-73818750D03*
D10*
X135731250Y-73818750D03*
D11*
X221138750Y-111918750D03*
X231298750Y-111918750D03*
D10*
X226218750Y-111918750D03*
D11*
X155098750Y-111918750D03*
X144938750Y-111918750D03*
D10*
X150018750Y-111918750D03*
D11*
X221773750Y-130968750D03*
X211613750Y-130968750D03*
D10*
X216693750Y-130968750D03*
X116681250Y-73818750D03*
D11*
X111601250Y-73818750D03*
X121761250Y-73818750D03*
X335474500Y-92868750D03*
D10*
X340554500Y-92868750D03*
D11*
X345634500Y-92868750D03*
D10*
X245268750Y-111918750D03*
D11*
X250348750Y-111918750D03*
X240188750Y-111918750D03*
D10*
X173831250Y-73818750D03*
D11*
X168751250Y-73818750D03*
X178911250Y-73818750D03*
D10*
X273843750Y-150018750D03*
D11*
X278923750Y-150018750D03*
X268763750Y-150018750D03*
X259873750Y-130968750D03*
D10*
X254793750Y-130968750D03*
D11*
X249713750Y-130968750D03*
X197961250Y-73818750D03*
D10*
X192881250Y-73818750D03*
D11*
X187801250Y-73818750D03*
X212248750Y-111918750D03*
D10*
X207168750Y-111918750D03*
D11*
X202088750Y-111918750D03*
D10*
X159543750Y-130968750D03*
D11*
X164623750Y-130968750D03*
X154463750Y-130968750D03*
X202723750Y-130968750D03*
X192563750Y-130968750D03*
D10*
X197643750Y-130968750D03*
D11*
X321786250Y-92868750D03*
D10*
X316706250Y-92868750D03*
D11*
X311626250Y-92868750D03*
X307498750Y-111918750D03*
D10*
X302418750Y-111918750D03*
D11*
X297338750Y-111918750D03*
D12*
X66000000Y-163000000D03*
D11*
X302101250Y-73818750D03*
X312261250Y-73818750D03*
D10*
X307181250Y-73818750D03*
D12*
X358000000Y-83000000D03*
D11*
X297973750Y-130968750D03*
D10*
X292893750Y-130968750D03*
D11*
X287813750Y-130968750D03*
D10*
X145256250Y-92868750D03*
D11*
X150336250Y-92868750D03*
X140176250Y-92868750D03*
X173513750Y-130968750D03*
X183673750Y-130968750D03*
D10*
X178593750Y-130968750D03*
X240506250Y-92868750D03*
D11*
X245586250Y-92868750D03*
X235426250Y-92868750D03*
X112236250Y-150018750D03*
D10*
X107156250Y-150018750D03*
D11*
X102076250Y-150018750D03*
D12*
X66000000Y-141000000D03*
D11*
X197326250Y-92868750D03*
X207486250Y-92868750D03*
D10*
X202406250Y-92868750D03*
X230981250Y-73818750D03*
D11*
X236061250Y-73818750D03*
X225901250Y-73818750D03*
X324167500Y-130968750D03*
D10*
X319087500Y-130968750D03*
D11*
X314007500Y-130968750D03*
D12*
X162000000Y-61000000D03*
D11*
X273526250Y-92868750D03*
D10*
X278606250Y-92868750D03*
D11*
X283686250Y-92868750D03*
D12*
X261000000Y-61000000D03*
D11*
X254476250Y-92868750D03*
D10*
X259556250Y-92868750D03*
D11*
X264636250Y-92868750D03*
X269398750Y-111918750D03*
X259238750Y-111918750D03*
D10*
X264318750Y-111918750D03*
D11*
X102076250Y-92868750D03*
D10*
X107156250Y-92868750D03*
D11*
X112236250Y-92868750D03*
X302736250Y-150018750D03*
X292576250Y-150018750D03*
D10*
X297656250Y-150018750D03*
X345376500Y-73818750D03*
D11*
X350456500Y-73818750D03*
X340296500Y-73818750D03*
D14*
X116681250Y-150525000D03*
D15*
X116681250Y-152560000D03*
D14*
X116681250Y-146975000D03*
D16*
X116681250Y-144940000D03*
D15*
X264318750Y-133510000D03*
D14*
X264318750Y-131475000D03*
X264318750Y-127925000D03*
D16*
X264318750Y-125890000D03*
D15*
X202406250Y-76378750D03*
D14*
X202406250Y-74343750D03*
D16*
X202406250Y-68758750D03*
D14*
X202406250Y-70793750D03*
X150018750Y-131475000D03*
D15*
X150018750Y-133510000D03*
D16*
X150018750Y-125890000D03*
D14*
X150018750Y-127925000D03*
X140493750Y-112425000D03*
D15*
X140493750Y-114460000D03*
D14*
X140493750Y-108875000D03*
D16*
X140493750Y-106840000D03*
D14*
X354806250Y-112425000D03*
D15*
X354806250Y-114460000D03*
D14*
X354806250Y-108875000D03*
D16*
X354806250Y-106840000D03*
D14*
X102393750Y-112425000D03*
D15*
X102393750Y-114460000D03*
D16*
X102393750Y-106840000D03*
D14*
X102393750Y-108875000D03*
X126206250Y-74343750D03*
D15*
X126206250Y-76378750D03*
D14*
X126206250Y-70793750D03*
D16*
X126206250Y-68758750D03*
D15*
X216693750Y-114460000D03*
D14*
X216693750Y-112425000D03*
D16*
X216693750Y-106840000D03*
D14*
X216693750Y-108875000D03*
D15*
X121443750Y-114460000D03*
D14*
X121443750Y-112425000D03*
X121443750Y-108875000D03*
D16*
X121443750Y-106840000D03*
D14*
X88106250Y-74343750D03*
D15*
X88106250Y-76378750D03*
D16*
X88106250Y-68758750D03*
D14*
X88106250Y-70793750D03*
D15*
X269081250Y-95410000D03*
D14*
X269081250Y-93375000D03*
D16*
X269081250Y-87790000D03*
D14*
X269081250Y-89825000D03*
D15*
X259556250Y-76378750D03*
D14*
X259556250Y-74343750D03*
X259556250Y-70793750D03*
D16*
X259556250Y-68758750D03*
D17*
X71400000Y-125000000D03*
D18*
X71400000Y-127540000D03*
X71400000Y-130080000D03*
X71400000Y-132620000D03*
D14*
X230981250Y-93375000D03*
D15*
X230981250Y-95410000D03*
D16*
X230981250Y-87790000D03*
D14*
X230981250Y-89825000D03*
D15*
X273843750Y-114460000D03*
D14*
X273843750Y-112425000D03*
D16*
X273843750Y-106840000D03*
D14*
X273843750Y-108875000D03*
X116681250Y-93375000D03*
D15*
X116681250Y-95410000D03*
D14*
X116681250Y-89825000D03*
D16*
X116681250Y-87790000D03*
D15*
X250031250Y-95410000D03*
D14*
X250031250Y-93375000D03*
X250031250Y-89825000D03*
D16*
X250031250Y-87790000D03*
D14*
X354806250Y-74343750D03*
D15*
X354806250Y-76378750D03*
D14*
X354806250Y-70793750D03*
D16*
X354806250Y-68758750D03*
D15*
X154781250Y-95410000D03*
D14*
X154781250Y-93375000D03*
D16*
X154781250Y-87790000D03*
D14*
X154781250Y-89825000D03*
X307181250Y-150525000D03*
D15*
X307181250Y-152560000D03*
D14*
X307181250Y-146975000D03*
D16*
X307181250Y-144940000D03*
D14*
X192881250Y-93375000D03*
D15*
X192881250Y-95410000D03*
D16*
X192881250Y-87790000D03*
D14*
X192881250Y-89825000D03*
D15*
X235743750Y-114460000D03*
D14*
X235743750Y-112425000D03*
D16*
X235743750Y-106840000D03*
D14*
X235743750Y-108875000D03*
D15*
X326231250Y-95410000D03*
D14*
X326231250Y-93375000D03*
D16*
X326231250Y-87790000D03*
D14*
X326231250Y-89825000D03*
D17*
X300355000Y-66043750D03*
D18*
X297815000Y-66043750D03*
X295275000Y-66043750D03*
X292735000Y-66043750D03*
D14*
X188118750Y-131475000D03*
D15*
X188118750Y-133510000D03*
D14*
X188118750Y-127925000D03*
D16*
X188118750Y-125890000D03*
D14*
X197643750Y-112425000D03*
D15*
X197643750Y-114460000D03*
D14*
X197643750Y-108875000D03*
D16*
X197643750Y-106840000D03*
D14*
X130968750Y-131475000D03*
D15*
X130968750Y-133510000D03*
D14*
X130968750Y-127925000D03*
D16*
X130968750Y-125890000D03*
D15*
X278606250Y-76378750D03*
D14*
X278606250Y-74343750D03*
D16*
X278606250Y-68758750D03*
D14*
X278606250Y-70793750D03*
D17*
X71400000Y-78000000D03*
D18*
X71400000Y-80540000D03*
X71400000Y-83080000D03*
X71400000Y-85620000D03*
D14*
X288131250Y-93375000D03*
D15*
X288131250Y-95410000D03*
D16*
X288131250Y-87790000D03*
D14*
X288131250Y-89825000D03*
X254793750Y-112425000D03*
D15*
X254793750Y-114460000D03*
D16*
X254793750Y-106840000D03*
D14*
X254793750Y-108875000D03*
X354806250Y-93375000D03*
D15*
X354806250Y-95410000D03*
D14*
X354806250Y-89825000D03*
D16*
X354806250Y-87790000D03*
D14*
X173831250Y-93375000D03*
D15*
X173831250Y-95410000D03*
D16*
X173831250Y-87790000D03*
D14*
X173831250Y-89825000D03*
X178593750Y-112425000D03*
D15*
X178593750Y-114460000D03*
D14*
X178593750Y-108875000D03*
D16*
X178593750Y-106840000D03*
D15*
X307181250Y-95410000D03*
D14*
X307181250Y-93375000D03*
D16*
X307181250Y-87790000D03*
D14*
X307181250Y-89825000D03*
X335756250Y-74343750D03*
D15*
X335756250Y-76378750D03*
D16*
X335756250Y-68758750D03*
D14*
X335756250Y-70793750D03*
X164306250Y-74343750D03*
D15*
X164306250Y-76378750D03*
D14*
X164306250Y-70793750D03*
D16*
X164306250Y-68758750D03*
D17*
X321700000Y-82000000D03*
D18*
X321700000Y-84540000D03*
D14*
X297906250Y-74343750D03*
D15*
X297906250Y-76378750D03*
D16*
X297906250Y-68758750D03*
D14*
X297906250Y-70793750D03*
D15*
X240506250Y-76378750D03*
D14*
X240506250Y-74343750D03*
X240506250Y-70793750D03*
D16*
X240506250Y-68758750D03*
D15*
X292893750Y-114460000D03*
D14*
X292893750Y-112425000D03*
X292893750Y-108875000D03*
D16*
X292893750Y-106840000D03*
D15*
X97631250Y-95410000D03*
D14*
X97631250Y-93375000D03*
D16*
X97631250Y-87790000D03*
D14*
X97631250Y-89825000D03*
D17*
X330993750Y-120113750D03*
D18*
X330993750Y-122653750D03*
D14*
X335756250Y-131475000D03*
D15*
X335756250Y-133510000D03*
D16*
X335756250Y-125890000D03*
D14*
X335756250Y-127925000D03*
X226218750Y-131475000D03*
D15*
X226218750Y-133510000D03*
D16*
X226218750Y-125890000D03*
D14*
X226218750Y-127925000D03*
D15*
X183356250Y-76378750D03*
D14*
X183356250Y-74343750D03*
X183356250Y-70793750D03*
D16*
X183356250Y-68758750D03*
D14*
X111918750Y-131475000D03*
D15*
X111918750Y-133510000D03*
D14*
X111918750Y-127925000D03*
D16*
X111918750Y-125890000D03*
D14*
X221456250Y-74343750D03*
D15*
X221456250Y-76378750D03*
D14*
X221456250Y-70793750D03*
D16*
X221456250Y-68758750D03*
D15*
X302418750Y-133510000D03*
D14*
X302418750Y-131475000D03*
X302418750Y-127925000D03*
D16*
X302418750Y-125890000D03*
D15*
X107156250Y-76378750D03*
D14*
X107156250Y-74343750D03*
X107156250Y-70793750D03*
D16*
X107156250Y-68758750D03*
D15*
X316706250Y-76378750D03*
D14*
X316706250Y-74343750D03*
D16*
X316706250Y-68758750D03*
D14*
X316706250Y-70793750D03*
X283368750Y-131475000D03*
D15*
X283368750Y-133510000D03*
D14*
X283368750Y-127925000D03*
D16*
X283368750Y-125890000D03*
D14*
X159543750Y-112425000D03*
D15*
X159543750Y-114460000D03*
D16*
X159543750Y-106840000D03*
D14*
X159543750Y-108875000D03*
X145256250Y-150525000D03*
D15*
X145256250Y-152560000D03*
D16*
X145256250Y-144940000D03*
D14*
X145256250Y-146975000D03*
X145256250Y-74343750D03*
D15*
X145256250Y-76378750D03*
D14*
X145256250Y-70793750D03*
D16*
X145256250Y-68758750D03*
D15*
X311943750Y-114460000D03*
D14*
X311943750Y-112425000D03*
D16*
X311943750Y-106840000D03*
D14*
X311943750Y-108875000D03*
D15*
X221456250Y-152560000D03*
D14*
X221456250Y-150525000D03*
D16*
X221456250Y-144940000D03*
D14*
X221456250Y-146975000D03*
D15*
X288131250Y-152560000D03*
D14*
X288131250Y-150525000D03*
X288131250Y-146975000D03*
D16*
X288131250Y-144940000D03*
D15*
X169068750Y-133510000D03*
D14*
X169068750Y-131475000D03*
D16*
X169068750Y-125890000D03*
D14*
X169068750Y-127925000D03*
D15*
X354806250Y-133510000D03*
D14*
X354806250Y-131475000D03*
X354806250Y-127925000D03*
D16*
X354806250Y-125890000D03*
D15*
X245268750Y-133510000D03*
D14*
X245268750Y-131475000D03*
X245268750Y-127925000D03*
D16*
X245268750Y-125890000D03*
D15*
X135731250Y-95410000D03*
D14*
X135731250Y-93375000D03*
X135731250Y-89825000D03*
D16*
X135731250Y-87790000D03*
D14*
X207168750Y-131475000D03*
D15*
X207168750Y-133510000D03*
D16*
X207168750Y-125890000D03*
D14*
X207168750Y-127925000D03*
D15*
X211931250Y-95410000D03*
D14*
X211931250Y-93375000D03*
D16*
X211931250Y-87790000D03*
D14*
X211931250Y-89825000D03*
M02*
