M48
; DRILL file {KiCad (6.0.11)} date Mon Nov 25 11:34:04 2024
; FORMAT={-:-/ absolute / metric / decimal}
; #@! TF.CreationDate,2024-11-25T11:34:04+09:00
; #@! TF.GenerationSoftware,Kicad,Pcbnew,(6.0.11)
; #@! TF.FileFunction,Plated,1,2,PTH
FMAT,2
METRIC
; #@! TA.AperFunction,Plated,PTH,ComponentDrill
T1C0.800
; #@! TA.AperFunction,Plated,PTH,ComponentDrill
T2C0.813
; #@! TA.AperFunction,Plated,PTH,ComponentDrill
T3C1.000
%
G90
G05
T2
X88.106Y-68.759
X88.106Y-76.379
X97.631Y-87.79
X97.631Y-95.41
X102.394Y-106.84
X102.394Y-114.46
X107.156Y-68.759
X107.156Y-76.379
X111.919Y-125.89
X111.919Y-133.51
X116.681Y-87.79
X116.681Y-95.41
X116.681Y-144.94
X116.681Y-152.56
X121.444Y-106.84
X121.444Y-114.46
X126.206Y-68.759
X126.206Y-76.379
X130.969Y-125.89
X130.969Y-133.51
X135.731Y-87.79
X135.731Y-95.41
X140.494Y-106.84
X140.494Y-114.46
X145.256Y-68.759
X145.256Y-76.379
X145.256Y-144.94
X145.256Y-152.56
X150.019Y-125.89
X150.019Y-133.51
X154.781Y-87.79
X154.781Y-95.41
X159.544Y-106.84
X159.544Y-114.46
X164.306Y-68.759
X164.306Y-76.379
X169.069Y-125.89
X169.069Y-133.51
X173.831Y-87.79
X173.831Y-95.41
X178.594Y-106.84
X178.594Y-114.46
X183.356Y-68.759
X183.356Y-76.379
X188.119Y-125.89
X188.119Y-133.51
X192.881Y-87.79
X192.881Y-95.41
X197.644Y-106.84
X197.644Y-114.46
X202.406Y-68.759
X202.406Y-76.379
X207.169Y-125.89
X207.169Y-133.51
X211.931Y-87.79
X211.931Y-95.41
X216.694Y-106.84
X216.694Y-114.46
X221.456Y-68.759
X221.456Y-76.379
X221.456Y-144.94
X221.456Y-152.56
X226.219Y-125.89
X226.219Y-133.51
X230.981Y-87.79
X230.981Y-95.41
X235.744Y-106.84
X235.744Y-114.46
X240.506Y-68.759
X240.506Y-76.379
X245.269Y-125.89
X245.269Y-133.51
X250.031Y-87.79
X250.031Y-95.41
X254.794Y-106.84
X254.794Y-114.46
X259.556Y-68.759
X259.556Y-76.379
X264.319Y-125.89
X264.319Y-133.51
X269.081Y-87.79
X269.081Y-95.41
X273.844Y-106.84
X273.844Y-114.46
X278.606Y-68.759
X278.606Y-76.379
X283.369Y-125.89
X283.369Y-133.51
X288.131Y-87.79
X288.131Y-95.41
X288.131Y-144.94
X288.131Y-152.56
X292.894Y-106.84
X292.894Y-114.46
X297.906Y-68.759
X297.906Y-76.379
X302.419Y-125.89
X302.419Y-133.51
X307.181Y-87.79
X307.181Y-95.41
X307.181Y-144.94
X307.181Y-152.56
X311.944Y-106.84
X311.944Y-114.46
X316.706Y-68.759
X316.706Y-76.379
X326.231Y-87.79
X326.231Y-95.41
X335.756Y-68.759
X335.756Y-76.379
X335.756Y-125.89
X335.756Y-133.51
X354.806Y-68.759
X354.806Y-76.379
X354.806Y-87.79
X354.806Y-95.41
X354.806Y-106.84
X354.806Y-114.46
X354.806Y-125.89
X354.806Y-133.51
T3
X71.4Y-78.0
X71.4Y-80.54
X71.4Y-83.08
X71.4Y-85.62
X71.4Y-125.0
X71.4Y-127.54
X71.4Y-130.08
X71.4Y-132.62
X292.735Y-66.044
X295.275Y-66.044
X297.815Y-66.044
X300.355Y-66.044
X321.7Y-82.0
X321.7Y-84.54
X330.994Y-120.114
X330.994Y-122.654
T1
G00X74.571Y-71.279
M15
G01X74.971Y-71.279
M16
G05
G00X79.334Y-90.329
M15
G01X79.734Y-90.329
M16
G05
G00X80.921Y-68.739
M15
G01X81.321Y-68.739
M16
G05
G00X81.715Y-109.379
M15
G01X82.115Y-109.379
M16
G05
G00X85.684Y-87.789
M15
G01X86.084Y-87.789
M16
G05
G00X86.477Y-128.429
M15
G01X86.877Y-128.429
M16
G05
G00X88.065Y-106.839
M15
G01X88.465Y-106.839
M16
G05
G00X92.828Y-125.889
M15
G01X93.227Y-125.889
M16
G05
G00X93.621Y-71.279
M15
G01X94.021Y-71.279
M16
G05
G00X99.971Y-68.739
M15
G01X100.371Y-68.739
M16
G05
G00X103.146Y-90.329
M15
G01X103.546Y-90.329
M16
G05
G00X103.146Y-147.479
M15
G01X103.546Y-147.479
M16
G05
G00X107.909Y-109.379
M15
G01X108.309Y-109.379
M16
G05
G00X109.496Y-87.789
M15
G01X109.896Y-87.789
M16
G05
G00X109.496Y-144.939
M15
G01X109.896Y-144.939
M16
G05
G00X112.671Y-71.279
M15
G01X113.071Y-71.279
M16
G05
G00X114.259Y-106.839
M15
G01X114.659Y-106.839
M16
G05
G00X117.434Y-128.429
M15
G01X117.834Y-128.429
M16
G05
G00X119.021Y-68.739
M15
G01X119.421Y-68.739
M16
G05
G00X122.196Y-90.329
M15
G01X122.596Y-90.329
M16
G05
G00X123.784Y-125.889
M15
G01X124.184Y-125.889
M16
G05
G00X126.959Y-109.379
M15
G01X127.359Y-109.379
M16
G05
G00X126.959Y-147.479
M15
G01X127.359Y-147.479
M16
G05
G00X128.546Y-87.789
M15
G01X128.946Y-87.789
M16
G05
G00X131.721Y-71.279
M15
G01X132.121Y-71.279
M16
G05
G00X133.309Y-106.839
M15
G01X133.709Y-106.839
M16
G05
G00X133.309Y-144.939
M15
G01X133.709Y-144.939
M16
G05
G00X136.484Y-128.429
M15
G01X136.884Y-128.429
M16
G05
G00X138.071Y-68.739
M15
G01X138.471Y-68.739
M16
G05
G00X141.246Y-90.329
M15
G01X141.646Y-90.329
M16
G05
G00X142.834Y-125.889
M15
G01X143.234Y-125.889
M16
G05
G00X146.009Y-109.379
M15
G01X146.409Y-109.379
M16
G05
G00X147.596Y-87.789
M15
G01X147.996Y-87.789
M16
G05
G00X150.771Y-71.279
M15
G01X151.171Y-71.279
M16
G05
G00X152.359Y-106.839
M15
G01X152.759Y-106.839
M16
G05
G00X155.534Y-128.429
M15
G01X155.934Y-128.429
M16
G05
G00X157.121Y-68.739
M15
G01X157.521Y-68.739
M16
G05
G00X160.296Y-90.329
M15
G01X160.696Y-90.329
M16
G05
G00X161.884Y-125.889
M15
G01X162.284Y-125.889
M16
G05
G00X165.059Y-109.379
M15
G01X165.459Y-109.379
M16
G05
G00X166.646Y-87.789
M15
G01X167.046Y-87.789
M16
G05
G00X169.821Y-71.279
M15
G01X170.221Y-71.279
M16
G05
G00X171.409Y-106.839
M15
G01X171.809Y-106.839
M16
G05
G00X174.584Y-128.429
M15
G01X174.984Y-128.429
M16
G05
G00X176.171Y-68.739
M15
G01X176.571Y-68.739
M16
G05
G00X179.346Y-90.329
M15
G01X179.746Y-90.329
M16
G05
G00X180.934Y-125.889
M15
G01X181.334Y-125.889
M16
G05
G00X184.109Y-109.379
M15
G01X184.509Y-109.379
M16
G05
G00X185.696Y-87.789
M15
G01X186.096Y-87.789
M16
G05
G00X188.871Y-71.279
M15
G01X189.271Y-71.279
M16
G05
G00X190.459Y-106.839
M15
G01X190.859Y-106.839
M16
G05
G00X193.634Y-128.429
M15
G01X194.034Y-128.429
M16
G05
G00X195.221Y-68.739
M15
G01X195.621Y-68.739
M16
G05
G00X198.396Y-90.329
M15
G01X198.796Y-90.329
M16
G05
G00X198.396Y-147.479
M15
G01X198.796Y-147.479
M16
G05
G00X199.984Y-125.889
M15
G01X200.384Y-125.889
M16
G05
G00X203.159Y-109.379
M15
G01X203.559Y-109.379
M16
G05
G00X204.746Y-87.789
M15
G01X205.146Y-87.789
M16
G05
G00X204.746Y-144.939
M15
G01X205.146Y-144.939
M16
G05
G00X207.921Y-71.279
M15
G01X208.321Y-71.279
M16
G05
G00X209.509Y-106.839
M15
G01X209.909Y-106.839
M16
G05
G00X212.684Y-128.429
M15
G01X213.084Y-128.429
M16
G05
G00X214.271Y-68.739
M15
G01X214.671Y-68.739
M16
G05
G00X217.446Y-90.329
M15
G01X217.846Y-90.329
M16
G05
G00X219.034Y-125.889
M15
G01X219.434Y-125.889
M16
G05
G00X222.209Y-109.379
M15
G01X222.609Y-109.379
M16
G05
G00X223.796Y-87.789
M15
G01X224.196Y-87.789
M16
G05
G00X226.971Y-71.279
M15
G01X227.371Y-71.279
M16
G05
G00X228.559Y-106.839
M15
G01X228.959Y-106.839
M16
G05
G00X231.734Y-128.429
M15
G01X232.134Y-128.429
M16
G05
G00X233.321Y-68.739
M15
G01X233.721Y-68.739
M16
G05
G00X236.496Y-90.329
M15
G01X236.896Y-90.329
M16
G05
G00X238.084Y-125.889
M15
G01X238.484Y-125.889
M16
G05
G00X241.259Y-109.379
M15
G01X241.659Y-109.379
M16
G05
G00X242.846Y-87.789
M15
G01X243.246Y-87.789
M16
G05
G00X246.021Y-71.279
M15
G01X246.421Y-71.279
M16
G05
G00X247.609Y-106.839
M15
G01X248.009Y-106.839
M16
G05
G00X250.784Y-128.429
M15
G01X251.184Y-128.429
M16
G05
G00X252.371Y-68.739
M15
G01X252.771Y-68.739
M16
G05
G00X255.546Y-90.329
M15
G01X255.946Y-90.329
M16
G05
G00X257.134Y-125.889
M15
G01X257.534Y-125.889
M16
G05
G00X260.309Y-109.379
M15
G01X260.709Y-109.379
M16
G05
G00X261.896Y-87.789
M15
G01X262.296Y-87.789
M16
G05
G00X265.071Y-71.279
M15
G01X265.471Y-71.279
M16
G05
G00X266.659Y-106.839
M15
G01X267.059Y-106.839
M16
G05
G00X269.834Y-128.429
M15
G01X270.234Y-128.429
M16
G05
G00X269.834Y-147.479
M15
G01X270.234Y-147.479
M16
G05
G00X271.421Y-68.739
M15
G01X271.821Y-68.739
M16
G05
G00X274.596Y-90.329
M15
G01X274.996Y-90.329
M16
G05
G00X276.184Y-125.889
M15
G01X276.584Y-125.889
M16
G05
G00X276.184Y-144.939
M15
G01X276.584Y-144.939
M16
G05
G00X279.359Y-109.379
M15
G01X279.759Y-109.379
M16
G05
G00X280.946Y-87.789
M15
G01X281.346Y-87.789
M16
G05
G00X284.121Y-71.279
M15
G01X284.521Y-71.279
M16
G05
G00X285.709Y-106.839
M15
G01X286.109Y-106.839
M16
G05
G00X288.884Y-128.429
M15
G01X289.284Y-128.429
M16
G05
G00X290.471Y-68.739
M15
G01X290.871Y-68.739
M16
G05
G00X293.646Y-90.329
M15
G01X294.046Y-90.329
M16
G05
G00X293.646Y-147.479
M15
G01X294.046Y-147.479
M16
G05
G00X295.234Y-125.889
M15
G01X295.634Y-125.889
M16
G05
G00X298.409Y-109.379
M15
G01X298.809Y-109.379
M16
G05
G00X299.996Y-87.789
M15
G01X300.396Y-87.789
M16
G05
G00X299.996Y-144.939
M15
G01X300.396Y-144.939
M16
G05
G00X303.171Y-71.279
M15
G01X303.571Y-71.279
M16
G05
G00X304.759Y-106.839
M15
G01X305.159Y-106.839
M16
G05
G00X309.521Y-68.739
M15
G01X309.921Y-68.739
M16
G05
G00X312.696Y-90.329
M15
G01X313.096Y-90.329
M16
G05
G00X315.077Y-128.429
M15
G01X315.477Y-128.429
M16
G05
G00X319.046Y-87.789
M15
G01X319.446Y-87.789
M16
G05
G00X321.428Y-125.889
M15
G01X321.827Y-125.889
M16
G05
G00X322.221Y-71.279
M15
G01X322.621Y-71.279
M16
G05
G00X328.571Y-68.739
M15
G01X328.971Y-68.739
M16
G05
G00X329.365Y-109.379
M15
G01X329.765Y-109.379
M16
G05
G00X335.715Y-106.839
M15
G01X336.115Y-106.839
M16
G05
G00X336.544Y-90.329
M15
G01X336.945Y-90.329
M16
G05
G00X341.271Y-128.429
M15
G01X341.671Y-128.429
M16
G05
G00X341.366Y-71.279
M15
G01X341.767Y-71.279
M16
G05
G00X342.894Y-87.789
M15
G01X343.294Y-87.789
M16
G05
G00X347.621Y-125.889
M15
G01X348.021Y-125.889
M16
G05
G00X347.716Y-68.739
M15
G01X348.116Y-68.739
M16
G05
T0
M30
