G04 #@! TF.GenerationSoftware,KiCad,Pcbnew,(6.0.11)*
G04 #@! TF.CreationDate,2024-11-25T11:34:00+09:00*
G04 #@! TF.ProjectId,Flame60_PCB_Layer1,466c616d-6536-4305-9f50-43425f4c6179,rev?*
G04 #@! TF.SameCoordinates,Original*
G04 #@! TF.FileFunction,Copper,L2,Bot*
G04 #@! TF.FilePolarity,Positive*
%FSLAX46Y46*%
G04 Gerber Fmt 4.6, Leading zero omitted, Abs format (unit mm)*
G04 Created by KiCad (PCBNEW (6.0.11)) date 2024-11-25 11:34:00*
%MOMM*%
%LPD*%
G01*
G04 APERTURE LIST*
G04 #@! TA.AperFunction,ComponentPad*
%ADD10O,2.500000X2.000000*%
G04 #@! TD*
G04 #@! TA.AperFunction,ComponentPad*
%ADD11R,1.397000X1.397000*%
G04 #@! TD*
G04 #@! TA.AperFunction,ComponentPad*
%ADD12C,1.397000*%
G04 #@! TD*
G04 #@! TA.AperFunction,ComponentPad*
%ADD13R,1.700000X1.700000*%
G04 #@! TD*
G04 #@! TA.AperFunction,ComponentPad*
%ADD14O,1.700000X1.700000*%
G04 #@! TD*
G04 #@! TA.AperFunction,Conductor*
%ADD15C,0.250000*%
G04 #@! TD*
G04 #@! TA.AperFunction,Conductor*
%ADD16C,0.500000*%
G04 #@! TD*
G04 APERTURE END LIST*
D10*
X341471250Y-128428750D03*
X347821250Y-125888750D03*
X79533750Y-90328750D03*
X85883750Y-87788750D03*
X150971250Y-71278750D03*
X157321250Y-68738750D03*
X81915000Y-109378750D03*
X88265000Y-106838750D03*
X108108750Y-109378750D03*
X114458750Y-106838750D03*
X246221250Y-71278750D03*
X252571250Y-68738750D03*
X329565000Y-109378750D03*
X335915000Y-106838750D03*
X293846250Y-90328750D03*
X300196250Y-87788750D03*
X117633750Y-128428750D03*
X123983750Y-125888750D03*
X127158750Y-109378750D03*
X133508750Y-106838750D03*
X270033750Y-128428750D03*
X276383750Y-125888750D03*
X136683750Y-128428750D03*
X143033750Y-125888750D03*
X231933750Y-128428750D03*
X238283750Y-125888750D03*
X93821250Y-71278750D03*
X100171250Y-68738750D03*
X279558750Y-109378750D03*
X285908750Y-106838750D03*
X74771250Y-71278750D03*
X81121250Y-68738750D03*
X160496250Y-90328750D03*
X166846250Y-87788750D03*
X208121250Y-71278750D03*
X214471250Y-68738750D03*
X217646250Y-90328750D03*
X223996250Y-87788750D03*
X127158750Y-147478750D03*
X133508750Y-144938750D03*
X86677500Y-128428750D03*
X93027500Y-125888750D03*
X284321250Y-71278750D03*
X290671250Y-68738750D03*
X198596250Y-147478750D03*
X204946250Y-144938750D03*
X184308750Y-109378750D03*
X190658750Y-106838750D03*
X322421250Y-71278750D03*
X328771250Y-68738750D03*
X122396250Y-90328750D03*
X128746250Y-87788750D03*
X179546250Y-90328750D03*
X185896250Y-87788750D03*
X165258750Y-109378750D03*
X171608750Y-106838750D03*
X265271250Y-71278750D03*
X271621250Y-68738750D03*
X131921250Y-71278750D03*
X138271250Y-68738750D03*
X222408750Y-109378750D03*
X228758750Y-106838750D03*
X146208750Y-109378750D03*
X152558750Y-106838750D03*
X212883750Y-128428750D03*
X219233750Y-125888750D03*
X112871250Y-71278750D03*
X119221250Y-68738750D03*
X336744500Y-90328750D03*
X343094500Y-87788750D03*
X241458750Y-109378750D03*
X247808750Y-106838750D03*
X170021250Y-71278750D03*
X176371250Y-68738750D03*
X270033750Y-147478750D03*
X276383750Y-144938750D03*
X250983750Y-128428750D03*
X257333750Y-125888750D03*
X189071250Y-71278750D03*
X195421250Y-68738750D03*
X203358750Y-109378750D03*
X209708750Y-106838750D03*
X155733750Y-128428750D03*
X162083750Y-125888750D03*
X193833750Y-128428750D03*
X200183750Y-125888750D03*
X312896250Y-90328750D03*
X319246250Y-87788750D03*
X298608750Y-109378750D03*
X304958750Y-106838750D03*
X303371250Y-71278750D03*
X309721250Y-68738750D03*
X289083750Y-128428750D03*
X295433750Y-125888750D03*
X141446250Y-90328750D03*
X147796250Y-87788750D03*
X174783750Y-128428750D03*
X181133750Y-125888750D03*
X236696250Y-90328750D03*
X243046250Y-87788750D03*
X103346250Y-147478750D03*
X109696250Y-144938750D03*
X198596250Y-90328750D03*
X204946250Y-87788750D03*
X227171250Y-71278750D03*
X233521250Y-68738750D03*
X315277500Y-128428750D03*
X321627500Y-125888750D03*
X274796250Y-90328750D03*
X281146250Y-87788750D03*
X255746250Y-90328750D03*
X262096250Y-87788750D03*
X260508750Y-109378750D03*
X266858750Y-106838750D03*
X103346250Y-90328750D03*
X109696250Y-87788750D03*
X293846250Y-147478750D03*
X300196250Y-144938750D03*
X341566500Y-71278750D03*
X347916500Y-68738750D03*
D11*
X116681250Y-152560000D03*
D12*
X116681250Y-144940000D03*
D11*
X264318750Y-133510000D03*
D12*
X264318750Y-125890000D03*
D11*
X202406250Y-76378750D03*
D12*
X202406250Y-68758750D03*
D11*
X150018750Y-133510000D03*
D12*
X150018750Y-125890000D03*
D11*
X140493750Y-114460000D03*
D12*
X140493750Y-106840000D03*
D11*
X354806250Y-114460000D03*
D12*
X354806250Y-106840000D03*
D11*
X102393750Y-114460000D03*
D12*
X102393750Y-106840000D03*
D11*
X126206250Y-76378750D03*
D12*
X126206250Y-68758750D03*
D11*
X216693750Y-114460000D03*
D12*
X216693750Y-106840000D03*
D11*
X121443750Y-114460000D03*
D12*
X121443750Y-106840000D03*
D11*
X88106250Y-76378750D03*
D12*
X88106250Y-68758750D03*
D11*
X269081250Y-95410000D03*
D12*
X269081250Y-87790000D03*
D11*
X259556250Y-76378750D03*
D12*
X259556250Y-68758750D03*
D13*
X71400000Y-125000000D03*
D14*
X71400000Y-127540000D03*
X71400000Y-130080000D03*
X71400000Y-132620000D03*
D11*
X230981250Y-95410000D03*
D12*
X230981250Y-87790000D03*
D11*
X273843750Y-114460000D03*
D12*
X273843750Y-106840000D03*
D11*
X116681250Y-95410000D03*
D12*
X116681250Y-87790000D03*
D11*
X250031250Y-95410000D03*
D12*
X250031250Y-87790000D03*
D11*
X354806250Y-76378750D03*
D12*
X354806250Y-68758750D03*
D11*
X154781250Y-95410000D03*
D12*
X154781250Y-87790000D03*
D11*
X307181250Y-152560000D03*
D12*
X307181250Y-144940000D03*
D11*
X192881250Y-95410000D03*
D12*
X192881250Y-87790000D03*
D11*
X235743750Y-114460000D03*
D12*
X235743750Y-106840000D03*
D11*
X326231250Y-95410000D03*
D12*
X326231250Y-87790000D03*
D13*
X300355000Y-66043750D03*
D14*
X297815000Y-66043750D03*
X295275000Y-66043750D03*
X292735000Y-66043750D03*
D11*
X188118750Y-133510000D03*
D12*
X188118750Y-125890000D03*
D11*
X197643750Y-114460000D03*
D12*
X197643750Y-106840000D03*
D11*
X130968750Y-133510000D03*
D12*
X130968750Y-125890000D03*
D11*
X278606250Y-76378750D03*
D12*
X278606250Y-68758750D03*
D13*
X71400000Y-78000000D03*
D14*
X71400000Y-80540000D03*
X71400000Y-83080000D03*
X71400000Y-85620000D03*
D11*
X288131250Y-95410000D03*
D12*
X288131250Y-87790000D03*
D11*
X254793750Y-114460000D03*
D12*
X254793750Y-106840000D03*
D11*
X354806250Y-95410000D03*
D12*
X354806250Y-87790000D03*
D11*
X173831250Y-95410000D03*
D12*
X173831250Y-87790000D03*
D11*
X178593750Y-114460000D03*
D12*
X178593750Y-106840000D03*
D11*
X307181250Y-95410000D03*
D12*
X307181250Y-87790000D03*
D11*
X335756250Y-76378750D03*
D12*
X335756250Y-68758750D03*
D11*
X164306250Y-76378750D03*
D12*
X164306250Y-68758750D03*
D13*
X321700000Y-82000000D03*
D14*
X321700000Y-84540000D03*
D11*
X297906250Y-76378750D03*
D12*
X297906250Y-68758750D03*
D11*
X240506250Y-76378750D03*
D12*
X240506250Y-68758750D03*
D11*
X292893750Y-114460000D03*
D12*
X292893750Y-106840000D03*
D11*
X97631250Y-95410000D03*
D12*
X97631250Y-87790000D03*
D13*
X330993750Y-120113750D03*
D14*
X330993750Y-122653750D03*
D11*
X335756250Y-133510000D03*
D12*
X335756250Y-125890000D03*
D11*
X226218750Y-133510000D03*
D12*
X226218750Y-125890000D03*
D11*
X183356250Y-76378750D03*
D12*
X183356250Y-68758750D03*
D11*
X111918750Y-133510000D03*
D12*
X111918750Y-125890000D03*
D11*
X221456250Y-76378750D03*
D12*
X221456250Y-68758750D03*
D11*
X302418750Y-133510000D03*
D12*
X302418750Y-125890000D03*
D11*
X107156250Y-76378750D03*
D12*
X107156250Y-68758750D03*
D11*
X316706250Y-76378750D03*
D12*
X316706250Y-68758750D03*
D11*
X283368750Y-133510000D03*
D12*
X283368750Y-125890000D03*
D11*
X159543750Y-114460000D03*
D12*
X159543750Y-106840000D03*
D11*
X145256250Y-152560000D03*
D12*
X145256250Y-144940000D03*
D11*
X145256250Y-76378750D03*
D12*
X145256250Y-68758750D03*
D11*
X311943750Y-114460000D03*
D12*
X311943750Y-106840000D03*
D11*
X221456250Y-152560000D03*
D12*
X221456250Y-144940000D03*
D11*
X288131250Y-152560000D03*
D12*
X288131250Y-144940000D03*
D11*
X169068750Y-133510000D03*
D12*
X169068750Y-125890000D03*
D11*
X354806250Y-133510000D03*
D12*
X354806250Y-125890000D03*
D11*
X245268750Y-133510000D03*
D12*
X245268750Y-125890000D03*
D11*
X135731250Y-95410000D03*
D12*
X135731250Y-87790000D03*
D11*
X207168750Y-133510000D03*
D12*
X207168750Y-125890000D03*
D11*
X211931250Y-95410000D03*
D12*
X211931250Y-87790000D03*
D15*
X221436250Y-68738750D02*
X221456250Y-68758750D01*
X145236250Y-68738750D02*
X145256250Y-68758750D01*
X154780000Y-87788750D02*
X154781250Y-87790000D01*
X88511250Y-68738750D02*
X88625000Y-68625000D01*
X93028750Y-125890000D02*
X93027500Y-125888750D01*
X107136250Y-68738750D02*
X107156250Y-68758750D01*
X121442500Y-106838750D02*
X121443750Y-106840000D01*
X123985000Y-125890000D02*
X123983750Y-125888750D01*
X126511250Y-68738750D02*
X126625000Y-68625000D01*
X126625000Y-68625000D02*
X126340000Y-68625000D01*
X126340000Y-68625000D02*
X126206250Y-68758750D01*
X133508750Y-106838750D02*
X140492500Y-106838750D01*
X140492500Y-106838750D02*
X140493750Y-106840000D01*
X143035000Y-125890000D02*
X143033750Y-125888750D01*
X116680000Y-87788750D02*
X116681250Y-87790000D01*
X159542500Y-106838750D02*
X159543750Y-106840000D01*
X162085000Y-125890000D02*
X162083750Y-125888750D01*
X173830000Y-87788750D02*
X173831250Y-87790000D01*
X181135000Y-125890000D02*
X181133750Y-125888750D01*
X183511250Y-68738750D02*
X183625000Y-68625000D01*
X197642500Y-106838750D02*
X197643750Y-106840000D01*
X200185000Y-125890000D02*
X200183750Y-125888750D01*
X202511250Y-68738750D02*
X202625000Y-68625000D01*
X192880000Y-87788750D02*
X192881250Y-87790000D01*
X354646250Y-114300000D02*
X354806250Y-114300000D01*
X353782750Y-96469250D02*
X353782750Y-113436500D01*
X353782750Y-113436500D02*
X354646250Y-114300000D01*
X354842000Y-95410000D02*
X353782750Y-96469250D01*
X221456250Y-152560000D02*
X226218750Y-147797500D01*
X226218750Y-147797500D02*
X226218750Y-133510000D01*
X183621250Y-76378750D02*
X183356250Y-76378750D01*
X219235000Y-125890000D02*
X219233750Y-125888750D01*
X81915000Y-94798759D02*
X81915000Y-109378750D01*
X93876251Y-80858751D02*
X103346250Y-90328750D01*
X81970001Y-109433751D02*
X81970001Y-123721251D01*
X79533750Y-92417509D02*
X81915000Y-94798759D01*
X79588751Y-90383751D02*
X79533750Y-90328750D01*
X93821250Y-71278750D02*
X93876251Y-71333751D01*
X74771250Y-73367509D02*
X79533750Y-78130009D01*
X81915000Y-109378750D02*
X81970001Y-109433751D01*
X108108750Y-109378750D02*
X108163751Y-109433751D01*
X74771250Y-71278750D02*
X74771250Y-73367509D01*
X93876251Y-71333751D02*
X93876251Y-80858751D01*
X79533750Y-90328750D02*
X79533750Y-92417509D01*
X103401251Y-90383751D02*
X103401251Y-104671251D01*
X108163751Y-118958751D02*
X117633750Y-128428750D01*
X103346250Y-90328750D02*
X103401251Y-90383751D01*
X108163751Y-109433751D02*
X108163751Y-118958751D01*
X79533750Y-78130009D02*
X79533750Y-90328750D01*
X103401251Y-104671251D02*
X108108750Y-109378750D01*
X84117501Y-125868751D02*
X86677500Y-128428750D01*
X72268751Y-125868751D02*
X84117501Y-125868751D01*
X71400000Y-125000000D02*
X72268751Y-125868751D01*
X81970001Y-123721251D02*
X86677500Y-128428750D01*
X122451251Y-104671251D02*
X122451251Y-90383751D01*
X71400000Y-127540000D02*
X80104915Y-127540000D01*
X136683750Y-128428750D02*
X128593749Y-120338749D01*
X146263751Y-118958751D02*
X155733750Y-128428750D01*
X142881249Y-106051249D02*
X146208750Y-109378750D01*
X146208750Y-109378750D02*
X146263751Y-109433751D01*
X131921250Y-71278750D02*
X131976251Y-71333751D01*
X87098415Y-134533500D02*
X127898250Y-134533500D01*
X127898250Y-134533500D02*
X134003000Y-128428750D01*
X122396250Y-90328750D02*
X112926251Y-80858751D01*
X80104915Y-127540000D02*
X87098415Y-134533500D01*
X131976251Y-81970001D02*
X142881249Y-92874999D01*
X134003000Y-128428750D02*
X136683750Y-128428750D01*
X127158750Y-109378750D02*
X122451251Y-104671251D01*
X112926251Y-71333751D02*
X112871250Y-71278750D01*
X131976251Y-71333751D02*
X131976251Y-81970001D01*
X112926251Y-80858751D02*
X112926251Y-71333751D01*
X146263751Y-109433751D02*
X146263751Y-118958751D01*
X142881249Y-92874999D02*
X142881249Y-106051249D01*
X128593749Y-110813749D02*
X127158750Y-109378750D01*
X128593749Y-120338749D02*
X128593749Y-110813749D01*
X122451251Y-90383751D02*
X122396250Y-90328750D01*
X184363751Y-118958751D02*
X184363751Y-109433751D01*
X184363751Y-109433751D02*
X184308750Y-109378750D01*
X179546250Y-90328750D02*
X171456249Y-82238749D01*
X166687500Y-138112500D02*
X166687500Y-133350000D01*
X171456249Y-72713749D02*
X170021250Y-71278750D01*
X102393750Y-154781250D02*
X150018750Y-154781250D01*
X184308750Y-109378750D02*
X179601251Y-104671251D01*
X150971250Y-71278750D02*
X151026251Y-71333751D01*
X151026251Y-80858751D02*
X159543750Y-89376250D01*
X71400000Y-130080000D02*
X77692500Y-130080000D01*
X171608750Y-128428750D02*
X174783750Y-128428750D01*
X166687500Y-133350000D02*
X171608750Y-128428750D01*
X160551251Y-104671251D02*
X165258750Y-109378750D01*
X179601251Y-104671251D02*
X179601251Y-90383751D01*
X150018750Y-154781250D02*
X166687500Y-138112500D01*
X160551251Y-91495001D02*
X160551251Y-104671251D01*
X171456249Y-82238749D02*
X171456249Y-72713749D01*
X179601251Y-90383751D02*
X179546250Y-90328750D01*
X77692500Y-130080000D02*
X102393750Y-154781250D01*
X165258750Y-109378750D02*
X165313751Y-109433751D01*
X165313751Y-109433751D02*
X165313751Y-118958751D01*
X193833750Y-128428750D02*
X184363751Y-118958751D01*
X159543750Y-89376250D02*
X159543750Y-90487500D01*
X151026251Y-71333751D02*
X151026251Y-80858751D01*
X159543750Y-90487500D02*
X160551251Y-91495001D01*
X165313751Y-118958751D02*
X174783750Y-128428750D01*
X150018750Y-157162500D02*
X169068750Y-138112500D01*
X198651251Y-90383751D02*
X198651251Y-104671251D01*
X102393750Y-157162500D02*
X150018750Y-157162500D01*
X217646250Y-92417509D02*
X222408750Y-97180009D01*
X207168750Y-131463000D02*
X207168750Y-130968750D01*
X222408750Y-97180009D02*
X222408750Y-109378750D01*
X209708750Y-128428750D02*
X212883750Y-128428750D01*
X222408750Y-109378750D02*
X222408750Y-111467509D01*
X222408750Y-111467509D02*
X231933750Y-120992509D01*
X203413751Y-109433751D02*
X203413751Y-118958751D01*
X217646250Y-82892509D02*
X217646250Y-90328750D01*
X208121250Y-73367509D02*
X217646250Y-82892509D01*
X71400000Y-132620000D02*
X77851250Y-132620000D01*
X203358750Y-109378750D02*
X203413751Y-109433751D01*
X207168750Y-130968750D02*
X209708750Y-128428750D01*
X200519250Y-138112500D02*
X207168750Y-131463000D01*
X189071250Y-71278750D02*
X189126251Y-71333751D01*
X189126251Y-71333751D02*
X189126251Y-80858751D01*
X203413751Y-118958751D02*
X212883750Y-128428750D01*
X169068750Y-138112500D02*
X200519250Y-138112500D01*
X231933750Y-120992509D02*
X231933750Y-128428750D01*
X77851250Y-132620000D02*
X102393750Y-157162500D01*
X189126251Y-80858751D02*
X198596250Y-90328750D01*
X198596250Y-90328750D02*
X198651251Y-90383751D01*
X208121250Y-71278750D02*
X208121250Y-73367509D01*
X217646250Y-90328750D02*
X217646250Y-92417509D01*
X198651251Y-104671251D02*
X203358750Y-109378750D01*
X236696250Y-90328750D02*
X236751251Y-90383751D01*
X260508750Y-109378750D02*
X260508750Y-111467509D01*
X260508750Y-111467509D02*
X270033750Y-120992509D01*
X236751251Y-90383751D02*
X236751251Y-104671251D01*
X227226251Y-71333751D02*
X227226251Y-80858751D01*
X227171250Y-71278750D02*
X227226251Y-71333751D01*
X241458750Y-109378750D02*
X241458750Y-111467509D01*
X250983750Y-120992509D02*
X250983750Y-128428750D01*
X246221250Y-71278750D02*
X251456250Y-66043750D01*
X241458750Y-111467509D02*
X250983750Y-120992509D01*
X260508750Y-97180009D02*
X260508750Y-109378750D01*
X251456250Y-66043750D02*
X292735000Y-66043750D01*
X255746250Y-92417509D02*
X260508750Y-97180009D01*
X227226251Y-80858751D02*
X236696250Y-90328750D01*
X246221250Y-73367509D02*
X255746250Y-82892509D01*
X255746250Y-90328750D02*
X255746250Y-92417509D01*
X255746250Y-82892509D02*
X255746250Y-90328750D01*
X246221250Y-71278750D02*
X246221250Y-73367509D01*
X270033750Y-120992509D02*
X270033750Y-128428750D01*
X236751251Y-104671251D02*
X241458750Y-109378750D01*
X265326251Y-71333751D02*
X265326251Y-80858751D01*
X295275000Y-67245831D02*
X291242081Y-71278750D01*
X265326251Y-80858751D02*
X274796250Y-90328750D01*
X295275000Y-66043750D02*
X295275000Y-67245831D01*
X274796250Y-90328750D02*
X274851251Y-90383751D01*
X279613751Y-109433751D02*
X279613751Y-118958751D01*
X279613751Y-118958751D02*
X289083750Y-128428750D01*
X293846250Y-90328750D02*
X293901251Y-90383751D01*
X291153331Y-71278750D02*
X284321250Y-71278750D01*
X295186250Y-66043750D02*
X295186250Y-67245831D01*
X298608750Y-109378750D02*
X298608750Y-111467509D01*
X265271250Y-71278750D02*
X265326251Y-71333751D01*
X274851251Y-90383751D02*
X274851251Y-104671251D01*
X291242081Y-71278750D02*
X284321250Y-71278750D01*
X284376251Y-80858751D02*
X293846250Y-90328750D01*
X279558750Y-109378750D02*
X279613751Y-109433751D01*
X295186250Y-67245831D02*
X291153331Y-71278750D01*
X298608750Y-111467509D02*
X315277500Y-128136259D01*
X293901251Y-104671251D02*
X298608750Y-109378750D01*
X284376251Y-71333751D02*
X284376251Y-80858751D01*
X293901251Y-90383751D02*
X293901251Y-104671251D01*
X315277500Y-128136259D02*
X315277500Y-128428750D01*
X284321250Y-71278750D02*
X284376251Y-71333751D01*
X274851251Y-104671251D02*
X279558750Y-109378750D01*
X284490000Y-71110000D02*
X284321250Y-71278750D01*
X230821250Y-95410000D02*
X230981250Y-95410000D01*
X325340000Y-114460000D02*
X330993750Y-120113750D01*
X159543750Y-114460000D02*
X159543750Y-127609991D01*
X145096250Y-152560000D02*
X145256250Y-152400000D01*
X157162500Y-135731250D02*
X145256250Y-147637500D01*
X159543750Y-127609991D02*
X157162500Y-129991241D01*
X311783750Y-114460000D02*
X311943750Y-114460000D01*
X311943750Y-114460000D02*
X325340000Y-114460000D01*
X145256250Y-147637500D02*
X145256250Y-152560000D01*
X157162500Y-129991241D02*
X157162500Y-135731250D01*
X230980000Y-87788750D02*
X230981250Y-87790000D01*
X235742500Y-106838750D02*
X235743750Y-106840000D01*
X238285000Y-125890000D02*
X238283750Y-125888750D01*
X254792500Y-106838750D02*
X254793750Y-106840000D01*
X247808750Y-106838750D02*
X254792500Y-106838750D01*
X257335000Y-125890000D02*
X257333750Y-125888750D01*
X259536250Y-68738750D02*
X259556250Y-68758750D01*
X269080000Y-87788750D02*
X269081250Y-87790000D01*
X273842500Y-106838750D02*
X273843750Y-106840000D01*
X283367500Y-125888750D02*
X283368750Y-125890000D01*
X278586250Y-68738750D02*
X278606250Y-68758750D01*
X287461250Y-87788750D02*
X287625000Y-87625000D01*
X302417500Y-125888750D02*
X302418750Y-125890000D01*
X298511250Y-68738750D02*
X298625000Y-68625000D01*
X307180000Y-87788750D02*
X307181250Y-87790000D01*
X311942500Y-106838750D02*
X311943750Y-106840000D01*
X336361250Y-125888750D02*
X336625000Y-125625000D01*
X354805000Y-125888750D02*
X354806250Y-125890000D01*
X335736250Y-68738750D02*
X335756250Y-68758750D01*
X145255000Y-144938750D02*
X145256250Y-144940000D01*
X288130000Y-144938750D02*
X288131250Y-144940000D01*
X354786250Y-68738750D02*
X354806250Y-68758750D01*
X116680000Y-144938750D02*
X116681250Y-144940000D01*
X307180000Y-144938750D02*
X307181250Y-144940000D01*
X306863750Y-144938750D02*
X307181250Y-145256250D01*
X312896250Y-90328750D02*
X312896250Y-92417509D01*
X329565000Y-109378750D02*
X329565000Y-111467509D01*
X274637500Y-142875000D02*
X270033750Y-147478750D01*
X302961250Y-71278750D02*
X303371250Y-71278750D01*
X303050000Y-71278750D02*
X303371250Y-71278750D01*
X341471250Y-123373759D02*
X341471250Y-128428750D01*
X341526251Y-128483751D02*
X341526251Y-132342499D01*
X303371250Y-70478750D02*
X303371250Y-71278750D01*
X312896250Y-92417509D02*
X330016241Y-109537500D01*
X297726250Y-66043750D02*
X302961250Y-71278750D01*
X312896250Y-82892509D02*
X312896250Y-90328750D01*
X297815000Y-66043750D02*
X303050000Y-71278750D01*
X303371250Y-73367509D02*
X312896250Y-82892509D01*
X341526251Y-132342499D02*
X330993750Y-142875000D01*
X341471250Y-128428750D02*
X341526251Y-128483751D01*
X329565000Y-111467509D02*
X341471250Y-123373759D01*
X303371250Y-71278750D02*
X303371250Y-73367509D01*
X330993750Y-142875000D02*
X274637500Y-142875000D01*
X343095750Y-87790000D02*
X343094500Y-87788750D01*
X354805000Y-87788750D02*
X354806250Y-87790000D01*
X354840750Y-87788750D02*
X354842000Y-87790000D01*
X245108750Y-133510000D02*
X245268750Y-133510000D01*
D16*
X288131250Y-152400000D02*
X288250001Y-152518751D01*
X168908750Y-133510000D02*
X169068750Y-133510000D01*
D15*
X330993750Y-122653750D02*
X330993750Y-128747500D01*
X264318750Y-152560000D02*
X288131250Y-152560000D01*
D16*
X283208750Y-133510000D02*
X283368750Y-133510000D01*
D15*
X245268750Y-133510000D02*
X264318750Y-152560000D01*
D16*
X307062499Y-152518751D02*
X307181250Y-152400000D01*
D15*
X207008750Y-133510000D02*
X207168750Y-133510000D01*
X330993750Y-128747500D02*
X335756250Y-133510000D01*
X341566500Y-71278750D02*
X341621501Y-71333751D01*
X341621501Y-85451749D02*
X336744500Y-90328750D01*
X338137500Y-109662491D02*
X347662500Y-119187491D01*
X347656251Y-129984992D02*
X347656251Y-133356249D01*
X338137500Y-91721750D02*
X338137500Y-109662491D01*
X346246250Y-128574991D02*
X347656251Y-129984992D01*
X333533750Y-147478750D02*
X293846250Y-147478750D01*
X341621501Y-71333751D02*
X341621501Y-85451749D01*
X336744500Y-90328750D02*
X338137500Y-91721750D01*
X346246250Y-125339917D02*
X346246250Y-128574991D01*
X347662500Y-123923667D02*
X346246250Y-125339917D01*
X347662500Y-119187491D02*
X347662500Y-123923667D01*
X347656251Y-133356249D02*
X333533750Y-147478750D01*
M02*
