G04 #@! TF.GenerationSoftware,KiCad,Pcbnew,(6.0.11)*
G04 #@! TF.CreationDate,2024-11-25T11:34:00+09:00*
G04 #@! TF.ProjectId,Flame60_PCB_Layer1,466c616d-6536-4305-9f50-43425f4c6179,rev?*
G04 #@! TF.SameCoordinates,Original*
G04 #@! TF.FileFunction,Copper,L1,Top*
G04 #@! TF.FilePolarity,Positive*
%FSLAX46Y46*%
G04 Gerber Fmt 4.6, Leading zero omitted, Abs format (unit mm)*
G04 Created by KiCad (PCBNEW (6.0.11)) date 2024-11-25 11:34:00*
%MOMM*%
%LPD*%
G01*
G04 APERTURE LIST*
G04 #@! TA.AperFunction,ComponentPad*
%ADD10O,2.500000X2.000000*%
G04 #@! TD*
G04 #@! TA.AperFunction,SMDPad,CuDef*
%ADD11R,0.950000X1.300000*%
G04 #@! TD*
G04 #@! TA.AperFunction,ComponentPad*
%ADD12R,1.397000X1.397000*%
G04 #@! TD*
G04 #@! TA.AperFunction,ComponentPad*
%ADD13C,1.397000*%
G04 #@! TD*
G04 #@! TA.AperFunction,ComponentPad*
%ADD14R,1.700000X1.700000*%
G04 #@! TD*
G04 #@! TA.AperFunction,ComponentPad*
%ADD15O,1.700000X1.700000*%
G04 #@! TD*
G04 #@! TA.AperFunction,Conductor*
%ADD16C,0.250000*%
G04 #@! TD*
G04 APERTURE END LIST*
D10*
X341471250Y-128428750D03*
X347821250Y-125888750D03*
X79533750Y-90328750D03*
X85883750Y-87788750D03*
X150971250Y-71278750D03*
X157321250Y-68738750D03*
X81915000Y-109378750D03*
X88265000Y-106838750D03*
X108108750Y-109378750D03*
X114458750Y-106838750D03*
X246221250Y-71278750D03*
X252571250Y-68738750D03*
X329565000Y-109378750D03*
X335915000Y-106838750D03*
X293846250Y-90328750D03*
X300196250Y-87788750D03*
X117633750Y-128428750D03*
X123983750Y-125888750D03*
X127158750Y-109378750D03*
X133508750Y-106838750D03*
X270033750Y-128428750D03*
X276383750Y-125888750D03*
X136683750Y-128428750D03*
X143033750Y-125888750D03*
X231933750Y-128428750D03*
X238283750Y-125888750D03*
X93821250Y-71278750D03*
X100171250Y-68738750D03*
X279558750Y-109378750D03*
X285908750Y-106838750D03*
X74771250Y-71278750D03*
X81121250Y-68738750D03*
X160496250Y-90328750D03*
X166846250Y-87788750D03*
X208121250Y-71278750D03*
X214471250Y-68738750D03*
X217646250Y-90328750D03*
X223996250Y-87788750D03*
X127158750Y-147478750D03*
X133508750Y-144938750D03*
X86677500Y-128428750D03*
X93027500Y-125888750D03*
X284321250Y-71278750D03*
X290671250Y-68738750D03*
X198596250Y-147478750D03*
X204946250Y-144938750D03*
X184308750Y-109378750D03*
X190658750Y-106838750D03*
X322421250Y-71278750D03*
X328771250Y-68738750D03*
X122396250Y-90328750D03*
X128746250Y-87788750D03*
X179546250Y-90328750D03*
X185896250Y-87788750D03*
X165258750Y-109378750D03*
X171608750Y-106838750D03*
X265271250Y-71278750D03*
X271621250Y-68738750D03*
X131921250Y-71278750D03*
X138271250Y-68738750D03*
X222408750Y-109378750D03*
X228758750Y-106838750D03*
X146208750Y-109378750D03*
X152558750Y-106838750D03*
X212883750Y-128428750D03*
X219233750Y-125888750D03*
X112871250Y-71278750D03*
X119221250Y-68738750D03*
X336744500Y-90328750D03*
X343094500Y-87788750D03*
X241458750Y-109378750D03*
X247808750Y-106838750D03*
X170021250Y-71278750D03*
X176371250Y-68738750D03*
X270033750Y-147478750D03*
X276383750Y-144938750D03*
X250983750Y-128428750D03*
X257333750Y-125888750D03*
X189071250Y-71278750D03*
X195421250Y-68738750D03*
X203358750Y-109378750D03*
X209708750Y-106838750D03*
X155733750Y-128428750D03*
X162083750Y-125888750D03*
X193833750Y-128428750D03*
X200183750Y-125888750D03*
X312896250Y-90328750D03*
X319246250Y-87788750D03*
X298608750Y-109378750D03*
X304958750Y-106838750D03*
X303371250Y-71278750D03*
X309721250Y-68738750D03*
X289083750Y-128428750D03*
X295433750Y-125888750D03*
X141446250Y-90328750D03*
X147796250Y-87788750D03*
X174783750Y-128428750D03*
X181133750Y-125888750D03*
X236696250Y-90328750D03*
X243046250Y-87788750D03*
X103346250Y-147478750D03*
X109696250Y-144938750D03*
X198596250Y-90328750D03*
X204946250Y-87788750D03*
X227171250Y-71278750D03*
X233521250Y-68738750D03*
X315277500Y-128428750D03*
X321627500Y-125888750D03*
X274796250Y-90328750D03*
X281146250Y-87788750D03*
X255746250Y-90328750D03*
X262096250Y-87788750D03*
X260508750Y-109378750D03*
X266858750Y-106838750D03*
X103346250Y-90328750D03*
X109696250Y-87788750D03*
X293846250Y-147478750D03*
X300196250Y-144938750D03*
X341566500Y-71278750D03*
X347916500Y-68738750D03*
D11*
X116681250Y-150525000D03*
D12*
X116681250Y-152560000D03*
D11*
X116681250Y-146975000D03*
D13*
X116681250Y-144940000D03*
D12*
X264318750Y-133510000D03*
D11*
X264318750Y-131475000D03*
X264318750Y-127925000D03*
D13*
X264318750Y-125890000D03*
D12*
X202406250Y-76378750D03*
D11*
X202406250Y-74343750D03*
D13*
X202406250Y-68758750D03*
D11*
X202406250Y-70793750D03*
X150018750Y-131475000D03*
D12*
X150018750Y-133510000D03*
D13*
X150018750Y-125890000D03*
D11*
X150018750Y-127925000D03*
X140493750Y-112425000D03*
D12*
X140493750Y-114460000D03*
D11*
X140493750Y-108875000D03*
D13*
X140493750Y-106840000D03*
D11*
X354806250Y-112425000D03*
D12*
X354806250Y-114460000D03*
D11*
X354806250Y-108875000D03*
D13*
X354806250Y-106840000D03*
D11*
X102393750Y-112425000D03*
D12*
X102393750Y-114460000D03*
D13*
X102393750Y-106840000D03*
D11*
X102393750Y-108875000D03*
X126206250Y-74343750D03*
D12*
X126206250Y-76378750D03*
D11*
X126206250Y-70793750D03*
D13*
X126206250Y-68758750D03*
D12*
X216693750Y-114460000D03*
D11*
X216693750Y-112425000D03*
D13*
X216693750Y-106840000D03*
D11*
X216693750Y-108875000D03*
D12*
X121443750Y-114460000D03*
D11*
X121443750Y-112425000D03*
X121443750Y-108875000D03*
D13*
X121443750Y-106840000D03*
D11*
X88106250Y-74343750D03*
D12*
X88106250Y-76378750D03*
D13*
X88106250Y-68758750D03*
D11*
X88106250Y-70793750D03*
D12*
X269081250Y-95410000D03*
D11*
X269081250Y-93375000D03*
D13*
X269081250Y-87790000D03*
D11*
X269081250Y-89825000D03*
D12*
X259556250Y-76378750D03*
D11*
X259556250Y-74343750D03*
X259556250Y-70793750D03*
D13*
X259556250Y-68758750D03*
D14*
X71400000Y-125000000D03*
D15*
X71400000Y-127540000D03*
X71400000Y-130080000D03*
X71400000Y-132620000D03*
D11*
X230981250Y-93375000D03*
D12*
X230981250Y-95410000D03*
D13*
X230981250Y-87790000D03*
D11*
X230981250Y-89825000D03*
D12*
X273843750Y-114460000D03*
D11*
X273843750Y-112425000D03*
D13*
X273843750Y-106840000D03*
D11*
X273843750Y-108875000D03*
X116681250Y-93375000D03*
D12*
X116681250Y-95410000D03*
D11*
X116681250Y-89825000D03*
D13*
X116681250Y-87790000D03*
D12*
X250031250Y-95410000D03*
D11*
X250031250Y-93375000D03*
X250031250Y-89825000D03*
D13*
X250031250Y-87790000D03*
D11*
X354806250Y-74343750D03*
D12*
X354806250Y-76378750D03*
D11*
X354806250Y-70793750D03*
D13*
X354806250Y-68758750D03*
D12*
X154781250Y-95410000D03*
D11*
X154781250Y-93375000D03*
D13*
X154781250Y-87790000D03*
D11*
X154781250Y-89825000D03*
X307181250Y-150525000D03*
D12*
X307181250Y-152560000D03*
D11*
X307181250Y-146975000D03*
D13*
X307181250Y-144940000D03*
D11*
X192881250Y-93375000D03*
D12*
X192881250Y-95410000D03*
D13*
X192881250Y-87790000D03*
D11*
X192881250Y-89825000D03*
D12*
X235743750Y-114460000D03*
D11*
X235743750Y-112425000D03*
D13*
X235743750Y-106840000D03*
D11*
X235743750Y-108875000D03*
D12*
X326231250Y-95410000D03*
D11*
X326231250Y-93375000D03*
D13*
X326231250Y-87790000D03*
D11*
X326231250Y-89825000D03*
D14*
X300355000Y-66043750D03*
D15*
X297815000Y-66043750D03*
X295275000Y-66043750D03*
X292735000Y-66043750D03*
D11*
X188118750Y-131475000D03*
D12*
X188118750Y-133510000D03*
D11*
X188118750Y-127925000D03*
D13*
X188118750Y-125890000D03*
D11*
X197643750Y-112425000D03*
D12*
X197643750Y-114460000D03*
D11*
X197643750Y-108875000D03*
D13*
X197643750Y-106840000D03*
D11*
X130968750Y-131475000D03*
D12*
X130968750Y-133510000D03*
D11*
X130968750Y-127925000D03*
D13*
X130968750Y-125890000D03*
D12*
X278606250Y-76378750D03*
D11*
X278606250Y-74343750D03*
D13*
X278606250Y-68758750D03*
D11*
X278606250Y-70793750D03*
D14*
X71400000Y-78000000D03*
D15*
X71400000Y-80540000D03*
X71400000Y-83080000D03*
X71400000Y-85620000D03*
D11*
X288131250Y-93375000D03*
D12*
X288131250Y-95410000D03*
D13*
X288131250Y-87790000D03*
D11*
X288131250Y-89825000D03*
X254793750Y-112425000D03*
D12*
X254793750Y-114460000D03*
D13*
X254793750Y-106840000D03*
D11*
X254793750Y-108875000D03*
X354806250Y-93375000D03*
D12*
X354806250Y-95410000D03*
D11*
X354806250Y-89825000D03*
D13*
X354806250Y-87790000D03*
D11*
X173831250Y-93375000D03*
D12*
X173831250Y-95410000D03*
D13*
X173831250Y-87790000D03*
D11*
X173831250Y-89825000D03*
X178593750Y-112425000D03*
D12*
X178593750Y-114460000D03*
D11*
X178593750Y-108875000D03*
D13*
X178593750Y-106840000D03*
D12*
X307181250Y-95410000D03*
D11*
X307181250Y-93375000D03*
D13*
X307181250Y-87790000D03*
D11*
X307181250Y-89825000D03*
X335756250Y-74343750D03*
D12*
X335756250Y-76378750D03*
D13*
X335756250Y-68758750D03*
D11*
X335756250Y-70793750D03*
X164306250Y-74343750D03*
D12*
X164306250Y-76378750D03*
D11*
X164306250Y-70793750D03*
D13*
X164306250Y-68758750D03*
D14*
X321700000Y-82000000D03*
D15*
X321700000Y-84540000D03*
D11*
X297906250Y-74343750D03*
D12*
X297906250Y-76378750D03*
D13*
X297906250Y-68758750D03*
D11*
X297906250Y-70793750D03*
D12*
X240506250Y-76378750D03*
D11*
X240506250Y-74343750D03*
X240506250Y-70793750D03*
D13*
X240506250Y-68758750D03*
D12*
X292893750Y-114460000D03*
D11*
X292893750Y-112425000D03*
X292893750Y-108875000D03*
D13*
X292893750Y-106840000D03*
D12*
X97631250Y-95410000D03*
D11*
X97631250Y-93375000D03*
D13*
X97631250Y-87790000D03*
D11*
X97631250Y-89825000D03*
D14*
X330993750Y-120113750D03*
D15*
X330993750Y-122653750D03*
D11*
X335756250Y-131475000D03*
D12*
X335756250Y-133510000D03*
D13*
X335756250Y-125890000D03*
D11*
X335756250Y-127925000D03*
X226218750Y-131475000D03*
D12*
X226218750Y-133510000D03*
D13*
X226218750Y-125890000D03*
D11*
X226218750Y-127925000D03*
D12*
X183356250Y-76378750D03*
D11*
X183356250Y-74343750D03*
X183356250Y-70793750D03*
D13*
X183356250Y-68758750D03*
D11*
X111918750Y-131475000D03*
D12*
X111918750Y-133510000D03*
D11*
X111918750Y-127925000D03*
D13*
X111918750Y-125890000D03*
D11*
X221456250Y-74343750D03*
D12*
X221456250Y-76378750D03*
D11*
X221456250Y-70793750D03*
D13*
X221456250Y-68758750D03*
D12*
X302418750Y-133510000D03*
D11*
X302418750Y-131475000D03*
X302418750Y-127925000D03*
D13*
X302418750Y-125890000D03*
D12*
X107156250Y-76378750D03*
D11*
X107156250Y-74343750D03*
X107156250Y-70793750D03*
D13*
X107156250Y-68758750D03*
D12*
X316706250Y-76378750D03*
D11*
X316706250Y-74343750D03*
D13*
X316706250Y-68758750D03*
D11*
X316706250Y-70793750D03*
X283368750Y-131475000D03*
D12*
X283368750Y-133510000D03*
D11*
X283368750Y-127925000D03*
D13*
X283368750Y-125890000D03*
D11*
X159543750Y-112425000D03*
D12*
X159543750Y-114460000D03*
D13*
X159543750Y-106840000D03*
D11*
X159543750Y-108875000D03*
X145256250Y-150525000D03*
D12*
X145256250Y-152560000D03*
D13*
X145256250Y-144940000D03*
D11*
X145256250Y-146975000D03*
X145256250Y-74343750D03*
D12*
X145256250Y-76378750D03*
D11*
X145256250Y-70793750D03*
D13*
X145256250Y-68758750D03*
D12*
X311943750Y-114460000D03*
D11*
X311943750Y-112425000D03*
D13*
X311943750Y-106840000D03*
D11*
X311943750Y-108875000D03*
D12*
X221456250Y-152560000D03*
D11*
X221456250Y-150525000D03*
D13*
X221456250Y-144940000D03*
D11*
X221456250Y-146975000D03*
D12*
X288131250Y-152560000D03*
D11*
X288131250Y-150525000D03*
X288131250Y-146975000D03*
D13*
X288131250Y-144940000D03*
D12*
X169068750Y-133510000D03*
D11*
X169068750Y-131475000D03*
D13*
X169068750Y-125890000D03*
D11*
X169068750Y-127925000D03*
D12*
X354806250Y-133510000D03*
D11*
X354806250Y-131475000D03*
X354806250Y-127925000D03*
D13*
X354806250Y-125890000D03*
D12*
X245268750Y-133510000D03*
D11*
X245268750Y-131475000D03*
X245268750Y-127925000D03*
D13*
X245268750Y-125890000D03*
D12*
X135731250Y-95410000D03*
D11*
X135731250Y-93375000D03*
X135731250Y-89825000D03*
D13*
X135731250Y-87790000D03*
D11*
X207168750Y-131475000D03*
D12*
X207168750Y-133510000D03*
D13*
X207168750Y-125890000D03*
D11*
X207168750Y-127925000D03*
D12*
X211931250Y-95410000D03*
D11*
X211931250Y-93375000D03*
D13*
X211931250Y-87790000D03*
D11*
X211931250Y-89825000D03*
D16*
X221456250Y-68758750D02*
X221456250Y-70793750D01*
X214471250Y-68738750D02*
X221436250Y-68738750D01*
X221436250Y-68738750D02*
X221456250Y-68758750D01*
X145236250Y-68738750D02*
X145256250Y-68758750D01*
X138271250Y-68738750D02*
X145236250Y-68738750D01*
X145256250Y-68758750D02*
X145256250Y-70793750D01*
X154781250Y-87790000D02*
X154781250Y-89825000D01*
X147796250Y-87788750D02*
X154780000Y-87788750D01*
X154780000Y-87788750D02*
X154781250Y-87790000D01*
X97630000Y-87788750D02*
X97631250Y-87790000D01*
X85883750Y-87788750D02*
X97630000Y-87788750D01*
X97631250Y-87790000D02*
X97631250Y-89825000D01*
X164286250Y-68738750D02*
X164306250Y-68758750D01*
X157321250Y-68738750D02*
X164286250Y-68738750D01*
X164306250Y-68758750D02*
X164306250Y-70793750D01*
X88086250Y-68738750D02*
X88106250Y-68758750D01*
X81121250Y-68738750D02*
X88086250Y-68738750D01*
X88106250Y-68758750D02*
X88106250Y-70793750D01*
X102393750Y-108875000D02*
X102393750Y-106840000D01*
X88265000Y-106838750D02*
X102392500Y-106838750D01*
X102392500Y-106838750D02*
X102393750Y-106840000D01*
X111918750Y-125890000D02*
X111918750Y-127925000D01*
X111917500Y-125888750D02*
X111918750Y-125890000D01*
X93027500Y-125888750D02*
X111917500Y-125888750D01*
X107136250Y-68738750D02*
X107156250Y-68758750D01*
X100171250Y-68738750D02*
X107136250Y-68738750D01*
X107156250Y-68758750D02*
X107156250Y-70793750D01*
X121442500Y-106838750D02*
X121443750Y-106840000D01*
X121443750Y-108875000D02*
X121443750Y-106840000D01*
X114458750Y-106838750D02*
X121442500Y-106838750D01*
X123983750Y-125888750D02*
X130967500Y-125888750D01*
X130968750Y-125890000D02*
X130968750Y-127925000D01*
X130967500Y-125888750D02*
X130968750Y-125890000D01*
X126206250Y-68758750D02*
X126206250Y-70793750D01*
X125888750Y-68738750D02*
X126206250Y-69056250D01*
X119221250Y-68738750D02*
X125888750Y-68738750D01*
X135731250Y-87790000D02*
X135731250Y-89825000D01*
X135413750Y-87788750D02*
X135731250Y-88106250D01*
X135731250Y-88106250D02*
X135731250Y-87790000D01*
X128746250Y-87788750D02*
X135413750Y-87788750D01*
X133508750Y-106838750D02*
X140176250Y-106838750D01*
X140493750Y-108875000D02*
X140493750Y-106840000D01*
X140176250Y-106838750D02*
X140493750Y-107156250D01*
X150017500Y-125888750D02*
X150018750Y-125890000D01*
X150018750Y-125890000D02*
X150018750Y-127925000D01*
X143033750Y-125888750D02*
X150017500Y-125888750D01*
X116681250Y-87790000D02*
X116681250Y-89825000D01*
X116680000Y-87788750D02*
X116681250Y-87790000D01*
X109696250Y-87788750D02*
X116680000Y-87788750D01*
X159542500Y-106838750D02*
X159543750Y-106840000D01*
X152558750Y-106838750D02*
X159542500Y-106838750D01*
X159543750Y-108875000D02*
X159543750Y-106840000D01*
X169067500Y-125888750D02*
X169068750Y-125890000D01*
X162083750Y-125888750D02*
X169067500Y-125888750D01*
X169068750Y-125890000D02*
X169068750Y-127925000D01*
X173831250Y-87790000D02*
X173831250Y-89825000D01*
X173513750Y-87788750D02*
X173831250Y-88106250D01*
X166846250Y-87788750D02*
X173513750Y-87788750D01*
X178592500Y-106838750D02*
X178593750Y-106840000D01*
X178593750Y-106840000D02*
X178593750Y-108875000D01*
X171608750Y-106838750D02*
X178592500Y-106838750D01*
X181133750Y-125888750D02*
X188117500Y-125888750D01*
X188118750Y-125890000D02*
X188118750Y-127925000D01*
X188117500Y-125888750D02*
X188118750Y-125890000D01*
X183356250Y-68758750D02*
X183356250Y-70793750D01*
X176371250Y-68738750D02*
X183336250Y-68738750D01*
X183336250Y-68738750D02*
X183356250Y-68758750D01*
X197643750Y-106840000D02*
X197643750Y-108875000D01*
X197642500Y-106838750D02*
X197643750Y-106840000D01*
X190658750Y-106838750D02*
X197642500Y-106838750D01*
X207168750Y-125890000D02*
X207168750Y-127925000D01*
X200183750Y-125888750D02*
X207167500Y-125888750D01*
X207167500Y-125888750D02*
X207168750Y-125890000D01*
X202406250Y-68758750D02*
X202406250Y-70793750D01*
X195421250Y-68738750D02*
X202386250Y-68738750D01*
X202386250Y-68738750D02*
X202406250Y-68758750D01*
X211930000Y-87788750D02*
X211931250Y-87790000D01*
X211931250Y-87790000D02*
X211931250Y-89825000D01*
X204946250Y-87788750D02*
X211930000Y-87788750D01*
X209708750Y-106838750D02*
X216692500Y-106838750D01*
X216693750Y-108875000D02*
X216693750Y-106840000D01*
X216692500Y-106838750D02*
X216693750Y-106840000D01*
X185896250Y-87788750D02*
X192563750Y-87788750D01*
X192563750Y-87788750D02*
X192881250Y-88106250D01*
X192881250Y-87790000D02*
X192881250Y-89825000D01*
X126206250Y-76378750D02*
X126206250Y-74343750D01*
X278606250Y-76378750D02*
X279629750Y-77402250D01*
X240506250Y-76378750D02*
X240506250Y-74343750D01*
X277582750Y-77402250D02*
X278606250Y-76378750D01*
X164306250Y-76378750D02*
X165329750Y-77402250D01*
X126206250Y-76378750D02*
X127229750Y-77402250D01*
X240506250Y-76378750D02*
X241529750Y-77402250D01*
X202406250Y-76378750D02*
X202406250Y-74343750D01*
X127229750Y-77402250D02*
X163282750Y-77402250D01*
X125182750Y-77402250D02*
X126206250Y-76378750D01*
X315682750Y-77402250D02*
X316706250Y-76378750D01*
X316706250Y-76378750D02*
X316706250Y-74343750D01*
X203429750Y-77402250D02*
X239482750Y-77402250D01*
X239482750Y-77402250D02*
X240506250Y-76378750D01*
X164306250Y-76378750D02*
X164306250Y-74343750D01*
X163282750Y-77402250D02*
X164306250Y-76378750D01*
X88106250Y-76378750D02*
X89129750Y-77402250D01*
X71400000Y-78000000D02*
X86485000Y-78000000D01*
X89129750Y-77402250D02*
X125182750Y-77402250D01*
X241529750Y-77402250D02*
X277582750Y-77402250D01*
X278606250Y-76378750D02*
X278606250Y-74343750D01*
X202406250Y-76378750D02*
X203429750Y-77402250D01*
X86485000Y-78000000D02*
X88106250Y-76378750D01*
X165329750Y-77402250D02*
X201382750Y-77402250D01*
X88106250Y-74343750D02*
X88106250Y-76378750D01*
X201382750Y-77402250D02*
X202406250Y-76378750D01*
X279629750Y-77402250D02*
X315682750Y-77402250D01*
X134707750Y-96433500D02*
X135731250Y-95410000D01*
X173831250Y-95410000D02*
X174854750Y-96433500D01*
X325207750Y-96433500D02*
X326231250Y-95410000D01*
X211931250Y-95410000D02*
X212954750Y-96433500D01*
X172807750Y-96433500D02*
X173831250Y-95410000D01*
X288131250Y-95410000D02*
X288131250Y-93375000D01*
X173831250Y-95410000D02*
X173831250Y-93375000D01*
X135731250Y-95410000D02*
X136754750Y-96433500D01*
X97631250Y-95410000D02*
X98654750Y-96433500D01*
X250031250Y-95410000D02*
X250031250Y-93375000D01*
X249007750Y-96433500D02*
X250031250Y-95410000D01*
X174854750Y-96433500D02*
X210907750Y-96433500D01*
X212954750Y-96433500D02*
X249007750Y-96433500D01*
X135731250Y-95410000D02*
X135731250Y-93375000D01*
X98654750Y-96433500D02*
X134707750Y-96433500D01*
X71400000Y-80540000D02*
X74373759Y-80540000D01*
X87000000Y-93318835D02*
X89091165Y-95410000D01*
X210907750Y-96433500D02*
X211931250Y-95410000D01*
X326231250Y-95410000D02*
X326231250Y-93375000D01*
X251054750Y-96433500D02*
X287107750Y-96433500D01*
X87000000Y-93166241D02*
X87000000Y-93318835D01*
X288131250Y-95410000D02*
X289154750Y-96433500D01*
X250031250Y-95410000D02*
X251054750Y-96433500D01*
X97631250Y-95410000D02*
X97631250Y-93375000D01*
X136754750Y-96433500D02*
X172807750Y-96433500D01*
X211931250Y-95410000D02*
X211931250Y-93375000D01*
X289154750Y-96433500D02*
X325207750Y-96433500D01*
X287107750Y-96433500D02*
X288131250Y-95410000D01*
X74373759Y-80540000D02*
X87000000Y-93166241D01*
X89091165Y-95410000D02*
X97631250Y-95410000D01*
X354806250Y-114460000D02*
X354806250Y-112425000D01*
X140493750Y-114460000D02*
X141517250Y-115483500D01*
X139470250Y-115483500D02*
X140493750Y-114460000D01*
X73000000Y-94000000D02*
X73000000Y-84680000D01*
X293917250Y-115483500D02*
X353782750Y-115483500D01*
X292893750Y-114460000D02*
X292893750Y-112425000D01*
X178593750Y-114460000D02*
X179617250Y-115483500D01*
X291870250Y-115483500D02*
X292893750Y-114460000D01*
X178593750Y-114460000D02*
X178593750Y-112425000D01*
X87163750Y-108163750D02*
X73000000Y-94000000D01*
X140493750Y-114460000D02*
X140493750Y-112425000D01*
X216693750Y-114460000D02*
X217717250Y-115483500D01*
X354842000Y-95410000D02*
X354842000Y-93375000D01*
X253770250Y-115483500D02*
X254793750Y-114460000D01*
X103417250Y-115483500D02*
X139470250Y-115483500D01*
X177570250Y-115483500D02*
X178593750Y-114460000D01*
X141517250Y-115483500D02*
X177570250Y-115483500D01*
X102393750Y-114460000D02*
X103417250Y-115483500D01*
X216693750Y-114460000D02*
X216693750Y-112425000D01*
X215670250Y-115483500D02*
X216693750Y-114460000D01*
X179617250Y-115483500D02*
X215670250Y-115483500D01*
X73000000Y-84680000D02*
X71400000Y-83080000D01*
X254793750Y-114460000D02*
X255817250Y-115483500D01*
X254793750Y-114460000D02*
X254793750Y-112425000D01*
X96097500Y-108163750D02*
X87163750Y-108163750D01*
X353782750Y-115483500D02*
X354806250Y-114460000D01*
X292893750Y-114460000D02*
X293917250Y-115483500D01*
X102393750Y-114460000D02*
X96097500Y-108163750D01*
X255817250Y-115483500D02*
X291870250Y-115483500D01*
X102393750Y-114460000D02*
X102393750Y-112425000D01*
X217717250Y-115483500D02*
X253770250Y-115483500D01*
X188118750Y-133510000D02*
X189142250Y-134533500D01*
X265342250Y-134533500D02*
X301395250Y-134533500D01*
X111918750Y-133510000D02*
X112942250Y-134533500D01*
X187095250Y-134533500D02*
X188118750Y-133510000D01*
X71400000Y-85620000D02*
X71400000Y-119468258D01*
X85441742Y-133510000D02*
X111918750Y-133510000D01*
X148995250Y-134533500D02*
X150018750Y-133510000D01*
X150018750Y-133510000D02*
X150018750Y-131475000D01*
X71400000Y-119468258D02*
X85441742Y-133510000D01*
X303442250Y-134533500D02*
X353782750Y-134533500D01*
X226218750Y-133510000D02*
X227242250Y-134533500D01*
X227242250Y-134533500D02*
X263295250Y-134533500D01*
X354806250Y-133510000D02*
X354806250Y-131475000D01*
X221456250Y-152560000D02*
X221456250Y-150525000D01*
X112942250Y-134533500D02*
X148995250Y-134533500D01*
X189142250Y-134533500D02*
X225195250Y-134533500D01*
X264318750Y-133510000D02*
X264318750Y-131475000D01*
X188118750Y-133510000D02*
X188118750Y-131475000D01*
X302418750Y-133510000D02*
X302418750Y-131475000D01*
X225195250Y-134533500D02*
X226218750Y-133510000D01*
X111918750Y-133510000D02*
X111918750Y-131475000D01*
X263295250Y-134533500D02*
X264318750Y-133510000D01*
X150018750Y-133510000D02*
X151042250Y-134533500D01*
X353782750Y-134533500D02*
X354806250Y-133510000D01*
X151042250Y-134533500D02*
X187095250Y-134533500D01*
X302418750Y-133510000D02*
X303442250Y-134533500D01*
X301395250Y-134533500D02*
X302418750Y-133510000D01*
X264318750Y-133510000D02*
X265342250Y-134533500D01*
X226218750Y-133510000D02*
X226218750Y-131475000D01*
X354806250Y-76378750D02*
X354806250Y-74343750D01*
X128137500Y-73368750D02*
X131147500Y-76378750D01*
X204337500Y-73368750D02*
X207347500Y-76378750D01*
X315906250Y-73368750D02*
X318637500Y-73368750D01*
X221456250Y-76378750D02*
X221456250Y-74343750D01*
X107156250Y-74343750D02*
X107156250Y-76378750D01*
X297906250Y-76378750D02*
X297906250Y-74343750D01*
X239706250Y-73368750D02*
X242437500Y-73368750D01*
X122396250Y-76378750D02*
X125406250Y-73368750D01*
X207347500Y-76378750D02*
X221456250Y-76378750D01*
X335756250Y-76378750D02*
X354806250Y-76378750D01*
X163506250Y-73368750D02*
X166237500Y-73368750D01*
X169247500Y-76378750D02*
X183356250Y-76378750D01*
X236696250Y-76378750D02*
X239706250Y-73368750D01*
X107156250Y-76378750D02*
X122396250Y-76378750D01*
X335756250Y-76378750D02*
X335756250Y-74343750D01*
X321700000Y-82000000D02*
X321700000Y-76431250D01*
X297906250Y-76378750D02*
X312896250Y-76378750D01*
X318637500Y-73368750D02*
X321484375Y-76215625D01*
X183356250Y-76378750D02*
X198596250Y-76378750D01*
X166237500Y-73368750D02*
X169247500Y-76378750D01*
X312896250Y-76378750D02*
X315906250Y-73368750D01*
X321647500Y-76378750D02*
X335756250Y-76378750D01*
X259556250Y-76378750D02*
X259556250Y-74343750D01*
X201606250Y-73368750D02*
X204337500Y-73368750D01*
X160496250Y-76378750D02*
X163506250Y-73368750D01*
X277806250Y-73368750D02*
X279785250Y-73368750D01*
X259556250Y-76378750D02*
X274796250Y-76378750D01*
X183356250Y-76378750D02*
X183356250Y-74343750D01*
X321700000Y-76431250D02*
X321484375Y-76215625D01*
X198596250Y-76378750D02*
X201606250Y-73368750D01*
X245447500Y-76378750D02*
X259556250Y-76378750D01*
X131147500Y-76378750D02*
X145256250Y-76378750D01*
X125406250Y-73368750D02*
X128137500Y-73368750D01*
X274796250Y-76378750D02*
X277806250Y-73368750D01*
X145256250Y-76378750D02*
X160496250Y-76378750D01*
X321484375Y-76215625D02*
X321647500Y-76378750D01*
X282795250Y-76378750D02*
X297906250Y-76378750D01*
X221456250Y-76378750D02*
X236696250Y-76378750D01*
X242437500Y-73368750D02*
X245447500Y-76378750D01*
X145256250Y-76378750D02*
X145256250Y-74343750D01*
X279785250Y-73368750D02*
X282795250Y-76378750D01*
X226218750Y-125890000D02*
X226218750Y-127925000D01*
X226217500Y-125888750D02*
X226218750Y-125890000D01*
X219233750Y-125888750D02*
X226217500Y-125888750D01*
X86816250Y-71278750D02*
X87306250Y-71768750D01*
X93331250Y-71768750D02*
X93821250Y-71278750D01*
X74771250Y-71278750D02*
X86816250Y-71278750D01*
X87306250Y-71768750D02*
X93331250Y-71768750D01*
X125406250Y-71768750D02*
X131431250Y-71768750D01*
X112871250Y-71278750D02*
X124916250Y-71278750D01*
X131431250Y-71768750D02*
X131921250Y-71278750D01*
X124916250Y-71278750D02*
X125406250Y-71768750D01*
X163016250Y-71278750D02*
X163506250Y-71768750D01*
X163506250Y-71768750D02*
X169531250Y-71768750D01*
X169531250Y-71768750D02*
X170021250Y-71278750D01*
X150971250Y-71278750D02*
X163016250Y-71278750D01*
X201116250Y-71278750D02*
X201606250Y-71768750D01*
X207631250Y-71768750D02*
X208121250Y-71278750D01*
X201606250Y-71768750D02*
X207631250Y-71768750D01*
X189071250Y-71278750D02*
X201116250Y-71278750D01*
X245731250Y-71768750D02*
X246221250Y-71278750D01*
X239216250Y-71278750D02*
X239706250Y-71768750D01*
X239706250Y-71768750D02*
X245731250Y-71768750D01*
X227171250Y-71278750D02*
X239216250Y-71278750D01*
X277316250Y-71278750D02*
X277806250Y-71768750D01*
X283831250Y-71768750D02*
X284321250Y-71278750D01*
X265271250Y-71278750D02*
X277316250Y-71278750D01*
X277806250Y-71768750D02*
X283831250Y-71768750D01*
X208121250Y-95410000D02*
X211131250Y-92400000D01*
X316561167Y-84540000D02*
X307181250Y-93919917D01*
X254953750Y-95410000D02*
X269081250Y-95410000D01*
X284321250Y-95410000D02*
X287331250Y-92400000D01*
X116681250Y-95410000D02*
X131921250Y-95410000D01*
X293053750Y-95410000D02*
X307181250Y-95410000D01*
X269081250Y-95410000D02*
X284321250Y-95410000D01*
X170021250Y-95410000D02*
X173031250Y-92400000D01*
X154781250Y-95410000D02*
X170021250Y-95410000D01*
X246221250Y-95410000D02*
X249231250Y-92400000D01*
X175743750Y-92400000D02*
X178753750Y-95410000D01*
X307181250Y-95410000D02*
X307181250Y-93375000D01*
X192881250Y-95410000D02*
X192881250Y-93375000D01*
X249231250Y-92400000D02*
X251943750Y-92400000D01*
X140653750Y-95410000D02*
X154781250Y-95410000D01*
X307181250Y-93919917D02*
X307181250Y-95410000D01*
X269081250Y-93375000D02*
X269081250Y-95410000D01*
X230981250Y-95410000D02*
X230981250Y-93375000D01*
X137643750Y-92400000D02*
X140653750Y-95410000D01*
X154781250Y-95410000D02*
X154781250Y-93375000D01*
X321700000Y-84540000D02*
X316561167Y-84540000D01*
X116681250Y-95410000D02*
X116681250Y-93375000D01*
X131921250Y-95410000D02*
X134931250Y-92400000D01*
X216853750Y-95410000D02*
X230981250Y-95410000D01*
X134931250Y-92400000D02*
X137643750Y-92400000D01*
X211131250Y-92400000D02*
X213843750Y-92400000D01*
X230981250Y-95410000D02*
X246221250Y-95410000D01*
X287331250Y-92400000D02*
X290043750Y-92400000D01*
X192881250Y-95410000D02*
X208121250Y-95410000D01*
X251943750Y-92400000D02*
X254953750Y-95410000D01*
X173031250Y-92400000D02*
X175743750Y-92400000D01*
X178753750Y-95410000D02*
X192881250Y-95410000D01*
X290043750Y-92400000D02*
X293053750Y-95410000D01*
X213843750Y-92400000D02*
X216853750Y-95410000D01*
X235743750Y-114460000D02*
X235743750Y-112425000D01*
X159543750Y-114460000D02*
X159543750Y-112425000D01*
X180506250Y-111450000D02*
X183516250Y-114460000D01*
X212883750Y-114460000D02*
X215893750Y-111450000D01*
X177793750Y-111450000D02*
X180506250Y-111450000D01*
X145256250Y-152560000D02*
X145256250Y-150525000D01*
X289083750Y-114460000D02*
X292093750Y-111450000D01*
X273843750Y-114460000D02*
X289083750Y-114460000D01*
X218796165Y-111450000D02*
X221806165Y-114460000D01*
X116681250Y-152560000D02*
X145256250Y-152560000D01*
X174783750Y-114460000D02*
X177793750Y-111450000D01*
X159543750Y-114460000D02*
X174783750Y-114460000D01*
X221806165Y-114460000D02*
X235743750Y-114460000D01*
X121443750Y-114460000D02*
X136683750Y-114460000D01*
X215893750Y-111450000D02*
X218796165Y-111450000D01*
X250983750Y-114460000D02*
X253993750Y-111450000D01*
X197643750Y-114460000D02*
X212883750Y-114460000D01*
X121443750Y-114460000D02*
X121443750Y-112425000D01*
X259716250Y-114460000D02*
X273843750Y-114460000D01*
X311943750Y-114460000D02*
X311943750Y-112425000D01*
X292093750Y-111450000D02*
X294072750Y-111450000D01*
X145606165Y-114460000D02*
X159543750Y-114460000D01*
X197643750Y-114460000D02*
X197643750Y-112425000D01*
X253993750Y-111450000D02*
X256706250Y-111450000D01*
X294072750Y-111450000D02*
X297082750Y-114460000D01*
X256706250Y-111450000D02*
X259716250Y-114460000D01*
X116681250Y-152560000D02*
X116681250Y-150525000D01*
X183516250Y-114460000D02*
X197643750Y-114460000D01*
X136683750Y-114460000D02*
X139693750Y-111450000D01*
X139693750Y-111450000D02*
X142596165Y-111450000D01*
X273843750Y-114460000D02*
X273843750Y-112425000D01*
X297082750Y-114460000D02*
X311943750Y-114460000D01*
X235743750Y-114460000D02*
X250983750Y-114460000D01*
X142596165Y-111450000D02*
X145606165Y-114460000D01*
X230980000Y-87788750D02*
X230981250Y-87790000D01*
X223996250Y-87788750D02*
X230980000Y-87788750D01*
X230981250Y-89825000D02*
X230981250Y-87790000D01*
X235742500Y-106838750D02*
X235743750Y-106840000D01*
X228758750Y-106838750D02*
X235742500Y-106838750D01*
X235743750Y-108875000D02*
X235743750Y-106840000D01*
X245268750Y-125890000D02*
X245268750Y-127925000D01*
X238283750Y-125888750D02*
X245267500Y-125888750D01*
X245267500Y-125888750D02*
X245268750Y-125890000D01*
X240506250Y-68758750D02*
X240506250Y-70793750D01*
X233521250Y-68738750D02*
X240486250Y-68738750D01*
X240486250Y-68738750D02*
X240506250Y-68758750D01*
X250030000Y-87788750D02*
X250031250Y-87790000D01*
X250031250Y-89825000D02*
X250031250Y-87790000D01*
X243046250Y-87788750D02*
X250030000Y-87788750D01*
X254476250Y-106838750D02*
X254793750Y-107156250D01*
X247808750Y-106838750D02*
X254476250Y-106838750D01*
X254793750Y-108875000D02*
X254793750Y-106840000D01*
X264317500Y-125888750D02*
X264318750Y-125890000D01*
X264318750Y-125890000D02*
X264318750Y-127925000D01*
X257333750Y-125888750D02*
X264317500Y-125888750D01*
X259556250Y-70793750D02*
X259556250Y-69056250D01*
X259536250Y-68738750D02*
X259556250Y-68758750D01*
X252571250Y-68738750D02*
X259536250Y-68738750D01*
X268763750Y-87788750D02*
X269081250Y-88106250D01*
X262096250Y-87788750D02*
X268763750Y-87788750D01*
X269081250Y-89825000D02*
X269081250Y-87790000D01*
X273843750Y-108875000D02*
X273843750Y-106840000D01*
X266858750Y-106838750D02*
X273842500Y-106838750D01*
X273842500Y-106838750D02*
X273843750Y-106840000D01*
X276383750Y-125888750D02*
X283051250Y-125888750D01*
X283051250Y-125888750D02*
X283368750Y-126206250D01*
X283368750Y-125890000D02*
X283368750Y-127925000D01*
X278288750Y-68738750D02*
X278606250Y-69056250D01*
X271621250Y-68738750D02*
X278288750Y-68738750D01*
X278606250Y-70793750D02*
X278606250Y-68758750D01*
X288130000Y-87788750D02*
X288131250Y-87790000D01*
X281146250Y-87788750D02*
X288130000Y-87788750D01*
X288131250Y-89825000D02*
X288131250Y-87790000D01*
X285908750Y-106838750D02*
X292892500Y-106838750D01*
X292892500Y-106838750D02*
X292893750Y-106840000D01*
X292893750Y-108875000D02*
X292893750Y-106840000D01*
X302417500Y-125888750D02*
X302418750Y-125890000D01*
X295433750Y-125888750D02*
X302417500Y-125888750D01*
X302418750Y-125890000D02*
X302418750Y-127925000D01*
X297886250Y-68738750D02*
X297906250Y-68758750D01*
X297906250Y-70793750D02*
X297906250Y-68758750D01*
X290671250Y-68738750D02*
X297886250Y-68738750D01*
X307181250Y-89825000D02*
X307181250Y-87790000D01*
X300196250Y-87788750D02*
X307180000Y-87788750D01*
X307180000Y-87788750D02*
X307181250Y-87790000D01*
X304958750Y-106838750D02*
X311942500Y-106838750D01*
X311942500Y-106838750D02*
X311943750Y-106840000D01*
X311943750Y-108875000D02*
X311943750Y-106840000D01*
X335755000Y-125888750D02*
X335756250Y-125890000D01*
X335756250Y-125890000D02*
X335756250Y-127925000D01*
X321627500Y-125888750D02*
X335755000Y-125888750D01*
X309721250Y-68738750D02*
X316686250Y-68738750D01*
X316706250Y-70793750D02*
X316706250Y-68758750D01*
X316686250Y-68738750D02*
X316706250Y-68758750D01*
X326231250Y-89825000D02*
X326231250Y-87790000D01*
X319246250Y-87788750D02*
X326230000Y-87788750D01*
X326230000Y-87788750D02*
X326231250Y-87790000D01*
X335915000Y-106838750D02*
X354805000Y-106838750D01*
X354805000Y-106838750D02*
X354806250Y-106840000D01*
X354806250Y-106840000D02*
X354806250Y-108875000D01*
X354805000Y-125888750D02*
X354806250Y-125890000D01*
X354806250Y-125890000D02*
X354806250Y-127925000D01*
X347821250Y-125888750D02*
X354805000Y-125888750D01*
X335756250Y-70793750D02*
X335756250Y-68758750D01*
X328771250Y-68738750D02*
X335736250Y-68738750D01*
X335736250Y-68738750D02*
X335756250Y-68758750D01*
X145255000Y-144938750D02*
X145256250Y-144940000D01*
X145256250Y-144940000D02*
X145256250Y-146975000D01*
X133508750Y-144938750D02*
X145255000Y-144938750D01*
X288131250Y-144940000D02*
X288131250Y-146975000D01*
X288130000Y-144938750D02*
X288131250Y-144940000D01*
X276383750Y-144938750D02*
X288130000Y-144938750D01*
X347916500Y-68738750D02*
X354786250Y-68738750D01*
X354806250Y-70793750D02*
X354806250Y-69056250D01*
X354786250Y-68738750D02*
X354806250Y-68758750D01*
X116681250Y-144940000D02*
X116681250Y-146975000D01*
X109696250Y-144938750D02*
X116680000Y-144938750D01*
X116680000Y-144938750D02*
X116681250Y-144940000D01*
X300196250Y-144938750D02*
X307180000Y-144938750D01*
X307181250Y-144940000D02*
X307181250Y-146975000D01*
X307180000Y-144938750D02*
X307181250Y-144940000D01*
X303371250Y-71278750D02*
X315416250Y-71278750D01*
X143985000Y-147478750D02*
X150089750Y-153583500D01*
X150089750Y-153583500D02*
X263135250Y-153583500D01*
X269240000Y-147478750D02*
X270033750Y-147478750D01*
X315416250Y-71278750D02*
X315906250Y-71768750D01*
X315906250Y-71768750D02*
X321931250Y-71768750D01*
X263135250Y-153583500D02*
X269240000Y-147478750D01*
X127158750Y-147478750D02*
X143985000Y-147478750D01*
X321931250Y-71768750D02*
X322421250Y-71278750D01*
X343094500Y-87788750D02*
X354840750Y-87788750D01*
X352590750Y-87788750D02*
X352592000Y-87790000D01*
X354840750Y-87788750D02*
X354842000Y-87790000D01*
X354842000Y-87790000D02*
X354842000Y-89825000D01*
X207168750Y-133510000D02*
X207168750Y-131475000D01*
X245268750Y-133510000D02*
X245268750Y-131475000D01*
X298608750Y-133510000D02*
X301618750Y-130500000D01*
X311475000Y-130500000D02*
X311537500Y-130562500D01*
X283368750Y-133510000D02*
X298608750Y-133510000D01*
X260508750Y-133510000D02*
X263518750Y-130500000D01*
X314485000Y-133510000D02*
X335756250Y-133510000D01*
X130968750Y-133510000D02*
X130968750Y-131475000D01*
X263518750Y-130500000D02*
X266421165Y-130500000D01*
X269431165Y-133510000D02*
X283368750Y-133510000D01*
X225418750Y-130500000D02*
X228321165Y-130500000D01*
X130968750Y-133510000D02*
X146208750Y-133510000D01*
X311537500Y-130562500D02*
X314485000Y-133510000D01*
X207168750Y-133510000D02*
X222408750Y-133510000D01*
X288131250Y-152560000D02*
X307181250Y-152560000D01*
X169068750Y-133510000D02*
X169068750Y-131475000D01*
X301618750Y-130500000D02*
X311475000Y-130500000D01*
X288131250Y-152560000D02*
X288131250Y-150525000D01*
X266421165Y-130500000D02*
X269431165Y-133510000D01*
X222408750Y-133510000D02*
X225418750Y-130500000D01*
X149218750Y-130500000D02*
X151931250Y-130500000D01*
X169068750Y-133510000D02*
X184308750Y-133510000D01*
X154941250Y-133510000D02*
X169068750Y-133510000D01*
X231331165Y-133510000D02*
X245268750Y-133510000D01*
X151931250Y-130500000D02*
X154941250Y-133510000D01*
X307181250Y-152560000D02*
X307181250Y-150525000D01*
X228321165Y-130500000D02*
X231331165Y-133510000D01*
X190221165Y-130500000D02*
X193231165Y-133510000D01*
X187318750Y-130500000D02*
X190221165Y-130500000D01*
X245268750Y-133510000D02*
X260508750Y-133510000D01*
X283368750Y-133510000D02*
X283368750Y-131475000D01*
X184308750Y-133510000D02*
X187318750Y-130500000D01*
X335756250Y-133510000D02*
X335756250Y-131475000D01*
X193231165Y-133510000D02*
X207168750Y-133510000D01*
X146208750Y-133510000D02*
X149218750Y-130500000D01*
X204946250Y-144938750D02*
X221455000Y-144938750D01*
X221455000Y-144938750D02*
X221456250Y-144940000D01*
X221456250Y-144940000D02*
X221456250Y-146975000D01*
X152241250Y-147478750D02*
X198596250Y-147478750D01*
X103346250Y-147478750D02*
X107950000Y-142875000D01*
X300355000Y-66043750D02*
X336331500Y-66043750D01*
X293846250Y-147346250D02*
X286500000Y-140000000D01*
X206075000Y-140000000D02*
X198596250Y-147478750D01*
X286500000Y-140000000D02*
X206075000Y-140000000D01*
X293375000Y-147950000D02*
X293846250Y-147478750D01*
X147637500Y-142875000D02*
X152241250Y-147478750D01*
X107950000Y-142875000D02*
X147637500Y-142875000D01*
X293846250Y-147478750D02*
X293846250Y-147346250D01*
X336331500Y-66043750D02*
X341566500Y-71278750D01*
M02*
