G04 #@! TF.GenerationSoftware,KiCad,Pcbnew,(6.0.11)*
G04 #@! TF.CreationDate,2024-11-25T11:34:00+09:00*
G04 #@! TF.ProjectId,Flame60_PCB_Layer1,466c616d-6536-4305-9f50-43425f4c6179,rev?*
G04 #@! TF.SameCoordinates,Original*
G04 #@! TF.FileFunction,Legend,Bot*
G04 #@! TF.FilePolarity,Positive*
%FSLAX46Y46*%
G04 Gerber Fmt 4.6, Leading zero omitted, Abs format (unit mm)*
G04 Created by KiCad (PCBNEW (6.0.11)) date 2024-11-25 11:34:00*
%MOMM*%
%LPD*%
G01*
G04 APERTURE LIST*
%ADD10C,0.150000*%
%ADD11C,0.120000*%
%ADD12R,1.397000X1.397000*%
%ADD13C,1.397000*%
G04 APERTURE END LIST*
D10*
X345820773Y-126293511D02*
X345677916Y-126341130D01*
X345439821Y-126341130D01*
X345344583Y-126293511D01*
X345296964Y-126245892D01*
X345249345Y-126150654D01*
X345249345Y-126055416D01*
X345296964Y-125960178D01*
X345344583Y-125912559D01*
X345439821Y-125864940D01*
X345630297Y-125817321D01*
X345725535Y-125769702D01*
X345773154Y-125722083D01*
X345820773Y-125626845D01*
X345820773Y-125531607D01*
X345773154Y-125436369D01*
X345725535Y-125388750D01*
X345630297Y-125341130D01*
X345392202Y-125341130D01*
X345249345Y-125388750D01*
X344916011Y-125341130D02*
X344677916Y-126341130D01*
X344487440Y-125626845D01*
X344296964Y-126341130D01*
X344058869Y-125341130D01*
X343201726Y-125341130D02*
X343677916Y-125341130D01*
X343725535Y-125817321D01*
X343677916Y-125769702D01*
X343582678Y-125722083D01*
X343344583Y-125722083D01*
X343249345Y-125769702D01*
X343201726Y-125817321D01*
X343154107Y-125912559D01*
X343154107Y-126150654D01*
X343201726Y-126245892D01*
X343249345Y-126293511D01*
X343344583Y-126341130D01*
X343582678Y-126341130D01*
X343677916Y-126293511D01*
X343725535Y-126245892D01*
X342773154Y-125436369D02*
X342725535Y-125388750D01*
X342630297Y-125341130D01*
X342392202Y-125341130D01*
X342296964Y-125388750D01*
X342249345Y-125436369D01*
X342201726Y-125531607D01*
X342201726Y-125626845D01*
X342249345Y-125769702D01*
X342820773Y-126341130D01*
X342201726Y-126341130D01*
X83407083Y-88193511D02*
X83264226Y-88241130D01*
X83026130Y-88241130D01*
X82930892Y-88193511D01*
X82883273Y-88145892D01*
X82835654Y-88050654D01*
X82835654Y-87955416D01*
X82883273Y-87860178D01*
X82930892Y-87812559D01*
X83026130Y-87764940D01*
X83216607Y-87717321D01*
X83311845Y-87669702D01*
X83359464Y-87622083D01*
X83407083Y-87526845D01*
X83407083Y-87431607D01*
X83359464Y-87336369D01*
X83311845Y-87288750D01*
X83216607Y-87241130D01*
X82978511Y-87241130D01*
X82835654Y-87288750D01*
X82502321Y-87241130D02*
X82264226Y-88241130D01*
X82073750Y-87526845D01*
X81883273Y-88241130D01*
X81645178Y-87241130D01*
X81311845Y-87336369D02*
X81264226Y-87288750D01*
X81168988Y-87241130D01*
X80930892Y-87241130D01*
X80835654Y-87288750D01*
X80788035Y-87336369D01*
X80740416Y-87431607D01*
X80740416Y-87526845D01*
X80788035Y-87669702D01*
X81359464Y-88241130D01*
X80740416Y-88241130D01*
X155320773Y-69143511D02*
X155177916Y-69191130D01*
X154939821Y-69191130D01*
X154844583Y-69143511D01*
X154796964Y-69095892D01*
X154749345Y-69000654D01*
X154749345Y-68905416D01*
X154796964Y-68810178D01*
X154844583Y-68762559D01*
X154939821Y-68714940D01*
X155130297Y-68667321D01*
X155225535Y-68619702D01*
X155273154Y-68572083D01*
X155320773Y-68476845D01*
X155320773Y-68381607D01*
X155273154Y-68286369D01*
X155225535Y-68238750D01*
X155130297Y-68191130D01*
X154892202Y-68191130D01*
X154749345Y-68238750D01*
X154416011Y-68191130D02*
X154177916Y-69191130D01*
X153987440Y-68476845D01*
X153796964Y-69191130D01*
X153558869Y-68191130D01*
X152654107Y-69191130D02*
X153225535Y-69191130D01*
X152939821Y-69191130D02*
X152939821Y-68191130D01*
X153035059Y-68333988D01*
X153130297Y-68429226D01*
X153225535Y-68476845D01*
X152320773Y-68191130D02*
X151654107Y-68191130D01*
X152082678Y-69191130D01*
X85788333Y-107243511D02*
X85645476Y-107291130D01*
X85407380Y-107291130D01*
X85312142Y-107243511D01*
X85264523Y-107195892D01*
X85216904Y-107100654D01*
X85216904Y-107005416D01*
X85264523Y-106910178D01*
X85312142Y-106862559D01*
X85407380Y-106814940D01*
X85597857Y-106767321D01*
X85693095Y-106719702D01*
X85740714Y-106672083D01*
X85788333Y-106576845D01*
X85788333Y-106481607D01*
X85740714Y-106386369D01*
X85693095Y-106338750D01*
X85597857Y-106291130D01*
X85359761Y-106291130D01*
X85216904Y-106338750D01*
X84883571Y-106291130D02*
X84645476Y-107291130D01*
X84455000Y-106576845D01*
X84264523Y-107291130D01*
X84026428Y-106291130D01*
X83740714Y-106291130D02*
X83121666Y-106291130D01*
X83455000Y-106672083D01*
X83312142Y-106672083D01*
X83216904Y-106719702D01*
X83169285Y-106767321D01*
X83121666Y-106862559D01*
X83121666Y-107100654D01*
X83169285Y-107195892D01*
X83216904Y-107243511D01*
X83312142Y-107291130D01*
X83597857Y-107291130D01*
X83693095Y-107243511D01*
X83740714Y-107195892D01*
X111982083Y-107243511D02*
X111839226Y-107291130D01*
X111601130Y-107291130D01*
X111505892Y-107243511D01*
X111458273Y-107195892D01*
X111410654Y-107100654D01*
X111410654Y-107005416D01*
X111458273Y-106910178D01*
X111505892Y-106862559D01*
X111601130Y-106814940D01*
X111791607Y-106767321D01*
X111886845Y-106719702D01*
X111934464Y-106672083D01*
X111982083Y-106576845D01*
X111982083Y-106481607D01*
X111934464Y-106386369D01*
X111886845Y-106338750D01*
X111791607Y-106291130D01*
X111553511Y-106291130D01*
X111410654Y-106338750D01*
X111077321Y-106291130D02*
X110839226Y-107291130D01*
X110648750Y-106576845D01*
X110458273Y-107291130D01*
X110220178Y-106291130D01*
X109934464Y-106291130D02*
X109267797Y-106291130D01*
X109696369Y-107291130D01*
X250570773Y-69143511D02*
X250427916Y-69191130D01*
X250189821Y-69191130D01*
X250094583Y-69143511D01*
X250046964Y-69095892D01*
X249999345Y-69000654D01*
X249999345Y-68905416D01*
X250046964Y-68810178D01*
X250094583Y-68762559D01*
X250189821Y-68714940D01*
X250380297Y-68667321D01*
X250475535Y-68619702D01*
X250523154Y-68572083D01*
X250570773Y-68476845D01*
X250570773Y-68381607D01*
X250523154Y-68286369D01*
X250475535Y-68238750D01*
X250380297Y-68191130D01*
X250142202Y-68191130D01*
X249999345Y-68238750D01*
X249666011Y-68191130D02*
X249427916Y-69191130D01*
X249237440Y-68476845D01*
X249046964Y-69191130D01*
X248808869Y-68191130D01*
X248523154Y-68191130D02*
X247904107Y-68191130D01*
X248237440Y-68572083D01*
X248094583Y-68572083D01*
X247999345Y-68619702D01*
X247951726Y-68667321D01*
X247904107Y-68762559D01*
X247904107Y-69000654D01*
X247951726Y-69095892D01*
X247999345Y-69143511D01*
X248094583Y-69191130D01*
X248380297Y-69191130D01*
X248475535Y-69143511D01*
X248523154Y-69095892D01*
X247570773Y-68191130D02*
X246904107Y-68191130D01*
X247332678Y-69191130D01*
X333914523Y-107243511D02*
X333771666Y-107291130D01*
X333533571Y-107291130D01*
X333438333Y-107243511D01*
X333390714Y-107195892D01*
X333343095Y-107100654D01*
X333343095Y-107005416D01*
X333390714Y-106910178D01*
X333438333Y-106862559D01*
X333533571Y-106814940D01*
X333724047Y-106767321D01*
X333819285Y-106719702D01*
X333866904Y-106672083D01*
X333914523Y-106576845D01*
X333914523Y-106481607D01*
X333866904Y-106386369D01*
X333819285Y-106338750D01*
X333724047Y-106291130D01*
X333485952Y-106291130D01*
X333343095Y-106338750D01*
X333009761Y-106291130D02*
X332771666Y-107291130D01*
X332581190Y-106576845D01*
X332390714Y-107291130D01*
X332152619Y-106291130D01*
X331295476Y-106291130D02*
X331771666Y-106291130D01*
X331819285Y-106767321D01*
X331771666Y-106719702D01*
X331676428Y-106672083D01*
X331438333Y-106672083D01*
X331343095Y-106719702D01*
X331295476Y-106767321D01*
X331247857Y-106862559D01*
X331247857Y-107100654D01*
X331295476Y-107195892D01*
X331343095Y-107243511D01*
X331438333Y-107291130D01*
X331676428Y-107291130D01*
X331771666Y-107243511D01*
X331819285Y-107195892D01*
X330295476Y-107291130D02*
X330866904Y-107291130D01*
X330581190Y-107291130D02*
X330581190Y-106291130D01*
X330676428Y-106433988D01*
X330771666Y-106529226D01*
X330866904Y-106576845D01*
X298195773Y-88193511D02*
X298052916Y-88241130D01*
X297814821Y-88241130D01*
X297719583Y-88193511D01*
X297671964Y-88145892D01*
X297624345Y-88050654D01*
X297624345Y-87955416D01*
X297671964Y-87860178D01*
X297719583Y-87812559D01*
X297814821Y-87764940D01*
X298005297Y-87717321D01*
X298100535Y-87669702D01*
X298148154Y-87622083D01*
X298195773Y-87526845D01*
X298195773Y-87431607D01*
X298148154Y-87336369D01*
X298100535Y-87288750D01*
X298005297Y-87241130D01*
X297767202Y-87241130D01*
X297624345Y-87288750D01*
X297291011Y-87241130D02*
X297052916Y-88241130D01*
X296862440Y-87526845D01*
X296671964Y-88241130D01*
X296433869Y-87241130D01*
X295624345Y-87574464D02*
X295624345Y-88241130D01*
X295862440Y-87193511D02*
X296100535Y-87907797D01*
X295481488Y-87907797D01*
X294671964Y-87241130D02*
X294862440Y-87241130D01*
X294957678Y-87288750D01*
X295005297Y-87336369D01*
X295100535Y-87479226D01*
X295148154Y-87669702D01*
X295148154Y-88050654D01*
X295100535Y-88145892D01*
X295052916Y-88193511D01*
X294957678Y-88241130D01*
X294767202Y-88241130D01*
X294671964Y-88193511D01*
X294624345Y-88145892D01*
X294576726Y-88050654D01*
X294576726Y-87812559D01*
X294624345Y-87717321D01*
X294671964Y-87669702D01*
X294767202Y-87622083D01*
X294957678Y-87622083D01*
X295052916Y-87669702D01*
X295100535Y-87717321D01*
X295148154Y-87812559D01*
X121507083Y-126293511D02*
X121364226Y-126341130D01*
X121126130Y-126341130D01*
X121030892Y-126293511D01*
X120983273Y-126245892D01*
X120935654Y-126150654D01*
X120935654Y-126055416D01*
X120983273Y-125960178D01*
X121030892Y-125912559D01*
X121126130Y-125864940D01*
X121316607Y-125817321D01*
X121411845Y-125769702D01*
X121459464Y-125722083D01*
X121507083Y-125626845D01*
X121507083Y-125531607D01*
X121459464Y-125436369D01*
X121411845Y-125388750D01*
X121316607Y-125341130D01*
X121078511Y-125341130D01*
X120935654Y-125388750D01*
X120602321Y-125341130D02*
X120364226Y-126341130D01*
X120173750Y-125626845D01*
X119983273Y-126341130D01*
X119745178Y-125341130D01*
X119221369Y-125769702D02*
X119316607Y-125722083D01*
X119364226Y-125674464D01*
X119411845Y-125579226D01*
X119411845Y-125531607D01*
X119364226Y-125436369D01*
X119316607Y-125388750D01*
X119221369Y-125341130D01*
X119030892Y-125341130D01*
X118935654Y-125388750D01*
X118888035Y-125436369D01*
X118840416Y-125531607D01*
X118840416Y-125579226D01*
X118888035Y-125674464D01*
X118935654Y-125722083D01*
X119030892Y-125769702D01*
X119221369Y-125769702D01*
X119316607Y-125817321D01*
X119364226Y-125864940D01*
X119411845Y-125960178D01*
X119411845Y-126150654D01*
X119364226Y-126245892D01*
X119316607Y-126293511D01*
X119221369Y-126341130D01*
X119030892Y-126341130D01*
X118935654Y-126293511D01*
X118888035Y-126245892D01*
X118840416Y-126150654D01*
X118840416Y-125960178D01*
X118888035Y-125864940D01*
X118935654Y-125817321D01*
X119030892Y-125769702D01*
X131508273Y-107243511D02*
X131365416Y-107291130D01*
X131127321Y-107291130D01*
X131032083Y-107243511D01*
X130984464Y-107195892D01*
X130936845Y-107100654D01*
X130936845Y-107005416D01*
X130984464Y-106910178D01*
X131032083Y-106862559D01*
X131127321Y-106814940D01*
X131317797Y-106767321D01*
X131413035Y-106719702D01*
X131460654Y-106672083D01*
X131508273Y-106576845D01*
X131508273Y-106481607D01*
X131460654Y-106386369D01*
X131413035Y-106338750D01*
X131317797Y-106291130D01*
X131079702Y-106291130D01*
X130936845Y-106338750D01*
X130603511Y-106291130D02*
X130365416Y-107291130D01*
X130174940Y-106576845D01*
X129984464Y-107291130D01*
X129746369Y-106291130D01*
X128841607Y-107291130D02*
X129413035Y-107291130D01*
X129127321Y-107291130D02*
X129127321Y-106291130D01*
X129222559Y-106433988D01*
X129317797Y-106529226D01*
X129413035Y-106576845D01*
X127889226Y-107291130D02*
X128460654Y-107291130D01*
X128174940Y-107291130D02*
X128174940Y-106291130D01*
X128270178Y-106433988D01*
X128365416Y-106529226D01*
X128460654Y-106576845D01*
X274383273Y-126293511D02*
X274240416Y-126341130D01*
X274002321Y-126341130D01*
X273907083Y-126293511D01*
X273859464Y-126245892D01*
X273811845Y-126150654D01*
X273811845Y-126055416D01*
X273859464Y-125960178D01*
X273907083Y-125912559D01*
X274002321Y-125864940D01*
X274192797Y-125817321D01*
X274288035Y-125769702D01*
X274335654Y-125722083D01*
X274383273Y-125626845D01*
X274383273Y-125531607D01*
X274335654Y-125436369D01*
X274288035Y-125388750D01*
X274192797Y-125341130D01*
X273954702Y-125341130D01*
X273811845Y-125388750D01*
X273478511Y-125341130D02*
X273240416Y-126341130D01*
X273049940Y-125626845D01*
X272859464Y-126341130D01*
X272621369Y-125341130D01*
X271811845Y-125674464D02*
X271811845Y-126341130D01*
X272049940Y-125293511D02*
X272288035Y-126007797D01*
X271668988Y-126007797D01*
X271097559Y-125341130D02*
X271002321Y-125341130D01*
X270907083Y-125388750D01*
X270859464Y-125436369D01*
X270811845Y-125531607D01*
X270764226Y-125722083D01*
X270764226Y-125960178D01*
X270811845Y-126150654D01*
X270859464Y-126245892D01*
X270907083Y-126293511D01*
X271002321Y-126341130D01*
X271097559Y-126341130D01*
X271192797Y-126293511D01*
X271240416Y-126245892D01*
X271288035Y-126150654D01*
X271335654Y-125960178D01*
X271335654Y-125722083D01*
X271288035Y-125531607D01*
X271240416Y-125436369D01*
X271192797Y-125388750D01*
X271097559Y-125341130D01*
X141033273Y-126293511D02*
X140890416Y-126341130D01*
X140652321Y-126341130D01*
X140557083Y-126293511D01*
X140509464Y-126245892D01*
X140461845Y-126150654D01*
X140461845Y-126055416D01*
X140509464Y-125960178D01*
X140557083Y-125912559D01*
X140652321Y-125864940D01*
X140842797Y-125817321D01*
X140938035Y-125769702D01*
X140985654Y-125722083D01*
X141033273Y-125626845D01*
X141033273Y-125531607D01*
X140985654Y-125436369D01*
X140938035Y-125388750D01*
X140842797Y-125341130D01*
X140604702Y-125341130D01*
X140461845Y-125388750D01*
X140128511Y-125341130D02*
X139890416Y-126341130D01*
X139699940Y-125626845D01*
X139509464Y-126341130D01*
X139271369Y-125341130D01*
X138366607Y-126341130D02*
X138938035Y-126341130D01*
X138652321Y-126341130D02*
X138652321Y-125341130D01*
X138747559Y-125483988D01*
X138842797Y-125579226D01*
X138938035Y-125626845D01*
X137985654Y-125436369D02*
X137938035Y-125388750D01*
X137842797Y-125341130D01*
X137604702Y-125341130D01*
X137509464Y-125388750D01*
X137461845Y-125436369D01*
X137414226Y-125531607D01*
X137414226Y-125626845D01*
X137461845Y-125769702D01*
X138033273Y-126341130D01*
X137414226Y-126341130D01*
X236283273Y-126293511D02*
X236140416Y-126341130D01*
X235902321Y-126341130D01*
X235807083Y-126293511D01*
X235759464Y-126245892D01*
X235711845Y-126150654D01*
X235711845Y-126055416D01*
X235759464Y-125960178D01*
X235807083Y-125912559D01*
X235902321Y-125864940D01*
X236092797Y-125817321D01*
X236188035Y-125769702D01*
X236235654Y-125722083D01*
X236283273Y-125626845D01*
X236283273Y-125531607D01*
X236235654Y-125436369D01*
X236188035Y-125388750D01*
X236092797Y-125341130D01*
X235854702Y-125341130D01*
X235711845Y-125388750D01*
X235378511Y-125341130D02*
X235140416Y-126341130D01*
X234949940Y-125626845D01*
X234759464Y-126341130D01*
X234521369Y-125341130D01*
X234235654Y-125341130D02*
X233616607Y-125341130D01*
X233949940Y-125722083D01*
X233807083Y-125722083D01*
X233711845Y-125769702D01*
X233664226Y-125817321D01*
X233616607Y-125912559D01*
X233616607Y-126150654D01*
X233664226Y-126245892D01*
X233711845Y-126293511D01*
X233807083Y-126341130D01*
X234092797Y-126341130D01*
X234188035Y-126293511D01*
X234235654Y-126245892D01*
X233235654Y-125436369D02*
X233188035Y-125388750D01*
X233092797Y-125341130D01*
X232854702Y-125341130D01*
X232759464Y-125388750D01*
X232711845Y-125436369D01*
X232664226Y-125531607D01*
X232664226Y-125626845D01*
X232711845Y-125769702D01*
X233283273Y-126341130D01*
X232664226Y-126341130D01*
X97694583Y-69143511D02*
X97551726Y-69191130D01*
X97313630Y-69191130D01*
X97218392Y-69143511D01*
X97170773Y-69095892D01*
X97123154Y-69000654D01*
X97123154Y-68905416D01*
X97170773Y-68810178D01*
X97218392Y-68762559D01*
X97313630Y-68714940D01*
X97504107Y-68667321D01*
X97599345Y-68619702D01*
X97646964Y-68572083D01*
X97694583Y-68476845D01*
X97694583Y-68381607D01*
X97646964Y-68286369D01*
X97599345Y-68238750D01*
X97504107Y-68191130D01*
X97266011Y-68191130D01*
X97123154Y-68238750D01*
X96789821Y-68191130D02*
X96551726Y-69191130D01*
X96361250Y-68476845D01*
X96170773Y-69191130D01*
X95932678Y-68191130D01*
X95075535Y-68191130D02*
X95551726Y-68191130D01*
X95599345Y-68667321D01*
X95551726Y-68619702D01*
X95456488Y-68572083D01*
X95218392Y-68572083D01*
X95123154Y-68619702D01*
X95075535Y-68667321D01*
X95027916Y-68762559D01*
X95027916Y-69000654D01*
X95075535Y-69095892D01*
X95123154Y-69143511D01*
X95218392Y-69191130D01*
X95456488Y-69191130D01*
X95551726Y-69143511D01*
X95599345Y-69095892D01*
X283908273Y-107243511D02*
X283765416Y-107291130D01*
X283527321Y-107291130D01*
X283432083Y-107243511D01*
X283384464Y-107195892D01*
X283336845Y-107100654D01*
X283336845Y-107005416D01*
X283384464Y-106910178D01*
X283432083Y-106862559D01*
X283527321Y-106814940D01*
X283717797Y-106767321D01*
X283813035Y-106719702D01*
X283860654Y-106672083D01*
X283908273Y-106576845D01*
X283908273Y-106481607D01*
X283860654Y-106386369D01*
X283813035Y-106338750D01*
X283717797Y-106291130D01*
X283479702Y-106291130D01*
X283336845Y-106338750D01*
X283003511Y-106291130D02*
X282765416Y-107291130D01*
X282574940Y-106576845D01*
X282384464Y-107291130D01*
X282146369Y-106291130D01*
X281336845Y-106624464D02*
X281336845Y-107291130D01*
X281574940Y-106243511D02*
X281813035Y-106957797D01*
X281193988Y-106957797D01*
X280908273Y-106291130D02*
X280289226Y-106291130D01*
X280622559Y-106672083D01*
X280479702Y-106672083D01*
X280384464Y-106719702D01*
X280336845Y-106767321D01*
X280289226Y-106862559D01*
X280289226Y-107100654D01*
X280336845Y-107195892D01*
X280384464Y-107243511D01*
X280479702Y-107291130D01*
X280765416Y-107291130D01*
X280860654Y-107243511D01*
X280908273Y-107195892D01*
X78644583Y-69143511D02*
X78501726Y-69191130D01*
X78263630Y-69191130D01*
X78168392Y-69143511D01*
X78120773Y-69095892D01*
X78073154Y-69000654D01*
X78073154Y-68905416D01*
X78120773Y-68810178D01*
X78168392Y-68762559D01*
X78263630Y-68714940D01*
X78454107Y-68667321D01*
X78549345Y-68619702D01*
X78596964Y-68572083D01*
X78644583Y-68476845D01*
X78644583Y-68381607D01*
X78596964Y-68286369D01*
X78549345Y-68238750D01*
X78454107Y-68191130D01*
X78216011Y-68191130D01*
X78073154Y-68238750D01*
X77739821Y-68191130D02*
X77501726Y-69191130D01*
X77311250Y-68476845D01*
X77120773Y-69191130D01*
X76882678Y-68191130D01*
X75977916Y-69191130D02*
X76549345Y-69191130D01*
X76263630Y-69191130D02*
X76263630Y-68191130D01*
X76358869Y-68333988D01*
X76454107Y-68429226D01*
X76549345Y-68476845D01*
X164845773Y-88193511D02*
X164702916Y-88241130D01*
X164464821Y-88241130D01*
X164369583Y-88193511D01*
X164321964Y-88145892D01*
X164274345Y-88050654D01*
X164274345Y-87955416D01*
X164321964Y-87860178D01*
X164369583Y-87812559D01*
X164464821Y-87764940D01*
X164655297Y-87717321D01*
X164750535Y-87669702D01*
X164798154Y-87622083D01*
X164845773Y-87526845D01*
X164845773Y-87431607D01*
X164798154Y-87336369D01*
X164750535Y-87288750D01*
X164655297Y-87241130D01*
X164417202Y-87241130D01*
X164274345Y-87288750D01*
X163941011Y-87241130D02*
X163702916Y-88241130D01*
X163512440Y-87526845D01*
X163321964Y-88241130D01*
X163083869Y-87241130D01*
X162179107Y-88241130D02*
X162750535Y-88241130D01*
X162464821Y-88241130D02*
X162464821Y-87241130D01*
X162560059Y-87383988D01*
X162655297Y-87479226D01*
X162750535Y-87526845D01*
X161607678Y-87669702D02*
X161702916Y-87622083D01*
X161750535Y-87574464D01*
X161798154Y-87479226D01*
X161798154Y-87431607D01*
X161750535Y-87336369D01*
X161702916Y-87288750D01*
X161607678Y-87241130D01*
X161417202Y-87241130D01*
X161321964Y-87288750D01*
X161274345Y-87336369D01*
X161226726Y-87431607D01*
X161226726Y-87479226D01*
X161274345Y-87574464D01*
X161321964Y-87622083D01*
X161417202Y-87669702D01*
X161607678Y-87669702D01*
X161702916Y-87717321D01*
X161750535Y-87764940D01*
X161798154Y-87860178D01*
X161798154Y-88050654D01*
X161750535Y-88145892D01*
X161702916Y-88193511D01*
X161607678Y-88241130D01*
X161417202Y-88241130D01*
X161321964Y-88193511D01*
X161274345Y-88145892D01*
X161226726Y-88050654D01*
X161226726Y-87860178D01*
X161274345Y-87764940D01*
X161321964Y-87717321D01*
X161417202Y-87669702D01*
X212470773Y-69143511D02*
X212327916Y-69191130D01*
X212089821Y-69191130D01*
X211994583Y-69143511D01*
X211946964Y-69095892D01*
X211899345Y-69000654D01*
X211899345Y-68905416D01*
X211946964Y-68810178D01*
X211994583Y-68762559D01*
X212089821Y-68714940D01*
X212280297Y-68667321D01*
X212375535Y-68619702D01*
X212423154Y-68572083D01*
X212470773Y-68476845D01*
X212470773Y-68381607D01*
X212423154Y-68286369D01*
X212375535Y-68238750D01*
X212280297Y-68191130D01*
X212042202Y-68191130D01*
X211899345Y-68238750D01*
X211566011Y-68191130D02*
X211327916Y-69191130D01*
X211137440Y-68476845D01*
X210946964Y-69191130D01*
X210708869Y-68191130D01*
X210375535Y-68286369D02*
X210327916Y-68238750D01*
X210232678Y-68191130D01*
X209994583Y-68191130D01*
X209899345Y-68238750D01*
X209851726Y-68286369D01*
X209804107Y-68381607D01*
X209804107Y-68476845D01*
X209851726Y-68619702D01*
X210423154Y-69191130D01*
X209804107Y-69191130D01*
X209327916Y-69191130D02*
X209137440Y-69191130D01*
X209042202Y-69143511D01*
X208994583Y-69095892D01*
X208899345Y-68953035D01*
X208851726Y-68762559D01*
X208851726Y-68381607D01*
X208899345Y-68286369D01*
X208946964Y-68238750D01*
X209042202Y-68191130D01*
X209232678Y-68191130D01*
X209327916Y-68238750D01*
X209375535Y-68286369D01*
X209423154Y-68381607D01*
X209423154Y-68619702D01*
X209375535Y-68714940D01*
X209327916Y-68762559D01*
X209232678Y-68810178D01*
X209042202Y-68810178D01*
X208946964Y-68762559D01*
X208899345Y-68714940D01*
X208851726Y-68619702D01*
X221995773Y-88193511D02*
X221852916Y-88241130D01*
X221614821Y-88241130D01*
X221519583Y-88193511D01*
X221471964Y-88145892D01*
X221424345Y-88050654D01*
X221424345Y-87955416D01*
X221471964Y-87860178D01*
X221519583Y-87812559D01*
X221614821Y-87764940D01*
X221805297Y-87717321D01*
X221900535Y-87669702D01*
X221948154Y-87622083D01*
X221995773Y-87526845D01*
X221995773Y-87431607D01*
X221948154Y-87336369D01*
X221900535Y-87288750D01*
X221805297Y-87241130D01*
X221567202Y-87241130D01*
X221424345Y-87288750D01*
X221091011Y-87241130D02*
X220852916Y-88241130D01*
X220662440Y-87526845D01*
X220471964Y-88241130D01*
X220233869Y-87241130D01*
X219948154Y-87241130D02*
X219329107Y-87241130D01*
X219662440Y-87622083D01*
X219519583Y-87622083D01*
X219424345Y-87669702D01*
X219376726Y-87717321D01*
X219329107Y-87812559D01*
X219329107Y-88050654D01*
X219376726Y-88145892D01*
X219424345Y-88193511D01*
X219519583Y-88241130D01*
X219805297Y-88241130D01*
X219900535Y-88193511D01*
X219948154Y-88145892D01*
X218710059Y-87241130D02*
X218614821Y-87241130D01*
X218519583Y-87288750D01*
X218471964Y-87336369D01*
X218424345Y-87431607D01*
X218376726Y-87622083D01*
X218376726Y-87860178D01*
X218424345Y-88050654D01*
X218471964Y-88145892D01*
X218519583Y-88193511D01*
X218614821Y-88241130D01*
X218710059Y-88241130D01*
X218805297Y-88193511D01*
X218852916Y-88145892D01*
X218900535Y-88050654D01*
X218948154Y-87860178D01*
X218948154Y-87622083D01*
X218900535Y-87431607D01*
X218852916Y-87336369D01*
X218805297Y-87288750D01*
X218710059Y-87241130D01*
X131508273Y-145343511D02*
X131365416Y-145391130D01*
X131127321Y-145391130D01*
X131032083Y-145343511D01*
X130984464Y-145295892D01*
X130936845Y-145200654D01*
X130936845Y-145105416D01*
X130984464Y-145010178D01*
X131032083Y-144962559D01*
X131127321Y-144914940D01*
X131317797Y-144867321D01*
X131413035Y-144819702D01*
X131460654Y-144772083D01*
X131508273Y-144676845D01*
X131508273Y-144581607D01*
X131460654Y-144486369D01*
X131413035Y-144438750D01*
X131317797Y-144391130D01*
X131079702Y-144391130D01*
X130936845Y-144438750D01*
X130603511Y-144391130D02*
X130365416Y-145391130D01*
X130174940Y-144676845D01*
X129984464Y-145391130D01*
X129746369Y-144391130D01*
X128889226Y-144391130D02*
X129365416Y-144391130D01*
X129413035Y-144867321D01*
X129365416Y-144819702D01*
X129270178Y-144772083D01*
X129032083Y-144772083D01*
X128936845Y-144819702D01*
X128889226Y-144867321D01*
X128841607Y-144962559D01*
X128841607Y-145200654D01*
X128889226Y-145295892D01*
X128936845Y-145343511D01*
X129032083Y-145391130D01*
X129270178Y-145391130D01*
X129365416Y-145343511D01*
X129413035Y-145295892D01*
X127984464Y-144724464D02*
X127984464Y-145391130D01*
X128222559Y-144343511D02*
X128460654Y-145057797D01*
X127841607Y-145057797D01*
X90550833Y-126293511D02*
X90407976Y-126341130D01*
X90169880Y-126341130D01*
X90074642Y-126293511D01*
X90027023Y-126245892D01*
X89979404Y-126150654D01*
X89979404Y-126055416D01*
X90027023Y-125960178D01*
X90074642Y-125912559D01*
X90169880Y-125864940D01*
X90360357Y-125817321D01*
X90455595Y-125769702D01*
X90503214Y-125722083D01*
X90550833Y-125626845D01*
X90550833Y-125531607D01*
X90503214Y-125436369D01*
X90455595Y-125388750D01*
X90360357Y-125341130D01*
X90122261Y-125341130D01*
X89979404Y-125388750D01*
X89646071Y-125341130D02*
X89407976Y-126341130D01*
X89217500Y-125626845D01*
X89027023Y-126341130D01*
X88788928Y-125341130D01*
X87979404Y-125674464D02*
X87979404Y-126341130D01*
X88217500Y-125293511D02*
X88455595Y-126007797D01*
X87836547Y-126007797D01*
X288670773Y-69143511D02*
X288527916Y-69191130D01*
X288289821Y-69191130D01*
X288194583Y-69143511D01*
X288146964Y-69095892D01*
X288099345Y-69000654D01*
X288099345Y-68905416D01*
X288146964Y-68810178D01*
X288194583Y-68762559D01*
X288289821Y-68714940D01*
X288480297Y-68667321D01*
X288575535Y-68619702D01*
X288623154Y-68572083D01*
X288670773Y-68476845D01*
X288670773Y-68381607D01*
X288623154Y-68286369D01*
X288575535Y-68238750D01*
X288480297Y-68191130D01*
X288242202Y-68191130D01*
X288099345Y-68238750D01*
X287766011Y-68191130D02*
X287527916Y-69191130D01*
X287337440Y-68476845D01*
X287146964Y-69191130D01*
X286908869Y-68191130D01*
X286099345Y-68524464D02*
X286099345Y-69191130D01*
X286337440Y-68143511D02*
X286575535Y-68857797D01*
X285956488Y-68857797D01*
X285099345Y-68191130D02*
X285575535Y-68191130D01*
X285623154Y-68667321D01*
X285575535Y-68619702D01*
X285480297Y-68572083D01*
X285242202Y-68572083D01*
X285146964Y-68619702D01*
X285099345Y-68667321D01*
X285051726Y-68762559D01*
X285051726Y-69000654D01*
X285099345Y-69095892D01*
X285146964Y-69143511D01*
X285242202Y-69191130D01*
X285480297Y-69191130D01*
X285575535Y-69143511D01*
X285623154Y-69095892D01*
X202945773Y-145343511D02*
X202802916Y-145391130D01*
X202564821Y-145391130D01*
X202469583Y-145343511D01*
X202421964Y-145295892D01*
X202374345Y-145200654D01*
X202374345Y-145105416D01*
X202421964Y-145010178D01*
X202469583Y-144962559D01*
X202564821Y-144914940D01*
X202755297Y-144867321D01*
X202850535Y-144819702D01*
X202898154Y-144772083D01*
X202945773Y-144676845D01*
X202945773Y-144581607D01*
X202898154Y-144486369D01*
X202850535Y-144438750D01*
X202755297Y-144391130D01*
X202517202Y-144391130D01*
X202374345Y-144438750D01*
X202041011Y-144391130D02*
X201802916Y-145391130D01*
X201612440Y-144676845D01*
X201421964Y-145391130D01*
X201183869Y-144391130D01*
X200326726Y-144391130D02*
X200802916Y-144391130D01*
X200850535Y-144867321D01*
X200802916Y-144819702D01*
X200707678Y-144772083D01*
X200469583Y-144772083D01*
X200374345Y-144819702D01*
X200326726Y-144867321D01*
X200279107Y-144962559D01*
X200279107Y-145200654D01*
X200326726Y-145295892D01*
X200374345Y-145343511D01*
X200469583Y-145391130D01*
X200707678Y-145391130D01*
X200802916Y-145343511D01*
X200850535Y-145295892D01*
X199945773Y-144391130D02*
X199279107Y-144391130D01*
X199707678Y-145391130D01*
X188658273Y-107243511D02*
X188515416Y-107291130D01*
X188277321Y-107291130D01*
X188182083Y-107243511D01*
X188134464Y-107195892D01*
X188086845Y-107100654D01*
X188086845Y-107005416D01*
X188134464Y-106910178D01*
X188182083Y-106862559D01*
X188277321Y-106814940D01*
X188467797Y-106767321D01*
X188563035Y-106719702D01*
X188610654Y-106672083D01*
X188658273Y-106576845D01*
X188658273Y-106481607D01*
X188610654Y-106386369D01*
X188563035Y-106338750D01*
X188467797Y-106291130D01*
X188229702Y-106291130D01*
X188086845Y-106338750D01*
X187753511Y-106291130D02*
X187515416Y-107291130D01*
X187324940Y-106576845D01*
X187134464Y-107291130D01*
X186896369Y-106291130D01*
X186563035Y-106386369D02*
X186515416Y-106338750D01*
X186420178Y-106291130D01*
X186182083Y-106291130D01*
X186086845Y-106338750D01*
X186039226Y-106386369D01*
X185991607Y-106481607D01*
X185991607Y-106576845D01*
X186039226Y-106719702D01*
X186610654Y-107291130D01*
X185991607Y-107291130D01*
X185658273Y-106291130D02*
X185039226Y-106291130D01*
X185372559Y-106672083D01*
X185229702Y-106672083D01*
X185134464Y-106719702D01*
X185086845Y-106767321D01*
X185039226Y-106862559D01*
X185039226Y-107100654D01*
X185086845Y-107195892D01*
X185134464Y-107243511D01*
X185229702Y-107291130D01*
X185515416Y-107291130D01*
X185610654Y-107243511D01*
X185658273Y-107195892D01*
X326770773Y-69143511D02*
X326627916Y-69191130D01*
X326389821Y-69191130D01*
X326294583Y-69143511D01*
X326246964Y-69095892D01*
X326199345Y-69000654D01*
X326199345Y-68905416D01*
X326246964Y-68810178D01*
X326294583Y-68762559D01*
X326389821Y-68714940D01*
X326580297Y-68667321D01*
X326675535Y-68619702D01*
X326723154Y-68572083D01*
X326770773Y-68476845D01*
X326770773Y-68381607D01*
X326723154Y-68286369D01*
X326675535Y-68238750D01*
X326580297Y-68191130D01*
X326342202Y-68191130D01*
X326199345Y-68238750D01*
X325866011Y-68191130D02*
X325627916Y-69191130D01*
X325437440Y-68476845D01*
X325246964Y-69191130D01*
X325008869Y-68191130D01*
X324151726Y-68191130D02*
X324627916Y-68191130D01*
X324675535Y-68667321D01*
X324627916Y-68619702D01*
X324532678Y-68572083D01*
X324294583Y-68572083D01*
X324199345Y-68619702D01*
X324151726Y-68667321D01*
X324104107Y-68762559D01*
X324104107Y-69000654D01*
X324151726Y-69095892D01*
X324199345Y-69143511D01*
X324294583Y-69191130D01*
X324532678Y-69191130D01*
X324627916Y-69143511D01*
X324675535Y-69095892D01*
X323770773Y-68191130D02*
X323151726Y-68191130D01*
X323485059Y-68572083D01*
X323342202Y-68572083D01*
X323246964Y-68619702D01*
X323199345Y-68667321D01*
X323151726Y-68762559D01*
X323151726Y-69000654D01*
X323199345Y-69095892D01*
X323246964Y-69143511D01*
X323342202Y-69191130D01*
X323627916Y-69191130D01*
X323723154Y-69143511D01*
X323770773Y-69095892D01*
X126745773Y-88193511D02*
X126602916Y-88241130D01*
X126364821Y-88241130D01*
X126269583Y-88193511D01*
X126221964Y-88145892D01*
X126174345Y-88050654D01*
X126174345Y-87955416D01*
X126221964Y-87860178D01*
X126269583Y-87812559D01*
X126364821Y-87764940D01*
X126555297Y-87717321D01*
X126650535Y-87669702D01*
X126698154Y-87622083D01*
X126745773Y-87526845D01*
X126745773Y-87431607D01*
X126698154Y-87336369D01*
X126650535Y-87288750D01*
X126555297Y-87241130D01*
X126317202Y-87241130D01*
X126174345Y-87288750D01*
X125841011Y-87241130D02*
X125602916Y-88241130D01*
X125412440Y-87526845D01*
X125221964Y-88241130D01*
X124983869Y-87241130D01*
X124079107Y-88241130D02*
X124650535Y-88241130D01*
X124364821Y-88241130D02*
X124364821Y-87241130D01*
X124460059Y-87383988D01*
X124555297Y-87479226D01*
X124650535Y-87526845D01*
X123460059Y-87241130D02*
X123364821Y-87241130D01*
X123269583Y-87288750D01*
X123221964Y-87336369D01*
X123174345Y-87431607D01*
X123126726Y-87622083D01*
X123126726Y-87860178D01*
X123174345Y-88050654D01*
X123221964Y-88145892D01*
X123269583Y-88193511D01*
X123364821Y-88241130D01*
X123460059Y-88241130D01*
X123555297Y-88193511D01*
X123602916Y-88145892D01*
X123650535Y-88050654D01*
X123698154Y-87860178D01*
X123698154Y-87622083D01*
X123650535Y-87431607D01*
X123602916Y-87336369D01*
X123555297Y-87288750D01*
X123460059Y-87241130D01*
X183895773Y-88193511D02*
X183752916Y-88241130D01*
X183514821Y-88241130D01*
X183419583Y-88193511D01*
X183371964Y-88145892D01*
X183324345Y-88050654D01*
X183324345Y-87955416D01*
X183371964Y-87860178D01*
X183419583Y-87812559D01*
X183514821Y-87764940D01*
X183705297Y-87717321D01*
X183800535Y-87669702D01*
X183848154Y-87622083D01*
X183895773Y-87526845D01*
X183895773Y-87431607D01*
X183848154Y-87336369D01*
X183800535Y-87288750D01*
X183705297Y-87241130D01*
X183467202Y-87241130D01*
X183324345Y-87288750D01*
X182991011Y-87241130D02*
X182752916Y-88241130D01*
X182562440Y-87526845D01*
X182371964Y-88241130D01*
X182133869Y-87241130D01*
X181800535Y-87336369D02*
X181752916Y-87288750D01*
X181657678Y-87241130D01*
X181419583Y-87241130D01*
X181324345Y-87288750D01*
X181276726Y-87336369D01*
X181229107Y-87431607D01*
X181229107Y-87526845D01*
X181276726Y-87669702D01*
X181848154Y-88241130D01*
X181229107Y-88241130D01*
X180848154Y-87336369D02*
X180800535Y-87288750D01*
X180705297Y-87241130D01*
X180467202Y-87241130D01*
X180371964Y-87288750D01*
X180324345Y-87336369D01*
X180276726Y-87431607D01*
X180276726Y-87526845D01*
X180324345Y-87669702D01*
X180895773Y-88241130D01*
X180276726Y-88241130D01*
X169608273Y-107243511D02*
X169465416Y-107291130D01*
X169227321Y-107291130D01*
X169132083Y-107243511D01*
X169084464Y-107195892D01*
X169036845Y-107100654D01*
X169036845Y-107005416D01*
X169084464Y-106910178D01*
X169132083Y-106862559D01*
X169227321Y-106814940D01*
X169417797Y-106767321D01*
X169513035Y-106719702D01*
X169560654Y-106672083D01*
X169608273Y-106576845D01*
X169608273Y-106481607D01*
X169560654Y-106386369D01*
X169513035Y-106338750D01*
X169417797Y-106291130D01*
X169179702Y-106291130D01*
X169036845Y-106338750D01*
X168703511Y-106291130D02*
X168465416Y-107291130D01*
X168274940Y-106576845D01*
X168084464Y-107291130D01*
X167846369Y-106291130D01*
X166941607Y-107291130D02*
X167513035Y-107291130D01*
X167227321Y-107291130D02*
X167227321Y-106291130D01*
X167322559Y-106433988D01*
X167417797Y-106529226D01*
X167513035Y-106576845D01*
X166465416Y-107291130D02*
X166274940Y-107291130D01*
X166179702Y-107243511D01*
X166132083Y-107195892D01*
X166036845Y-107053035D01*
X165989226Y-106862559D01*
X165989226Y-106481607D01*
X166036845Y-106386369D01*
X166084464Y-106338750D01*
X166179702Y-106291130D01*
X166370178Y-106291130D01*
X166465416Y-106338750D01*
X166513035Y-106386369D01*
X166560654Y-106481607D01*
X166560654Y-106719702D01*
X166513035Y-106814940D01*
X166465416Y-106862559D01*
X166370178Y-106910178D01*
X166179702Y-106910178D01*
X166084464Y-106862559D01*
X166036845Y-106814940D01*
X165989226Y-106719702D01*
X269620773Y-69143511D02*
X269477916Y-69191130D01*
X269239821Y-69191130D01*
X269144583Y-69143511D01*
X269096964Y-69095892D01*
X269049345Y-69000654D01*
X269049345Y-68905416D01*
X269096964Y-68810178D01*
X269144583Y-68762559D01*
X269239821Y-68714940D01*
X269430297Y-68667321D01*
X269525535Y-68619702D01*
X269573154Y-68572083D01*
X269620773Y-68476845D01*
X269620773Y-68381607D01*
X269573154Y-68286369D01*
X269525535Y-68238750D01*
X269430297Y-68191130D01*
X269192202Y-68191130D01*
X269049345Y-68238750D01*
X268716011Y-68191130D02*
X268477916Y-69191130D01*
X268287440Y-68476845D01*
X268096964Y-69191130D01*
X267858869Y-68191130D01*
X267049345Y-68524464D02*
X267049345Y-69191130D01*
X267287440Y-68143511D02*
X267525535Y-68857797D01*
X266906488Y-68857797D01*
X266001726Y-69191130D02*
X266573154Y-69191130D01*
X266287440Y-69191130D02*
X266287440Y-68191130D01*
X266382678Y-68333988D01*
X266477916Y-68429226D01*
X266573154Y-68476845D01*
X136270773Y-69143511D02*
X136127916Y-69191130D01*
X135889821Y-69191130D01*
X135794583Y-69143511D01*
X135746964Y-69095892D01*
X135699345Y-69000654D01*
X135699345Y-68905416D01*
X135746964Y-68810178D01*
X135794583Y-68762559D01*
X135889821Y-68714940D01*
X136080297Y-68667321D01*
X136175535Y-68619702D01*
X136223154Y-68572083D01*
X136270773Y-68476845D01*
X136270773Y-68381607D01*
X136223154Y-68286369D01*
X136175535Y-68238750D01*
X136080297Y-68191130D01*
X135842202Y-68191130D01*
X135699345Y-68238750D01*
X135366011Y-68191130D02*
X135127916Y-69191130D01*
X134937440Y-68476845D01*
X134746964Y-69191130D01*
X134508869Y-68191130D01*
X133604107Y-69191130D02*
X134175535Y-69191130D01*
X133889821Y-69191130D02*
X133889821Y-68191130D01*
X133985059Y-68333988D01*
X134080297Y-68429226D01*
X134175535Y-68476845D01*
X133270773Y-68191130D02*
X132651726Y-68191130D01*
X132985059Y-68572083D01*
X132842202Y-68572083D01*
X132746964Y-68619702D01*
X132699345Y-68667321D01*
X132651726Y-68762559D01*
X132651726Y-69000654D01*
X132699345Y-69095892D01*
X132746964Y-69143511D01*
X132842202Y-69191130D01*
X133127916Y-69191130D01*
X133223154Y-69143511D01*
X133270773Y-69095892D01*
X226758273Y-107243511D02*
X226615416Y-107291130D01*
X226377321Y-107291130D01*
X226282083Y-107243511D01*
X226234464Y-107195892D01*
X226186845Y-107100654D01*
X226186845Y-107005416D01*
X226234464Y-106910178D01*
X226282083Y-106862559D01*
X226377321Y-106814940D01*
X226567797Y-106767321D01*
X226663035Y-106719702D01*
X226710654Y-106672083D01*
X226758273Y-106576845D01*
X226758273Y-106481607D01*
X226710654Y-106386369D01*
X226663035Y-106338750D01*
X226567797Y-106291130D01*
X226329702Y-106291130D01*
X226186845Y-106338750D01*
X225853511Y-106291130D02*
X225615416Y-107291130D01*
X225424940Y-106576845D01*
X225234464Y-107291130D01*
X224996369Y-106291130D01*
X224710654Y-106291130D02*
X224091607Y-106291130D01*
X224424940Y-106672083D01*
X224282083Y-106672083D01*
X224186845Y-106719702D01*
X224139226Y-106767321D01*
X224091607Y-106862559D01*
X224091607Y-107100654D01*
X224139226Y-107195892D01*
X224186845Y-107243511D01*
X224282083Y-107291130D01*
X224567797Y-107291130D01*
X224663035Y-107243511D01*
X224710654Y-107195892D01*
X223139226Y-107291130D02*
X223710654Y-107291130D01*
X223424940Y-107291130D02*
X223424940Y-106291130D01*
X223520178Y-106433988D01*
X223615416Y-106529226D01*
X223710654Y-106576845D01*
X150558273Y-107243511D02*
X150415416Y-107291130D01*
X150177321Y-107291130D01*
X150082083Y-107243511D01*
X150034464Y-107195892D01*
X149986845Y-107100654D01*
X149986845Y-107005416D01*
X150034464Y-106910178D01*
X150082083Y-106862559D01*
X150177321Y-106814940D01*
X150367797Y-106767321D01*
X150463035Y-106719702D01*
X150510654Y-106672083D01*
X150558273Y-106576845D01*
X150558273Y-106481607D01*
X150510654Y-106386369D01*
X150463035Y-106338750D01*
X150367797Y-106291130D01*
X150129702Y-106291130D01*
X149986845Y-106338750D01*
X149653511Y-106291130D02*
X149415416Y-107291130D01*
X149224940Y-106576845D01*
X149034464Y-107291130D01*
X148796369Y-106291130D01*
X147891607Y-107291130D02*
X148463035Y-107291130D01*
X148177321Y-107291130D02*
X148177321Y-106291130D01*
X148272559Y-106433988D01*
X148367797Y-106529226D01*
X148463035Y-106576845D01*
X146986845Y-106291130D02*
X147463035Y-106291130D01*
X147510654Y-106767321D01*
X147463035Y-106719702D01*
X147367797Y-106672083D01*
X147129702Y-106672083D01*
X147034464Y-106719702D01*
X146986845Y-106767321D01*
X146939226Y-106862559D01*
X146939226Y-107100654D01*
X146986845Y-107195892D01*
X147034464Y-107243511D01*
X147129702Y-107291130D01*
X147367797Y-107291130D01*
X147463035Y-107243511D01*
X147510654Y-107195892D01*
X217233273Y-126293511D02*
X217090416Y-126341130D01*
X216852321Y-126341130D01*
X216757083Y-126293511D01*
X216709464Y-126245892D01*
X216661845Y-126150654D01*
X216661845Y-126055416D01*
X216709464Y-125960178D01*
X216757083Y-125912559D01*
X216852321Y-125864940D01*
X217042797Y-125817321D01*
X217138035Y-125769702D01*
X217185654Y-125722083D01*
X217233273Y-125626845D01*
X217233273Y-125531607D01*
X217185654Y-125436369D01*
X217138035Y-125388750D01*
X217042797Y-125341130D01*
X216804702Y-125341130D01*
X216661845Y-125388750D01*
X216328511Y-125341130D02*
X216090416Y-126341130D01*
X215899940Y-125626845D01*
X215709464Y-126341130D01*
X215471369Y-125341130D01*
X215138035Y-125436369D02*
X215090416Y-125388750D01*
X214995178Y-125341130D01*
X214757083Y-125341130D01*
X214661845Y-125388750D01*
X214614226Y-125436369D01*
X214566607Y-125531607D01*
X214566607Y-125626845D01*
X214614226Y-125769702D01*
X215185654Y-126341130D01*
X214566607Y-126341130D01*
X213995178Y-125769702D02*
X214090416Y-125722083D01*
X214138035Y-125674464D01*
X214185654Y-125579226D01*
X214185654Y-125531607D01*
X214138035Y-125436369D01*
X214090416Y-125388750D01*
X213995178Y-125341130D01*
X213804702Y-125341130D01*
X213709464Y-125388750D01*
X213661845Y-125436369D01*
X213614226Y-125531607D01*
X213614226Y-125579226D01*
X213661845Y-125674464D01*
X213709464Y-125722083D01*
X213804702Y-125769702D01*
X213995178Y-125769702D01*
X214090416Y-125817321D01*
X214138035Y-125864940D01*
X214185654Y-125960178D01*
X214185654Y-126150654D01*
X214138035Y-126245892D01*
X214090416Y-126293511D01*
X213995178Y-126341130D01*
X213804702Y-126341130D01*
X213709464Y-126293511D01*
X213661845Y-126245892D01*
X213614226Y-126150654D01*
X213614226Y-125960178D01*
X213661845Y-125864940D01*
X213709464Y-125817321D01*
X213804702Y-125769702D01*
X116744583Y-69143511D02*
X116601726Y-69191130D01*
X116363630Y-69191130D01*
X116268392Y-69143511D01*
X116220773Y-69095892D01*
X116173154Y-69000654D01*
X116173154Y-68905416D01*
X116220773Y-68810178D01*
X116268392Y-68762559D01*
X116363630Y-68714940D01*
X116554107Y-68667321D01*
X116649345Y-68619702D01*
X116696964Y-68572083D01*
X116744583Y-68476845D01*
X116744583Y-68381607D01*
X116696964Y-68286369D01*
X116649345Y-68238750D01*
X116554107Y-68191130D01*
X116316011Y-68191130D01*
X116173154Y-68238750D01*
X115839821Y-68191130D02*
X115601726Y-69191130D01*
X115411250Y-68476845D01*
X115220773Y-69191130D01*
X114982678Y-68191130D01*
X114554107Y-69191130D02*
X114363630Y-69191130D01*
X114268392Y-69143511D01*
X114220773Y-69095892D01*
X114125535Y-68953035D01*
X114077916Y-68762559D01*
X114077916Y-68381607D01*
X114125535Y-68286369D01*
X114173154Y-68238750D01*
X114268392Y-68191130D01*
X114458869Y-68191130D01*
X114554107Y-68238750D01*
X114601726Y-68286369D01*
X114649345Y-68381607D01*
X114649345Y-68619702D01*
X114601726Y-68714940D01*
X114554107Y-68762559D01*
X114458869Y-68810178D01*
X114268392Y-68810178D01*
X114173154Y-68762559D01*
X114125535Y-68714940D01*
X114077916Y-68619702D01*
X341094023Y-88193511D02*
X340951166Y-88241130D01*
X340713071Y-88241130D01*
X340617833Y-88193511D01*
X340570214Y-88145892D01*
X340522595Y-88050654D01*
X340522595Y-87955416D01*
X340570214Y-87860178D01*
X340617833Y-87812559D01*
X340713071Y-87764940D01*
X340903547Y-87717321D01*
X340998785Y-87669702D01*
X341046404Y-87622083D01*
X341094023Y-87526845D01*
X341094023Y-87431607D01*
X341046404Y-87336369D01*
X340998785Y-87288750D01*
X340903547Y-87241130D01*
X340665452Y-87241130D01*
X340522595Y-87288750D01*
X340189261Y-87241130D02*
X339951166Y-88241130D01*
X339760690Y-87526845D01*
X339570214Y-88241130D01*
X339332119Y-87241130D01*
X338474976Y-87241130D02*
X338951166Y-87241130D01*
X338998785Y-87717321D01*
X338951166Y-87669702D01*
X338855928Y-87622083D01*
X338617833Y-87622083D01*
X338522595Y-87669702D01*
X338474976Y-87717321D01*
X338427357Y-87812559D01*
X338427357Y-88050654D01*
X338474976Y-88145892D01*
X338522595Y-88193511D01*
X338617833Y-88241130D01*
X338855928Y-88241130D01*
X338951166Y-88193511D01*
X338998785Y-88145892D01*
X337570214Y-87241130D02*
X337760690Y-87241130D01*
X337855928Y-87288750D01*
X337903547Y-87336369D01*
X337998785Y-87479226D01*
X338046404Y-87669702D01*
X338046404Y-88050654D01*
X337998785Y-88145892D01*
X337951166Y-88193511D01*
X337855928Y-88241130D01*
X337665452Y-88241130D01*
X337570214Y-88193511D01*
X337522595Y-88145892D01*
X337474976Y-88050654D01*
X337474976Y-87812559D01*
X337522595Y-87717321D01*
X337570214Y-87669702D01*
X337665452Y-87622083D01*
X337855928Y-87622083D01*
X337951166Y-87669702D01*
X337998785Y-87717321D01*
X338046404Y-87812559D01*
X245808273Y-107243511D02*
X245665416Y-107291130D01*
X245427321Y-107291130D01*
X245332083Y-107243511D01*
X245284464Y-107195892D01*
X245236845Y-107100654D01*
X245236845Y-107005416D01*
X245284464Y-106910178D01*
X245332083Y-106862559D01*
X245427321Y-106814940D01*
X245617797Y-106767321D01*
X245713035Y-106719702D01*
X245760654Y-106672083D01*
X245808273Y-106576845D01*
X245808273Y-106481607D01*
X245760654Y-106386369D01*
X245713035Y-106338750D01*
X245617797Y-106291130D01*
X245379702Y-106291130D01*
X245236845Y-106338750D01*
X244903511Y-106291130D02*
X244665416Y-107291130D01*
X244474940Y-106576845D01*
X244284464Y-107291130D01*
X244046369Y-106291130D01*
X243760654Y-106291130D02*
X243141607Y-106291130D01*
X243474940Y-106672083D01*
X243332083Y-106672083D01*
X243236845Y-106719702D01*
X243189226Y-106767321D01*
X243141607Y-106862559D01*
X243141607Y-107100654D01*
X243189226Y-107195892D01*
X243236845Y-107243511D01*
X243332083Y-107291130D01*
X243617797Y-107291130D01*
X243713035Y-107243511D01*
X243760654Y-107195892D01*
X242236845Y-106291130D02*
X242713035Y-106291130D01*
X242760654Y-106767321D01*
X242713035Y-106719702D01*
X242617797Y-106672083D01*
X242379702Y-106672083D01*
X242284464Y-106719702D01*
X242236845Y-106767321D01*
X242189226Y-106862559D01*
X242189226Y-107100654D01*
X242236845Y-107195892D01*
X242284464Y-107243511D01*
X242379702Y-107291130D01*
X242617797Y-107291130D01*
X242713035Y-107243511D01*
X242760654Y-107195892D01*
X174370773Y-69143511D02*
X174227916Y-69191130D01*
X173989821Y-69191130D01*
X173894583Y-69143511D01*
X173846964Y-69095892D01*
X173799345Y-69000654D01*
X173799345Y-68905416D01*
X173846964Y-68810178D01*
X173894583Y-68762559D01*
X173989821Y-68714940D01*
X174180297Y-68667321D01*
X174275535Y-68619702D01*
X174323154Y-68572083D01*
X174370773Y-68476845D01*
X174370773Y-68381607D01*
X174323154Y-68286369D01*
X174275535Y-68238750D01*
X174180297Y-68191130D01*
X173942202Y-68191130D01*
X173799345Y-68238750D01*
X173466011Y-68191130D02*
X173227916Y-69191130D01*
X173037440Y-68476845D01*
X172846964Y-69191130D01*
X172608869Y-68191130D01*
X172275535Y-68286369D02*
X172227916Y-68238750D01*
X172132678Y-68191130D01*
X171894583Y-68191130D01*
X171799345Y-68238750D01*
X171751726Y-68286369D01*
X171704107Y-68381607D01*
X171704107Y-68476845D01*
X171751726Y-68619702D01*
X172323154Y-69191130D01*
X171704107Y-69191130D01*
X170751726Y-69191130D02*
X171323154Y-69191130D01*
X171037440Y-69191130D02*
X171037440Y-68191130D01*
X171132678Y-68333988D01*
X171227916Y-68429226D01*
X171323154Y-68476845D01*
X274383273Y-145343511D02*
X274240416Y-145391130D01*
X274002321Y-145391130D01*
X273907083Y-145343511D01*
X273859464Y-145295892D01*
X273811845Y-145200654D01*
X273811845Y-145105416D01*
X273859464Y-145010178D01*
X273907083Y-144962559D01*
X274002321Y-144914940D01*
X274192797Y-144867321D01*
X274288035Y-144819702D01*
X274335654Y-144772083D01*
X274383273Y-144676845D01*
X274383273Y-144581607D01*
X274335654Y-144486369D01*
X274288035Y-144438750D01*
X274192797Y-144391130D01*
X273954702Y-144391130D01*
X273811845Y-144438750D01*
X273478511Y-144391130D02*
X273240416Y-145391130D01*
X273049940Y-144676845D01*
X272859464Y-145391130D01*
X272621369Y-144391130D01*
X271764226Y-144391130D02*
X272240416Y-144391130D01*
X272288035Y-144867321D01*
X272240416Y-144819702D01*
X272145178Y-144772083D01*
X271907083Y-144772083D01*
X271811845Y-144819702D01*
X271764226Y-144867321D01*
X271716607Y-144962559D01*
X271716607Y-145200654D01*
X271764226Y-145295892D01*
X271811845Y-145343511D01*
X271907083Y-145391130D01*
X272145178Y-145391130D01*
X272240416Y-145343511D01*
X272288035Y-145295892D01*
X270811845Y-144391130D02*
X271288035Y-144391130D01*
X271335654Y-144867321D01*
X271288035Y-144819702D01*
X271192797Y-144772083D01*
X270954702Y-144772083D01*
X270859464Y-144819702D01*
X270811845Y-144867321D01*
X270764226Y-144962559D01*
X270764226Y-145200654D01*
X270811845Y-145295892D01*
X270859464Y-145343511D01*
X270954702Y-145391130D01*
X271192797Y-145391130D01*
X271288035Y-145343511D01*
X271335654Y-145295892D01*
X255333273Y-126293511D02*
X255190416Y-126341130D01*
X254952321Y-126341130D01*
X254857083Y-126293511D01*
X254809464Y-126245892D01*
X254761845Y-126150654D01*
X254761845Y-126055416D01*
X254809464Y-125960178D01*
X254857083Y-125912559D01*
X254952321Y-125864940D01*
X255142797Y-125817321D01*
X255238035Y-125769702D01*
X255285654Y-125722083D01*
X255333273Y-125626845D01*
X255333273Y-125531607D01*
X255285654Y-125436369D01*
X255238035Y-125388750D01*
X255142797Y-125341130D01*
X254904702Y-125341130D01*
X254761845Y-125388750D01*
X254428511Y-125341130D02*
X254190416Y-126341130D01*
X253999940Y-125626845D01*
X253809464Y-126341130D01*
X253571369Y-125341130D01*
X253285654Y-125341130D02*
X252666607Y-125341130D01*
X252999940Y-125722083D01*
X252857083Y-125722083D01*
X252761845Y-125769702D01*
X252714226Y-125817321D01*
X252666607Y-125912559D01*
X252666607Y-126150654D01*
X252714226Y-126245892D01*
X252761845Y-126293511D01*
X252857083Y-126341130D01*
X253142797Y-126341130D01*
X253238035Y-126293511D01*
X253285654Y-126245892D01*
X251809464Y-125341130D02*
X251999940Y-125341130D01*
X252095178Y-125388750D01*
X252142797Y-125436369D01*
X252238035Y-125579226D01*
X252285654Y-125769702D01*
X252285654Y-126150654D01*
X252238035Y-126245892D01*
X252190416Y-126293511D01*
X252095178Y-126341130D01*
X251904702Y-126341130D01*
X251809464Y-126293511D01*
X251761845Y-126245892D01*
X251714226Y-126150654D01*
X251714226Y-125912559D01*
X251761845Y-125817321D01*
X251809464Y-125769702D01*
X251904702Y-125722083D01*
X252095178Y-125722083D01*
X252190416Y-125769702D01*
X252238035Y-125817321D01*
X252285654Y-125912559D01*
X193420773Y-69143511D02*
X193277916Y-69191130D01*
X193039821Y-69191130D01*
X192944583Y-69143511D01*
X192896964Y-69095892D01*
X192849345Y-69000654D01*
X192849345Y-68905416D01*
X192896964Y-68810178D01*
X192944583Y-68762559D01*
X193039821Y-68714940D01*
X193230297Y-68667321D01*
X193325535Y-68619702D01*
X193373154Y-68572083D01*
X193420773Y-68476845D01*
X193420773Y-68381607D01*
X193373154Y-68286369D01*
X193325535Y-68238750D01*
X193230297Y-68191130D01*
X192992202Y-68191130D01*
X192849345Y-68238750D01*
X192516011Y-68191130D02*
X192277916Y-69191130D01*
X192087440Y-68476845D01*
X191896964Y-69191130D01*
X191658869Y-68191130D01*
X191325535Y-68286369D02*
X191277916Y-68238750D01*
X191182678Y-68191130D01*
X190944583Y-68191130D01*
X190849345Y-68238750D01*
X190801726Y-68286369D01*
X190754107Y-68381607D01*
X190754107Y-68476845D01*
X190801726Y-68619702D01*
X191373154Y-69191130D01*
X190754107Y-69191130D01*
X189849345Y-68191130D02*
X190325535Y-68191130D01*
X190373154Y-68667321D01*
X190325535Y-68619702D01*
X190230297Y-68572083D01*
X189992202Y-68572083D01*
X189896964Y-68619702D01*
X189849345Y-68667321D01*
X189801726Y-68762559D01*
X189801726Y-69000654D01*
X189849345Y-69095892D01*
X189896964Y-69143511D01*
X189992202Y-69191130D01*
X190230297Y-69191130D01*
X190325535Y-69143511D01*
X190373154Y-69095892D01*
X207708273Y-107243511D02*
X207565416Y-107291130D01*
X207327321Y-107291130D01*
X207232083Y-107243511D01*
X207184464Y-107195892D01*
X207136845Y-107100654D01*
X207136845Y-107005416D01*
X207184464Y-106910178D01*
X207232083Y-106862559D01*
X207327321Y-106814940D01*
X207517797Y-106767321D01*
X207613035Y-106719702D01*
X207660654Y-106672083D01*
X207708273Y-106576845D01*
X207708273Y-106481607D01*
X207660654Y-106386369D01*
X207613035Y-106338750D01*
X207517797Y-106291130D01*
X207279702Y-106291130D01*
X207136845Y-106338750D01*
X206803511Y-106291130D02*
X206565416Y-107291130D01*
X206374940Y-106576845D01*
X206184464Y-107291130D01*
X205946369Y-106291130D01*
X205613035Y-106386369D02*
X205565416Y-106338750D01*
X205470178Y-106291130D01*
X205232083Y-106291130D01*
X205136845Y-106338750D01*
X205089226Y-106386369D01*
X205041607Y-106481607D01*
X205041607Y-106576845D01*
X205089226Y-106719702D01*
X205660654Y-107291130D01*
X205041607Y-107291130D01*
X204708273Y-106291130D02*
X204041607Y-106291130D01*
X204470178Y-107291130D01*
X160083273Y-126293511D02*
X159940416Y-126341130D01*
X159702321Y-126341130D01*
X159607083Y-126293511D01*
X159559464Y-126245892D01*
X159511845Y-126150654D01*
X159511845Y-126055416D01*
X159559464Y-125960178D01*
X159607083Y-125912559D01*
X159702321Y-125864940D01*
X159892797Y-125817321D01*
X159988035Y-125769702D01*
X160035654Y-125722083D01*
X160083273Y-125626845D01*
X160083273Y-125531607D01*
X160035654Y-125436369D01*
X159988035Y-125388750D01*
X159892797Y-125341130D01*
X159654702Y-125341130D01*
X159511845Y-125388750D01*
X159178511Y-125341130D02*
X158940416Y-126341130D01*
X158749940Y-125626845D01*
X158559464Y-126341130D01*
X158321369Y-125341130D01*
X157416607Y-126341130D02*
X157988035Y-126341130D01*
X157702321Y-126341130D02*
X157702321Y-125341130D01*
X157797559Y-125483988D01*
X157892797Y-125579226D01*
X157988035Y-125626845D01*
X156559464Y-125341130D02*
X156749940Y-125341130D01*
X156845178Y-125388750D01*
X156892797Y-125436369D01*
X156988035Y-125579226D01*
X157035654Y-125769702D01*
X157035654Y-126150654D01*
X156988035Y-126245892D01*
X156940416Y-126293511D01*
X156845178Y-126341130D01*
X156654702Y-126341130D01*
X156559464Y-126293511D01*
X156511845Y-126245892D01*
X156464226Y-126150654D01*
X156464226Y-125912559D01*
X156511845Y-125817321D01*
X156559464Y-125769702D01*
X156654702Y-125722083D01*
X156845178Y-125722083D01*
X156940416Y-125769702D01*
X156988035Y-125817321D01*
X157035654Y-125912559D01*
X198183273Y-126293511D02*
X198040416Y-126341130D01*
X197802321Y-126341130D01*
X197707083Y-126293511D01*
X197659464Y-126245892D01*
X197611845Y-126150654D01*
X197611845Y-126055416D01*
X197659464Y-125960178D01*
X197707083Y-125912559D01*
X197802321Y-125864940D01*
X197992797Y-125817321D01*
X198088035Y-125769702D01*
X198135654Y-125722083D01*
X198183273Y-125626845D01*
X198183273Y-125531607D01*
X198135654Y-125436369D01*
X198088035Y-125388750D01*
X197992797Y-125341130D01*
X197754702Y-125341130D01*
X197611845Y-125388750D01*
X197278511Y-125341130D02*
X197040416Y-126341130D01*
X196849940Y-125626845D01*
X196659464Y-126341130D01*
X196421369Y-125341130D01*
X196088035Y-125436369D02*
X196040416Y-125388750D01*
X195945178Y-125341130D01*
X195707083Y-125341130D01*
X195611845Y-125388750D01*
X195564226Y-125436369D01*
X195516607Y-125531607D01*
X195516607Y-125626845D01*
X195564226Y-125769702D01*
X196135654Y-126341130D01*
X195516607Y-126341130D01*
X194659464Y-125674464D02*
X194659464Y-126341130D01*
X194897559Y-125293511D02*
X195135654Y-126007797D01*
X194516607Y-126007797D01*
X317245773Y-88193511D02*
X317102916Y-88241130D01*
X316864821Y-88241130D01*
X316769583Y-88193511D01*
X316721964Y-88145892D01*
X316674345Y-88050654D01*
X316674345Y-87955416D01*
X316721964Y-87860178D01*
X316769583Y-87812559D01*
X316864821Y-87764940D01*
X317055297Y-87717321D01*
X317150535Y-87669702D01*
X317198154Y-87622083D01*
X317245773Y-87526845D01*
X317245773Y-87431607D01*
X317198154Y-87336369D01*
X317150535Y-87288750D01*
X317055297Y-87241130D01*
X316817202Y-87241130D01*
X316674345Y-87288750D01*
X316341011Y-87241130D02*
X316102916Y-88241130D01*
X315912440Y-87526845D01*
X315721964Y-88241130D01*
X315483869Y-87241130D01*
X314626726Y-87241130D02*
X315102916Y-87241130D01*
X315150535Y-87717321D01*
X315102916Y-87669702D01*
X315007678Y-87622083D01*
X314769583Y-87622083D01*
X314674345Y-87669702D01*
X314626726Y-87717321D01*
X314579107Y-87812559D01*
X314579107Y-88050654D01*
X314626726Y-88145892D01*
X314674345Y-88193511D01*
X314769583Y-88241130D01*
X315007678Y-88241130D01*
X315102916Y-88193511D01*
X315150535Y-88145892D01*
X313960059Y-87241130D02*
X313864821Y-87241130D01*
X313769583Y-87288750D01*
X313721964Y-87336369D01*
X313674345Y-87431607D01*
X313626726Y-87622083D01*
X313626726Y-87860178D01*
X313674345Y-88050654D01*
X313721964Y-88145892D01*
X313769583Y-88193511D01*
X313864821Y-88241130D01*
X313960059Y-88241130D01*
X314055297Y-88193511D01*
X314102916Y-88145892D01*
X314150535Y-88050654D01*
X314198154Y-87860178D01*
X314198154Y-87622083D01*
X314150535Y-87431607D01*
X314102916Y-87336369D01*
X314055297Y-87288750D01*
X313960059Y-87241130D01*
X302958273Y-107243511D02*
X302815416Y-107291130D01*
X302577321Y-107291130D01*
X302482083Y-107243511D01*
X302434464Y-107195892D01*
X302386845Y-107100654D01*
X302386845Y-107005416D01*
X302434464Y-106910178D01*
X302482083Y-106862559D01*
X302577321Y-106814940D01*
X302767797Y-106767321D01*
X302863035Y-106719702D01*
X302910654Y-106672083D01*
X302958273Y-106576845D01*
X302958273Y-106481607D01*
X302910654Y-106386369D01*
X302863035Y-106338750D01*
X302767797Y-106291130D01*
X302529702Y-106291130D01*
X302386845Y-106338750D01*
X302053511Y-106291130D02*
X301815416Y-107291130D01*
X301624940Y-106576845D01*
X301434464Y-107291130D01*
X301196369Y-106291130D01*
X300386845Y-106624464D02*
X300386845Y-107291130D01*
X300624940Y-106243511D02*
X300863035Y-106957797D01*
X300243988Y-106957797D01*
X299958273Y-106291130D02*
X299291607Y-106291130D01*
X299720178Y-107291130D01*
X307720773Y-69143511D02*
X307577916Y-69191130D01*
X307339821Y-69191130D01*
X307244583Y-69143511D01*
X307196964Y-69095892D01*
X307149345Y-69000654D01*
X307149345Y-68905416D01*
X307196964Y-68810178D01*
X307244583Y-68762559D01*
X307339821Y-68714940D01*
X307530297Y-68667321D01*
X307625535Y-68619702D01*
X307673154Y-68572083D01*
X307720773Y-68476845D01*
X307720773Y-68381607D01*
X307673154Y-68286369D01*
X307625535Y-68238750D01*
X307530297Y-68191130D01*
X307292202Y-68191130D01*
X307149345Y-68238750D01*
X306816011Y-68191130D02*
X306577916Y-69191130D01*
X306387440Y-68476845D01*
X306196964Y-69191130D01*
X305958869Y-68191130D01*
X305149345Y-68524464D02*
X305149345Y-69191130D01*
X305387440Y-68143511D02*
X305625535Y-68857797D01*
X305006488Y-68857797D01*
X304577916Y-69191130D02*
X304387440Y-69191130D01*
X304292202Y-69143511D01*
X304244583Y-69095892D01*
X304149345Y-68953035D01*
X304101726Y-68762559D01*
X304101726Y-68381607D01*
X304149345Y-68286369D01*
X304196964Y-68238750D01*
X304292202Y-68191130D01*
X304482678Y-68191130D01*
X304577916Y-68238750D01*
X304625535Y-68286369D01*
X304673154Y-68381607D01*
X304673154Y-68619702D01*
X304625535Y-68714940D01*
X304577916Y-68762559D01*
X304482678Y-68810178D01*
X304292202Y-68810178D01*
X304196964Y-68762559D01*
X304149345Y-68714940D01*
X304101726Y-68619702D01*
X293433273Y-126293511D02*
X293290416Y-126341130D01*
X293052321Y-126341130D01*
X292957083Y-126293511D01*
X292909464Y-126245892D01*
X292861845Y-126150654D01*
X292861845Y-126055416D01*
X292909464Y-125960178D01*
X292957083Y-125912559D01*
X293052321Y-125864940D01*
X293242797Y-125817321D01*
X293338035Y-125769702D01*
X293385654Y-125722083D01*
X293433273Y-125626845D01*
X293433273Y-125531607D01*
X293385654Y-125436369D01*
X293338035Y-125388750D01*
X293242797Y-125341130D01*
X293004702Y-125341130D01*
X292861845Y-125388750D01*
X292528511Y-125341130D02*
X292290416Y-126341130D01*
X292099940Y-125626845D01*
X291909464Y-126341130D01*
X291671369Y-125341130D01*
X290861845Y-125674464D02*
X290861845Y-126341130D01*
X291099940Y-125293511D02*
X291338035Y-126007797D01*
X290718988Y-126007797D01*
X289909464Y-125674464D02*
X289909464Y-126341130D01*
X290147559Y-125293511D02*
X290385654Y-126007797D01*
X289766607Y-126007797D01*
X145795773Y-88193511D02*
X145652916Y-88241130D01*
X145414821Y-88241130D01*
X145319583Y-88193511D01*
X145271964Y-88145892D01*
X145224345Y-88050654D01*
X145224345Y-87955416D01*
X145271964Y-87860178D01*
X145319583Y-87812559D01*
X145414821Y-87764940D01*
X145605297Y-87717321D01*
X145700535Y-87669702D01*
X145748154Y-87622083D01*
X145795773Y-87526845D01*
X145795773Y-87431607D01*
X145748154Y-87336369D01*
X145700535Y-87288750D01*
X145605297Y-87241130D01*
X145367202Y-87241130D01*
X145224345Y-87288750D01*
X144891011Y-87241130D02*
X144652916Y-88241130D01*
X144462440Y-87526845D01*
X144271964Y-88241130D01*
X144033869Y-87241130D01*
X143129107Y-88241130D02*
X143700535Y-88241130D01*
X143414821Y-88241130D02*
X143414821Y-87241130D01*
X143510059Y-87383988D01*
X143605297Y-87479226D01*
X143700535Y-87526845D01*
X142271964Y-87574464D02*
X142271964Y-88241130D01*
X142510059Y-87193511D02*
X142748154Y-87907797D01*
X142129107Y-87907797D01*
X179133273Y-126293511D02*
X178990416Y-126341130D01*
X178752321Y-126341130D01*
X178657083Y-126293511D01*
X178609464Y-126245892D01*
X178561845Y-126150654D01*
X178561845Y-126055416D01*
X178609464Y-125960178D01*
X178657083Y-125912559D01*
X178752321Y-125864940D01*
X178942797Y-125817321D01*
X179038035Y-125769702D01*
X179085654Y-125722083D01*
X179133273Y-125626845D01*
X179133273Y-125531607D01*
X179085654Y-125436369D01*
X179038035Y-125388750D01*
X178942797Y-125341130D01*
X178704702Y-125341130D01*
X178561845Y-125388750D01*
X178228511Y-125341130D02*
X177990416Y-126341130D01*
X177799940Y-125626845D01*
X177609464Y-126341130D01*
X177371369Y-125341130D01*
X177038035Y-125436369D02*
X176990416Y-125388750D01*
X176895178Y-125341130D01*
X176657083Y-125341130D01*
X176561845Y-125388750D01*
X176514226Y-125436369D01*
X176466607Y-125531607D01*
X176466607Y-125626845D01*
X176514226Y-125769702D01*
X177085654Y-126341130D01*
X176466607Y-126341130D01*
X175847559Y-125341130D02*
X175752321Y-125341130D01*
X175657083Y-125388750D01*
X175609464Y-125436369D01*
X175561845Y-125531607D01*
X175514226Y-125722083D01*
X175514226Y-125960178D01*
X175561845Y-126150654D01*
X175609464Y-126245892D01*
X175657083Y-126293511D01*
X175752321Y-126341130D01*
X175847559Y-126341130D01*
X175942797Y-126293511D01*
X175990416Y-126245892D01*
X176038035Y-126150654D01*
X176085654Y-125960178D01*
X176085654Y-125722083D01*
X176038035Y-125531607D01*
X175990416Y-125436369D01*
X175942797Y-125388750D01*
X175847559Y-125341130D01*
X241045773Y-88193511D02*
X240902916Y-88241130D01*
X240664821Y-88241130D01*
X240569583Y-88193511D01*
X240521964Y-88145892D01*
X240474345Y-88050654D01*
X240474345Y-87955416D01*
X240521964Y-87860178D01*
X240569583Y-87812559D01*
X240664821Y-87764940D01*
X240855297Y-87717321D01*
X240950535Y-87669702D01*
X240998154Y-87622083D01*
X241045773Y-87526845D01*
X241045773Y-87431607D01*
X240998154Y-87336369D01*
X240950535Y-87288750D01*
X240855297Y-87241130D01*
X240617202Y-87241130D01*
X240474345Y-87288750D01*
X240141011Y-87241130D02*
X239902916Y-88241130D01*
X239712440Y-87526845D01*
X239521964Y-88241130D01*
X239283869Y-87241130D01*
X238998154Y-87241130D02*
X238379107Y-87241130D01*
X238712440Y-87622083D01*
X238569583Y-87622083D01*
X238474345Y-87669702D01*
X238426726Y-87717321D01*
X238379107Y-87812559D01*
X238379107Y-88050654D01*
X238426726Y-88145892D01*
X238474345Y-88193511D01*
X238569583Y-88241130D01*
X238855297Y-88241130D01*
X238950535Y-88193511D01*
X238998154Y-88145892D01*
X237521964Y-87574464D02*
X237521964Y-88241130D01*
X237760059Y-87193511D02*
X237998154Y-87907797D01*
X237379107Y-87907797D01*
X107695773Y-145343511D02*
X107552916Y-145391130D01*
X107314821Y-145391130D01*
X107219583Y-145343511D01*
X107171964Y-145295892D01*
X107124345Y-145200654D01*
X107124345Y-145105416D01*
X107171964Y-145010178D01*
X107219583Y-144962559D01*
X107314821Y-144914940D01*
X107505297Y-144867321D01*
X107600535Y-144819702D01*
X107648154Y-144772083D01*
X107695773Y-144676845D01*
X107695773Y-144581607D01*
X107648154Y-144486369D01*
X107600535Y-144438750D01*
X107505297Y-144391130D01*
X107267202Y-144391130D01*
X107124345Y-144438750D01*
X106791011Y-144391130D02*
X106552916Y-145391130D01*
X106362440Y-144676845D01*
X106171964Y-145391130D01*
X105933869Y-144391130D01*
X105076726Y-144391130D02*
X105552916Y-144391130D01*
X105600535Y-144867321D01*
X105552916Y-144819702D01*
X105457678Y-144772083D01*
X105219583Y-144772083D01*
X105124345Y-144819702D01*
X105076726Y-144867321D01*
X105029107Y-144962559D01*
X105029107Y-145200654D01*
X105076726Y-145295892D01*
X105124345Y-145343511D01*
X105219583Y-145391130D01*
X105457678Y-145391130D01*
X105552916Y-145343511D01*
X105600535Y-145295892D01*
X104552916Y-145391130D02*
X104362440Y-145391130D01*
X104267202Y-145343511D01*
X104219583Y-145295892D01*
X104124345Y-145153035D01*
X104076726Y-144962559D01*
X104076726Y-144581607D01*
X104124345Y-144486369D01*
X104171964Y-144438750D01*
X104267202Y-144391130D01*
X104457678Y-144391130D01*
X104552916Y-144438750D01*
X104600535Y-144486369D01*
X104648154Y-144581607D01*
X104648154Y-144819702D01*
X104600535Y-144914940D01*
X104552916Y-144962559D01*
X104457678Y-145010178D01*
X104267202Y-145010178D01*
X104171964Y-144962559D01*
X104124345Y-144914940D01*
X104076726Y-144819702D01*
X202945773Y-88193511D02*
X202802916Y-88241130D01*
X202564821Y-88241130D01*
X202469583Y-88193511D01*
X202421964Y-88145892D01*
X202374345Y-88050654D01*
X202374345Y-87955416D01*
X202421964Y-87860178D01*
X202469583Y-87812559D01*
X202564821Y-87764940D01*
X202755297Y-87717321D01*
X202850535Y-87669702D01*
X202898154Y-87622083D01*
X202945773Y-87526845D01*
X202945773Y-87431607D01*
X202898154Y-87336369D01*
X202850535Y-87288750D01*
X202755297Y-87241130D01*
X202517202Y-87241130D01*
X202374345Y-87288750D01*
X202041011Y-87241130D02*
X201802916Y-88241130D01*
X201612440Y-87526845D01*
X201421964Y-88241130D01*
X201183869Y-87241130D01*
X200850535Y-87336369D02*
X200802916Y-87288750D01*
X200707678Y-87241130D01*
X200469583Y-87241130D01*
X200374345Y-87288750D01*
X200326726Y-87336369D01*
X200279107Y-87431607D01*
X200279107Y-87526845D01*
X200326726Y-87669702D01*
X200898154Y-88241130D01*
X200279107Y-88241130D01*
X199421964Y-87241130D02*
X199612440Y-87241130D01*
X199707678Y-87288750D01*
X199755297Y-87336369D01*
X199850535Y-87479226D01*
X199898154Y-87669702D01*
X199898154Y-88050654D01*
X199850535Y-88145892D01*
X199802916Y-88193511D01*
X199707678Y-88241130D01*
X199517202Y-88241130D01*
X199421964Y-88193511D01*
X199374345Y-88145892D01*
X199326726Y-88050654D01*
X199326726Y-87812559D01*
X199374345Y-87717321D01*
X199421964Y-87669702D01*
X199517202Y-87622083D01*
X199707678Y-87622083D01*
X199802916Y-87669702D01*
X199850535Y-87717321D01*
X199898154Y-87812559D01*
X231520773Y-69143511D02*
X231377916Y-69191130D01*
X231139821Y-69191130D01*
X231044583Y-69143511D01*
X230996964Y-69095892D01*
X230949345Y-69000654D01*
X230949345Y-68905416D01*
X230996964Y-68810178D01*
X231044583Y-68762559D01*
X231139821Y-68714940D01*
X231330297Y-68667321D01*
X231425535Y-68619702D01*
X231473154Y-68572083D01*
X231520773Y-68476845D01*
X231520773Y-68381607D01*
X231473154Y-68286369D01*
X231425535Y-68238750D01*
X231330297Y-68191130D01*
X231092202Y-68191130D01*
X230949345Y-68238750D01*
X230616011Y-68191130D02*
X230377916Y-69191130D01*
X230187440Y-68476845D01*
X229996964Y-69191130D01*
X229758869Y-68191130D01*
X229473154Y-68191130D02*
X228854107Y-68191130D01*
X229187440Y-68572083D01*
X229044583Y-68572083D01*
X228949345Y-68619702D01*
X228901726Y-68667321D01*
X228854107Y-68762559D01*
X228854107Y-69000654D01*
X228901726Y-69095892D01*
X228949345Y-69143511D01*
X229044583Y-69191130D01*
X229330297Y-69191130D01*
X229425535Y-69143511D01*
X229473154Y-69095892D01*
X228520773Y-68191130D02*
X227901726Y-68191130D01*
X228235059Y-68572083D01*
X228092202Y-68572083D01*
X227996964Y-68619702D01*
X227949345Y-68667321D01*
X227901726Y-68762559D01*
X227901726Y-69000654D01*
X227949345Y-69095892D01*
X227996964Y-69143511D01*
X228092202Y-69191130D01*
X228377916Y-69191130D01*
X228473154Y-69143511D01*
X228520773Y-69095892D01*
X319627023Y-126293511D02*
X319484166Y-126341130D01*
X319246071Y-126341130D01*
X319150833Y-126293511D01*
X319103214Y-126245892D01*
X319055595Y-126150654D01*
X319055595Y-126055416D01*
X319103214Y-125960178D01*
X319150833Y-125912559D01*
X319246071Y-125864940D01*
X319436547Y-125817321D01*
X319531785Y-125769702D01*
X319579404Y-125722083D01*
X319627023Y-125626845D01*
X319627023Y-125531607D01*
X319579404Y-125436369D01*
X319531785Y-125388750D01*
X319436547Y-125341130D01*
X319198452Y-125341130D01*
X319055595Y-125388750D01*
X318722261Y-125341130D02*
X318484166Y-126341130D01*
X318293690Y-125626845D01*
X318103214Y-126341130D01*
X317865119Y-125341130D01*
X317055595Y-125674464D02*
X317055595Y-126341130D01*
X317293690Y-125293511D02*
X317531785Y-126007797D01*
X316912738Y-126007797D01*
X316388928Y-125769702D02*
X316484166Y-125722083D01*
X316531785Y-125674464D01*
X316579404Y-125579226D01*
X316579404Y-125531607D01*
X316531785Y-125436369D01*
X316484166Y-125388750D01*
X316388928Y-125341130D01*
X316198452Y-125341130D01*
X316103214Y-125388750D01*
X316055595Y-125436369D01*
X316007976Y-125531607D01*
X316007976Y-125579226D01*
X316055595Y-125674464D01*
X316103214Y-125722083D01*
X316198452Y-125769702D01*
X316388928Y-125769702D01*
X316484166Y-125817321D01*
X316531785Y-125864940D01*
X316579404Y-125960178D01*
X316579404Y-126150654D01*
X316531785Y-126245892D01*
X316484166Y-126293511D01*
X316388928Y-126341130D01*
X316198452Y-126341130D01*
X316103214Y-126293511D01*
X316055595Y-126245892D01*
X316007976Y-126150654D01*
X316007976Y-125960178D01*
X316055595Y-125864940D01*
X316103214Y-125817321D01*
X316198452Y-125769702D01*
X279145773Y-88193511D02*
X279002916Y-88241130D01*
X278764821Y-88241130D01*
X278669583Y-88193511D01*
X278621964Y-88145892D01*
X278574345Y-88050654D01*
X278574345Y-87955416D01*
X278621964Y-87860178D01*
X278669583Y-87812559D01*
X278764821Y-87764940D01*
X278955297Y-87717321D01*
X279050535Y-87669702D01*
X279098154Y-87622083D01*
X279145773Y-87526845D01*
X279145773Y-87431607D01*
X279098154Y-87336369D01*
X279050535Y-87288750D01*
X278955297Y-87241130D01*
X278717202Y-87241130D01*
X278574345Y-87288750D01*
X278241011Y-87241130D02*
X278002916Y-88241130D01*
X277812440Y-87526845D01*
X277621964Y-88241130D01*
X277383869Y-87241130D01*
X276574345Y-87574464D02*
X276574345Y-88241130D01*
X276812440Y-87193511D02*
X277050535Y-87907797D01*
X276431488Y-87907797D01*
X276098154Y-87336369D02*
X276050535Y-87288750D01*
X275955297Y-87241130D01*
X275717202Y-87241130D01*
X275621964Y-87288750D01*
X275574345Y-87336369D01*
X275526726Y-87431607D01*
X275526726Y-87526845D01*
X275574345Y-87669702D01*
X276145773Y-88241130D01*
X275526726Y-88241130D01*
X260095773Y-88193511D02*
X259952916Y-88241130D01*
X259714821Y-88241130D01*
X259619583Y-88193511D01*
X259571964Y-88145892D01*
X259524345Y-88050654D01*
X259524345Y-87955416D01*
X259571964Y-87860178D01*
X259619583Y-87812559D01*
X259714821Y-87764940D01*
X259905297Y-87717321D01*
X260000535Y-87669702D01*
X260048154Y-87622083D01*
X260095773Y-87526845D01*
X260095773Y-87431607D01*
X260048154Y-87336369D01*
X260000535Y-87288750D01*
X259905297Y-87241130D01*
X259667202Y-87241130D01*
X259524345Y-87288750D01*
X259191011Y-87241130D02*
X258952916Y-88241130D01*
X258762440Y-87526845D01*
X258571964Y-88241130D01*
X258333869Y-87241130D01*
X258048154Y-87241130D02*
X257429107Y-87241130D01*
X257762440Y-87622083D01*
X257619583Y-87622083D01*
X257524345Y-87669702D01*
X257476726Y-87717321D01*
X257429107Y-87812559D01*
X257429107Y-88050654D01*
X257476726Y-88145892D01*
X257524345Y-88193511D01*
X257619583Y-88241130D01*
X257905297Y-88241130D01*
X258000535Y-88193511D01*
X258048154Y-88145892D01*
X256857678Y-87669702D02*
X256952916Y-87622083D01*
X257000535Y-87574464D01*
X257048154Y-87479226D01*
X257048154Y-87431607D01*
X257000535Y-87336369D01*
X256952916Y-87288750D01*
X256857678Y-87241130D01*
X256667202Y-87241130D01*
X256571964Y-87288750D01*
X256524345Y-87336369D01*
X256476726Y-87431607D01*
X256476726Y-87479226D01*
X256524345Y-87574464D01*
X256571964Y-87622083D01*
X256667202Y-87669702D01*
X256857678Y-87669702D01*
X256952916Y-87717321D01*
X257000535Y-87764940D01*
X257048154Y-87860178D01*
X257048154Y-88050654D01*
X257000535Y-88145892D01*
X256952916Y-88193511D01*
X256857678Y-88241130D01*
X256667202Y-88241130D01*
X256571964Y-88193511D01*
X256524345Y-88145892D01*
X256476726Y-88050654D01*
X256476726Y-87860178D01*
X256524345Y-87764940D01*
X256571964Y-87717321D01*
X256667202Y-87669702D01*
X264858273Y-107243511D02*
X264715416Y-107291130D01*
X264477321Y-107291130D01*
X264382083Y-107243511D01*
X264334464Y-107195892D01*
X264286845Y-107100654D01*
X264286845Y-107005416D01*
X264334464Y-106910178D01*
X264382083Y-106862559D01*
X264477321Y-106814940D01*
X264667797Y-106767321D01*
X264763035Y-106719702D01*
X264810654Y-106672083D01*
X264858273Y-106576845D01*
X264858273Y-106481607D01*
X264810654Y-106386369D01*
X264763035Y-106338750D01*
X264667797Y-106291130D01*
X264429702Y-106291130D01*
X264286845Y-106338750D01*
X263953511Y-106291130D02*
X263715416Y-107291130D01*
X263524940Y-106576845D01*
X263334464Y-107291130D01*
X263096369Y-106291130D01*
X262810654Y-106291130D02*
X262191607Y-106291130D01*
X262524940Y-106672083D01*
X262382083Y-106672083D01*
X262286845Y-106719702D01*
X262239226Y-106767321D01*
X262191607Y-106862559D01*
X262191607Y-107100654D01*
X262239226Y-107195892D01*
X262286845Y-107243511D01*
X262382083Y-107291130D01*
X262667797Y-107291130D01*
X262763035Y-107243511D01*
X262810654Y-107195892D01*
X261715416Y-107291130D02*
X261524940Y-107291130D01*
X261429702Y-107243511D01*
X261382083Y-107195892D01*
X261286845Y-107053035D01*
X261239226Y-106862559D01*
X261239226Y-106481607D01*
X261286845Y-106386369D01*
X261334464Y-106338750D01*
X261429702Y-106291130D01*
X261620178Y-106291130D01*
X261715416Y-106338750D01*
X261763035Y-106386369D01*
X261810654Y-106481607D01*
X261810654Y-106719702D01*
X261763035Y-106814940D01*
X261715416Y-106862559D01*
X261620178Y-106910178D01*
X261429702Y-106910178D01*
X261334464Y-106862559D01*
X261286845Y-106814940D01*
X261239226Y-106719702D01*
X107219583Y-88193511D02*
X107076726Y-88241130D01*
X106838630Y-88241130D01*
X106743392Y-88193511D01*
X106695773Y-88145892D01*
X106648154Y-88050654D01*
X106648154Y-87955416D01*
X106695773Y-87860178D01*
X106743392Y-87812559D01*
X106838630Y-87764940D01*
X107029107Y-87717321D01*
X107124345Y-87669702D01*
X107171964Y-87622083D01*
X107219583Y-87526845D01*
X107219583Y-87431607D01*
X107171964Y-87336369D01*
X107124345Y-87288750D01*
X107029107Y-87241130D01*
X106791011Y-87241130D01*
X106648154Y-87288750D01*
X106314821Y-87241130D02*
X106076726Y-88241130D01*
X105886250Y-87526845D01*
X105695773Y-88241130D01*
X105457678Y-87241130D01*
X104648154Y-87241130D02*
X104838630Y-87241130D01*
X104933869Y-87288750D01*
X104981488Y-87336369D01*
X105076726Y-87479226D01*
X105124345Y-87669702D01*
X105124345Y-88050654D01*
X105076726Y-88145892D01*
X105029107Y-88193511D01*
X104933869Y-88241130D01*
X104743392Y-88241130D01*
X104648154Y-88193511D01*
X104600535Y-88145892D01*
X104552916Y-88050654D01*
X104552916Y-87812559D01*
X104600535Y-87717321D01*
X104648154Y-87669702D01*
X104743392Y-87622083D01*
X104933869Y-87622083D01*
X105029107Y-87669702D01*
X105076726Y-87717321D01*
X105124345Y-87812559D01*
X298195773Y-145343511D02*
X298052916Y-145391130D01*
X297814821Y-145391130D01*
X297719583Y-145343511D01*
X297671964Y-145295892D01*
X297624345Y-145200654D01*
X297624345Y-145105416D01*
X297671964Y-145010178D01*
X297719583Y-144962559D01*
X297814821Y-144914940D01*
X298005297Y-144867321D01*
X298100535Y-144819702D01*
X298148154Y-144772083D01*
X298195773Y-144676845D01*
X298195773Y-144581607D01*
X298148154Y-144486369D01*
X298100535Y-144438750D01*
X298005297Y-144391130D01*
X297767202Y-144391130D01*
X297624345Y-144438750D01*
X297291011Y-144391130D02*
X297052916Y-145391130D01*
X296862440Y-144676845D01*
X296671964Y-145391130D01*
X296433869Y-144391130D01*
X295624345Y-144391130D02*
X295814821Y-144391130D01*
X295910059Y-144438750D01*
X295957678Y-144486369D01*
X296052916Y-144629226D01*
X296100535Y-144819702D01*
X296100535Y-145200654D01*
X296052916Y-145295892D01*
X296005297Y-145343511D01*
X295910059Y-145391130D01*
X295719583Y-145391130D01*
X295624345Y-145343511D01*
X295576726Y-145295892D01*
X295529107Y-145200654D01*
X295529107Y-144962559D01*
X295576726Y-144867321D01*
X295624345Y-144819702D01*
X295719583Y-144772083D01*
X295910059Y-144772083D01*
X296005297Y-144819702D01*
X296052916Y-144867321D01*
X296100535Y-144962559D01*
X294910059Y-144391130D02*
X294814821Y-144391130D01*
X294719583Y-144438750D01*
X294671964Y-144486369D01*
X294624345Y-144581607D01*
X294576726Y-144772083D01*
X294576726Y-145010178D01*
X294624345Y-145200654D01*
X294671964Y-145295892D01*
X294719583Y-145343511D01*
X294814821Y-145391130D01*
X294910059Y-145391130D01*
X295005297Y-145343511D01*
X295052916Y-145295892D01*
X295100535Y-145200654D01*
X295148154Y-145010178D01*
X295148154Y-144772083D01*
X295100535Y-144581607D01*
X295052916Y-144486369D01*
X295005297Y-144438750D01*
X294910059Y-144391130D01*
X345916023Y-69143511D02*
X345773166Y-69191130D01*
X345535071Y-69191130D01*
X345439833Y-69143511D01*
X345392214Y-69095892D01*
X345344595Y-69000654D01*
X345344595Y-68905416D01*
X345392214Y-68810178D01*
X345439833Y-68762559D01*
X345535071Y-68714940D01*
X345725547Y-68667321D01*
X345820785Y-68619702D01*
X345868404Y-68572083D01*
X345916023Y-68476845D01*
X345916023Y-68381607D01*
X345868404Y-68286369D01*
X345820785Y-68238750D01*
X345725547Y-68191130D01*
X345487452Y-68191130D01*
X345344595Y-68238750D01*
X345011261Y-68191130D02*
X344773166Y-69191130D01*
X344582690Y-68476845D01*
X344392214Y-69191130D01*
X344154119Y-68191130D01*
X343296976Y-68191130D02*
X343773166Y-68191130D01*
X343820785Y-68667321D01*
X343773166Y-68619702D01*
X343677928Y-68572083D01*
X343439833Y-68572083D01*
X343344595Y-68619702D01*
X343296976Y-68667321D01*
X343249357Y-68762559D01*
X343249357Y-69000654D01*
X343296976Y-69095892D01*
X343344595Y-69143511D01*
X343439833Y-69191130D01*
X343677928Y-69191130D01*
X343773166Y-69143511D01*
X343820785Y-69095892D01*
X342677928Y-68619702D02*
X342773166Y-68572083D01*
X342820785Y-68524464D01*
X342868404Y-68429226D01*
X342868404Y-68381607D01*
X342820785Y-68286369D01*
X342773166Y-68238750D01*
X342677928Y-68191130D01*
X342487452Y-68191130D01*
X342392214Y-68238750D01*
X342344595Y-68286369D01*
X342296976Y-68381607D01*
X342296976Y-68429226D01*
X342344595Y-68524464D01*
X342392214Y-68572083D01*
X342487452Y-68619702D01*
X342677928Y-68619702D01*
X342773166Y-68667321D01*
X342820785Y-68714940D01*
X342868404Y-68810178D01*
X342868404Y-69000654D01*
X342820785Y-69095892D01*
X342773166Y-69143511D01*
X342677928Y-69191130D01*
X342487452Y-69191130D01*
X342392214Y-69143511D01*
X342344595Y-69095892D01*
X342296976Y-69000654D01*
X342296976Y-68810178D01*
X342344595Y-68714940D01*
X342392214Y-68667321D01*
X342487452Y-68619702D01*
X71733333Y-122122380D02*
X71733333Y-122836666D01*
X71780952Y-122979523D01*
X71876190Y-123074761D01*
X72019047Y-123122380D01*
X72114285Y-123122380D01*
X71304761Y-122217619D02*
X71257142Y-122170000D01*
X71161904Y-122122380D01*
X70923809Y-122122380D01*
X70828571Y-122170000D01*
X70780952Y-122217619D01*
X70733333Y-122312857D01*
X70733333Y-122408095D01*
X70780952Y-122550952D01*
X71352380Y-123122380D01*
X70733333Y-123122380D01*
X302137380Y-65710416D02*
X302851666Y-65710416D01*
X302994523Y-65662797D01*
X303089761Y-65567559D01*
X303137380Y-65424702D01*
X303137380Y-65329464D01*
X302137380Y-66091369D02*
X302137380Y-66710416D01*
X302518333Y-66377083D01*
X302518333Y-66519940D01*
X302565952Y-66615178D01*
X302613571Y-66662797D01*
X302708809Y-66710416D01*
X302946904Y-66710416D01*
X303042142Y-66662797D01*
X303089761Y-66615178D01*
X303137380Y-66519940D01*
X303137380Y-66234226D01*
X303089761Y-66138988D01*
X303042142Y-66091369D01*
X71733333Y-75122380D02*
X71733333Y-75836666D01*
X71780952Y-75979523D01*
X71876190Y-76074761D01*
X72019047Y-76122380D01*
X72114285Y-76122380D01*
X70733333Y-76122380D02*
X71304761Y-76122380D01*
X71019047Y-76122380D02*
X71019047Y-75122380D01*
X71114285Y-75265238D01*
X71209523Y-75360476D01*
X71304761Y-75408095D01*
X322033333Y-79122380D02*
X322033333Y-79836666D01*
X322080952Y-79979523D01*
X322176190Y-80074761D01*
X322319047Y-80122380D01*
X322414285Y-80122380D01*
X321128571Y-79455714D02*
X321128571Y-80122380D01*
X321366666Y-79074761D02*
X321604761Y-79789047D01*
X320985714Y-79789047D01*
X331327083Y-117236130D02*
X331327083Y-117950416D01*
X331374702Y-118093273D01*
X331469940Y-118188511D01*
X331612797Y-118236130D01*
X331708035Y-118236130D01*
X330374702Y-117236130D02*
X330850892Y-117236130D01*
X330898511Y-117712321D01*
X330850892Y-117664702D01*
X330755654Y-117617083D01*
X330517559Y-117617083D01*
X330422321Y-117664702D01*
X330374702Y-117712321D01*
X330327083Y-117807559D01*
X330327083Y-118045654D01*
X330374702Y-118140892D01*
X330422321Y-118188511D01*
X330517559Y-118236130D01*
X330755654Y-118236130D01*
X330850892Y-118188511D01*
X330898511Y-118140892D01*
D11*
X72730000Y-126270000D02*
X70070000Y-126270000D01*
X72730000Y-123670000D02*
X71400000Y-123670000D01*
X70070000Y-126270000D02*
X70070000Y-133950000D01*
X72730000Y-125000000D02*
X72730000Y-123670000D01*
X72730000Y-126270000D02*
X72730000Y-133950000D01*
X72730000Y-133950000D02*
X70070000Y-133950000D01*
X299085000Y-67373750D02*
X299085000Y-64713750D01*
X301685000Y-67373750D02*
X301685000Y-66043750D01*
X300355000Y-67373750D02*
X301685000Y-67373750D01*
X299085000Y-67373750D02*
X291405000Y-67373750D01*
X299085000Y-64713750D02*
X291405000Y-64713750D01*
X291405000Y-67373750D02*
X291405000Y-64713750D01*
X70070000Y-79270000D02*
X70070000Y-86950000D01*
X72730000Y-78000000D02*
X72730000Y-76670000D01*
X72730000Y-86950000D02*
X70070000Y-86950000D01*
X72730000Y-79270000D02*
X72730000Y-86950000D01*
X72730000Y-76670000D02*
X71400000Y-76670000D01*
X72730000Y-79270000D02*
X70070000Y-79270000D01*
X323030000Y-85870000D02*
X320370000Y-85870000D01*
X323030000Y-82000000D02*
X323030000Y-80670000D01*
X323030000Y-83270000D02*
X320370000Y-83270000D01*
X323030000Y-83270000D02*
X323030000Y-85870000D01*
X320370000Y-83270000D02*
X320370000Y-85870000D01*
X323030000Y-80670000D02*
X321700000Y-80670000D01*
X332323750Y-123983750D02*
X329663750Y-123983750D01*
X332323750Y-120113750D02*
X332323750Y-118783750D01*
X332323750Y-121383750D02*
X332323750Y-123983750D01*
X332323750Y-121383750D02*
X329663750Y-121383750D01*
X329663750Y-121383750D02*
X329663750Y-123983750D01*
X332323750Y-118783750D02*
X330993750Y-118783750D01*
D12*
X116681250Y-152560000D03*
D13*
X116681250Y-144940000D03*
D12*
X264318750Y-133510000D03*
D13*
X264318750Y-125890000D03*
D12*
X202406250Y-76378750D03*
D13*
X202406250Y-68758750D03*
D12*
X150018750Y-133510000D03*
D13*
X150018750Y-125890000D03*
D12*
X140493750Y-114460000D03*
D13*
X140493750Y-106840000D03*
D12*
X354806250Y-114460000D03*
D13*
X354806250Y-106840000D03*
D12*
X102393750Y-114460000D03*
D13*
X102393750Y-106840000D03*
D12*
X126206250Y-76378750D03*
D13*
X126206250Y-68758750D03*
D12*
X216693750Y-114460000D03*
D13*
X216693750Y-106840000D03*
D12*
X121443750Y-114460000D03*
D13*
X121443750Y-106840000D03*
D12*
X88106250Y-76378750D03*
D13*
X88106250Y-68758750D03*
D12*
X269081250Y-95410000D03*
D13*
X269081250Y-87790000D03*
D12*
X259556250Y-76378750D03*
D13*
X259556250Y-68758750D03*
D12*
X230981250Y-95410000D03*
D13*
X230981250Y-87790000D03*
D12*
X273843750Y-114460000D03*
D13*
X273843750Y-106840000D03*
D12*
X116681250Y-95410000D03*
D13*
X116681250Y-87790000D03*
D12*
X250031250Y-95410000D03*
D13*
X250031250Y-87790000D03*
D12*
X354806250Y-76378750D03*
D13*
X354806250Y-68758750D03*
D12*
X154781250Y-95410000D03*
D13*
X154781250Y-87790000D03*
D12*
X307181250Y-152560000D03*
D13*
X307181250Y-144940000D03*
D12*
X192881250Y-95410000D03*
D13*
X192881250Y-87790000D03*
D12*
X235743750Y-114460000D03*
D13*
X235743750Y-106840000D03*
D12*
X326231250Y-95410000D03*
D13*
X326231250Y-87790000D03*
D12*
X188118750Y-133510000D03*
D13*
X188118750Y-125890000D03*
D12*
X197643750Y-114460000D03*
D13*
X197643750Y-106840000D03*
D12*
X130968750Y-133510000D03*
D13*
X130968750Y-125890000D03*
D12*
X278606250Y-76378750D03*
D13*
X278606250Y-68758750D03*
D12*
X288131250Y-95410000D03*
D13*
X288131250Y-87790000D03*
D12*
X254793750Y-114460000D03*
D13*
X254793750Y-106840000D03*
D12*
X354806250Y-95410000D03*
D13*
X354806250Y-87790000D03*
D12*
X173831250Y-95410000D03*
D13*
X173831250Y-87790000D03*
D12*
X178593750Y-114460000D03*
D13*
X178593750Y-106840000D03*
D12*
X307181250Y-95410000D03*
D13*
X307181250Y-87790000D03*
D12*
X335756250Y-76378750D03*
D13*
X335756250Y-68758750D03*
D12*
X164306250Y-76378750D03*
D13*
X164306250Y-68758750D03*
D12*
X297906250Y-76378750D03*
D13*
X297906250Y-68758750D03*
D12*
X240506250Y-76378750D03*
D13*
X240506250Y-68758750D03*
D12*
X292893750Y-114460000D03*
D13*
X292893750Y-106840000D03*
D12*
X97631250Y-95410000D03*
D13*
X97631250Y-87790000D03*
D12*
X335756250Y-133510000D03*
D13*
X335756250Y-125890000D03*
D12*
X226218750Y-133510000D03*
D13*
X226218750Y-125890000D03*
D12*
X183356250Y-76378750D03*
D13*
X183356250Y-68758750D03*
D12*
X111918750Y-133510000D03*
D13*
X111918750Y-125890000D03*
D12*
X221456250Y-76378750D03*
D13*
X221456250Y-68758750D03*
D12*
X302418750Y-133510000D03*
D13*
X302418750Y-125890000D03*
D12*
X107156250Y-76378750D03*
D13*
X107156250Y-68758750D03*
D12*
X316706250Y-76378750D03*
D13*
X316706250Y-68758750D03*
D12*
X283368750Y-133510000D03*
D13*
X283368750Y-125890000D03*
D12*
X159543750Y-114460000D03*
D13*
X159543750Y-106840000D03*
D12*
X145256250Y-152560000D03*
D13*
X145256250Y-144940000D03*
D12*
X145256250Y-76378750D03*
D13*
X145256250Y-68758750D03*
D12*
X311943750Y-114460000D03*
D13*
X311943750Y-106840000D03*
D12*
X221456250Y-152560000D03*
D13*
X221456250Y-144940000D03*
D12*
X288131250Y-152560000D03*
D13*
X288131250Y-144940000D03*
D12*
X169068750Y-133510000D03*
D13*
X169068750Y-125890000D03*
D12*
X354806250Y-133510000D03*
D13*
X354806250Y-125890000D03*
D12*
X245268750Y-133510000D03*
D13*
X245268750Y-125890000D03*
D12*
X135731250Y-95410000D03*
D13*
X135731250Y-87790000D03*
D12*
X207168750Y-133510000D03*
D13*
X207168750Y-125890000D03*
D12*
X211931250Y-95410000D03*
D13*
X211931250Y-87790000D03*
M02*
