M48
; DRILL file {KiCad (6.0.11)} date Mon Nov 25 11:34:04 2024
; FORMAT={-:-/ absolute / metric / decimal}
; #@! TF.CreationDate,2024-11-25T11:34:04+09:00
; #@! TF.GenerationSoftware,Kicad,Pcbnew,(6.0.11)
; #@! TF.FileFunction,NonPlated,1,2,NPTH
FMAT,2
METRIC
; #@! TA.AperFunction,NonPlated,NPTH,ComponentDrill
T1C1.900
; #@! TA.AperFunction,NonPlated,NPTH,ComponentDrill
T2C2.200
; #@! TA.AperFunction,NonPlated,NPTH,ComponentDrill
T3C3.050
; #@! TA.AperFunction,NonPlated,NPTH,ComponentDrill
T4C4.000
%
G90
G05
T1
X73.501Y-73.819
X78.264Y-92.869
X80.645Y-111.919
X83.661Y-73.819
X85.407Y-130.969
X88.424Y-92.869
X90.805Y-111.919
X92.551Y-73.819
X95.567Y-130.969
X102.076Y-92.869
X102.076Y-150.019
X102.711Y-73.819
X106.839Y-111.919
X111.601Y-73.819
X112.236Y-92.869
X112.236Y-150.019
X116.364Y-130.969
X116.999Y-111.919
X121.126Y-92.869
X121.761Y-73.819
X125.889Y-111.919
X125.889Y-150.019
X126.524Y-130.969
X130.651Y-73.819
X131.286Y-92.869
X135.414Y-130.969
X136.049Y-111.919
X136.049Y-150.019
X140.176Y-92.869
X140.811Y-73.819
X144.939Y-111.919
X145.574Y-130.969
X149.701Y-73.819
X150.336Y-92.869
X154.464Y-130.969
X155.099Y-111.919
X159.226Y-92.869
X159.861Y-73.819
X163.989Y-111.919
X164.624Y-130.969
X168.751Y-73.819
X169.386Y-92.869
X173.514Y-130.969
X174.149Y-111.919
X178.276Y-92.869
X178.911Y-73.819
X183.039Y-111.919
X183.674Y-130.969
X187.801Y-73.819
X188.436Y-92.869
X192.564Y-130.969
X193.199Y-111.919
X197.326Y-92.869
X197.326Y-150.019
X197.961Y-73.819
X202.089Y-111.919
X202.724Y-130.969
X206.851Y-73.819
X207.486Y-92.869
X207.486Y-150.019
X211.614Y-130.969
X212.249Y-111.919
X216.376Y-92.869
X217.011Y-73.819
X221.139Y-111.919
X221.774Y-130.969
X225.901Y-73.819
X226.536Y-92.869
X230.664Y-130.969
X231.299Y-111.919
X235.426Y-92.869
X236.061Y-73.819
X240.189Y-111.919
X240.824Y-130.969
X244.951Y-73.819
X245.586Y-92.869
X249.714Y-130.969
X250.349Y-111.919
X254.476Y-92.869
X255.111Y-73.819
X259.239Y-111.919
X259.874Y-130.969
X264.001Y-73.819
X264.636Y-92.869
X268.764Y-130.969
X268.764Y-150.019
X269.399Y-111.919
X273.526Y-92.869
X274.161Y-73.819
X278.289Y-111.919
X278.924Y-130.969
X278.924Y-150.019
X283.051Y-73.819
X283.686Y-92.869
X287.814Y-130.969
X288.449Y-111.919
X292.576Y-92.869
X292.576Y-150.019
X293.211Y-73.819
X297.339Y-111.919
X297.974Y-130.969
X302.101Y-73.819
X302.736Y-92.869
X302.736Y-150.019
X307.499Y-111.919
X311.626Y-92.869
X312.261Y-73.819
X314.007Y-130.969
X321.151Y-73.819
X321.786Y-92.869
X324.167Y-130.969
X328.295Y-111.919
X331.311Y-73.819
X335.474Y-92.869
X338.455Y-111.919
X340.201Y-130.969
X340.296Y-73.819
X345.635Y-92.869
X350.361Y-130.969
X350.457Y-73.819
T2
X66.0Y-61.0
X66.0Y-83.0
X66.0Y-141.0
X66.0Y-163.0
X162.0Y-61.0
X162.0Y-163.0
X261.0Y-61.0
X261.0Y-163.0
X358.0Y-61.0
X358.0Y-83.0
X358.0Y-141.0
X358.0Y-163.0
T3
X78.587Y-123.969
X102.387Y-123.969
X154.781Y-143.019
X250.031Y-143.019
X321.475Y-104.919
X345.275Y-104.919
T4
X78.581Y-73.819
X78.587Y-139.209
X83.344Y-92.869
X85.725Y-111.919
X90.487Y-130.969
X97.631Y-73.819
X102.387Y-139.209
X107.156Y-92.869
X107.156Y-150.019
X111.919Y-111.919
X116.681Y-73.819
X121.444Y-130.969
X126.206Y-92.869
X130.969Y-111.919
X130.969Y-150.019
X135.731Y-73.819
X140.494Y-130.969
X145.256Y-92.869
X150.019Y-111.919
X154.781Y-73.819
X154.781Y-158.259
X159.544Y-130.969
X164.306Y-92.869
X169.069Y-111.919
X173.831Y-73.819
X178.594Y-130.969
X183.356Y-92.869
X188.119Y-111.919
X192.881Y-73.819
X197.644Y-130.969
X202.406Y-92.869
X202.406Y-150.019
X207.169Y-111.919
X211.931Y-73.819
X216.694Y-130.969
X221.456Y-92.869
X226.219Y-111.919
X230.981Y-73.819
X235.744Y-130.969
X240.506Y-92.869
X245.269Y-111.919
X250.031Y-73.819
X250.031Y-158.259
X254.794Y-130.969
X259.556Y-92.869
X264.319Y-111.919
X269.081Y-73.819
X273.844Y-130.969
X273.844Y-150.019
X278.606Y-92.869
X283.369Y-111.919
X288.131Y-73.819
X292.894Y-130.969
X297.656Y-92.869
X297.656Y-150.019
X302.419Y-111.919
X307.181Y-73.819
X316.706Y-92.869
X319.087Y-130.969
X321.475Y-120.159
X326.231Y-73.819
X333.375Y-111.919
X340.554Y-92.869
X345.275Y-120.159
X345.281Y-130.969
X345.376Y-73.819
T0
M30
