G04 #@! TF.GenerationSoftware,KiCad,Pcbnew,(6.0.11)*
G04 #@! TF.CreationDate,2024-11-25T11:34:44+09:00*
G04 #@! TF.ProjectId,Flame60_PCB_Layer2,466c616d-6536-4305-9f50-43425f4c6179,rev?*
G04 #@! TF.SameCoordinates,Original*
G04 #@! TF.FileFunction,Legend,Top*
G04 #@! TF.FilePolarity,Positive*
%FSLAX46Y46*%
G04 Gerber Fmt 4.6, Leading zero omitted, Abs format (unit mm)*
G04 Created by KiCad (PCBNEW (6.0.11)) date 2024-11-25 11:34:44*
%MOMM*%
%LPD*%
G01*
G04 APERTURE LIST*
%ADD10C,0.125000*%
%ADD11C,0.150000*%
%ADD12C,0.120000*%
G04 APERTURE END LIST*
D10*
X315442559Y-162928571D02*
X315109226Y-162928571D01*
X315109226Y-163452380D02*
X315109226Y-162452380D01*
X315585416Y-162452380D01*
X316109226Y-163452380D02*
X316013988Y-163404761D01*
X315966369Y-163309523D01*
X315966369Y-162452380D01*
X316918750Y-163452380D02*
X316918750Y-162928571D01*
X316871130Y-162833333D01*
X316775892Y-162785714D01*
X316585416Y-162785714D01*
X316490178Y-162833333D01*
X316918750Y-163404761D02*
X316823511Y-163452380D01*
X316585416Y-163452380D01*
X316490178Y-163404761D01*
X316442559Y-163309523D01*
X316442559Y-163214285D01*
X316490178Y-163119047D01*
X316585416Y-163071428D01*
X316823511Y-163071428D01*
X316918750Y-163023809D01*
X317394940Y-163452380D02*
X317394940Y-162785714D01*
X317394940Y-162880952D02*
X317442559Y-162833333D01*
X317537797Y-162785714D01*
X317680654Y-162785714D01*
X317775892Y-162833333D01*
X317823511Y-162928571D01*
X317823511Y-163452380D01*
X317823511Y-162928571D02*
X317871130Y-162833333D01*
X317966369Y-162785714D01*
X318109226Y-162785714D01*
X318204464Y-162833333D01*
X318252083Y-162928571D01*
X318252083Y-163452380D01*
X319109226Y-163404761D02*
X319013988Y-163452380D01*
X318823511Y-163452380D01*
X318728273Y-163404761D01*
X318680654Y-163309523D01*
X318680654Y-162928571D01*
X318728273Y-162833333D01*
X318823511Y-162785714D01*
X319013988Y-162785714D01*
X319109226Y-162833333D01*
X319156845Y-162928571D01*
X319156845Y-163023809D01*
X318680654Y-163119047D01*
X320013988Y-162452380D02*
X319823511Y-162452380D01*
X319728273Y-162500000D01*
X319680654Y-162547619D01*
X319585416Y-162690476D01*
X319537797Y-162880952D01*
X319537797Y-163261904D01*
X319585416Y-163357142D01*
X319633035Y-163404761D01*
X319728273Y-163452380D01*
X319918750Y-163452380D01*
X320013988Y-163404761D01*
X320061607Y-163357142D01*
X320109226Y-163261904D01*
X320109226Y-163023809D01*
X320061607Y-162928571D01*
X320013988Y-162880952D01*
X319918750Y-162833333D01*
X319728273Y-162833333D01*
X319633035Y-162880952D01*
X319585416Y-162928571D01*
X319537797Y-163023809D01*
X320728273Y-162452380D02*
X320823511Y-162452380D01*
X320918750Y-162500000D01*
X320966369Y-162547619D01*
X321013988Y-162642857D01*
X321061607Y-162833333D01*
X321061607Y-163071428D01*
X321013988Y-163261904D01*
X320966369Y-163357142D01*
X320918750Y-163404761D01*
X320823511Y-163452380D01*
X320728273Y-163452380D01*
X320633035Y-163404761D01*
X320585416Y-163357142D01*
X320537797Y-163261904D01*
X320490178Y-163071428D01*
X320490178Y-162833333D01*
X320537797Y-162642857D01*
X320585416Y-162547619D01*
X320633035Y-162500000D01*
X320728273Y-162452380D01*
X322156845Y-162785714D02*
X322394940Y-163452380D01*
X322633035Y-162785714D01*
X323394940Y-163404761D02*
X323299702Y-163452380D01*
X323109226Y-163452380D01*
X323013988Y-163404761D01*
X322966369Y-163309523D01*
X322966369Y-162928571D01*
X323013988Y-162833333D01*
X323109226Y-162785714D01*
X323299702Y-162785714D01*
X323394940Y-162833333D01*
X323442559Y-162928571D01*
X323442559Y-163023809D01*
X322966369Y-163119047D01*
X323871130Y-163452380D02*
X323871130Y-162785714D01*
X323871130Y-162976190D02*
X323918750Y-162880952D01*
X323966369Y-162833333D01*
X324061607Y-162785714D01*
X324156845Y-162785714D01*
X325013988Y-163452380D02*
X324442559Y-163452380D01*
X324728273Y-163452380D02*
X324728273Y-162452380D01*
X324633035Y-162595238D01*
X324537797Y-162690476D01*
X324442559Y-162738095D01*
X325442559Y-163357142D02*
X325490178Y-163404761D01*
X325442559Y-163452380D01*
X325394940Y-163404761D01*
X325442559Y-163357142D01*
X325442559Y-163452380D01*
X326109226Y-162452380D02*
X326204464Y-162452380D01*
X326299702Y-162500000D01*
X326347321Y-162547619D01*
X326394940Y-162642857D01*
X326442559Y-162833333D01*
X326442559Y-163071428D01*
X326394940Y-163261904D01*
X326347321Y-163357142D01*
X326299702Y-163404761D01*
X326204464Y-163452380D01*
X326109226Y-163452380D01*
X326013988Y-163404761D01*
X325966369Y-163357142D01*
X325918750Y-163261904D01*
X325871130Y-163071428D01*
X325871130Y-162833333D01*
X325918750Y-162642857D01*
X325966369Y-162547619D01*
X326013988Y-162500000D01*
X326109226Y-162452380D01*
X328252083Y-162976190D02*
X328204464Y-162928571D01*
X328109226Y-162880952D01*
X328013988Y-162880952D01*
X327918750Y-162928571D01*
X327871130Y-162976190D01*
X327823511Y-163071428D01*
X327823511Y-163166666D01*
X327871130Y-163261904D01*
X327918750Y-163309523D01*
X328013988Y-163357142D01*
X328109226Y-163357142D01*
X328204464Y-163309523D01*
X328252083Y-163261904D01*
X328252083Y-162880952D02*
X328252083Y-163261904D01*
X328299702Y-163309523D01*
X328347321Y-163309523D01*
X328442559Y-163261904D01*
X328490178Y-163166666D01*
X328490178Y-162928571D01*
X328394940Y-162785714D01*
X328252083Y-162690476D01*
X328061607Y-162642857D01*
X327871130Y-162690476D01*
X327728273Y-162785714D01*
X327633035Y-162928571D01*
X327585416Y-163119047D01*
X327633035Y-163309523D01*
X327728273Y-163452380D01*
X327871130Y-163547619D01*
X328061607Y-163595238D01*
X328252083Y-163547619D01*
X328394940Y-163452380D01*
X328918750Y-163452380D02*
X328918750Y-162452380D01*
X329299702Y-162452380D01*
X329394940Y-162500000D01*
X329442559Y-162547619D01*
X329490178Y-162642857D01*
X329490178Y-162785714D01*
X329442559Y-162880952D01*
X329394940Y-162928571D01*
X329299702Y-162976190D01*
X328918750Y-162976190D01*
X330490178Y-163357142D02*
X330442559Y-163404761D01*
X330299702Y-163452380D01*
X330204464Y-163452380D01*
X330061607Y-163404761D01*
X329966369Y-163309523D01*
X329918750Y-163214285D01*
X329871130Y-163023809D01*
X329871130Y-162880952D01*
X329918750Y-162690476D01*
X329966369Y-162595238D01*
X330061607Y-162500000D01*
X330204464Y-162452380D01*
X330299702Y-162452380D01*
X330442559Y-162500000D01*
X330490178Y-162547619D01*
X331252083Y-162928571D02*
X331394940Y-162976190D01*
X331442559Y-163023809D01*
X331490178Y-163119047D01*
X331490178Y-163261904D01*
X331442559Y-163357142D01*
X331394940Y-163404761D01*
X331299702Y-163452380D01*
X330918750Y-163452380D01*
X330918750Y-162452380D01*
X331252083Y-162452380D01*
X331347321Y-162500000D01*
X331394940Y-162547619D01*
X331442559Y-162642857D01*
X331442559Y-162738095D01*
X331394940Y-162833333D01*
X331347321Y-162880952D01*
X331252083Y-162928571D01*
X330918750Y-162928571D01*
X333156845Y-163452380D02*
X332680654Y-163452380D01*
X332680654Y-162452380D01*
X333442559Y-162547619D02*
X333490178Y-162500000D01*
X333585416Y-162452380D01*
X333823511Y-162452380D01*
X333918750Y-162500000D01*
X333966369Y-162547619D01*
X334013988Y-162642857D01*
X334013988Y-162738095D01*
X333966369Y-162880952D01*
X333394940Y-163452380D01*
X334013988Y-163452380D01*
X335204464Y-163452380D02*
X335204464Y-162452380D01*
X335442559Y-162452380D01*
X335585416Y-162500000D01*
X335680654Y-162595238D01*
X335728273Y-162690476D01*
X335775892Y-162880952D01*
X335775892Y-163023809D01*
X335728273Y-163214285D01*
X335680654Y-163309523D01*
X335585416Y-163404761D01*
X335442559Y-163452380D01*
X335204464Y-163452380D01*
X336585416Y-163404761D02*
X336490178Y-163452380D01*
X336299702Y-163452380D01*
X336204464Y-163404761D01*
X336156845Y-163309523D01*
X336156845Y-162928571D01*
X336204464Y-162833333D01*
X336299702Y-162785714D01*
X336490178Y-162785714D01*
X336585416Y-162833333D01*
X336633035Y-162928571D01*
X336633035Y-163023809D01*
X336156845Y-163119047D01*
X337013988Y-163404761D02*
X337109226Y-163452380D01*
X337299702Y-163452380D01*
X337394940Y-163404761D01*
X337442559Y-163309523D01*
X337442559Y-163261904D01*
X337394940Y-163166666D01*
X337299702Y-163119047D01*
X337156845Y-163119047D01*
X337061607Y-163071428D01*
X337013988Y-162976190D01*
X337013988Y-162928571D01*
X337061607Y-162833333D01*
X337156845Y-162785714D01*
X337299702Y-162785714D01*
X337394940Y-162833333D01*
X337871130Y-163452380D02*
X337871130Y-162785714D01*
X337871130Y-162452380D02*
X337823511Y-162500000D01*
X337871130Y-162547619D01*
X337918750Y-162500000D01*
X337871130Y-162452380D01*
X337871130Y-162547619D01*
X338775892Y-162785714D02*
X338775892Y-163595238D01*
X338728273Y-163690476D01*
X338680654Y-163738095D01*
X338585416Y-163785714D01*
X338442559Y-163785714D01*
X338347321Y-163738095D01*
X338775892Y-163404761D02*
X338680654Y-163452380D01*
X338490178Y-163452380D01*
X338394940Y-163404761D01*
X338347321Y-163357142D01*
X338299702Y-163261904D01*
X338299702Y-162976190D01*
X338347321Y-162880952D01*
X338394940Y-162833333D01*
X338490178Y-162785714D01*
X338680654Y-162785714D01*
X338775892Y-162833333D01*
X339252083Y-162785714D02*
X339252083Y-163452380D01*
X339252083Y-162880952D02*
X339299702Y-162833333D01*
X339394940Y-162785714D01*
X339537797Y-162785714D01*
X339633035Y-162833333D01*
X339680654Y-162928571D01*
X339680654Y-163452380D01*
X340537797Y-163404761D02*
X340442559Y-163452380D01*
X340252083Y-163452380D01*
X340156845Y-163404761D01*
X340109226Y-163309523D01*
X340109226Y-162928571D01*
X340156845Y-162833333D01*
X340252083Y-162785714D01*
X340442559Y-162785714D01*
X340537797Y-162833333D01*
X340585416Y-162928571D01*
X340585416Y-163023809D01*
X340109226Y-163119047D01*
X341442559Y-163452380D02*
X341442559Y-162452380D01*
X341442559Y-163404761D02*
X341347321Y-163452380D01*
X341156845Y-163452380D01*
X341061607Y-163404761D01*
X341013988Y-163357142D01*
X340966369Y-163261904D01*
X340966369Y-162976190D01*
X341013988Y-162880952D01*
X341061607Y-162833333D01*
X341156845Y-162785714D01*
X341347321Y-162785714D01*
X341442559Y-162833333D01*
X342680654Y-163452380D02*
X342680654Y-162452380D01*
X342680654Y-162833333D02*
X342775892Y-162785714D01*
X342966369Y-162785714D01*
X343061607Y-162833333D01*
X343109226Y-162880952D01*
X343156845Y-162976190D01*
X343156845Y-163261904D01*
X343109226Y-163357142D01*
X343061607Y-163404761D01*
X342966369Y-163452380D01*
X342775892Y-163452380D01*
X342680654Y-163404761D01*
X343490178Y-162785714D02*
X343728273Y-163452380D01*
X343966369Y-162785714D02*
X343728273Y-163452380D01*
X343633035Y-163690476D01*
X343585416Y-163738095D01*
X343490178Y-163785714D01*
X345109226Y-163452380D02*
X345109226Y-162785714D01*
X345109226Y-162880952D02*
X345156845Y-162833333D01*
X345252083Y-162785714D01*
X345394940Y-162785714D01*
X345490178Y-162833333D01*
X345537797Y-162928571D01*
X345537797Y-163452380D01*
X345537797Y-162928571D02*
X345585416Y-162833333D01*
X345680654Y-162785714D01*
X345823511Y-162785714D01*
X345918750Y-162833333D01*
X345966369Y-162928571D01*
X345966369Y-163452380D01*
X346871130Y-162785714D02*
X346871130Y-163452380D01*
X346442559Y-162785714D02*
X346442559Y-163309523D01*
X346490178Y-163404761D01*
X346585416Y-163452380D01*
X346728273Y-163452380D01*
X346823511Y-163404761D01*
X346871130Y-163357142D01*
X347490178Y-163452380D02*
X347394940Y-163404761D01*
X347347321Y-163309523D01*
X347347321Y-162452380D01*
X347728273Y-162785714D02*
X348109226Y-162785714D01*
X347871130Y-162452380D02*
X347871130Y-163309523D01*
X347918750Y-163404761D01*
X348013988Y-163452380D01*
X348109226Y-163452380D01*
X348442559Y-163452380D02*
X348442559Y-162785714D01*
X348442559Y-162452380D02*
X348394940Y-162500000D01*
X348442559Y-162547619D01*
X348490178Y-162500000D01*
X348442559Y-162452380D01*
X348442559Y-162547619D01*
X348775892Y-162785714D02*
X349156845Y-162785714D01*
X348918750Y-163452380D02*
X348918750Y-162595238D01*
X348966369Y-162500000D01*
X349061607Y-162452380D01*
X349156845Y-162452380D01*
X349871130Y-163404761D02*
X349775892Y-163452380D01*
X349585416Y-163452380D01*
X349490178Y-163404761D01*
X349442559Y-163309523D01*
X349442559Y-162928571D01*
X349490178Y-162833333D01*
X349585416Y-162785714D01*
X349775892Y-162785714D01*
X349871130Y-162833333D01*
X349918750Y-162928571D01*
X349918750Y-163023809D01*
X349442559Y-163119047D01*
X350347321Y-163452380D02*
X350347321Y-162452380D01*
X350347321Y-162833333D02*
X350442559Y-162785714D01*
X350633035Y-162785714D01*
X350728273Y-162833333D01*
X350775892Y-162880952D01*
X350823511Y-162976190D01*
X350823511Y-163261904D01*
X350775892Y-163357142D01*
X350728273Y-163404761D01*
X350633035Y-163452380D01*
X350442559Y-163452380D01*
X350347321Y-163404761D01*
X351775892Y-163452380D02*
X351204464Y-163452380D01*
X351490178Y-163452380D02*
X351490178Y-162452380D01*
X351394940Y-162595238D01*
X351299702Y-162690476D01*
X351204464Y-162738095D01*
X352109226Y-162452380D02*
X352728273Y-162452380D01*
X352394940Y-162833333D01*
X352537797Y-162833333D01*
X352633035Y-162880952D01*
X352680654Y-162928571D01*
X352728273Y-163023809D01*
X352728273Y-163261904D01*
X352680654Y-163357142D01*
X352633035Y-163404761D01*
X352537797Y-163452380D01*
X352252083Y-163452380D01*
X352156845Y-163404761D01*
X352109226Y-163357142D01*
D11*
X115347916Y-65264761D02*
X115490773Y-65312380D01*
X115728869Y-65312380D01*
X115824107Y-65264761D01*
X115871726Y-65217142D01*
X115919345Y-65121904D01*
X115919345Y-65026666D01*
X115871726Y-64931428D01*
X115824107Y-64883809D01*
X115728869Y-64836190D01*
X115538392Y-64788571D01*
X115443154Y-64740952D01*
X115395535Y-64693333D01*
X115347916Y-64598095D01*
X115347916Y-64502857D01*
X115395535Y-64407619D01*
X115443154Y-64360000D01*
X115538392Y-64312380D01*
X115776488Y-64312380D01*
X115919345Y-64360000D01*
X116252678Y-64312380D02*
X116490773Y-65312380D01*
X116681250Y-64598095D01*
X116871726Y-65312380D01*
X117109821Y-64312380D01*
X118014583Y-65312380D02*
X117443154Y-65312380D01*
X117728869Y-65312380D02*
X117728869Y-64312380D01*
X117633630Y-64455238D01*
X117538392Y-64550476D01*
X117443154Y-64598095D01*
X71066666Y-121682380D02*
X71066666Y-122396666D01*
X71019047Y-122539523D01*
X70923809Y-122634761D01*
X70780952Y-122682380D01*
X70685714Y-122682380D01*
X71495238Y-121777619D02*
X71542857Y-121730000D01*
X71638095Y-121682380D01*
X71876190Y-121682380D01*
X71971428Y-121730000D01*
X72019047Y-121777619D01*
X72066666Y-121872857D01*
X72066666Y-121968095D01*
X72019047Y-122110952D01*
X71447619Y-122682380D01*
X72066666Y-122682380D01*
X302577380Y-66377083D02*
X303291666Y-66377083D01*
X303434523Y-66424702D01*
X303529761Y-66519940D01*
X303577380Y-66662797D01*
X303577380Y-66758035D01*
X302577380Y-65996130D02*
X302577380Y-65377083D01*
X302958333Y-65710416D01*
X302958333Y-65567559D01*
X303005952Y-65472321D01*
X303053571Y-65424702D01*
X303148809Y-65377083D01*
X303386904Y-65377083D01*
X303482142Y-65424702D01*
X303529761Y-65472321D01*
X303577380Y-65567559D01*
X303577380Y-65853273D01*
X303529761Y-65948511D01*
X303482142Y-65996130D01*
X71066666Y-74682380D02*
X71066666Y-75396666D01*
X71019047Y-75539523D01*
X70923809Y-75634761D01*
X70780952Y-75682380D01*
X70685714Y-75682380D01*
X72066666Y-75682380D02*
X71495238Y-75682380D01*
X71780952Y-75682380D02*
X71780952Y-74682380D01*
X71685714Y-74825238D01*
X71590476Y-74920476D01*
X71495238Y-74968095D01*
D10*
X100661935Y-81720001D02*
X100980983Y-81720001D01*
X100598126Y-81934286D02*
X100821459Y-81184286D01*
X101044792Y-81934286D01*
X101395745Y-81184286D02*
X101459554Y-81184286D01*
X101523364Y-81220001D01*
X101555269Y-81255715D01*
X101587173Y-81327143D01*
X101619078Y-81470001D01*
X101619078Y-81648572D01*
X101587173Y-81791429D01*
X101555269Y-81862858D01*
X101523364Y-81898572D01*
X101459554Y-81934286D01*
X101395745Y-81934286D01*
X101331935Y-81898572D01*
X101300030Y-81862858D01*
X101268126Y-81791429D01*
X101236221Y-81648572D01*
X101236221Y-81470001D01*
X101268126Y-81327143D01*
X101300030Y-81255715D01*
X101331935Y-81220001D01*
X101395745Y-81184286D01*
X102384792Y-81148572D02*
X101810507Y-82112858D01*
X102831459Y-81541429D02*
X102608126Y-81541429D01*
X102608126Y-81934286D02*
X102608126Y-81184286D01*
X102927173Y-81184286D01*
X103118602Y-81184286D02*
X103565269Y-81184286D01*
X103278126Y-81934286D01*
X91668126Y-79394286D02*
X91668126Y-78644286D01*
X91827650Y-78644286D01*
X91923364Y-78680001D01*
X91987173Y-78751429D01*
X92019078Y-78822858D01*
X92050983Y-78965715D01*
X92050983Y-79072858D01*
X92019078Y-79215715D01*
X91987173Y-79287143D01*
X91923364Y-79358572D01*
X91827650Y-79394286D01*
X91668126Y-79394286D01*
X92625269Y-78894286D02*
X92625269Y-79394286D01*
X92465745Y-78608572D02*
X92306221Y-79144286D01*
X92720983Y-79144286D01*
X93454792Y-78608572D02*
X92880507Y-79572858D01*
X93965269Y-78894286D02*
X93965269Y-79394286D01*
X93805745Y-78608572D02*
X93646221Y-79144286D01*
X94060983Y-79144286D01*
X100965030Y-84474286D02*
X100582173Y-84474286D01*
X100773602Y-84474286D02*
X100773602Y-83724286D01*
X100709792Y-83831429D01*
X100645983Y-83902858D01*
X100582173Y-83938572D01*
X101571221Y-83724286D02*
X101252173Y-83724286D01*
X101220269Y-84081429D01*
X101252173Y-84045715D01*
X101315983Y-84010001D01*
X101475507Y-84010001D01*
X101539316Y-84045715D01*
X101571221Y-84081429D01*
X101603126Y-84152858D01*
X101603126Y-84331429D01*
X101571221Y-84402858D01*
X101539316Y-84438572D01*
X101475507Y-84474286D01*
X101315983Y-84474286D01*
X101252173Y-84438572D01*
X101220269Y-84402858D01*
X102368840Y-83688572D02*
X101794554Y-84652858D01*
X102815507Y-84081429D02*
X102911221Y-84117143D01*
X102943126Y-84152858D01*
X102975030Y-84224286D01*
X102975030Y-84331429D01*
X102943126Y-84402858D01*
X102911221Y-84438572D01*
X102847411Y-84474286D01*
X102592173Y-84474286D01*
X102592173Y-83724286D01*
X102815507Y-83724286D01*
X102879316Y-83760001D01*
X102911221Y-83795715D01*
X102943126Y-83867143D01*
X102943126Y-83938572D01*
X102911221Y-84010001D01*
X102879316Y-84045715D01*
X102815507Y-84081429D01*
X102592173Y-84081429D01*
X103613126Y-84474286D02*
X103230269Y-84474286D01*
X103421697Y-84474286D02*
X103421697Y-83724286D01*
X103357888Y-83831429D01*
X103294078Y-83902858D01*
X103230269Y-83938572D01*
X91763840Y-64154286D02*
X91763840Y-63404286D01*
X91923364Y-63404286D01*
X92019078Y-63440001D01*
X92082888Y-63511429D01*
X92114792Y-63582858D01*
X92146697Y-63725715D01*
X92146697Y-63832858D01*
X92114792Y-63975715D01*
X92082888Y-64047143D01*
X92019078Y-64118572D01*
X91923364Y-64154286D01*
X91763840Y-64154286D01*
X92370030Y-63404286D02*
X92784792Y-63404286D01*
X92561459Y-63690001D01*
X92657173Y-63690001D01*
X92720983Y-63725715D01*
X92752888Y-63761429D01*
X92784792Y-63832858D01*
X92784792Y-64011429D01*
X92752888Y-64082858D01*
X92720983Y-64118572D01*
X92657173Y-64154286D01*
X92465745Y-64154286D01*
X92401935Y-64118572D01*
X92370030Y-64082858D01*
X93550507Y-63368572D02*
X92976221Y-64332858D01*
X93678126Y-63404286D02*
X94060983Y-63404286D01*
X93869554Y-64154286D02*
X93869554Y-63404286D01*
X94220507Y-63404286D02*
X94667173Y-64154286D01*
X94667173Y-63404286D02*
X94220507Y-64154286D01*
X95050030Y-63404286D02*
X95113840Y-63404286D01*
X95177650Y-63440001D01*
X95209554Y-63475715D01*
X95241459Y-63547143D01*
X95273364Y-63690001D01*
X95273364Y-63868572D01*
X95241459Y-64011429D01*
X95209554Y-64082858D01*
X95177650Y-64118572D01*
X95113840Y-64154286D01*
X95050030Y-64154286D01*
X94986221Y-64118572D01*
X94954316Y-64082858D01*
X94922411Y-64011429D01*
X94890507Y-63868572D01*
X94890507Y-63690001D01*
X94922411Y-63547143D01*
X94954316Y-63475715D01*
X94986221Y-63440001D01*
X95050030Y-63404286D01*
X91684078Y-66694286D02*
X91684078Y-65944286D01*
X91843602Y-65944286D01*
X91939316Y-65980001D01*
X92003126Y-66051429D01*
X92035030Y-66122858D01*
X92066935Y-66265715D01*
X92066935Y-66372858D01*
X92035030Y-66515715D01*
X92003126Y-66587143D01*
X91939316Y-66658572D01*
X91843602Y-66694286D01*
X91684078Y-66694286D01*
X92322173Y-66015715D02*
X92354078Y-65980001D01*
X92417888Y-65944286D01*
X92577411Y-65944286D01*
X92641221Y-65980001D01*
X92673126Y-66015715D01*
X92705030Y-66087143D01*
X92705030Y-66158572D01*
X92673126Y-66265715D01*
X92290269Y-66694286D01*
X92705030Y-66694286D01*
X93470745Y-65908572D02*
X92896459Y-66872858D01*
X94076935Y-66694286D02*
X93853602Y-66337143D01*
X93694078Y-66694286D02*
X93694078Y-65944286D01*
X93949316Y-65944286D01*
X94013126Y-65980001D01*
X94045030Y-66015715D01*
X94076935Y-66087143D01*
X94076935Y-66194286D01*
X94045030Y-66265715D01*
X94013126Y-66301429D01*
X93949316Y-66337143D01*
X93694078Y-66337143D01*
X94300269Y-65944286D02*
X94746935Y-66694286D01*
X94746935Y-65944286D02*
X94300269Y-66694286D01*
X95353126Y-66694286D02*
X94970269Y-66694286D01*
X95161697Y-66694286D02*
X95161697Y-65944286D01*
X95097888Y-66051429D01*
X95034078Y-66122858D01*
X94970269Y-66158572D01*
X102257173Y-65980001D02*
X102193364Y-65944286D01*
X102097650Y-65944286D01*
X102001935Y-65980001D01*
X101938126Y-66051429D01*
X101906221Y-66122858D01*
X101874316Y-66265715D01*
X101874316Y-66372858D01*
X101906221Y-66515715D01*
X101938126Y-66587143D01*
X102001935Y-66658572D01*
X102097650Y-66694286D01*
X102161459Y-66694286D01*
X102257173Y-66658572D01*
X102289078Y-66622858D01*
X102289078Y-66372858D01*
X102161459Y-66372858D01*
X102576221Y-66694286D02*
X102576221Y-65944286D01*
X102959078Y-66694286D01*
X102959078Y-65944286D01*
X103278126Y-66694286D02*
X103278126Y-65944286D01*
X103437650Y-65944286D01*
X103533364Y-65980001D01*
X103597173Y-66051429D01*
X103629078Y-66122858D01*
X103660983Y-66265715D01*
X103660983Y-66372858D01*
X103629078Y-66515715D01*
X103597173Y-66587143D01*
X103533364Y-66658572D01*
X103437650Y-66694286D01*
X103278126Y-66694286D01*
X100661935Y-74100001D02*
X100980983Y-74100001D01*
X100598126Y-74314286D02*
X100821459Y-73564286D01*
X101044792Y-74314286D01*
X101204316Y-73564286D02*
X101619078Y-73564286D01*
X101395745Y-73850001D01*
X101491459Y-73850001D01*
X101555269Y-73885715D01*
X101587173Y-73921429D01*
X101619078Y-73992858D01*
X101619078Y-74171429D01*
X101587173Y-74242858D01*
X101555269Y-74278572D01*
X101491459Y-74314286D01*
X101300030Y-74314286D01*
X101236221Y-74278572D01*
X101204316Y-74242858D01*
X102384792Y-73528572D02*
X101810507Y-74492858D01*
X102831459Y-73921429D02*
X102608126Y-73921429D01*
X102608126Y-74314286D02*
X102608126Y-73564286D01*
X102927173Y-73564286D01*
X103469554Y-73814286D02*
X103469554Y-74314286D01*
X103310030Y-73528572D02*
X103150507Y-74064286D01*
X103565269Y-74064286D01*
X102400745Y-69234286D02*
X102177411Y-68877143D01*
X102017888Y-69234286D02*
X102017888Y-68484286D01*
X102273126Y-68484286D01*
X102336935Y-68520001D01*
X102368840Y-68555715D01*
X102400745Y-68627143D01*
X102400745Y-68734286D01*
X102368840Y-68805715D01*
X102336935Y-68841429D01*
X102273126Y-68877143D01*
X102017888Y-68877143D01*
X102655983Y-69198572D02*
X102751697Y-69234286D01*
X102911221Y-69234286D01*
X102975030Y-69198572D01*
X103006935Y-69162858D01*
X103038840Y-69091429D01*
X103038840Y-69020001D01*
X103006935Y-68948572D01*
X102975030Y-68912858D01*
X102911221Y-68877143D01*
X102783602Y-68841429D01*
X102719792Y-68805715D01*
X102687888Y-68770001D01*
X102655983Y-68698572D01*
X102655983Y-68627143D01*
X102687888Y-68555715D01*
X102719792Y-68520001D01*
X102783602Y-68484286D01*
X102943126Y-68484286D01*
X103038840Y-68520001D01*
X103230269Y-68484286D02*
X103613126Y-68484286D01*
X103421697Y-69234286D02*
X103421697Y-68484286D01*
X91700030Y-76818572D02*
X91795745Y-76854286D01*
X91955269Y-76854286D01*
X92019078Y-76818572D01*
X92050983Y-76782858D01*
X92082888Y-76711429D01*
X92082888Y-76640001D01*
X92050983Y-76568572D01*
X92019078Y-76532858D01*
X91955269Y-76497143D01*
X91827650Y-76461429D01*
X91763840Y-76425715D01*
X91731935Y-76390001D01*
X91700030Y-76318572D01*
X91700030Y-76247143D01*
X91731935Y-76175715D01*
X91763840Y-76140001D01*
X91827650Y-76104286D01*
X91987173Y-76104286D01*
X92082888Y-76140001D01*
X92752888Y-76782858D02*
X92720983Y-76818572D01*
X92625269Y-76854286D01*
X92561459Y-76854286D01*
X92465745Y-76818572D01*
X92401935Y-76747143D01*
X92370030Y-76675715D01*
X92338126Y-76532858D01*
X92338126Y-76425715D01*
X92370030Y-76282858D01*
X92401935Y-76211429D01*
X92465745Y-76140001D01*
X92561459Y-76104286D01*
X92625269Y-76104286D01*
X92720983Y-76140001D01*
X92752888Y-76175715D01*
X93359078Y-76854286D02*
X93040030Y-76854286D01*
X93040030Y-76104286D01*
X94060983Y-76068572D02*
X93486697Y-77032858D01*
X94284316Y-76854286D02*
X94284316Y-76104286D01*
X94443840Y-76104286D01*
X94539554Y-76140001D01*
X94603364Y-76211429D01*
X94635269Y-76282858D01*
X94667173Y-76425715D01*
X94667173Y-76532858D01*
X94635269Y-76675715D01*
X94603364Y-76747143D01*
X94539554Y-76818572D01*
X94443840Y-76854286D01*
X94284316Y-76854286D01*
X95081935Y-76104286D02*
X95145745Y-76104286D01*
X95209554Y-76140001D01*
X95241459Y-76175715D01*
X95273364Y-76247143D01*
X95305269Y-76390001D01*
X95305269Y-76568572D01*
X95273364Y-76711429D01*
X95241459Y-76782858D01*
X95209554Y-76818572D01*
X95145745Y-76854286D01*
X95081935Y-76854286D01*
X95018126Y-76818572D01*
X94986221Y-76782858D01*
X94954316Y-76711429D01*
X94922411Y-76568572D01*
X94922411Y-76390001D01*
X94954316Y-76247143D01*
X94986221Y-76175715D01*
X95018126Y-76140001D01*
X95081935Y-76104286D01*
X96070983Y-76068572D02*
X95496697Y-77032858D01*
X96230507Y-76104286D02*
X96645269Y-76104286D01*
X96421935Y-76390001D01*
X96517650Y-76390001D01*
X96581459Y-76425715D01*
X96613364Y-76461429D01*
X96645269Y-76532858D01*
X96645269Y-76711429D01*
X96613364Y-76782858D01*
X96581459Y-76818572D01*
X96517650Y-76854286D01*
X96326221Y-76854286D01*
X96262411Y-76818572D01*
X96230507Y-76782858D01*
X91987173Y-68520001D02*
X91923364Y-68484286D01*
X91827650Y-68484286D01*
X91731935Y-68520001D01*
X91668126Y-68591429D01*
X91636221Y-68662858D01*
X91604316Y-68805715D01*
X91604316Y-68912858D01*
X91636221Y-69055715D01*
X91668126Y-69127143D01*
X91731935Y-69198572D01*
X91827650Y-69234286D01*
X91891459Y-69234286D01*
X91987173Y-69198572D01*
X92019078Y-69162858D01*
X92019078Y-68912858D01*
X91891459Y-68912858D01*
X92306221Y-69234286D02*
X92306221Y-68484286D01*
X92689078Y-69234286D01*
X92689078Y-68484286D01*
X93008126Y-69234286D02*
X93008126Y-68484286D01*
X93167650Y-68484286D01*
X93263364Y-68520001D01*
X93327173Y-68591429D01*
X93359078Y-68662858D01*
X93390983Y-68805715D01*
X93390983Y-68912858D01*
X93359078Y-69055715D01*
X93327173Y-69127143D01*
X93263364Y-69198572D01*
X93167650Y-69234286D01*
X93008126Y-69234286D01*
X92050983Y-81862858D02*
X92019078Y-81898572D01*
X91923364Y-81934286D01*
X91859554Y-81934286D01*
X91763840Y-81898572D01*
X91700030Y-81827143D01*
X91668126Y-81755715D01*
X91636221Y-81612858D01*
X91636221Y-81505715D01*
X91668126Y-81362858D01*
X91700030Y-81291429D01*
X91763840Y-81220001D01*
X91859554Y-81184286D01*
X91923364Y-81184286D01*
X92019078Y-81220001D01*
X92050983Y-81255715D01*
X92625269Y-81184286D02*
X92497650Y-81184286D01*
X92433840Y-81220001D01*
X92401935Y-81255715D01*
X92338126Y-81362858D01*
X92306221Y-81505715D01*
X92306221Y-81791429D01*
X92338126Y-81862858D01*
X92370030Y-81898572D01*
X92433840Y-81934286D01*
X92561459Y-81934286D01*
X92625269Y-81898572D01*
X92657173Y-81862858D01*
X92689078Y-81791429D01*
X92689078Y-81612858D01*
X92657173Y-81541429D01*
X92625269Y-81505715D01*
X92561459Y-81470001D01*
X92433840Y-81470001D01*
X92370030Y-81505715D01*
X92338126Y-81541429D01*
X92306221Y-81612858D01*
X93454792Y-81148572D02*
X92880507Y-82112858D01*
X93997173Y-81184286D02*
X93678126Y-81184286D01*
X93646221Y-81541429D01*
X93678126Y-81505715D01*
X93741935Y-81470001D01*
X93901459Y-81470001D01*
X93965269Y-81505715D01*
X93997173Y-81541429D01*
X94029078Y-81612858D01*
X94029078Y-81791429D01*
X93997173Y-81862858D01*
X93965269Y-81898572D01*
X93901459Y-81934286D01*
X93741935Y-81934286D01*
X93678126Y-81898572D01*
X93646221Y-81862858D01*
X100661935Y-79180001D02*
X100980983Y-79180001D01*
X100598126Y-79394286D02*
X100821459Y-78644286D01*
X101044792Y-79394286D01*
X101619078Y-79394286D02*
X101236221Y-79394286D01*
X101427650Y-79394286D02*
X101427650Y-78644286D01*
X101363840Y-78751429D01*
X101300030Y-78822858D01*
X101236221Y-78858572D01*
X102384792Y-78608572D02*
X101810507Y-79572858D01*
X102831459Y-79001429D02*
X102608126Y-79001429D01*
X102608126Y-79394286D02*
X102608126Y-78644286D01*
X102927173Y-78644286D01*
X103469554Y-78644286D02*
X103341935Y-78644286D01*
X103278126Y-78680001D01*
X103246221Y-78715715D01*
X103182411Y-78822858D01*
X103150507Y-78965715D01*
X103150507Y-79251429D01*
X103182411Y-79322858D01*
X103214316Y-79358572D01*
X103278126Y-79394286D01*
X103405745Y-79394286D01*
X103469554Y-79358572D01*
X103501459Y-79322858D01*
X103533364Y-79251429D01*
X103533364Y-79072858D01*
X103501459Y-79001429D01*
X103469554Y-78965715D01*
X103405745Y-78930001D01*
X103278126Y-78930001D01*
X103214316Y-78965715D01*
X103182411Y-79001429D01*
X103150507Y-79072858D01*
X91891459Y-91701429D02*
X91987173Y-91737143D01*
X92019078Y-91772858D01*
X92050983Y-91844286D01*
X92050983Y-91951429D01*
X92019078Y-92022858D01*
X91987173Y-92058572D01*
X91923364Y-92094286D01*
X91668126Y-92094286D01*
X91668126Y-91344286D01*
X91891459Y-91344286D01*
X91955269Y-91380001D01*
X91987173Y-91415715D01*
X92019078Y-91487143D01*
X92019078Y-91558572D01*
X91987173Y-91630001D01*
X91955269Y-91665715D01*
X91891459Y-91701429D01*
X91668126Y-91701429D01*
X92657173Y-91344286D02*
X92338126Y-91344286D01*
X92306221Y-91701429D01*
X92338126Y-91665715D01*
X92401935Y-91630001D01*
X92561459Y-91630001D01*
X92625269Y-91665715D01*
X92657173Y-91701429D01*
X92689078Y-91772858D01*
X92689078Y-91951429D01*
X92657173Y-92022858D01*
X92625269Y-92058572D01*
X92561459Y-92094286D01*
X92401935Y-92094286D01*
X92338126Y-92058572D01*
X92306221Y-92022858D01*
X93454792Y-91308572D02*
X92880507Y-92272858D01*
X93710030Y-92094286D02*
X93837650Y-92094286D01*
X93901459Y-92058572D01*
X93933364Y-92022858D01*
X93997173Y-91915715D01*
X94029078Y-91772858D01*
X94029078Y-91487143D01*
X93997173Y-91415715D01*
X93965269Y-91380001D01*
X93901459Y-91344286D01*
X93773840Y-91344286D01*
X93710030Y-91380001D01*
X93678126Y-91415715D01*
X93646221Y-91487143D01*
X93646221Y-91665715D01*
X93678126Y-91737143D01*
X93710030Y-91772858D01*
X93773840Y-91808572D01*
X93901459Y-91808572D01*
X93965269Y-91772858D01*
X93997173Y-91737143D01*
X94029078Y-91665715D01*
X91668126Y-84474286D02*
X91668126Y-83724286D01*
X91827650Y-83724286D01*
X91923364Y-83760001D01*
X91987173Y-83831429D01*
X92019078Y-83902858D01*
X92050983Y-84045715D01*
X92050983Y-84152858D01*
X92019078Y-84295715D01*
X91987173Y-84367143D01*
X91923364Y-84438572D01*
X91827650Y-84474286D01*
X91668126Y-84474286D01*
X92274316Y-83724286D02*
X92720983Y-83724286D01*
X92433840Y-84474286D01*
X93454792Y-83688572D02*
X92880507Y-84652858D01*
X93965269Y-83724286D02*
X93837650Y-83724286D01*
X93773840Y-83760001D01*
X93741935Y-83795715D01*
X93678126Y-83902858D01*
X93646221Y-84045715D01*
X93646221Y-84331429D01*
X93678126Y-84402858D01*
X93710030Y-84438572D01*
X93773840Y-84474286D01*
X93901459Y-84474286D01*
X93965269Y-84438572D01*
X93997173Y-84402858D01*
X94029078Y-84331429D01*
X94029078Y-84152858D01*
X93997173Y-84081429D01*
X93965269Y-84045715D01*
X93901459Y-84010001D01*
X93773840Y-84010001D01*
X93710030Y-84045715D01*
X93678126Y-84081429D01*
X93646221Y-84152858D01*
X91987173Y-71060001D02*
X91923364Y-71024286D01*
X91827650Y-71024286D01*
X91731935Y-71060001D01*
X91668126Y-71131429D01*
X91636221Y-71202858D01*
X91604316Y-71345715D01*
X91604316Y-71452858D01*
X91636221Y-71595715D01*
X91668126Y-71667143D01*
X91731935Y-71738572D01*
X91827650Y-71774286D01*
X91891459Y-71774286D01*
X91987173Y-71738572D01*
X92019078Y-71702858D01*
X92019078Y-71452858D01*
X91891459Y-71452858D01*
X92306221Y-71774286D02*
X92306221Y-71024286D01*
X92689078Y-71774286D01*
X92689078Y-71024286D01*
X93008126Y-71774286D02*
X93008126Y-71024286D01*
X93167650Y-71024286D01*
X93263364Y-71060001D01*
X93327173Y-71131429D01*
X93359078Y-71202858D01*
X93390983Y-71345715D01*
X93390983Y-71452858D01*
X93359078Y-71595715D01*
X93327173Y-71667143D01*
X93263364Y-71738572D01*
X93167650Y-71774286D01*
X93008126Y-71774286D01*
X100965030Y-87014286D02*
X100582173Y-87014286D01*
X100773602Y-87014286D02*
X100773602Y-86264286D01*
X100709792Y-86371429D01*
X100645983Y-86442858D01*
X100582173Y-86478572D01*
X101539316Y-86514286D02*
X101539316Y-87014286D01*
X101379792Y-86228572D02*
X101220269Y-86764286D01*
X101635030Y-86764286D01*
X102368840Y-86228572D02*
X101794554Y-87192858D01*
X102815507Y-86621429D02*
X102911221Y-86657143D01*
X102943126Y-86692858D01*
X102975030Y-86764286D01*
X102975030Y-86871429D01*
X102943126Y-86942858D01*
X102911221Y-86978572D01*
X102847411Y-87014286D01*
X102592173Y-87014286D01*
X102592173Y-86264286D01*
X102815507Y-86264286D01*
X102879316Y-86300001D01*
X102911221Y-86335715D01*
X102943126Y-86407143D01*
X102943126Y-86478572D01*
X102911221Y-86550001D01*
X102879316Y-86585715D01*
X102815507Y-86621429D01*
X102592173Y-86621429D01*
X103198364Y-86264286D02*
X103613126Y-86264286D01*
X103389792Y-86550001D01*
X103485507Y-86550001D01*
X103549316Y-86585715D01*
X103581221Y-86621429D01*
X103613126Y-86692858D01*
X103613126Y-86871429D01*
X103581221Y-86942858D01*
X103549316Y-86978572D01*
X103485507Y-87014286D01*
X103294078Y-87014286D01*
X103230269Y-86978572D01*
X103198364Y-86942858D01*
X102305030Y-64154286D02*
X102081697Y-63797143D01*
X101922173Y-64154286D02*
X101922173Y-63404286D01*
X102177411Y-63404286D01*
X102241221Y-63440001D01*
X102273126Y-63475715D01*
X102305030Y-63547143D01*
X102305030Y-63654286D01*
X102273126Y-63725715D01*
X102241221Y-63761429D01*
X102177411Y-63797143D01*
X101922173Y-63797143D01*
X102560269Y-63940001D02*
X102879316Y-63940001D01*
X102496459Y-64154286D02*
X102719792Y-63404286D01*
X102943126Y-64154286D01*
X103102650Y-63404286D02*
X103262173Y-64154286D01*
X103389792Y-63618572D01*
X103517411Y-64154286D01*
X103676935Y-63404286D01*
X91891459Y-89161429D02*
X91987173Y-89197143D01*
X92019078Y-89232858D01*
X92050983Y-89304286D01*
X92050983Y-89411429D01*
X92019078Y-89482858D01*
X91987173Y-89518572D01*
X91923364Y-89554286D01*
X91668126Y-89554286D01*
X91668126Y-88804286D01*
X91891459Y-88804286D01*
X91955269Y-88840001D01*
X91987173Y-88875715D01*
X92019078Y-88947143D01*
X92019078Y-89018572D01*
X91987173Y-89090001D01*
X91955269Y-89125715D01*
X91891459Y-89161429D01*
X91668126Y-89161429D01*
X92625269Y-89054286D02*
X92625269Y-89554286D01*
X92465745Y-88768572D02*
X92306221Y-89304286D01*
X92720983Y-89304286D01*
X93454792Y-88768572D02*
X92880507Y-89732858D01*
X93773840Y-89125715D02*
X93710030Y-89090001D01*
X93678126Y-89054286D01*
X93646221Y-88982858D01*
X93646221Y-88947143D01*
X93678126Y-88875715D01*
X93710030Y-88840001D01*
X93773840Y-88804286D01*
X93901459Y-88804286D01*
X93965269Y-88840001D01*
X93997173Y-88875715D01*
X94029078Y-88947143D01*
X94029078Y-88982858D01*
X93997173Y-89054286D01*
X93965269Y-89090001D01*
X93901459Y-89125715D01*
X93773840Y-89125715D01*
X93710030Y-89161429D01*
X93678126Y-89197143D01*
X93646221Y-89268572D01*
X93646221Y-89411429D01*
X93678126Y-89482858D01*
X93710030Y-89518572D01*
X93773840Y-89554286D01*
X93901459Y-89554286D01*
X93965269Y-89518572D01*
X93997173Y-89482858D01*
X94029078Y-89411429D01*
X94029078Y-89268572D01*
X93997173Y-89197143D01*
X93965269Y-89161429D01*
X93901459Y-89125715D01*
X91684078Y-74278572D02*
X91779792Y-74314286D01*
X91939316Y-74314286D01*
X92003126Y-74278572D01*
X92035030Y-74242858D01*
X92066935Y-74171429D01*
X92066935Y-74100001D01*
X92035030Y-74028572D01*
X92003126Y-73992858D01*
X91939316Y-73957143D01*
X91811697Y-73921429D01*
X91747888Y-73885715D01*
X91715983Y-73850001D01*
X91684078Y-73778572D01*
X91684078Y-73707143D01*
X91715983Y-73635715D01*
X91747888Y-73600001D01*
X91811697Y-73564286D01*
X91971221Y-73564286D01*
X92066935Y-73600001D01*
X92354078Y-74314286D02*
X92354078Y-73564286D01*
X92513602Y-73564286D01*
X92609316Y-73600001D01*
X92673126Y-73671429D01*
X92705030Y-73742858D01*
X92736935Y-73885715D01*
X92736935Y-73992858D01*
X92705030Y-74135715D01*
X92673126Y-74207143D01*
X92609316Y-74278572D01*
X92513602Y-74314286D01*
X92354078Y-74314286D01*
X92992173Y-74100001D02*
X93311221Y-74100001D01*
X92928364Y-74314286D02*
X93151697Y-73564286D01*
X93375030Y-74314286D01*
X94076935Y-73528572D02*
X93502650Y-74492858D01*
X94300269Y-74314286D02*
X94300269Y-73564286D01*
X94459792Y-73564286D01*
X94555507Y-73600001D01*
X94619316Y-73671429D01*
X94651221Y-73742858D01*
X94683126Y-73885715D01*
X94683126Y-73992858D01*
X94651221Y-74135715D01*
X94619316Y-74207143D01*
X94555507Y-74278572D01*
X94459792Y-74314286D01*
X94300269Y-74314286D01*
X95321221Y-74314286D02*
X94938364Y-74314286D01*
X95129792Y-74314286D02*
X95129792Y-73564286D01*
X95065983Y-73671429D01*
X95002173Y-73742858D01*
X94938364Y-73778572D01*
X96086935Y-73528572D02*
X95512650Y-74492858D01*
X96278364Y-73635715D02*
X96310269Y-73600001D01*
X96374078Y-73564286D01*
X96533602Y-73564286D01*
X96597411Y-73600001D01*
X96629316Y-73635715D01*
X96661221Y-73707143D01*
X96661221Y-73778572D01*
X96629316Y-73885715D01*
X96246459Y-74314286D01*
X96661221Y-74314286D01*
X91700030Y-86621429D02*
X91923364Y-86621429D01*
X92019078Y-87014286D02*
X91700030Y-87014286D01*
X91700030Y-86264286D01*
X92019078Y-86264286D01*
X92593364Y-86264286D02*
X92465745Y-86264286D01*
X92401935Y-86300001D01*
X92370030Y-86335715D01*
X92306221Y-86442858D01*
X92274316Y-86585715D01*
X92274316Y-86871429D01*
X92306221Y-86942858D01*
X92338126Y-86978572D01*
X92401935Y-87014286D01*
X92529554Y-87014286D01*
X92593364Y-86978572D01*
X92625269Y-86942858D01*
X92657173Y-86871429D01*
X92657173Y-86692858D01*
X92625269Y-86621429D01*
X92593364Y-86585715D01*
X92529554Y-86550001D01*
X92401935Y-86550001D01*
X92338126Y-86585715D01*
X92306221Y-86621429D01*
X92274316Y-86692858D01*
X93422888Y-86228572D02*
X92848602Y-87192858D01*
X93582411Y-86264286D02*
X94029078Y-86264286D01*
X93741935Y-87014286D01*
X100965030Y-89554286D02*
X100582173Y-89554286D01*
X100773602Y-89554286D02*
X100773602Y-88804286D01*
X100709792Y-88911429D01*
X100645983Y-88982858D01*
X100582173Y-89018572D01*
X101539316Y-88804286D02*
X101411697Y-88804286D01*
X101347888Y-88840001D01*
X101315983Y-88875715D01*
X101252173Y-88982858D01*
X101220269Y-89125715D01*
X101220269Y-89411429D01*
X101252173Y-89482858D01*
X101284078Y-89518572D01*
X101347888Y-89554286D01*
X101475507Y-89554286D01*
X101539316Y-89518572D01*
X101571221Y-89482858D01*
X101603126Y-89411429D01*
X101603126Y-89232858D01*
X101571221Y-89161429D01*
X101539316Y-89125715D01*
X101475507Y-89090001D01*
X101347888Y-89090001D01*
X101284078Y-89125715D01*
X101252173Y-89161429D01*
X101220269Y-89232858D01*
X102368840Y-88768572D02*
X101794554Y-89732858D01*
X102815507Y-89161429D02*
X102911221Y-89197143D01*
X102943126Y-89232858D01*
X102975030Y-89304286D01*
X102975030Y-89411429D01*
X102943126Y-89482858D01*
X102911221Y-89518572D01*
X102847411Y-89554286D01*
X102592173Y-89554286D01*
X102592173Y-88804286D01*
X102815507Y-88804286D01*
X102879316Y-88840001D01*
X102911221Y-88875715D01*
X102943126Y-88947143D01*
X102943126Y-89018572D01*
X102911221Y-89090001D01*
X102879316Y-89125715D01*
X102815507Y-89161429D01*
X102592173Y-89161429D01*
X103230269Y-88875715D02*
X103262173Y-88840001D01*
X103325983Y-88804286D01*
X103485507Y-88804286D01*
X103549316Y-88840001D01*
X103581221Y-88875715D01*
X103613126Y-88947143D01*
X103613126Y-89018572D01*
X103581221Y-89125715D01*
X103198364Y-89554286D01*
X103613126Y-89554286D01*
X100661935Y-76640001D02*
X100980983Y-76640001D01*
X100598126Y-76854286D02*
X100821459Y-76104286D01*
X101044792Y-76854286D01*
X101236221Y-76175715D02*
X101268126Y-76140001D01*
X101331935Y-76104286D01*
X101491459Y-76104286D01*
X101555269Y-76140001D01*
X101587173Y-76175715D01*
X101619078Y-76247143D01*
X101619078Y-76318572D01*
X101587173Y-76425715D01*
X101204316Y-76854286D01*
X101619078Y-76854286D01*
X102384792Y-76068572D02*
X101810507Y-77032858D01*
X102831459Y-76461429D02*
X102608126Y-76461429D01*
X102608126Y-76854286D02*
X102608126Y-76104286D01*
X102927173Y-76104286D01*
X103501459Y-76104286D02*
X103182411Y-76104286D01*
X103150507Y-76461429D01*
X103182411Y-76425715D01*
X103246221Y-76390001D01*
X103405745Y-76390001D01*
X103469554Y-76425715D01*
X103501459Y-76461429D01*
X103533364Y-76532858D01*
X103533364Y-76711429D01*
X103501459Y-76782858D01*
X103469554Y-76818572D01*
X103405745Y-76854286D01*
X103246221Y-76854286D01*
X103182411Y-76818572D01*
X103150507Y-76782858D01*
X100965030Y-92094286D02*
X100582173Y-92094286D01*
X100773602Y-92094286D02*
X100773602Y-91344286D01*
X100709792Y-91451429D01*
X100645983Y-91522858D01*
X100582173Y-91558572D01*
X101379792Y-91344286D02*
X101443602Y-91344286D01*
X101507411Y-91380001D01*
X101539316Y-91415715D01*
X101571221Y-91487143D01*
X101603126Y-91630001D01*
X101603126Y-91808572D01*
X101571221Y-91951429D01*
X101539316Y-92022858D01*
X101507411Y-92058572D01*
X101443602Y-92094286D01*
X101379792Y-92094286D01*
X101315983Y-92058572D01*
X101284078Y-92022858D01*
X101252173Y-91951429D01*
X101220269Y-91808572D01*
X101220269Y-91630001D01*
X101252173Y-91487143D01*
X101284078Y-91415715D01*
X101315983Y-91380001D01*
X101379792Y-91344286D01*
X102368840Y-91308572D02*
X101794554Y-92272858D01*
X102815507Y-91701429D02*
X102911221Y-91737143D01*
X102943126Y-91772858D01*
X102975030Y-91844286D01*
X102975030Y-91951429D01*
X102943126Y-92022858D01*
X102911221Y-92058572D01*
X102847411Y-92094286D01*
X102592173Y-92094286D01*
X102592173Y-91344286D01*
X102815507Y-91344286D01*
X102879316Y-91380001D01*
X102911221Y-91415715D01*
X102943126Y-91487143D01*
X102943126Y-91558572D01*
X102911221Y-91630001D01*
X102879316Y-91665715D01*
X102815507Y-91701429D01*
X102592173Y-91701429D01*
X103549316Y-91344286D02*
X103421697Y-91344286D01*
X103357888Y-91380001D01*
X103325983Y-91415715D01*
X103262173Y-91522858D01*
X103230269Y-91665715D01*
X103230269Y-91951429D01*
X103262173Y-92022858D01*
X103294078Y-92058572D01*
X103357888Y-92094286D01*
X103485507Y-92094286D01*
X103549316Y-92058572D01*
X103581221Y-92022858D01*
X103613126Y-91951429D01*
X103613126Y-91772858D01*
X103581221Y-91701429D01*
X103549316Y-91665715D01*
X103485507Y-91630001D01*
X103357888Y-91630001D01*
X103294078Y-91665715D01*
X103262173Y-91701429D01*
X103230269Y-91772858D01*
X101874316Y-71024286D02*
X102097650Y-71774286D01*
X102320983Y-71024286D01*
X102927173Y-71702858D02*
X102895269Y-71738572D01*
X102799554Y-71774286D01*
X102735745Y-71774286D01*
X102640030Y-71738572D01*
X102576221Y-71667143D01*
X102544316Y-71595715D01*
X102512411Y-71452858D01*
X102512411Y-71345715D01*
X102544316Y-71202858D01*
X102576221Y-71131429D01*
X102640030Y-71060001D01*
X102735745Y-71024286D01*
X102799554Y-71024286D01*
X102895269Y-71060001D01*
X102927173Y-71095715D01*
X103597173Y-71702858D02*
X103565269Y-71738572D01*
X103469554Y-71774286D01*
X103405745Y-71774286D01*
X103310030Y-71738572D01*
X103246221Y-71667143D01*
X103214316Y-71595715D01*
X103182411Y-71452858D01*
X103182411Y-71345715D01*
X103214316Y-71202858D01*
X103246221Y-71131429D01*
X103310030Y-71060001D01*
X103405745Y-71024286D01*
X103469554Y-71024286D01*
X103565269Y-71060001D01*
X103597173Y-71095715D01*
D11*
X321366666Y-78682380D02*
X321366666Y-79396666D01*
X321319047Y-79539523D01*
X321223809Y-79634761D01*
X321080952Y-79682380D01*
X320985714Y-79682380D01*
X322271428Y-79015714D02*
X322271428Y-79682380D01*
X322033333Y-78634761D02*
X321795238Y-79349047D01*
X322414285Y-79349047D01*
X330660416Y-116796130D02*
X330660416Y-117510416D01*
X330612797Y-117653273D01*
X330517559Y-117748511D01*
X330374702Y-117796130D01*
X330279464Y-117796130D01*
X331612797Y-116796130D02*
X331136607Y-116796130D01*
X331088988Y-117272321D01*
X331136607Y-117224702D01*
X331231845Y-117177083D01*
X331469940Y-117177083D01*
X331565178Y-117224702D01*
X331612797Y-117272321D01*
X331660416Y-117367559D01*
X331660416Y-117605654D01*
X331612797Y-117700892D01*
X331565178Y-117748511D01*
X331469940Y-117796130D01*
X331231845Y-117796130D01*
X331136607Y-117748511D01*
X331088988Y-117700892D01*
X112931250Y-60110000D02*
X120431250Y-60110000D01*
X112931250Y-66360000D02*
X120431250Y-66360000D01*
X112931250Y-60110000D02*
X112931250Y-63360000D01*
D12*
X118431250Y-58510000D02*
X118431250Y-60110000D01*
X114931250Y-58510000D02*
X118431250Y-58510000D01*
D11*
X120431250Y-60110000D02*
X120431250Y-63360000D01*
D12*
X114931250Y-58510000D02*
X114931250Y-60110000D01*
X72730000Y-123670000D02*
X72730000Y-125000000D01*
X72730000Y-126270000D02*
X72730000Y-133950000D01*
X71400000Y-123670000D02*
X72730000Y-123670000D01*
X70070000Y-133950000D02*
X72730000Y-133950000D01*
X70070000Y-126270000D02*
X72730000Y-126270000D01*
X70070000Y-126270000D02*
X70070000Y-133950000D01*
X301685000Y-66043750D02*
X301685000Y-67373750D01*
X299085000Y-64713750D02*
X291405000Y-64713750D01*
X291405000Y-64713750D02*
X291405000Y-67373750D01*
X301685000Y-67373750D02*
X300355000Y-67373750D01*
X299085000Y-64713750D02*
X299085000Y-67373750D01*
X299085000Y-67373750D02*
X291405000Y-67373750D01*
X70070000Y-79270000D02*
X72730000Y-79270000D01*
X70070000Y-79270000D02*
X70070000Y-86950000D01*
X72730000Y-79270000D02*
X72730000Y-86950000D01*
X72730000Y-76670000D02*
X72730000Y-78000000D01*
X71400000Y-76670000D02*
X72730000Y-76670000D01*
X70070000Y-86950000D02*
X72730000Y-86950000D01*
X106521250Y-93025001D02*
X106521250Y-62545001D01*
X91281250Y-93025001D02*
X88741250Y-93025001D01*
X103981250Y-62545001D02*
X103981250Y-93025001D01*
X88741250Y-93025001D02*
X88741250Y-62545001D01*
X103981250Y-93025001D02*
X106521250Y-93025001D01*
X88741250Y-62545001D02*
X91281250Y-62545001D01*
X106521250Y-62545001D02*
X103981250Y-62545001D01*
X91281250Y-62545001D02*
X91281250Y-93025001D01*
X323030000Y-83270000D02*
X323030000Y-85870000D01*
X320370000Y-83270000D02*
X323030000Y-83270000D01*
X321700000Y-80670000D02*
X323030000Y-80670000D01*
X320370000Y-85870000D02*
X323030000Y-85870000D01*
X320370000Y-83270000D02*
X320370000Y-85870000D01*
X323030000Y-80670000D02*
X323030000Y-82000000D01*
X332323750Y-118783750D02*
X332323750Y-120113750D01*
X329663750Y-121383750D02*
X329663750Y-123983750D01*
X329663750Y-123983750D02*
X332323750Y-123983750D01*
X330993750Y-118783750D02*
X332323750Y-118783750D01*
X332323750Y-121383750D02*
X332323750Y-123983750D01*
X329663750Y-121383750D02*
X332323750Y-121383750D01*
M02*
