M48
; DRILL file {KiCad (6.0.11)} date Mon Nov 25 11:34:47 2024
; FORMAT={-:-/ absolute / metric / decimal}
; #@! TF.CreationDate,2024-11-25T11:34:47+09:00
; #@! TF.GenerationSoftware,Kicad,Pcbnew,(6.0.11)
; #@! TF.FileFunction,Plated,1,2,PTH
FMAT,2
METRIC
; #@! TA.AperFunction,Plated,PTH,ComponentDrill
T1C0.850
; #@! TA.AperFunction,Plated,PTH,ComponentDrill
T2C1.000
%
G90
G05
T1
X90.011Y-63.815
X90.011Y-66.355
X90.011Y-68.895
X90.011Y-71.435
X90.011Y-73.975
X90.011Y-76.515
X90.011Y-79.055
X90.011Y-81.595
X90.011Y-84.135
X90.011Y-86.675
X90.011Y-89.215
X90.011Y-91.755
X105.251Y-63.815
X105.251Y-66.355
X105.251Y-68.895
X105.251Y-71.435
X105.251Y-73.975
X105.251Y-76.515
X105.251Y-79.055
X105.251Y-81.595
X105.251Y-84.135
X105.251Y-86.675
X105.251Y-89.215
X105.251Y-91.755
T2
X71.4Y-78.0
X71.4Y-80.54
X71.4Y-83.08
X71.4Y-85.62
X71.4Y-125.0
X71.4Y-127.54
X71.4Y-130.08
X71.4Y-132.62
X114.431Y-62.36
X118.931Y-62.36
X292.735Y-66.044
X295.275Y-66.044
X297.815Y-66.044
X300.355Y-66.044
X321.7Y-82.0
X321.7Y-84.54
X330.994Y-120.114
X330.994Y-122.654
T0
M30
