G04 #@! TF.GenerationSoftware,KiCad,Pcbnew,(6.0.11)*
G04 #@! TF.CreationDate,2024-11-25T11:34:44+09:00*
G04 #@! TF.ProjectId,Flame60_PCB_Layer2,466c616d-6536-4305-9f50-43425f4c6179,rev?*
G04 #@! TF.SameCoordinates,Original*
G04 #@! TF.FileFunction,Soldermask,Bot*
G04 #@! TF.FilePolarity,Negative*
%FSLAX46Y46*%
G04 Gerber Fmt 4.6, Leading zero omitted, Abs format (unit mm)*
G04 Created by KiCad (PCBNEW (6.0.11)) date 2024-11-25 11:34:44*
%MOMM*%
%LPD*%
G01*
G04 APERTURE LIST*
%ADD10C,1.000000*%
%ADD11C,2.000000*%
%ADD12C,2.200000*%
%ADD13R,1.700000X1.700000*%
%ADD14O,1.700000X1.700000*%
%ADD15C,1.524000*%
G04 APERTURE END LIST*
D10*
X113181250Y-64860000D03*
X120181250Y-64860000D03*
D11*
X118931250Y-62360000D03*
X114431250Y-62360000D03*
D12*
X358000000Y-61000000D03*
X358000000Y-141000000D03*
X162000000Y-163000000D03*
X261000000Y-163000000D03*
D13*
X71400000Y-125000000D03*
D14*
X71400000Y-127540000D03*
X71400000Y-130080000D03*
X71400000Y-132620000D03*
D12*
X66000000Y-61000000D03*
X358000000Y-163000000D03*
X66000000Y-83000000D03*
D13*
X300355000Y-66043750D03*
D14*
X297815000Y-66043750D03*
X295275000Y-66043750D03*
X292735000Y-66043750D03*
D13*
X71400000Y-78000000D03*
D14*
X71400000Y-80540000D03*
X71400000Y-83080000D03*
X71400000Y-85620000D03*
D15*
X90011250Y-63815001D03*
X90011250Y-66355001D03*
X90011250Y-68895001D03*
X90011250Y-71435001D03*
X90011250Y-73975001D03*
X90011250Y-76515001D03*
X90011250Y-79055001D03*
X90011250Y-81595001D03*
X90011250Y-84135001D03*
X90011250Y-86675001D03*
X90011250Y-89215001D03*
X90011250Y-91755001D03*
X105251250Y-91755001D03*
X105251250Y-89215001D03*
X105251250Y-86675001D03*
X105251250Y-84135001D03*
X105251250Y-81595001D03*
X105251250Y-79055001D03*
X105251250Y-76515001D03*
X105251250Y-73975001D03*
X105251250Y-71435001D03*
X105251250Y-68895001D03*
X105251250Y-66355001D03*
X105251250Y-63815001D03*
D13*
X321700000Y-82000000D03*
D14*
X321700000Y-84540000D03*
D12*
X66000000Y-163000000D03*
X358000000Y-83000000D03*
D13*
X330993750Y-120113750D03*
D14*
X330993750Y-122653750D03*
D12*
X66000000Y-141000000D03*
X162000000Y-61000000D03*
X261000000Y-61000000D03*
M02*
