G04 #@! TF.GenerationSoftware,KiCad,Pcbnew,(6.0.11)*
G04 #@! TF.CreationDate,2024-11-25T11:35:45+09:00*
G04 #@! TF.ProjectId,Flame60_Bottom,466c616d-6536-4305-9f42-6f74746f6d2e,rev?*
G04 #@! TF.SameCoordinates,Original*
G04 #@! TF.FileFunction,Legend,Bot*
G04 #@! TF.FilePolarity,Positive*
%FSLAX46Y46*%
G04 Gerber Fmt 4.6, Leading zero omitted, Abs format (unit mm)*
G04 Created by KiCad (PCBNEW (6.0.11)) date 2024-11-25 11:35:45*
%MOMM*%
%LPD*%
G01*
G04 APERTURE LIST*
G04 APERTURE END LIST*
G36*
X194772023Y-133144099D02*
G01*
X194993387Y-133192719D01*
X195036980Y-134222450D01*
X195065596Y-134693149D01*
X195126693Y-135223662D01*
X195212080Y-135626764D01*
X195320105Y-135895242D01*
X195449117Y-136021886D01*
X195504491Y-136016120D01*
X195656678Y-135916828D01*
X195890633Y-135703732D01*
X196210332Y-135373444D01*
X196856533Y-134680868D01*
X197251060Y-134949734D01*
X197346809Y-135016484D01*
X197531630Y-135166928D01*
X197621806Y-135294986D01*
X197645587Y-135435438D01*
X197661673Y-135677513D01*
X197726749Y-136080698D01*
X197829241Y-136522460D01*
X197955579Y-136946268D01*
X198092189Y-137295591D01*
X198247993Y-137582214D01*
X198604212Y-138045634D01*
X199033664Y-138421151D01*
X199504630Y-138677728D01*
X199978896Y-138808360D01*
X200607647Y-138856698D01*
X201284365Y-138790218D01*
X201983314Y-138609627D01*
X202105306Y-138567310D01*
X202480143Y-138427134D01*
X202838560Y-138280371D01*
X203117009Y-138152634D01*
X203557652Y-137930199D01*
X205095522Y-138410103D01*
X204921294Y-138569032D01*
X204902511Y-138585951D01*
X204630267Y-138805466D01*
X204251035Y-139078707D01*
X203788591Y-139390669D01*
X203266708Y-139726345D01*
X202709162Y-140070729D01*
X202139727Y-140408815D01*
X201582176Y-140725596D01*
X201060285Y-141006066D01*
X200890654Y-141093176D01*
X200546221Y-141264515D01*
X200254783Y-141402148D01*
X200042894Y-141493760D01*
X199937106Y-141527034D01*
X199834450Y-141492216D01*
X199647693Y-141386603D01*
X199427126Y-141234908D01*
X198961982Y-140918660D01*
X198102893Y-140461903D01*
X197168586Y-140104226D01*
X196191301Y-139857101D01*
X195203279Y-139731999D01*
X194451800Y-139685910D01*
X194320857Y-139015311D01*
X194295395Y-138887472D01*
X194080509Y-137981925D01*
X193828757Y-137209167D01*
X193534522Y-136556471D01*
X193192189Y-136011111D01*
X192796141Y-135560362D01*
X192603268Y-135367733D01*
X192392775Y-135114748D01*
X192282409Y-134892601D01*
X192257908Y-134667794D01*
X192305009Y-134406826D01*
X192317753Y-134360459D01*
X192398110Y-134131707D01*
X192493044Y-134017643D01*
X192625113Y-134016528D01*
X192816873Y-134126621D01*
X193090880Y-134346180D01*
X193179257Y-134420091D01*
X193400836Y-134595721D01*
X193572283Y-134717902D01*
X193662242Y-134763720D01*
X193698654Y-134708423D01*
X193710727Y-134509798D01*
X193691518Y-134165464D01*
X193674392Y-133815959D01*
X193702562Y-133521162D01*
X193794386Y-133326957D01*
X193962115Y-133209604D01*
X194218000Y-133145365D01*
X194288515Y-133136424D01*
X194554804Y-133124641D01*
X194772023Y-133144099D01*
G37*
G36*
X193747499Y-87292869D02*
G01*
X194311443Y-87350186D01*
X194765823Y-87456957D01*
X195143413Y-87623641D01*
X195476985Y-87860700D01*
X195762559Y-88164868D01*
X196006662Y-88618171D01*
X196122664Y-89149437D01*
X196161174Y-89574141D01*
X195068896Y-90449979D01*
X194842139Y-90634179D01*
X194392710Y-91010070D01*
X193934502Y-91405064D01*
X193510112Y-91782199D01*
X193162138Y-92104511D01*
X192347658Y-92883206D01*
X191694579Y-92848002D01*
X191536602Y-92842554D01*
X190935350Y-92875665D01*
X190290214Y-92995780D01*
X189585322Y-93207437D01*
X188804798Y-93515177D01*
X187932769Y-93923537D01*
X187518459Y-94137399D01*
X186971056Y-94454714D01*
X186493711Y-94786095D01*
X186041009Y-95164148D01*
X185567532Y-95621476D01*
X185422941Y-95770790D01*
X184770473Y-96504796D01*
X184150680Y-97309146D01*
X183544598Y-98209834D01*
X182933264Y-99232859D01*
X182510741Y-100011613D01*
X182033821Y-100962254D01*
X181559840Y-101975086D01*
X181108582Y-103006279D01*
X180699834Y-104011998D01*
X180353381Y-104948413D01*
X180273097Y-105173376D01*
X180173388Y-105435492D01*
X180097413Y-105614659D01*
X180057206Y-105681105D01*
X180044788Y-105649177D01*
X180043670Y-105495299D01*
X180060870Y-105238491D01*
X180093597Y-104906035D01*
X180139060Y-104525216D01*
X180194469Y-104123319D01*
X180257032Y-103727626D01*
X180266284Y-103673635D01*
X180613400Y-102034112D01*
X181084903Y-100392054D01*
X181671602Y-98765458D01*
X182364305Y-97172318D01*
X183153819Y-95630631D01*
X184030953Y-94158392D01*
X184986513Y-92773598D01*
X186011309Y-91494244D01*
X187096148Y-90338327D01*
X187523296Y-89932102D01*
X188419986Y-89162284D01*
X189294293Y-88531122D01*
X190156439Y-88033886D01*
X191016645Y-87665849D01*
X191885136Y-87422284D01*
X192772131Y-87298463D01*
X193687854Y-87289658D01*
X193747499Y-87292869D01*
G37*
G36*
X231311859Y-141525478D02*
G01*
X231311397Y-141530191D01*
X231254483Y-141636918D01*
X231111816Y-141837413D01*
X230896738Y-142115173D01*
X230622593Y-142453691D01*
X230302722Y-142836463D01*
X229950471Y-143246985D01*
X229579180Y-143668750D01*
X228390831Y-144929474D01*
X227103883Y-146148844D01*
X225778801Y-147263510D01*
X224427507Y-148264664D01*
X223061925Y-149143494D01*
X221693978Y-149891191D01*
X220335588Y-150498944D01*
X219824945Y-150690445D01*
X218397969Y-151119693D01*
X216902873Y-151421695D01*
X215352603Y-151593607D01*
X215185416Y-151604285D01*
X214164543Y-151648948D01*
X213045209Y-151667619D01*
X211868649Y-151661274D01*
X210676096Y-151630892D01*
X209508784Y-151577452D01*
X208407946Y-151501930D01*
X207414817Y-151405306D01*
X207352691Y-151398068D01*
X206178372Y-151238911D01*
X204952263Y-151033793D01*
X203708046Y-150790215D01*
X202479399Y-150515677D01*
X201300005Y-150217679D01*
X200203543Y-149903721D01*
X199223693Y-149581302D01*
X199207643Y-149575565D01*
X199015445Y-149500024D01*
X198926151Y-149442910D01*
X198949227Y-149399607D01*
X199094134Y-149365499D01*
X199370339Y-149335971D01*
X199787303Y-149306407D01*
X200087266Y-149286411D01*
X201290329Y-149187844D01*
X202501186Y-149060940D01*
X203700076Y-148909035D01*
X204867240Y-148735469D01*
X205982917Y-148543580D01*
X207027347Y-148336705D01*
X207980770Y-148118184D01*
X208823427Y-147891353D01*
X209535556Y-147659552D01*
X210136659Y-147432956D01*
X211064275Y-147059981D01*
X212065717Y-146634086D01*
X213108976Y-146169610D01*
X214162041Y-145680889D01*
X215192903Y-145182262D01*
X216169551Y-144688066D01*
X217296770Y-144103128D01*
X218574285Y-144056415D01*
X219993133Y-143973385D01*
X221591563Y-143813523D01*
X223221595Y-143586763D01*
X224853482Y-143298948D01*
X226457474Y-142955923D01*
X228003825Y-142563530D01*
X229462786Y-142127612D01*
X230804610Y-141654014D01*
X230841795Y-141639870D01*
X231080019Y-141558712D01*
X231248169Y-141517677D01*
X231311859Y-141525478D01*
G37*
G36*
X256585665Y-113586604D02*
G01*
X256574277Y-114192356D01*
X256556961Y-114719315D01*
X256533009Y-115189926D01*
X256501718Y-115626634D01*
X256462384Y-116051886D01*
X256324806Y-117263207D01*
X255944363Y-119781644D01*
X255442792Y-122221518D01*
X254816985Y-124593936D01*
X254063835Y-126910003D01*
X253180233Y-129180825D01*
X252163073Y-131417509D01*
X251984815Y-131778724D01*
X250766007Y-134056344D01*
X249428855Y-136245601D01*
X247978144Y-138342995D01*
X246418660Y-140345025D01*
X244755186Y-142248192D01*
X242992508Y-144048994D01*
X241135411Y-145743932D01*
X239188678Y-147329504D01*
X237157095Y-148802211D01*
X235045446Y-150158551D01*
X232858517Y-151395025D01*
X230601092Y-152508132D01*
X228277955Y-153494371D01*
X225893892Y-154350242D01*
X223453686Y-155072245D01*
X220962124Y-155656879D01*
X218423989Y-156100644D01*
X218287754Y-156119937D01*
X217739253Y-156190658D01*
X217098808Y-156264939D01*
X216411354Y-156338134D01*
X215721827Y-156405596D01*
X215075162Y-156462678D01*
X214516297Y-156504734D01*
X214180971Y-156520193D01*
X213720323Y-156531531D01*
X213168066Y-156538608D01*
X212553738Y-156541559D01*
X211906876Y-156540522D01*
X211257017Y-156535633D01*
X210633699Y-156527028D01*
X210066460Y-156514843D01*
X209584837Y-156499215D01*
X209218368Y-156480280D01*
X208936704Y-156460136D01*
X206300558Y-156192632D01*
X203721304Y-155786113D01*
X201197785Y-155240188D01*
X198728847Y-154554465D01*
X196313336Y-153728554D01*
X193950095Y-152762064D01*
X191637971Y-151654603D01*
X189375808Y-150405782D01*
X187162451Y-149015209D01*
X186279362Y-148409656D01*
X184242659Y-146884799D01*
X182292484Y-145240761D01*
X180435595Y-143484536D01*
X178678754Y-141623116D01*
X177028721Y-139663496D01*
X175492255Y-137612668D01*
X174076118Y-135477626D01*
X173869553Y-135142454D01*
X172593906Y-132908586D01*
X171450838Y-130607422D01*
X170442976Y-128246156D01*
X169572948Y-125831979D01*
X168843380Y-123372082D01*
X168256902Y-120873658D01*
X167816139Y-118343898D01*
X167718712Y-117648739D01*
X167630776Y-116961806D01*
X167560432Y-116323232D01*
X167505872Y-115704650D01*
X167465288Y-115077693D01*
X167436870Y-114413992D01*
X167418811Y-113685180D01*
X167409301Y-112862888D01*
X167406533Y-111918750D01*
X167406962Y-111722607D01*
X168747807Y-111722607D01*
X168750275Y-112599039D01*
X168761108Y-113455545D01*
X168780303Y-114266241D01*
X168807858Y-115005241D01*
X168843769Y-115646658D01*
X168888034Y-116164608D01*
X168955163Y-116751757D01*
X169340146Y-119347207D01*
X169862397Y-121882356D01*
X170521649Y-124356518D01*
X171317635Y-126769006D01*
X172250088Y-129119136D01*
X173318741Y-131406223D01*
X174523328Y-133629579D01*
X175863582Y-135788520D01*
X177339235Y-137882359D01*
X178107531Y-138873540D01*
X179531019Y-140555718D01*
X181067439Y-142195298D01*
X182694101Y-143770741D01*
X184388315Y-145260507D01*
X186127392Y-146643056D01*
X187888641Y-147896850D01*
X189811318Y-149114709D01*
X192030246Y-150354617D01*
X194306449Y-151455734D01*
X196638842Y-152417691D01*
X199026339Y-153240118D01*
X201467854Y-153922644D01*
X203962300Y-154464900D01*
X206508593Y-154866515D01*
X209105646Y-155127120D01*
X209382632Y-155143679D01*
X209905195Y-155163972D01*
X210525644Y-155178606D01*
X211212969Y-155187598D01*
X211936161Y-155190963D01*
X212664208Y-155188718D01*
X213366102Y-155180880D01*
X214010831Y-155167465D01*
X214567387Y-155148490D01*
X215004758Y-155123972D01*
X217443226Y-154877581D01*
X219983440Y-154477836D01*
X222475841Y-153936639D01*
X224917395Y-153255243D01*
X227305067Y-152434900D01*
X229635821Y-151476865D01*
X231906623Y-150382392D01*
X234114438Y-149152732D01*
X236256231Y-147789140D01*
X238328967Y-146292869D01*
X240329610Y-144665173D01*
X240479239Y-144534748D01*
X241028394Y-144037257D01*
X241637941Y-143460910D01*
X242282964Y-142830961D01*
X242938547Y-142172663D01*
X243579774Y-141511270D01*
X244181729Y-140872036D01*
X244719496Y-140280214D01*
X245168158Y-139761058D01*
X245418621Y-139458281D01*
X247000812Y-137414433D01*
X248446685Y-135307365D01*
X249756278Y-133136991D01*
X250929625Y-130903226D01*
X251966763Y-128605984D01*
X252867728Y-126245178D01*
X253632556Y-123820724D01*
X254261284Y-121332535D01*
X254753948Y-118780525D01*
X255110584Y-116164608D01*
X255136637Y-115889920D01*
X255176038Y-115302151D01*
X255207059Y-114604878D01*
X255229704Y-113823987D01*
X255243975Y-112985363D01*
X255249875Y-112114893D01*
X255247407Y-111238461D01*
X255236574Y-110381955D01*
X255217379Y-109571258D01*
X255189824Y-108832259D01*
X255153913Y-108190841D01*
X255109648Y-107672892D01*
X255056051Y-107197284D01*
X254723335Y-104837903D01*
X254286747Y-102566656D01*
X253740985Y-100361625D01*
X253080748Y-98200891D01*
X252300731Y-96062537D01*
X252193488Y-95790782D01*
X252025497Y-95367700D01*
X251886649Y-95024861D01*
X251761336Y-94726263D01*
X251633953Y-94435909D01*
X251488893Y-94117798D01*
X251310551Y-93735932D01*
X251083319Y-93254311D01*
X250725634Y-92521663D01*
X250001900Y-91151241D01*
X249200107Y-89756126D01*
X248346461Y-88379465D01*
X247467169Y-87064404D01*
X246588439Y-85854090D01*
X245591744Y-84596757D01*
X244190910Y-82980340D01*
X242697279Y-81411383D01*
X241132367Y-79910306D01*
X239517692Y-78497531D01*
X237874772Y-77193480D01*
X236225123Y-76018574D01*
X235588034Y-75599343D01*
X233429662Y-74291260D01*
X231207041Y-73111458D01*
X228928638Y-72063071D01*
X226602917Y-71149232D01*
X224238345Y-70373073D01*
X221843388Y-69737727D01*
X219426510Y-69246329D01*
X216996178Y-68902010D01*
X215205034Y-68739248D01*
X212645868Y-68630518D01*
X210099613Y-68667556D01*
X207572260Y-68849528D01*
X205069800Y-69175599D01*
X202598225Y-69644936D01*
X200163527Y-70256705D01*
X197771695Y-71010071D01*
X195428723Y-71904201D01*
X195244948Y-71981148D01*
X192968908Y-73013358D01*
X190789615Y-74153519D01*
X188698314Y-75407579D01*
X186686247Y-76781488D01*
X184744660Y-78281196D01*
X182864794Y-79912651D01*
X181037894Y-81681804D01*
X180030411Y-82742337D01*
X178397406Y-84619536D01*
X176895635Y-86561135D01*
X175518265Y-88576774D01*
X174258461Y-90676099D01*
X173109389Y-92868750D01*
X172686687Y-93757235D01*
X171737674Y-95961553D01*
X170920779Y-98191449D01*
X170231640Y-100462227D01*
X169665889Y-102789191D01*
X169219164Y-105187645D01*
X168887099Y-107672892D01*
X168861045Y-107947580D01*
X168821644Y-108535349D01*
X168790623Y-109232622D01*
X168767978Y-110013513D01*
X168753707Y-110852137D01*
X168747807Y-111722607D01*
X167406962Y-111722607D01*
X167408377Y-111076563D01*
X167414661Y-110323377D01*
X167426037Y-109679777D01*
X167443152Y-109124983D01*
X167466655Y-108638212D01*
X167497193Y-108198683D01*
X167535415Y-107785614D01*
X167669138Y-106619656D01*
X168047541Y-104109922D01*
X168543325Y-101682000D01*
X169160507Y-99322864D01*
X169903103Y-97019492D01*
X170775129Y-94758860D01*
X171780602Y-92527944D01*
X172923538Y-90313720D01*
X173577112Y-89167937D01*
X174869503Y-87121737D01*
X176290994Y-85126743D01*
X177829701Y-83197493D01*
X179473743Y-81348523D01*
X181211234Y-79594370D01*
X183030293Y-77949574D01*
X183789663Y-77315214D01*
X185836354Y-75739408D01*
X187961381Y-74290768D01*
X190160296Y-72971362D01*
X192428651Y-71783262D01*
X194761998Y-70728538D01*
X197155887Y-69809259D01*
X199605871Y-69027497D01*
X202107502Y-68385320D01*
X204656332Y-67884801D01*
X204972572Y-67833201D01*
X207517636Y-67502249D01*
X210066269Y-67318852D01*
X212612078Y-67281469D01*
X215148672Y-67388560D01*
X217669655Y-67638582D01*
X220168636Y-68029995D01*
X222639221Y-68561259D01*
X225075017Y-69230832D01*
X227469631Y-70037173D01*
X229816670Y-70978742D01*
X232109740Y-72053997D01*
X234342448Y-73261398D01*
X236508402Y-74599404D01*
X238601208Y-76066473D01*
X240213384Y-77325537D01*
X242161251Y-79013372D01*
X244000574Y-80800080D01*
X245728249Y-82680465D01*
X247341172Y-84649332D01*
X248836240Y-86701485D01*
X250210349Y-88831730D01*
X251460395Y-91034871D01*
X252583275Y-93305713D01*
X253575884Y-95639060D01*
X254435119Y-98029718D01*
X255157877Y-100472492D01*
X255741052Y-102962184D01*
X256181543Y-105493602D01*
X256260564Y-106054262D01*
X256352727Y-106762248D01*
X256426719Y-107418302D01*
X256484402Y-108051301D01*
X256527637Y-108690123D01*
X256558286Y-109363644D01*
X256578211Y-110100742D01*
X256589273Y-110930294D01*
X256593334Y-111881176D01*
X256593468Y-112048941D01*
X256593338Y-112114893D01*
X256591827Y-112879615D01*
X256585665Y-113586604D01*
G37*
G36*
X185345476Y-137831033D02*
G01*
X185468837Y-137999169D01*
X185631030Y-138262366D01*
X186176145Y-139103903D01*
X186867448Y-139993143D01*
X187646157Y-140847868D01*
X188481570Y-141634517D01*
X189342982Y-142319531D01*
X189793506Y-142618535D01*
X190379025Y-142960894D01*
X191026418Y-143303080D01*
X191692827Y-143623551D01*
X192335395Y-143900766D01*
X192911267Y-144113180D01*
X193580915Y-144313720D01*
X194440608Y-144530666D01*
X195318243Y-144714277D01*
X196142628Y-144848357D01*
X196219432Y-144858112D01*
X196745922Y-144904590D01*
X197380029Y-144933556D01*
X198086252Y-144945538D01*
X198829091Y-144941064D01*
X199573044Y-144920665D01*
X200282611Y-144884869D01*
X200922292Y-144834204D01*
X201456585Y-144769200D01*
X201768596Y-144721504D01*
X202157240Y-144660298D01*
X202425522Y-144610597D01*
X202590618Y-144564419D01*
X202669708Y-144513784D01*
X202679970Y-144450713D01*
X202638583Y-144367225D01*
X202562724Y-144255339D01*
X202435364Y-144034308D01*
X202285940Y-143634225D01*
X202230029Y-143250289D01*
X202238799Y-143107890D01*
X202333938Y-142709608D01*
X202513551Y-142306883D01*
X202752466Y-141961795D01*
X202938857Y-141773694D01*
X203354033Y-141493296D01*
X203830679Y-141339890D01*
X204374494Y-141312842D01*
X204991173Y-141411516D01*
X205686415Y-141635279D01*
X206365913Y-141883264D01*
X207222308Y-142164452D01*
X208193100Y-142456445D01*
X209260430Y-142754270D01*
X210406436Y-143052956D01*
X211613261Y-143347531D01*
X212863042Y-143633024D01*
X212900619Y-143641330D01*
X213346071Y-143741573D01*
X213742602Y-143833935D01*
X214065712Y-143912470D01*
X214290899Y-143971237D01*
X214393663Y-144004293D01*
X214406623Y-144063357D01*
X214296533Y-144168436D01*
X214055498Y-144325962D01*
X213957966Y-144383915D01*
X213169140Y-144807544D01*
X212255048Y-145230475D01*
X211237529Y-145645534D01*
X210138423Y-146045548D01*
X208979569Y-146423341D01*
X207782807Y-146771741D01*
X206569974Y-147083572D01*
X205362911Y-147351662D01*
X204183456Y-147568836D01*
X203849185Y-147622553D01*
X203376322Y-147694161D01*
X202917431Y-147756980D01*
X202431565Y-147816192D01*
X201877776Y-147876981D01*
X201215113Y-147944529D01*
X201094344Y-147953775D01*
X200742567Y-147965923D01*
X200288348Y-147968605D01*
X199763277Y-147962829D01*
X199198948Y-147949600D01*
X198626950Y-147929926D01*
X198078876Y-147904811D01*
X197586316Y-147875263D01*
X197180863Y-147842288D01*
X196894107Y-147806892D01*
X196371577Y-147714262D01*
X195420000Y-147510212D01*
X194565108Y-147269924D01*
X193771696Y-146979700D01*
X193004562Y-146625843D01*
X192228501Y-146194655D01*
X191408309Y-145672440D01*
X191292665Y-145594747D01*
X190709359Y-145194303D01*
X190214573Y-144835154D01*
X189772956Y-144488546D01*
X189349161Y-144125723D01*
X188907836Y-143717932D01*
X188413634Y-143236416D01*
X187785166Y-142579500D01*
X187095176Y-141749971D01*
X186508155Y-140900061D01*
X186000159Y-139997637D01*
X185952463Y-139901859D01*
X185762254Y-139485782D01*
X185588692Y-139055547D01*
X185441753Y-138640940D01*
X185331411Y-138271748D01*
X185267643Y-137977757D01*
X185260421Y-137788751D01*
X185273181Y-137773591D01*
X185345476Y-137831033D01*
G37*
G36*
X194050739Y-76482927D02*
G01*
X193963692Y-76611471D01*
X193812061Y-76813406D01*
X193613215Y-77064922D01*
X193116387Y-77720782D01*
X192635172Y-78470331D01*
X192279825Y-79175774D01*
X192051953Y-79832281D01*
X191953164Y-80435024D01*
X191985068Y-80979177D01*
X192149271Y-81459912D01*
X192232899Y-81603001D01*
X192562682Y-81991849D01*
X193017156Y-82349758D01*
X193577866Y-82663749D01*
X194226356Y-82920840D01*
X194351029Y-82959608D01*
X194688554Y-83039297D01*
X195052419Y-83081439D01*
X195503871Y-83094353D01*
X195585908Y-83094138D01*
X196162288Y-83062719D01*
X196649209Y-82969580D01*
X197093821Y-82802079D01*
X197543275Y-82547575D01*
X197754283Y-82398219D01*
X198079747Y-82085656D01*
X198268798Y-81766309D01*
X198318841Y-81449927D01*
X198227276Y-81146261D01*
X197991506Y-80865063D01*
X197689333Y-80658958D01*
X197279988Y-80455850D01*
X196807642Y-80271434D01*
X196315787Y-80120817D01*
X195847912Y-80019106D01*
X195447510Y-79981407D01*
X195362468Y-79979764D01*
X195200942Y-79958344D01*
X195177384Y-79915945D01*
X195284426Y-79857387D01*
X195514696Y-79787491D01*
X195860823Y-79711077D01*
X196247032Y-79649362D01*
X196871168Y-79595715D01*
X197608013Y-79580901D01*
X197833618Y-79582201D01*
X198146779Y-79587530D01*
X198412152Y-79601819D01*
X198656856Y-79630808D01*
X198908009Y-79680238D01*
X199192727Y-79755847D01*
X199538129Y-79863377D01*
X199971331Y-80008566D01*
X200519451Y-80197155D01*
X200890919Y-80317246D01*
X201398652Y-80467273D01*
X201976345Y-80627590D01*
X202583834Y-80787636D01*
X203180958Y-80936850D01*
X203727553Y-81064674D01*
X204183456Y-81160545D01*
X204286358Y-81183864D01*
X204455022Y-81242858D01*
X204521622Y-81299714D01*
X204520789Y-81304048D01*
X204455282Y-81389993D01*
X204300327Y-81550590D01*
X204077335Y-81764523D01*
X203807717Y-82010475D01*
X203187026Y-82571681D01*
X202459491Y-83257079D01*
X201819803Y-83899122D01*
X201247373Y-84521487D01*
X200721609Y-85147851D01*
X200221920Y-85801891D01*
X199727715Y-86507285D01*
X199218404Y-87287711D01*
X199103183Y-87467804D01*
X198939045Y-87706987D01*
X198787903Y-87884827D01*
X198613874Y-88035281D01*
X198381072Y-88192303D01*
X198053611Y-88389848D01*
X197307421Y-88831916D01*
X197249769Y-88336812D01*
X197201187Y-88034113D01*
X197016418Y-87460908D01*
X196716912Y-86977550D01*
X196298190Y-86579241D01*
X195755776Y-86261187D01*
X195085192Y-86018592D01*
X195051587Y-86009542D01*
X194658154Y-85938169D01*
X194159660Y-85893497D01*
X193594807Y-85875121D01*
X193002300Y-85882638D01*
X192420841Y-85915646D01*
X191889134Y-85973741D01*
X191445883Y-86056519D01*
X191289299Y-86096277D01*
X190275956Y-86420118D01*
X189324152Y-86848788D01*
X188414844Y-87393476D01*
X187528989Y-88065368D01*
X186647544Y-88875655D01*
X186434646Y-89092354D01*
X185764654Y-89832210D01*
X185090613Y-90666125D01*
X184406753Y-91602628D01*
X183707302Y-92650248D01*
X182986488Y-93817515D01*
X182238540Y-95112957D01*
X181457687Y-96545104D01*
X181417053Y-96619472D01*
X181165562Y-97027620D01*
X180864278Y-97454525D01*
X180562328Y-97829701D01*
X179467780Y-99130477D01*
X178206797Y-100776774D01*
X177043830Y-102465335D01*
X175985448Y-104183971D01*
X175038220Y-105920496D01*
X174208715Y-107662722D01*
X173503503Y-109398463D01*
X172929151Y-111115530D01*
X172492229Y-112801738D01*
X172483210Y-112842659D01*
X172404779Y-113185775D01*
X172336031Y-113465299D01*
X172284099Y-113653414D01*
X172256118Y-113722300D01*
X172248644Y-113704508D01*
X172238529Y-113566031D01*
X172234706Y-113306694D01*
X172236560Y-112946110D01*
X172243478Y-112503890D01*
X172254847Y-111999646D01*
X172270053Y-111452989D01*
X172288482Y-110883531D01*
X172309522Y-110310883D01*
X172332559Y-109754657D01*
X172356979Y-109234465D01*
X172382169Y-108769917D01*
X172407516Y-108380627D01*
X172432406Y-108086206D01*
X172446484Y-107949882D01*
X172776088Y-105487213D01*
X173242458Y-103085816D01*
X173846358Y-100743047D01*
X174588551Y-98456263D01*
X175469801Y-96222820D01*
X176490873Y-94040074D01*
X176539247Y-93944713D01*
X177714812Y-91799123D01*
X179013000Y-89738310D01*
X180429485Y-87766705D01*
X181959940Y-85888737D01*
X183600039Y-84108837D01*
X185345455Y-82431433D01*
X187191862Y-80860957D01*
X189134933Y-79401837D01*
X191170342Y-78058505D01*
X193293763Y-76835389D01*
X193537300Y-76706278D01*
X193795747Y-76573082D01*
X193980531Y-76482410D01*
X194062479Y-76448927D01*
X194050739Y-76482927D01*
G37*
G36*
X205118925Y-76813626D02*
G01*
X205889539Y-76903502D01*
X206597978Y-77033953D01*
X207231737Y-77201071D01*
X207778309Y-77400947D01*
X208225190Y-77629671D01*
X208559874Y-77883335D01*
X208769855Y-78158029D01*
X208842628Y-78449845D01*
X208832700Y-78595628D01*
X208716595Y-78934828D01*
X208467437Y-79229614D01*
X208081940Y-79482377D01*
X207556818Y-79695508D01*
X206888782Y-79871400D01*
X206670811Y-79907328D01*
X206225903Y-79945867D01*
X205689748Y-79962732D01*
X205097436Y-79958921D01*
X204484053Y-79935434D01*
X203884689Y-79893270D01*
X203334431Y-79833429D01*
X202868368Y-79756908D01*
X202576766Y-79694464D01*
X202285032Y-79625733D01*
X202076034Y-79569172D01*
X201982185Y-79532971D01*
X201983120Y-79525545D01*
X202077309Y-79501250D01*
X202288054Y-79475033D01*
X202590329Y-79449592D01*
X202959108Y-79427626D01*
X203682390Y-79377029D01*
X204377637Y-79292578D01*
X204959741Y-79180066D01*
X205419722Y-79041697D01*
X205748602Y-78879676D01*
X205937402Y-78696209D01*
X205977535Y-78606837D01*
X205969622Y-78397596D01*
X205823067Y-78203568D01*
X205546026Y-78038461D01*
X205327116Y-77959877D01*
X204994827Y-77880934D01*
X204579087Y-77819877D01*
X204066629Y-77775618D01*
X203444189Y-77747070D01*
X202698500Y-77733145D01*
X201816297Y-77732758D01*
X201782069Y-77732967D01*
X201054944Y-77733493D01*
X200455491Y-77723795D01*
X199962193Y-77701208D01*
X199553528Y-77663068D01*
X199207978Y-77606710D01*
X198904024Y-77529470D01*
X198620146Y-77428683D01*
X198334825Y-77301686D01*
X197908604Y-77096739D01*
X198960675Y-77038405D01*
X199002111Y-77036090D01*
X199500357Y-77006417D01*
X200074169Y-76969631D01*
X200655809Y-76930188D01*
X201177539Y-76892546D01*
X201206421Y-76890391D01*
X201745157Y-76854188D01*
X202349855Y-76819556D01*
X202948618Y-76790328D01*
X203469551Y-76770337D01*
X204298641Y-76768235D01*
X205118925Y-76813626D01*
G37*
G36*
X187473214Y-124996089D02*
G01*
X187651058Y-125024123D01*
X187811327Y-125100457D01*
X187970863Y-125242373D01*
X188146513Y-125467152D01*
X188355121Y-125792077D01*
X188613532Y-126234430D01*
X188836016Y-126612835D01*
X189154801Y-127113145D01*
X189506067Y-127614084D01*
X189908912Y-128141398D01*
X190382436Y-128720829D01*
X190945738Y-129378124D01*
X191205784Y-129678952D01*
X191480927Y-130008339D01*
X191679530Y-130265450D01*
X191816823Y-130471722D01*
X191908039Y-130648593D01*
X191968408Y-130817500D01*
X192004818Y-130957837D01*
X192079214Y-131579621D01*
X192036757Y-132266699D01*
X191879918Y-132998764D01*
X191611167Y-133755507D01*
X191391993Y-134333953D01*
X191149446Y-135270370D01*
X191048325Y-136192706D01*
X191088660Y-137091852D01*
X191270484Y-137958698D01*
X191593826Y-138784135D01*
X191664011Y-138922382D01*
X192108322Y-139633419D01*
X192645223Y-140243696D01*
X193279105Y-140755335D01*
X194014361Y-141170460D01*
X194855380Y-141491193D01*
X195806554Y-141719657D01*
X196872273Y-141857973D01*
X198056929Y-141908264D01*
X199035823Y-141913755D01*
X198622510Y-142061175D01*
X198581350Y-142075652D01*
X198036893Y-142239380D01*
X197414655Y-142384693D01*
X196781385Y-142495834D01*
X196572275Y-142520844D01*
X196055892Y-142555251D01*
X195471397Y-142566705D01*
X194872928Y-142555713D01*
X194314622Y-142522781D01*
X193850616Y-142468415D01*
X193421399Y-142386966D01*
X192447111Y-142106311D01*
X191564486Y-141710839D01*
X190778612Y-141205535D01*
X190094579Y-140595385D01*
X189517475Y-139885374D01*
X189052389Y-139080488D01*
X188704411Y-138185710D01*
X188478629Y-137206028D01*
X188443345Y-136987250D01*
X188391623Y-136688213D01*
X188349807Y-136499158D01*
X188309966Y-136395081D01*
X188264165Y-136350972D01*
X188204473Y-136341827D01*
X188061526Y-136314415D01*
X187802139Y-136193082D01*
X187509214Y-135997498D01*
X187218675Y-135752576D01*
X186966445Y-135483229D01*
X186945464Y-135457171D01*
X186634908Y-135032462D01*
X186371279Y-134582543D01*
X186132949Y-134066078D01*
X185898289Y-133441731D01*
X185882522Y-133395990D01*
X185566611Y-132322901D01*
X185350255Y-131250098D01*
X185233784Y-130195999D01*
X185217533Y-129179024D01*
X185301834Y-128217590D01*
X185487021Y-127330116D01*
X185773426Y-126535022D01*
X186004907Y-126087390D01*
X186327413Y-125624470D01*
X186675420Y-125281247D01*
X187038182Y-125067870D01*
X187404950Y-124994490D01*
X187473214Y-124996089D01*
G37*
G36*
X237100306Y-81464590D02*
G01*
X237470948Y-81900245D01*
X237816078Y-82427699D01*
X238029156Y-82929664D01*
X238109155Y-83398959D01*
X238055047Y-83828408D01*
X237865804Y-84210830D01*
X237540399Y-84539049D01*
X237199624Y-84756865D01*
X236626926Y-85009240D01*
X235948169Y-85202829D01*
X235863061Y-85222045D01*
X235611633Y-85282703D01*
X235441114Y-85329981D01*
X235384559Y-85354955D01*
X235407726Y-85363218D01*
X235547901Y-85395987D01*
X235784659Y-85444435D01*
X236083752Y-85501391D01*
X236798914Y-85645365D01*
X238345758Y-86047177D01*
X239787352Y-86552910D01*
X241122597Y-87161887D01*
X242350398Y-87873430D01*
X243469659Y-88686862D01*
X244479281Y-89601504D01*
X245378169Y-90616679D01*
X246165225Y-91731709D01*
X246231241Y-91840015D01*
X246419535Y-92175843D01*
X246615529Y-92557381D01*
X246805857Y-92955066D01*
X246977156Y-93339338D01*
X247116059Y-93680635D01*
X247209202Y-93949395D01*
X247243220Y-94116059D01*
X247207235Y-94113716D01*
X247084482Y-94027042D01*
X246895189Y-93865933D01*
X246660823Y-93647658D01*
X246182480Y-93204992D01*
X245147557Y-92374508D01*
X244060296Y-91673867D01*
X242899423Y-91090192D01*
X241643666Y-90610606D01*
X240910269Y-90386252D01*
X240128498Y-90194376D01*
X239346603Y-90058994D01*
X238515651Y-89971831D01*
X237586711Y-89924615D01*
X237547750Y-89923457D01*
X237111242Y-89913027D01*
X236736600Y-89908608D01*
X236445904Y-89910107D01*
X236261235Y-89917429D01*
X236204675Y-89930481D01*
X236229608Y-89943351D01*
X236375587Y-89983954D01*
X236617339Y-90035056D01*
X236918581Y-90088618D01*
X237216724Y-90140498D01*
X237938220Y-90297047D01*
X238635073Y-90498812D01*
X239342584Y-90758208D01*
X240096057Y-91087649D01*
X240930794Y-91499550D01*
X242019888Y-92102676D01*
X243351513Y-92973005D01*
X244599675Y-93952122D01*
X245790462Y-95059134D01*
X246029808Y-95304039D01*
X246827235Y-96181799D01*
X247585097Y-97109456D01*
X248288823Y-98065297D01*
X248923843Y-99027607D01*
X249475585Y-99974671D01*
X249929479Y-100884775D01*
X250270953Y-101736206D01*
X250513711Y-102516510D01*
X250780369Y-103569932D01*
X251016298Y-104721891D01*
X251218924Y-105945849D01*
X251385675Y-107215269D01*
X251513979Y-108503613D01*
X251601264Y-109784341D01*
X251644958Y-111030917D01*
X251642487Y-112216801D01*
X251591281Y-113315456D01*
X251488766Y-114300343D01*
X251363230Y-115066479D01*
X251189067Y-115916583D01*
X250986613Y-116744088D01*
X250770273Y-117485147D01*
X250735798Y-117588214D01*
X250620652Y-117902083D01*
X250480706Y-118252953D01*
X250327381Y-118615565D01*
X250172094Y-118964659D01*
X250026265Y-119274973D01*
X249901313Y-119521249D01*
X249808655Y-119678227D01*
X249759712Y-119720646D01*
X249753883Y-119688120D01*
X249760817Y-119533776D01*
X249786935Y-119285053D01*
X249829032Y-118976356D01*
X249889466Y-118542772D01*
X250041532Y-116931494D01*
X250091605Y-115272941D01*
X250040577Y-113607329D01*
X249889344Y-111974873D01*
X249638798Y-110415791D01*
X249537269Y-109934396D01*
X249078332Y-108212653D01*
X248477977Y-106516238D01*
X247742866Y-104856824D01*
X246879662Y-103246083D01*
X245895031Y-101695691D01*
X244795635Y-100217319D01*
X243588138Y-98822641D01*
X242279205Y-97523332D01*
X241991981Y-97264381D01*
X241652424Y-96968369D01*
X241308951Y-96677698D01*
X240980987Y-96408064D01*
X240687958Y-96175160D01*
X240449288Y-95994681D01*
X240284404Y-95882321D01*
X240212731Y-95853775D01*
X240224742Y-95910853D01*
X240305300Y-96058682D01*
X240438281Y-96258431D01*
X240518219Y-96372595D01*
X240686214Y-96616941D01*
X240911726Y-96947857D01*
X241179936Y-97343522D01*
X241476028Y-97782118D01*
X241785186Y-98241827D01*
X242307748Y-99033857D01*
X243414212Y-100814886D01*
X244390153Y-102542505D01*
X245234510Y-104214534D01*
X245946218Y-105828790D01*
X246524215Y-107383093D01*
X246967436Y-108875259D01*
X246972511Y-108895008D01*
X247143664Y-109583614D01*
X247274065Y-110171547D01*
X247368976Y-110700088D01*
X247433656Y-111210520D01*
X247473367Y-111744122D01*
X247493369Y-112342178D01*
X247498922Y-113045969D01*
X247498458Y-113361212D01*
X247493955Y-113865961D01*
X247482898Y-114266863D01*
X247463138Y-114594399D01*
X247432529Y-114879055D01*
X247388924Y-115151312D01*
X247330176Y-115441655D01*
X247237233Y-115844447D01*
X246942075Y-116873375D01*
X246567218Y-117864030D01*
X246101812Y-118837701D01*
X245535006Y-119815673D01*
X244855951Y-120819234D01*
X244053796Y-121869672D01*
X243982988Y-121958574D01*
X243554883Y-122534408D01*
X243247092Y-123029533D01*
X243058211Y-123450241D01*
X242986837Y-123802819D01*
X243031567Y-124093559D01*
X243190998Y-124328750D01*
X243463726Y-124514682D01*
X243512179Y-124537478D01*
X243682615Y-124595983D01*
X243895981Y-124631856D01*
X244187965Y-124649470D01*
X244594255Y-124653199D01*
X244898379Y-124655209D01*
X245179103Y-124664058D01*
X245369529Y-124678386D01*
X245439670Y-124696650D01*
X245439562Y-124697676D01*
X245390162Y-124775024D01*
X245263470Y-124942339D01*
X245078081Y-125175716D01*
X244852592Y-125451254D01*
X244809539Y-125502922D01*
X244316937Y-126060396D01*
X243820762Y-126564486D01*
X243341591Y-126996533D01*
X242899997Y-127337876D01*
X242516558Y-127569854D01*
X242388648Y-127631338D01*
X242191821Y-127713805D01*
X241997564Y-127770275D01*
X241767674Y-127808269D01*
X241463949Y-127835308D01*
X241048187Y-127858912D01*
X240652417Y-127885471D01*
X240199624Y-127928990D01*
X239785329Y-127981298D01*
X239465409Y-128036139D01*
X238800154Y-128197374D01*
X237785508Y-128517563D01*
X236794355Y-128916267D01*
X235842536Y-129383101D01*
X234945892Y-129907675D01*
X234120267Y-130479602D01*
X233381500Y-131088495D01*
X232745435Y-131723966D01*
X232227912Y-132375627D01*
X231844773Y-133033091D01*
X231825945Y-133073208D01*
X231656685Y-133486226D01*
X231574913Y-133832384D01*
X231574499Y-134157994D01*
X231649311Y-134509369D01*
X231832416Y-134911942D01*
X232163774Y-135325848D01*
X232625842Y-135717742D01*
X233208690Y-136081482D01*
X233902384Y-136410924D01*
X234696991Y-136699922D01*
X235582580Y-136942335D01*
X235745759Y-136987724D01*
X235890037Y-137049349D01*
X235920746Y-137098190D01*
X235835744Y-137146851D01*
X235620202Y-137234304D01*
X235302384Y-137347154D01*
X234905635Y-137478240D01*
X234453297Y-137620406D01*
X233968713Y-137766493D01*
X233475227Y-137909342D01*
X232996182Y-138041796D01*
X232554921Y-138156697D01*
X232174786Y-138246886D01*
X231996944Y-138285807D01*
X231077937Y-138473813D01*
X230213894Y-138624709D01*
X229336411Y-138749524D01*
X228377088Y-138859289D01*
X228338131Y-138863145D01*
X227963030Y-138889418D01*
X227469469Y-138910010D01*
X226881874Y-138925032D01*
X226224671Y-138934595D01*
X225522286Y-138938808D01*
X224799147Y-138937781D01*
X224079679Y-138931626D01*
X223388309Y-138920452D01*
X222749463Y-138904369D01*
X222187567Y-138883488D01*
X221727048Y-138857918D01*
X221392332Y-138827771D01*
X221235461Y-138808310D01*
X220648494Y-138732097D01*
X220116194Y-138657728D01*
X219657501Y-138588179D01*
X219291353Y-138526425D01*
X219036690Y-138475442D01*
X218912451Y-138438203D01*
X218901467Y-138432036D01*
X218841268Y-138384993D01*
X218921397Y-138373106D01*
X218939222Y-138371773D01*
X219106742Y-138334730D01*
X219385287Y-138253307D01*
X219750606Y-138135991D01*
X220178450Y-137991266D01*
X220644570Y-137827619D01*
X221124718Y-137653533D01*
X221594643Y-137477494D01*
X222030096Y-137307988D01*
X222406829Y-137153500D01*
X222949575Y-136916069D01*
X224762538Y-136019122D01*
X226492349Y-135000353D01*
X228134518Y-133865210D01*
X229684557Y-132619143D01*
X231137979Y-131267602D01*
X232490294Y-129816037D01*
X233737015Y-128269896D01*
X234873653Y-126634630D01*
X235895720Y-124915687D01*
X236798727Y-123118518D01*
X237578187Y-121248572D01*
X238229610Y-119311299D01*
X238748508Y-117312148D01*
X238751148Y-117300266D01*
X238843027Y-116873963D01*
X238930200Y-116447356D01*
X239002940Y-116069354D01*
X239051516Y-115788868D01*
X239105336Y-115452594D01*
X239154857Y-115214383D01*
X239203845Y-115115778D01*
X239263221Y-115151940D01*
X239343902Y-115318027D01*
X239456808Y-115609200D01*
X239457292Y-115610484D01*
X239719610Y-116208847D01*
X240007783Y-116687588D01*
X240315108Y-117039039D01*
X240634883Y-117255532D01*
X240960406Y-117329401D01*
X241162625Y-117312673D01*
X241432979Y-117220029D01*
X241704924Y-117029725D01*
X242010752Y-116723118D01*
X242323310Y-116314930D01*
X242672507Y-115676248D01*
X242960686Y-114920994D01*
X243185850Y-114061713D01*
X243346003Y-113110949D01*
X243439148Y-112081246D01*
X243463289Y-110985150D01*
X243416430Y-109835203D01*
X243296574Y-108643952D01*
X243289156Y-108587786D01*
X243221228Y-108126911D01*
X243135448Y-107615827D01*
X243036183Y-107074363D01*
X242927796Y-106522346D01*
X242814654Y-105979602D01*
X242701121Y-105465959D01*
X242591563Y-105001245D01*
X242490344Y-104605286D01*
X242401831Y-104297911D01*
X242330387Y-104098945D01*
X242280378Y-104028217D01*
X242279691Y-104028257D01*
X242245431Y-104099754D01*
X242208042Y-104281677D01*
X242175496Y-104535466D01*
X242168720Y-104603374D01*
X242034471Y-105799585D01*
X241882817Y-106868290D01*
X241708943Y-107830638D01*
X241508035Y-108707781D01*
X241275277Y-109520872D01*
X241005854Y-110291060D01*
X240694953Y-111039498D01*
X240602090Y-111241981D01*
X240431991Y-111596427D01*
X240241040Y-111979571D01*
X240041643Y-112368021D01*
X239846206Y-112738387D01*
X239667134Y-113067280D01*
X239516834Y-113331308D01*
X239407711Y-113507083D01*
X239352172Y-113571213D01*
X239345671Y-113552234D01*
X239336719Y-113414801D01*
X239332915Y-113166271D01*
X239334498Y-112832516D01*
X239341707Y-112439407D01*
X239346660Y-112159284D01*
X239316369Y-110674153D01*
X239197472Y-109133301D01*
X238995947Y-107584575D01*
X238717773Y-106075818D01*
X238368930Y-104654877D01*
X238297089Y-104396985D01*
X238221160Y-104118919D01*
X238169433Y-103922693D01*
X238150320Y-103839682D01*
X238196493Y-103855382D01*
X238333584Y-103940001D01*
X238529792Y-104075647D01*
X238826848Y-104256567D01*
X239169986Y-104364420D01*
X239466380Y-104329591D01*
X239716099Y-104152025D01*
X239919212Y-103831669D01*
X240075787Y-103368467D01*
X240185894Y-102762366D01*
X240221932Y-102370411D01*
X240215193Y-101482011D01*
X240101410Y-100538433D01*
X239888067Y-99565410D01*
X239582644Y-98588669D01*
X239192622Y-97633943D01*
X238725483Y-96726961D01*
X238188708Y-95893454D01*
X238134858Y-95819456D01*
X237933514Y-95559085D01*
X237798827Y-95420159D01*
X237722932Y-95396051D01*
X237697966Y-95480140D01*
X237688918Y-95617461D01*
X237655762Y-95902121D01*
X237605012Y-96258659D01*
X237543707Y-96643461D01*
X237478887Y-97012915D01*
X237417593Y-97323406D01*
X237366864Y-97531321D01*
X237357404Y-97561694D01*
X237145524Y-98044592D01*
X236842706Y-98493500D01*
X236487502Y-98850585D01*
X236376888Y-98934753D01*
X236230851Y-99032438D01*
X236162041Y-99058726D01*
X236153029Y-99046283D01*
X236084733Y-98934483D01*
X235968427Y-98735224D01*
X235823091Y-98480863D01*
X235673196Y-98211444D01*
X235585498Y-98024538D01*
X235550801Y-97877034D01*
X235558390Y-97723138D01*
X235597546Y-97517056D01*
X235651135Y-97197441D01*
X235685291Y-96385226D01*
X235586727Y-95523313D01*
X235357739Y-94621851D01*
X235000620Y-93690987D01*
X234517665Y-92740870D01*
X234492439Y-92697184D01*
X234314004Y-92408999D01*
X234094977Y-92081356D01*
X233850968Y-91734738D01*
X233597589Y-91389633D01*
X233350454Y-91066525D01*
X233125174Y-90785901D01*
X232937360Y-90568246D01*
X232802626Y-90434046D01*
X232736582Y-90403786D01*
X232729610Y-90418688D01*
X232706742Y-90553974D01*
X232684007Y-90801283D01*
X232663711Y-91131645D01*
X232648155Y-91516087D01*
X232633331Y-91906638D01*
X232609806Y-92264882D01*
X232576042Y-92531185D01*
X232527772Y-92737409D01*
X232460728Y-92915413D01*
X232403236Y-93035768D01*
X232297361Y-93220894D01*
X232216701Y-93317742D01*
X232167626Y-93306863D01*
X232015771Y-93202831D01*
X231775486Y-93000903D01*
X231455072Y-92708172D01*
X231062826Y-92331729D01*
X230897859Y-92169662D01*
X230531823Y-91801430D01*
X230257881Y-91509064D01*
X230061165Y-91275338D01*
X229926807Y-91083027D01*
X229839940Y-90914904D01*
X229780953Y-90777114D01*
X229171434Y-89563259D01*
X228423693Y-88400402D01*
X227542143Y-87293160D01*
X226531197Y-86246153D01*
X225395270Y-85263999D01*
X224138774Y-84351316D01*
X222766124Y-83512723D01*
X222148495Y-83167012D01*
X222470433Y-83080907D01*
X222637939Y-83015241D01*
X222855275Y-82817963D01*
X222964277Y-82524895D01*
X222962942Y-82143445D01*
X222849265Y-81681022D01*
X222808241Y-81553354D01*
X222762253Y-81377928D01*
X222756512Y-81296977D01*
X222756677Y-81296827D01*
X222837039Y-81306571D01*
X223031681Y-81353041D01*
X223311640Y-81428787D01*
X223647952Y-81526355D01*
X223787360Y-81567880D01*
X225444129Y-82041669D01*
X226977203Y-82441623D01*
X228392643Y-82768820D01*
X229696511Y-83024336D01*
X230894869Y-83209250D01*
X231993777Y-83324637D01*
X232999297Y-83371575D01*
X233917492Y-83351141D01*
X234576840Y-83284579D01*
X235194962Y-83152655D01*
X235698387Y-82954988D01*
X236100279Y-82686251D01*
X236413799Y-82341119D01*
X236506423Y-82195929D01*
X236571936Y-82028457D01*
X236602347Y-81814822D01*
X236609788Y-81503154D01*
X236609788Y-80940930D01*
X237100306Y-81464590D01*
G37*
G36*
X229517467Y-76308188D02*
G01*
X229668500Y-76368963D01*
X229914450Y-76481183D01*
X230232219Y-76634190D01*
X230598709Y-76817324D01*
X231431774Y-77262453D01*
X232303517Y-77782903D01*
X233076419Y-78306619D01*
X233740981Y-78826103D01*
X234287702Y-79333851D01*
X234707080Y-79822362D01*
X234989614Y-80284136D01*
X235078810Y-80489866D01*
X235193769Y-80904939D01*
X235182885Y-81248853D01*
X235042690Y-81526702D01*
X234769715Y-81743584D01*
X234360492Y-81904592D01*
X233811552Y-82014824D01*
X233785297Y-82018364D01*
X233323435Y-82052680D01*
X232738739Y-82054374D01*
X232053194Y-82025109D01*
X231288785Y-81966547D01*
X230467499Y-81880349D01*
X229611320Y-81768176D01*
X228742235Y-81631691D01*
X228644244Y-81614831D01*
X228181832Y-81532052D01*
X227687051Y-81439058D01*
X227182421Y-81340540D01*
X226690463Y-81241185D01*
X226233699Y-81145684D01*
X225834647Y-81058726D01*
X225515830Y-80984999D01*
X225299767Y-80929194D01*
X225208980Y-80895999D01*
X225220695Y-80885457D01*
X225345420Y-80867266D01*
X225582790Y-80851319D01*
X225908596Y-80839040D01*
X226298625Y-80831855D01*
X226310667Y-80831730D01*
X227263711Y-80793807D01*
X228169763Y-80703638D01*
X229012049Y-80565237D01*
X229773797Y-80382615D01*
X230438233Y-80159785D01*
X230988582Y-79900761D01*
X231408074Y-79609553D01*
X231538488Y-79479161D01*
X231668043Y-79248881D01*
X231677759Y-78984946D01*
X231573814Y-78651657D01*
X231562667Y-78626062D01*
X231397586Y-78340901D01*
X231139710Y-77993921D01*
X230812444Y-77612574D01*
X230439196Y-77224313D01*
X230043370Y-76856592D01*
X229852845Y-76686947D01*
X229650924Y-76497401D01*
X229519618Y-76361689D01*
X229480918Y-76301514D01*
X229517467Y-76308188D01*
G37*
G36*
X254164566Y-113220161D02*
G01*
X254068290Y-115163805D01*
X253888628Y-117028809D01*
X253634006Y-118800170D01*
X253153635Y-121252817D01*
X252532462Y-123661027D01*
X251773576Y-126019467D01*
X250880065Y-128322803D01*
X249855019Y-130565701D01*
X248701526Y-132742826D01*
X247422675Y-134848845D01*
X246021555Y-136878424D01*
X244501255Y-138826228D01*
X242864862Y-140686923D01*
X241115467Y-142455177D01*
X239256158Y-144125654D01*
X237290023Y-145693020D01*
X237069026Y-145857668D01*
X235005310Y-147292236D01*
X232870420Y-148595688D01*
X230669759Y-149766089D01*
X228408732Y-150801505D01*
X226092743Y-151700003D01*
X223727198Y-152459648D01*
X221317500Y-153078506D01*
X218869055Y-153554644D01*
X216387266Y-153886128D01*
X213877539Y-154071023D01*
X213536720Y-154085983D01*
X213110155Y-154104607D01*
X212741184Y-154120606D01*
X212460660Y-154132644D01*
X212299433Y-154139383D01*
X212274880Y-154140196D01*
X212020719Y-154140044D01*
X211647177Y-154130457D01*
X211181010Y-154112869D01*
X210648976Y-154088713D01*
X210077830Y-154059423D01*
X209494331Y-154026433D01*
X208925234Y-153991174D01*
X208397297Y-153955082D01*
X207937277Y-153919589D01*
X207571930Y-153886129D01*
X206417788Y-153749078D01*
X204135204Y-153377021D01*
X201850473Y-152874242D01*
X199587054Y-152247567D01*
X197368405Y-151503821D01*
X195217985Y-150649830D01*
X193159253Y-149692420D01*
X191170589Y-148627163D01*
X189040691Y-147328625D01*
X187002556Y-145916225D01*
X185059766Y-144395036D01*
X183215900Y-142770133D01*
X181474541Y-141046591D01*
X179839269Y-139229485D01*
X178313666Y-137323888D01*
X176901313Y-135334877D01*
X175605790Y-133267526D01*
X174430679Y-131126908D01*
X173379561Y-128918100D01*
X172456017Y-126646176D01*
X171663629Y-124316210D01*
X171005977Y-121933277D01*
X170486642Y-119502452D01*
X170109206Y-117028809D01*
X169991565Y-115919515D01*
X169868637Y-114114579D01*
X169818920Y-112254618D01*
X169832499Y-111174789D01*
X171151867Y-111174789D01*
X171178562Y-113591336D01*
X171344052Y-115999150D01*
X171648719Y-118381472D01*
X171837560Y-119475546D01*
X172359878Y-121865199D01*
X173024954Y-124215195D01*
X173829713Y-126519042D01*
X174771082Y-128770252D01*
X175845987Y-130962333D01*
X177051354Y-133088796D01*
X178384108Y-135143151D01*
X179841176Y-137118909D01*
X181419483Y-139009578D01*
X181671205Y-139287785D01*
X182150813Y-139797849D01*
X182695563Y-140358063D01*
X183277958Y-140941347D01*
X183870502Y-141520617D01*
X184445696Y-142068792D01*
X184976044Y-142558790D01*
X185434048Y-142963528D01*
X186180915Y-143587528D01*
X188144549Y-145093507D01*
X190184687Y-146471545D01*
X192296481Y-147719620D01*
X194475082Y-148835712D01*
X196715639Y-149817800D01*
X199013304Y-150663865D01*
X201363226Y-151371885D01*
X203760557Y-151939840D01*
X206200446Y-152365711D01*
X208678045Y-152647476D01*
X208942607Y-152666294D01*
X209396324Y-152690242D01*
X209936408Y-152712141D01*
X210533298Y-152731354D01*
X211157431Y-152747243D01*
X211779246Y-152759173D01*
X212369182Y-152766508D01*
X212897676Y-152768610D01*
X213335168Y-152764843D01*
X213652096Y-152754571D01*
X215343210Y-152636043D01*
X217189256Y-152442439D01*
X218957849Y-152182253D01*
X220682218Y-151849746D01*
X222395591Y-151439179D01*
X224131199Y-150944814D01*
X224746282Y-150750449D01*
X226904519Y-149973470D01*
X229041916Y-149058279D01*
X231141625Y-148014285D01*
X233186800Y-146850894D01*
X235160593Y-145577516D01*
X237046160Y-144203556D01*
X238826652Y-142738424D01*
X238911133Y-142663833D01*
X239309057Y-142300467D01*
X239775645Y-141859312D01*
X240285194Y-141365918D01*
X240812003Y-140845834D01*
X241330369Y-140324609D01*
X241814591Y-139827791D01*
X242238967Y-139380932D01*
X242577795Y-139009578D01*
X243717455Y-137664709D01*
X245217664Y-135699585D01*
X246590770Y-133658938D01*
X247834467Y-131548166D01*
X248946448Y-129372668D01*
X249924407Y-127137845D01*
X250766035Y-124849097D01*
X251469028Y-122511821D01*
X252031077Y-120131419D01*
X252449876Y-117713290D01*
X252723118Y-115262833D01*
X252827197Y-113521873D01*
X252848490Y-111059353D01*
X252723179Y-108611666D01*
X252453142Y-106184917D01*
X252040256Y-103785211D01*
X251486395Y-101418653D01*
X250793438Y-99091349D01*
X249963259Y-96809402D01*
X248997735Y-94578920D01*
X247898744Y-92406006D01*
X246668160Y-90296765D01*
X245307861Y-88257304D01*
X243819723Y-86293726D01*
X243557776Y-85972336D01*
X241948874Y-84134364D01*
X240232629Y-82394697D01*
X238417482Y-80760150D01*
X236511877Y-79237538D01*
X234524254Y-77833674D01*
X232463056Y-76555375D01*
X230336723Y-75409455D01*
X230145610Y-75314388D01*
X229353426Y-74929486D01*
X228587062Y-74571301D01*
X227867618Y-74249112D01*
X227216193Y-73972197D01*
X226653887Y-73749831D01*
X226201800Y-73591294D01*
X226196664Y-73589657D01*
X226027957Y-73532029D01*
X225774068Y-73441284D01*
X225487894Y-73336316D01*
X225172779Y-73224350D01*
X224622412Y-73043664D01*
X223988432Y-72848810D01*
X223307951Y-72650790D01*
X222618083Y-72460606D01*
X221955942Y-72289262D01*
X220537419Y-71962421D01*
X218112393Y-71522865D01*
X215680548Y-71229684D01*
X213248061Y-71081703D01*
X210821106Y-71077749D01*
X208405861Y-71216648D01*
X206008499Y-71497227D01*
X203635197Y-71918312D01*
X201292131Y-72478730D01*
X198985477Y-73177307D01*
X196721409Y-74012868D01*
X194506104Y-74984241D01*
X192345737Y-76090253D01*
X190246485Y-77329728D01*
X188214522Y-78701494D01*
X187425310Y-79283877D01*
X185488790Y-80840419D01*
X183660042Y-82498587D01*
X181942188Y-84253586D01*
X180338351Y-86100621D01*
X178851654Y-88034899D01*
X177485221Y-90051624D01*
X176242172Y-92146004D01*
X175125633Y-94313242D01*
X174138725Y-96548546D01*
X173284571Y-98847121D01*
X172566293Y-101204171D01*
X171987016Y-103614904D01*
X171900708Y-104040331D01*
X171513324Y-106382528D01*
X171263583Y-108766266D01*
X171151867Y-111174789D01*
X169832499Y-111174789D01*
X169842417Y-110386043D01*
X169939128Y-108555264D01*
X170109054Y-106808691D01*
X170368374Y-105008543D01*
X170852170Y-102547816D01*
X171478780Y-100128773D01*
X172245962Y-97756569D01*
X173151476Y-95436361D01*
X174193079Y-93173305D01*
X175368533Y-90972559D01*
X176675594Y-88839278D01*
X178112024Y-86778620D01*
X179675580Y-84795739D01*
X179754164Y-84702168D01*
X181421300Y-82838323D01*
X183187641Y-81085068D01*
X185047593Y-79445379D01*
X186995562Y-77922233D01*
X189025954Y-76518610D01*
X191133177Y-75237485D01*
X193311636Y-74081838D01*
X195555738Y-73054644D01*
X197859889Y-72158883D01*
X200218496Y-71397531D01*
X202625965Y-70773566D01*
X205076702Y-70289966D01*
X207565113Y-69949708D01*
X207675144Y-69938203D01*
X208830014Y-69842739D01*
X210085729Y-69779637D01*
X211401021Y-69748897D01*
X212734621Y-69750519D01*
X214045258Y-69784504D01*
X215291664Y-69850852D01*
X216432569Y-69949565D01*
X218753825Y-70262577D01*
X221210337Y-70737493D01*
X223626874Y-71353962D01*
X225997228Y-72109371D01*
X228315189Y-73001104D01*
X230574549Y-74026546D01*
X232769099Y-75183082D01*
X234892630Y-76468097D01*
X236938933Y-77878976D01*
X238901800Y-79413105D01*
X240535656Y-80841965D01*
X242331791Y-82594287D01*
X244013229Y-84438918D01*
X245577099Y-86370617D01*
X247020534Y-88384138D01*
X248340665Y-90474239D01*
X249534623Y-92635675D01*
X250599541Y-94863203D01*
X251532549Y-97151580D01*
X252330779Y-99495560D01*
X252991362Y-101889902D01*
X253511430Y-104329360D01*
X253888115Y-106808691D01*
X253953098Y-107381399D01*
X254106967Y-109282558D01*
X254170812Y-111059353D01*
X254177457Y-111244279D01*
X254164566Y-113220161D01*
G37*
G36*
X188034664Y-96140473D02*
G01*
X188445811Y-96193922D01*
X188747811Y-96321135D01*
X188961439Y-96529716D01*
X189035980Y-96660630D01*
X189065596Y-96818204D01*
X189024281Y-97005805D01*
X188904768Y-97252851D01*
X188699789Y-97588756D01*
X188669017Y-97636567D01*
X188489505Y-97902648D01*
X188360827Y-98060170D01*
X188263686Y-98129171D01*
X188178782Y-98129687D01*
X188155025Y-98123890D01*
X187971737Y-98121732D01*
X187748542Y-98161256D01*
X187591673Y-98219530D01*
X187360056Y-98334859D01*
X187115449Y-98477832D01*
X186894881Y-98625090D01*
X186735384Y-98753278D01*
X186673989Y-98839036D01*
X186674066Y-98840812D01*
X186742720Y-98902156D01*
X186901233Y-98956128D01*
X186953775Y-98970645D01*
X187157756Y-99065619D01*
X187359695Y-99203360D01*
X187514388Y-99349497D01*
X187576634Y-99469661D01*
X187554667Y-99548971D01*
X187480671Y-99741270D01*
X187366774Y-100011410D01*
X187225772Y-100328086D01*
X186874039Y-101099256D01*
X186519325Y-101052202D01*
X186109018Y-101050866D01*
X185732198Y-101170215D01*
X185436507Y-101408822D01*
X185400978Y-101452173D01*
X185290632Y-101605209D01*
X185246178Y-101699065D01*
X185284897Y-101737419D01*
X185433725Y-101807328D01*
X185655988Y-101882249D01*
X185700846Y-101895899D01*
X186021405Y-102040673D01*
X186226205Y-102227862D01*
X186298249Y-102442635D01*
X186278851Y-102545707D01*
X186222122Y-102762967D01*
X186137061Y-103059510D01*
X186032723Y-103402589D01*
X185934870Y-103712711D01*
X185844059Y-103977159D01*
X185766799Y-104150743D01*
X185686489Y-104262314D01*
X185586531Y-104340719D01*
X185450327Y-104414810D01*
X185164111Y-104594745D01*
X184795172Y-104901599D01*
X184437771Y-105267201D01*
X184132675Y-105649169D01*
X183920648Y-106005123D01*
X183892320Y-106067034D01*
X183807121Y-106271840D01*
X183752918Y-106459057D01*
X183723053Y-106670640D01*
X183710870Y-106948544D01*
X183709715Y-107334726D01*
X183709745Y-107341142D01*
X183715538Y-107735083D01*
X183733225Y-108024933D01*
X183770003Y-108256194D01*
X183833071Y-108474370D01*
X183929625Y-108724963D01*
X184057894Y-109013641D01*
X184246619Y-109393523D01*
X184430217Y-109724094D01*
X184616215Y-110050105D01*
X184747477Y-110347526D01*
X184805981Y-110619662D01*
X184801720Y-110916178D01*
X184744689Y-111286736D01*
X184692849Y-111613075D01*
X184673935Y-111962076D01*
X184707190Y-112288835D01*
X184734258Y-112466684D01*
X184753165Y-112663363D01*
X184747287Y-112761330D01*
X184734029Y-112771044D01*
X184616156Y-112754366D01*
X184404073Y-112670115D01*
X184121307Y-112531036D01*
X183791383Y-112349874D01*
X183437825Y-112139376D01*
X183084159Y-111912286D01*
X182753911Y-111681350D01*
X182310781Y-111321967D01*
X181735222Y-110737049D01*
X181255427Y-110099107D01*
X180889094Y-109432738D01*
X180653919Y-108762537D01*
X180588785Y-108370709D01*
X180559299Y-107850263D01*
X180572862Y-107290116D01*
X180627971Y-106744523D01*
X180723120Y-106267741D01*
X180756675Y-106147838D01*
X180950781Y-105568127D01*
X181183745Y-105021083D01*
X181442370Y-104529738D01*
X181713457Y-104117123D01*
X181983808Y-103806271D01*
X182240226Y-103620214D01*
X182285441Y-103598397D01*
X182517540Y-103466925D01*
X182713499Y-103309536D01*
X182885544Y-103106282D01*
X183045902Y-102837213D01*
X183206799Y-102482378D01*
X183380462Y-102021828D01*
X183579118Y-101435614D01*
X183792105Y-100804305D01*
X184038093Y-100131066D01*
X184275178Y-99554573D01*
X184515797Y-99046996D01*
X184772385Y-98580502D01*
X185057379Y-98127258D01*
X185161901Y-97973839D01*
X185678340Y-97318063D01*
X186212185Y-96804595D01*
X186760639Y-96435399D01*
X187320905Y-96212441D01*
X187890184Y-96137685D01*
X188034664Y-96140473D01*
G37*
G36*
X250450201Y-121279686D02*
G01*
X250429891Y-121431008D01*
X250364115Y-121715129D01*
X250254644Y-122125274D01*
X250103248Y-122654670D01*
X249911696Y-123296546D01*
X249602476Y-124263403D01*
X248834426Y-126331467D01*
X247926603Y-128386560D01*
X246885909Y-130412451D01*
X246285845Y-131464223D01*
X244984846Y-133525310D01*
X243562653Y-135511279D01*
X242026734Y-137415352D01*
X240384554Y-139230749D01*
X238643579Y-140950690D01*
X236811275Y-142568396D01*
X234895109Y-144077088D01*
X232902546Y-145469987D01*
X230841051Y-146740313D01*
X228718093Y-147881287D01*
X226541135Y-148886129D01*
X226345551Y-148968292D01*
X226002668Y-149107794D01*
X225723568Y-149215384D01*
X225532930Y-149281713D01*
X225455432Y-149297432D01*
X225454042Y-149294494D01*
X225501390Y-149222667D01*
X225635283Y-149084873D01*
X225829870Y-148907998D01*
X226300964Y-148494284D01*
X226902909Y-147952434D01*
X227526213Y-147378777D01*
X228154020Y-146789605D01*
X228769475Y-146201213D01*
X229355722Y-145629893D01*
X229895906Y-145091939D01*
X230373171Y-144603643D01*
X230770662Y-144181300D01*
X231071523Y-143841202D01*
X231154388Y-143741057D01*
X231489779Y-143310779D01*
X231859111Y-142805368D01*
X232236333Y-142262926D01*
X232595392Y-141721554D01*
X232910235Y-141219354D01*
X233154810Y-140794427D01*
X233447537Y-140249689D01*
X234389905Y-139712751D01*
X235386699Y-139119402D01*
X236335646Y-138493432D01*
X237176040Y-137867389D01*
X237373453Y-137706665D01*
X237677234Y-137447953D01*
X237985447Y-137174487D01*
X238278281Y-136904966D01*
X238535928Y-136658091D01*
X238738577Y-136452561D01*
X238866419Y-136307076D01*
X238899644Y-136240336D01*
X238851206Y-136222582D01*
X238678759Y-136184334D01*
X238414284Y-136136269D01*
X238090953Y-136084768D01*
X237408987Y-135963934D01*
X236686430Y-135778060D01*
X236091007Y-135547525D01*
X235612216Y-135267129D01*
X235239556Y-134931673D01*
X234962525Y-134535959D01*
X234850684Y-134313141D01*
X234790419Y-134122810D01*
X234772369Y-133907478D01*
X234784675Y-133605068D01*
X234787276Y-133568361D01*
X234905904Y-132968470D01*
X235163594Y-132422667D01*
X235558939Y-131931760D01*
X236090531Y-131496558D01*
X236756963Y-131117869D01*
X237556826Y-130796502D01*
X238488712Y-130533263D01*
X239551214Y-130328963D01*
X240742924Y-130184408D01*
X241077291Y-130153919D01*
X241458578Y-130119091D01*
X241782970Y-130089398D01*
X242004076Y-130069080D01*
X242152778Y-130059769D01*
X242293031Y-130074069D01*
X242290069Y-130124822D01*
X242145009Y-130210035D01*
X241858969Y-130327719D01*
X241389777Y-130518745D01*
X240812042Y-130795171D01*
X240274259Y-131096217D01*
X239802665Y-131405748D01*
X239423496Y-131707629D01*
X239162989Y-131985725D01*
X239073030Y-132118513D01*
X238940242Y-132434009D01*
X238944946Y-132741017D01*
X239084845Y-133071438D01*
X239154378Y-133179535D01*
X239450499Y-133481759D01*
X239816317Y-133656518D01*
X240241651Y-133702250D01*
X240716319Y-133617396D01*
X241230138Y-133400393D01*
X241473450Y-133258744D01*
X242041409Y-132851865D01*
X242654499Y-132317301D01*
X243305331Y-131663160D01*
X243986520Y-130897552D01*
X244690677Y-130028583D01*
X245410416Y-129064364D01*
X246138349Y-128013002D01*
X246255816Y-127833331D01*
X246496343Y-127446994D01*
X246752258Y-127016216D01*
X247011897Y-126562616D01*
X247263595Y-126107814D01*
X247495686Y-125673429D01*
X247696507Y-125281080D01*
X247854393Y-124952387D01*
X247957678Y-124708969D01*
X247994699Y-124572446D01*
X248005201Y-124538138D01*
X248105136Y-124420653D01*
X248276504Y-124289484D01*
X248375707Y-124221802D01*
X248794590Y-123848758D01*
X249219928Y-123329925D01*
X249652762Y-122663901D01*
X250094136Y-121849287D01*
X250174339Y-121692791D01*
X250302620Y-121458160D01*
X250398173Y-121303822D01*
X250444694Y-121257305D01*
X250450201Y-121279686D01*
G37*
G36*
X179373861Y-107087899D02*
G01*
X179385166Y-107278365D01*
X179385979Y-107315998D01*
X179423162Y-107624786D01*
X179507749Y-108023433D01*
X179628717Y-108470567D01*
X179775045Y-108924814D01*
X179935708Y-109344803D01*
X180033677Y-109564809D01*
X180492701Y-110393344D01*
X181076109Y-111199959D01*
X181763464Y-111963592D01*
X182534328Y-112663179D01*
X183368266Y-113277658D01*
X184244841Y-113785965D01*
X184708889Y-114019374D01*
X184756759Y-114453234D01*
X184770425Y-114574865D01*
X184906622Y-115618484D01*
X185074806Y-116663682D01*
X185267786Y-117672499D01*
X185478371Y-118606974D01*
X185699370Y-119429147D01*
X185730410Y-119532918D01*
X185821533Y-119841734D01*
X185867690Y-120055857D01*
X185861583Y-120215760D01*
X185795910Y-120361922D01*
X185663374Y-120534818D01*
X185456675Y-120774924D01*
X185296243Y-120988873D01*
X185060250Y-121375825D01*
X184815701Y-121844989D01*
X184579899Y-122360314D01*
X184370147Y-122885750D01*
X184203750Y-123385247D01*
X184104396Y-123737074D01*
X183965292Y-124299638D01*
X183860911Y-124844127D01*
X183787245Y-125404072D01*
X183740286Y-126013003D01*
X183716025Y-126704451D01*
X183710456Y-127511945D01*
X183711030Y-127686685D01*
X183714911Y-128228325D01*
X183723427Y-128659034D01*
X183738930Y-129009596D01*
X183763774Y-129310793D01*
X183800310Y-129593410D01*
X183850891Y-129888230D01*
X183917869Y-130226036D01*
X184029293Y-130727060D01*
X184274458Y-131658714D01*
X184566463Y-132603104D01*
X184887980Y-133505915D01*
X185221681Y-134312833D01*
X185275621Y-134430528D01*
X185464149Y-134824191D01*
X185691269Y-135279961D01*
X185936487Y-135758207D01*
X186179312Y-136219297D01*
X186399249Y-136623601D01*
X186575805Y-136931488D01*
X186645866Y-137048223D01*
X186794239Y-137296066D01*
X186905002Y-137481958D01*
X186958219Y-137572483D01*
X186970930Y-137605432D01*
X186923687Y-137594392D01*
X186794727Y-137497405D01*
X186599166Y-137328885D01*
X186352118Y-137103246D01*
X186068698Y-136834900D01*
X185764020Y-136538263D01*
X185453200Y-136227746D01*
X185151353Y-135917766D01*
X184873593Y-135622734D01*
X184635035Y-135357065D01*
X183906877Y-134471346D01*
X182870909Y-133023607D01*
X181931638Y-131470208D01*
X181093034Y-129819984D01*
X180359066Y-128081767D01*
X179733704Y-126264392D01*
X179220919Y-124376692D01*
X178824679Y-122427500D01*
X178771635Y-122112218D01*
X178668003Y-121462685D01*
X178583433Y-120868073D01*
X178516089Y-120302737D01*
X178464135Y-119741033D01*
X178425736Y-119157318D01*
X178399056Y-118525948D01*
X178382259Y-117821277D01*
X178373509Y-117017663D01*
X178370972Y-116089460D01*
X178371104Y-115815607D01*
X178374183Y-114963722D01*
X178382470Y-114228398D01*
X178397466Y-113583540D01*
X178420672Y-113003051D01*
X178453589Y-112460835D01*
X178497717Y-111930795D01*
X178554557Y-111386836D01*
X178625610Y-110802861D01*
X178712377Y-110152774D01*
X178713461Y-110144896D01*
X178803869Y-109520519D01*
X178896364Y-108940215D01*
X178988227Y-108415600D01*
X179076738Y-107958290D01*
X179159179Y-107579903D01*
X179232831Y-107292054D01*
X179294974Y-107106359D01*
X179342891Y-107034435D01*
X179373861Y-107087899D01*
G37*
G36*
X226014497Y-77408895D02*
G01*
X226374123Y-77690212D01*
X226646033Y-77918577D01*
X226818083Y-78083403D01*
X226878131Y-78174101D01*
X226861646Y-78198237D01*
X226742103Y-78290704D01*
X226528906Y-78429618D01*
X226248199Y-78599385D01*
X225926125Y-78784411D01*
X225588828Y-78969100D01*
X225262451Y-79137859D01*
X224911230Y-79304617D01*
X223951018Y-79684946D01*
X222968352Y-79972639D01*
X222000152Y-80158034D01*
X221083337Y-80231472D01*
X220316318Y-80243898D01*
X220309503Y-79910356D01*
X220308455Y-79869173D01*
X220284948Y-79665919D01*
X220207196Y-79538467D01*
X220039670Y-79422593D01*
X220018780Y-79410647D01*
X219856407Y-79339184D01*
X219651154Y-79291072D01*
X219367245Y-79260230D01*
X218968904Y-79240576D01*
X218319989Y-79246472D01*
X217596063Y-79313186D01*
X216881041Y-79436303D01*
X216195092Y-79608920D01*
X215558383Y-79824134D01*
X214991081Y-80075044D01*
X214513354Y-80354746D01*
X214145370Y-80656338D01*
X213907297Y-80972919D01*
X213890771Y-81007239D01*
X213832482Y-81308847D01*
X213903621Y-81628907D01*
X214091359Y-81944955D01*
X214382863Y-82234527D01*
X214765305Y-82475158D01*
X214785822Y-82485184D01*
X214953579Y-82557483D01*
X215123894Y-82604389D01*
X215333674Y-82630805D01*
X215619826Y-82641636D01*
X216019255Y-82641787D01*
X216556376Y-82620234D01*
X217141725Y-82548034D01*
X217734064Y-82416613D01*
X218372206Y-82217127D01*
X219094963Y-81940727D01*
X219342695Y-81841879D01*
X219607618Y-81742393D01*
X219793558Y-81680117D01*
X219870746Y-81665605D01*
X219861815Y-81727308D01*
X219801742Y-81890081D01*
X219702693Y-82113199D01*
X219307991Y-82789983D01*
X218781207Y-83430898D01*
X218156970Y-83992598D01*
X217459908Y-84453017D01*
X216714653Y-84790091D01*
X216329880Y-84925594D01*
X216061846Y-84711152D01*
X215906369Y-84599586D01*
X215486323Y-84368013D01*
X214955455Y-84145144D01*
X214340200Y-83942779D01*
X214121598Y-83883736D01*
X213896919Y-83837439D01*
X213654193Y-83807209D01*
X213360377Y-83790229D01*
X212982428Y-83783680D01*
X212487303Y-83784744D01*
X211539306Y-83815953D01*
X210398722Y-83921743D01*
X209220642Y-84107161D01*
X207963795Y-84377616D01*
X207790514Y-84419713D01*
X207379463Y-84525309D01*
X207010091Y-84631940D01*
X206646705Y-84751853D01*
X206253611Y-84897296D01*
X205795117Y-85080516D01*
X205235527Y-85313760D01*
X204974019Y-85414671D01*
X204586588Y-85547715D01*
X204154770Y-85683470D01*
X203732569Y-85804310D01*
X203422060Y-85887840D01*
X203103780Y-85972402D01*
X202892716Y-86025311D01*
X202766861Y-86050743D01*
X202704211Y-86052872D01*
X202682759Y-86035875D01*
X202680498Y-86003926D01*
X202710605Y-85919671D01*
X202829112Y-85723716D01*
X203026396Y-85441733D01*
X203290570Y-85088346D01*
X203609752Y-84678175D01*
X203972055Y-84225842D01*
X204365596Y-83745969D01*
X204778490Y-83253177D01*
X205198851Y-82762087D01*
X205614795Y-82287322D01*
X206014437Y-81843503D01*
X206385893Y-81445251D01*
X206436417Y-81392359D01*
X206672490Y-81151925D01*
X206848709Y-80995489D01*
X207000207Y-80899991D01*
X207162117Y-80842370D01*
X207369572Y-80799563D01*
X207671116Y-80732977D01*
X208292758Y-80504957D01*
X208833533Y-80176798D01*
X209274692Y-79761357D01*
X209597491Y-79271491D01*
X209668220Y-79123325D01*
X209769607Y-78866198D01*
X209810309Y-78651839D01*
X209804319Y-78422844D01*
X209736324Y-78060894D01*
X209537772Y-77620873D01*
X209203479Y-77212057D01*
X208823132Y-76896413D01*
X208343050Y-76618039D01*
X207766498Y-76387440D01*
X207083504Y-76201928D01*
X206284100Y-76058814D01*
X205358315Y-75955412D01*
X204296178Y-75889032D01*
X204241319Y-75886634D01*
X203053013Y-75815690D01*
X202123327Y-75730534D01*
X212383756Y-75730534D01*
X212402039Y-75924943D01*
X212452261Y-76183012D01*
X212524748Y-76463054D01*
X212609824Y-76723383D01*
X212697813Y-76922315D01*
X212726534Y-76970111D01*
X212901775Y-77190111D01*
X213094657Y-77354516D01*
X213163127Y-77392340D01*
X213495273Y-77502953D01*
X213871582Y-77545606D01*
X214215705Y-77509727D01*
X214442011Y-77438144D01*
X214694306Y-77337498D01*
X214923761Y-77228991D01*
X215090602Y-77131502D01*
X215155054Y-77063907D01*
X215120538Y-76982907D01*
X214979510Y-76826661D01*
X214755655Y-76635923D01*
X214477067Y-76432325D01*
X214171842Y-76237498D01*
X213868075Y-76073071D01*
X213705829Y-75997928D01*
X213358431Y-75855901D01*
X213023223Y-75740588D01*
X212731278Y-75661047D01*
X212513667Y-75626337D01*
X212401463Y-75645516D01*
X212383756Y-75730534D01*
X202123327Y-75730534D01*
X201923265Y-75712209D01*
X200874635Y-75579037D01*
X199929683Y-75419020D01*
X199110971Y-75235004D01*
X198905126Y-75175588D01*
X198534647Y-75048179D01*
X198145109Y-74894517D01*
X197768915Y-74729134D01*
X197438465Y-74566567D01*
X197186160Y-74421348D01*
X197044403Y-74308012D01*
X197004081Y-74256312D01*
X196987615Y-74202815D01*
X197067584Y-74194480D01*
X197269847Y-74221368D01*
X197916856Y-74315528D01*
X198615372Y-74403098D01*
X199236012Y-74458696D01*
X199810691Y-74481531D01*
X200371327Y-74470812D01*
X200949836Y-74425749D01*
X201578135Y-74345549D01*
X202288141Y-74229422D01*
X203111771Y-74076578D01*
X203442836Y-74013857D01*
X204864766Y-73770190D01*
X206194210Y-73589016D01*
X207466059Y-73467593D01*
X208715203Y-73403182D01*
X209976532Y-73393040D01*
X211284936Y-73434427D01*
X211738077Y-73458967D01*
X212615609Y-73523132D01*
X213386776Y-73607100D01*
X214081203Y-73715949D01*
X214728518Y-73854758D01*
X215358348Y-74028602D01*
X216000321Y-74242561D01*
X216035570Y-74255193D01*
X216390079Y-74384382D01*
X216614967Y-74476649D01*
X216721449Y-74544025D01*
X216720737Y-74598543D01*
X216624044Y-74652235D01*
X216442584Y-74717135D01*
X216415210Y-74726538D01*
X216051172Y-74889002D01*
X215830485Y-75071662D01*
X215756238Y-75272023D01*
X215767597Y-75345376D01*
X215887207Y-75553037D01*
X216119433Y-75785326D01*
X216442171Y-76028182D01*
X216833316Y-76267544D01*
X217270762Y-76489350D01*
X217732405Y-76679540D01*
X218196139Y-76824052D01*
X218581450Y-76908909D01*
X219167341Y-76973020D01*
X219657501Y-76935869D01*
X220046183Y-76798166D01*
X220327644Y-76560621D01*
X220366924Y-76501095D01*
X220458694Y-76236587D01*
X220493472Y-75909200D01*
X220468701Y-75578217D01*
X220381829Y-75302921D01*
X220316090Y-75160240D01*
X220342296Y-75105100D01*
X220482204Y-75096265D01*
X220577947Y-75104873D01*
X220831116Y-75152730D01*
X221175600Y-75234773D01*
X221579700Y-75342114D01*
X222011719Y-75465864D01*
X222439959Y-75597135D01*
X222832721Y-75727037D01*
X223158309Y-75846683D01*
X223165066Y-75849365D01*
X223744934Y-76099358D01*
X224351911Y-76395327D01*
X224943432Y-76714332D01*
X225476933Y-77033431D01*
X225521468Y-77063907D01*
X225909847Y-77329682D01*
X226014497Y-77408895D01*
G37*
G36*
X233282914Y-97716262D02*
G01*
X234209932Y-99222443D01*
X234283644Y-99342208D01*
X234502858Y-99766399D01*
X235161120Y-101040171D01*
X235911027Y-102803771D01*
X236476097Y-104470458D01*
X236529044Y-104626627D01*
X237010854Y-106502359D01*
X237352139Y-108424586D01*
X237468190Y-109399342D01*
X237586134Y-111327165D01*
X237576120Y-112008784D01*
X237557932Y-113246858D01*
X237386311Y-115150505D01*
X237073994Y-117030186D01*
X236623709Y-118877986D01*
X236533991Y-119155019D01*
X236038179Y-120685987D01*
X235320130Y-122446271D01*
X234492651Y-124109980D01*
X234472288Y-124150922D01*
X233497378Y-125792022D01*
X232398125Y-127361654D01*
X232388639Y-127373233D01*
X231177255Y-128851901D01*
X229986369Y-130098948D01*
X229837493Y-130254845D01*
X229032281Y-131004339D01*
X227518382Y-132256992D01*
X225927542Y-133382285D01*
X224265131Y-134377893D01*
X222536522Y-135241495D01*
X220747085Y-135970768D01*
X218902191Y-136563388D01*
X217007213Y-137017032D01*
X215067521Y-137329379D01*
X213088486Y-137498105D01*
X212786625Y-137506846D01*
X212300365Y-137507902D01*
X211736734Y-137498881D01*
X211136257Y-137481043D01*
X210539453Y-137455647D01*
X209986847Y-137423950D01*
X209518959Y-137387213D01*
X207770321Y-137159596D01*
X205887595Y-136771981D01*
X204041990Y-136243170D01*
X202242216Y-135577182D01*
X200496981Y-134778040D01*
X198814994Y-133849763D01*
X197204963Y-132796372D01*
X195675596Y-131621890D01*
X194235603Y-130330337D01*
X194009758Y-130099246D01*
X195992332Y-130099246D01*
X196017339Y-130137025D01*
X196141195Y-130258103D01*
X196349597Y-130440501D01*
X196621082Y-130666734D01*
X196934188Y-130919318D01*
X197267452Y-131180767D01*
X197599411Y-131433599D01*
X197908604Y-131660329D01*
X198270959Y-131917026D01*
X198533042Y-132096112D01*
X198707055Y-132204854D01*
X198809089Y-132253302D01*
X198855237Y-132251506D01*
X198859135Y-132212842D01*
X198856187Y-132043600D01*
X198843667Y-131759553D01*
X198822678Y-131381733D01*
X198794322Y-130931173D01*
X198759703Y-130428905D01*
X198738160Y-130125509D01*
X198703436Y-129622517D01*
X198673342Y-129169136D01*
X198649485Y-128790437D01*
X198633471Y-128511488D01*
X198626909Y-128357359D01*
X198625200Y-128306712D01*
X198603433Y-128142196D01*
X198566149Y-128076133D01*
X198560968Y-128077325D01*
X198466558Y-128135147D01*
X198281078Y-128267884D01*
X198025611Y-128458962D01*
X197721241Y-128691810D01*
X197389050Y-128949857D01*
X197050122Y-129216528D01*
X196725539Y-129475254D01*
X196436386Y-129709460D01*
X196203745Y-129902576D01*
X196048699Y-130038028D01*
X195992332Y-130099246D01*
X194009758Y-130099246D01*
X193211595Y-129282545D01*
X191932560Y-127791107D01*
X191759455Y-127555339D01*
X199489364Y-127555339D01*
X199490908Y-127727543D01*
X199499217Y-127963121D01*
X199514835Y-128272886D01*
X199538307Y-128667652D01*
X199570179Y-129158233D01*
X199610995Y-129755442D01*
X199661302Y-130470094D01*
X199721644Y-131313002D01*
X199786635Y-132212842D01*
X199792567Y-132294979D01*
X199839622Y-132944877D01*
X201128551Y-133586636D01*
X201489764Y-133763756D01*
X201962964Y-133988810D01*
X202416411Y-134197490D01*
X202812117Y-134372377D01*
X203112097Y-134496057D01*
X203305266Y-134569549D01*
X203576174Y-134669020D01*
X203773290Y-134736796D01*
X203863576Y-134761221D01*
X203896744Y-134743119D01*
X204023277Y-134642220D01*
X204215345Y-134472750D01*
X204446474Y-134257586D01*
X205058564Y-133674347D01*
X205924547Y-132848654D01*
X206689572Y-132118466D01*
X207358596Y-131478998D01*
X207936582Y-130925463D01*
X208428487Y-130453077D01*
X208839272Y-130057053D01*
X209173898Y-129732606D01*
X209437323Y-129474950D01*
X209634507Y-129279299D01*
X209770411Y-129140867D01*
X209849995Y-129054870D01*
X209878217Y-129016520D01*
X209879204Y-129011134D01*
X209877617Y-129006514D01*
X214117538Y-129006514D01*
X214119330Y-129010105D01*
X214120244Y-129011134D01*
X214191476Y-129091355D01*
X214360495Y-129264157D01*
X214615711Y-129518207D01*
X214946451Y-129843202D01*
X215342039Y-130228837D01*
X215791802Y-130664808D01*
X216285063Y-131140811D01*
X216811150Y-131646541D01*
X217359387Y-132171695D01*
X217919099Y-132705968D01*
X218479613Y-133239056D01*
X219030254Y-133760655D01*
X219560346Y-134260461D01*
X219706014Y-134395073D01*
X219921022Y-134584287D01*
X220081825Y-134713754D01*
X220161529Y-134761081D01*
X220234551Y-134744696D01*
X220438852Y-134673285D01*
X220737159Y-134555142D01*
X221104822Y-134401036D01*
X221517191Y-134221739D01*
X221949617Y-134028021D01*
X222377450Y-133830654D01*
X222776039Y-133640408D01*
X223120735Y-133468054D01*
X223309350Y-133370584D01*
X223637850Y-133200380D01*
X223902826Y-133062504D01*
X224080917Y-132969125D01*
X224148764Y-132932414D01*
X224148987Y-132931932D01*
X224157742Y-132847941D01*
X224175539Y-132631669D01*
X224201138Y-132299709D01*
X224227097Y-131951808D01*
X225158835Y-131951808D01*
X225161067Y-132084307D01*
X225187303Y-132298089D01*
X225901208Y-131793234D01*
X226185612Y-131588286D01*
X226548149Y-131318023D01*
X226909898Y-131040029D01*
X227250816Y-130770445D01*
X227550862Y-130525406D01*
X227789994Y-130321052D01*
X227948171Y-130173520D01*
X228005350Y-130098948D01*
X228003638Y-130094266D01*
X227928324Y-130017321D01*
X227754494Y-129866688D01*
X227500133Y-129657224D01*
X227183230Y-129403789D01*
X226821770Y-129121240D01*
X226769733Y-129080992D01*
X226405349Y-128799060D01*
X226080613Y-128547641D01*
X225815339Y-128342087D01*
X225629343Y-128197752D01*
X225542439Y-128129987D01*
X225491855Y-128096571D01*
X225419149Y-128083633D01*
X225409813Y-128137257D01*
X225390694Y-128323130D01*
X225364802Y-128622002D01*
X225333810Y-129013396D01*
X225299392Y-129476831D01*
X225263221Y-129991827D01*
X225237122Y-130386790D01*
X225206732Y-130886906D01*
X225182800Y-131329911D01*
X225166456Y-131692611D01*
X225158835Y-131951808D01*
X224227097Y-131951808D01*
X224233301Y-131868658D01*
X224270788Y-131355110D01*
X224312360Y-130775662D01*
X224356777Y-130146907D01*
X224551258Y-127373233D01*
X224271035Y-127141997D01*
X224134348Y-127031609D01*
X223889335Y-126837961D01*
X223592601Y-126606354D01*
X223281321Y-126365939D01*
X222571830Y-125821117D01*
X219821578Y-125822267D01*
X219816610Y-125822270D01*
X219186948Y-125824016D01*
X218604131Y-125828437D01*
X218085401Y-125835189D01*
X217647999Y-125843928D01*
X217309167Y-125854310D01*
X217086146Y-125865992D01*
X216996178Y-125878628D01*
X216980987Y-125891089D01*
X216980026Y-125891996D01*
X216921027Y-125947693D01*
X216816925Y-126052181D01*
X216660263Y-126213338D01*
X216442621Y-126439951D01*
X216155580Y-126740802D01*
X215790721Y-127124680D01*
X215339624Y-127600367D01*
X214793870Y-128176649D01*
X214726433Y-128248428D01*
X214481060Y-128519578D01*
X214285467Y-128751424D01*
X214158134Y-128921294D01*
X214117538Y-129006514D01*
X209877617Y-129006514D01*
X209840764Y-128899196D01*
X209731570Y-128749743D01*
X209696825Y-128711603D01*
X209538872Y-128540941D01*
X209307680Y-128293332D01*
X209022804Y-127989514D01*
X208703796Y-127650226D01*
X208370211Y-127296205D01*
X208041602Y-126948189D01*
X207737522Y-126626915D01*
X207477526Y-126353121D01*
X207281166Y-126147545D01*
X207167996Y-126030924D01*
X207015621Y-125878142D01*
X208316593Y-125878142D01*
X208317933Y-125882366D01*
X208382293Y-125966296D01*
X208529995Y-126135566D01*
X208742719Y-126370723D01*
X209002149Y-126652315D01*
X209289969Y-126960890D01*
X209587860Y-127276995D01*
X209877506Y-127581176D01*
X210140589Y-127853981D01*
X210358793Y-128075958D01*
X210513800Y-128227654D01*
X210587293Y-128289615D01*
X210588411Y-128289952D01*
X210669751Y-128248633D01*
X210835907Y-128123766D01*
X211063257Y-127934189D01*
X211328182Y-127698740D01*
X212003337Y-127081674D01*
X212670392Y-127691336D01*
X212672054Y-127692855D01*
X212935526Y-127929047D01*
X213160719Y-128122410D01*
X213323776Y-128253031D01*
X213400836Y-128300996D01*
X213404002Y-128300104D01*
X213481641Y-128235072D01*
X213639875Y-128080891D01*
X213860387Y-127857017D01*
X214124862Y-127582909D01*
X214414983Y-127278023D01*
X214712434Y-126961817D01*
X214998899Y-126653749D01*
X215256060Y-126373276D01*
X215465603Y-126139854D01*
X215609210Y-125972942D01*
X215668565Y-125891996D01*
X215651742Y-125883179D01*
X215509108Y-125867595D01*
X215227715Y-125854005D01*
X214815157Y-125842557D01*
X214279025Y-125833397D01*
X213626911Y-125826673D01*
X212866407Y-125822530D01*
X212005103Y-125821117D01*
X211900616Y-125821139D01*
X211177886Y-125822572D01*
X210504930Y-125826076D01*
X209896106Y-125831427D01*
X209365775Y-125838406D01*
X208928298Y-125846788D01*
X208598035Y-125856353D01*
X208389347Y-125866879D01*
X208316593Y-125878142D01*
X207015621Y-125878142D01*
X206958748Y-125821117D01*
X201406106Y-125821117D01*
X200521557Y-126507882D01*
X200382520Y-126616000D01*
X200076679Y-126855079D01*
X199818449Y-127058633D01*
X199631602Y-127207870D01*
X199539907Y-127283997D01*
X199519861Y-127310832D01*
X199504385Y-127357797D01*
X199494038Y-127435695D01*
X199489364Y-127555339D01*
X191759455Y-127555339D01*
X190779359Y-126220450D01*
X189754536Y-124575574D01*
X189515013Y-124116277D01*
X191123194Y-124116277D01*
X191138993Y-124219273D01*
X191232130Y-124421500D01*
X191392816Y-124706965D01*
X191611266Y-125059676D01*
X191877692Y-125463640D01*
X192182308Y-125902864D01*
X192515326Y-126361357D01*
X192708028Y-126616691D01*
X192905723Y-126869991D01*
X193060304Y-127058608D01*
X193149074Y-127154147D01*
X193154769Y-127158368D01*
X193212021Y-127171155D01*
X193307137Y-127146564D01*
X193454306Y-127076432D01*
X193667720Y-126952595D01*
X193961569Y-126766891D01*
X194350045Y-126511155D01*
X194847340Y-126177224D01*
X195219666Y-125923446D01*
X195606663Y-125654041D01*
X195932274Y-125421175D01*
X196180539Y-125236492D01*
X196335497Y-125111634D01*
X196381191Y-125058245D01*
X196379772Y-125057412D01*
X227615225Y-125057412D01*
X227615775Y-125058245D01*
X227635493Y-125088129D01*
X227759947Y-125193933D01*
X227981704Y-125362171D01*
X228284422Y-125580864D01*
X228651757Y-125838036D01*
X229067368Y-126121708D01*
X229354283Y-126315013D01*
X229756255Y-126585070D01*
X230107970Y-126820460D01*
X230390867Y-127008799D01*
X230586387Y-127137707D01*
X230675967Y-127194801D01*
X230714570Y-127200579D01*
X230827422Y-127136349D01*
X230999124Y-126964339D01*
X231240242Y-126674814D01*
X231272388Y-126634071D01*
X231487753Y-126349738D01*
X231728289Y-126016498D01*
X231979894Y-125655727D01*
X232228466Y-125288801D01*
X232459903Y-124937095D01*
X232660105Y-124621984D01*
X232814969Y-124364845D01*
X232910395Y-124187051D01*
X232932280Y-124109980D01*
X232913217Y-124107884D01*
X232772944Y-124121784D01*
X232514465Y-124158515D01*
X232158172Y-124214441D01*
X231724457Y-124285931D01*
X231233711Y-124369350D01*
X230706326Y-124461065D01*
X230162693Y-124557442D01*
X229623205Y-124654848D01*
X229108252Y-124749649D01*
X228638226Y-124838212D01*
X228371935Y-124889990D01*
X228233518Y-124916904D01*
X227914521Y-124982090D01*
X227701626Y-125030137D01*
X227615225Y-125057412D01*
X196379772Y-125057412D01*
X196376087Y-125055249D01*
X196266048Y-125024872D01*
X196032368Y-124973698D01*
X195764142Y-124919342D01*
X202584947Y-124919342D01*
X204329813Y-124919342D01*
X204627553Y-124918391D01*
X205091774Y-124912738D01*
X205486221Y-124902666D01*
X205790766Y-124888945D01*
X205985278Y-124872343D01*
X206049630Y-124853629D01*
X206044596Y-124844809D01*
X205964726Y-124746748D01*
X205805289Y-124567652D01*
X205586285Y-124329648D01*
X205327714Y-124054865D01*
X204630846Y-123321812D01*
X204162921Y-123686195D01*
X204110302Y-123727183D01*
X203804883Y-123965382D01*
X203459758Y-124234905D01*
X203139971Y-124484960D01*
X202584947Y-124919342D01*
X195764142Y-124919342D01*
X195695793Y-124905491D01*
X195277068Y-124824011D01*
X194796939Y-124733021D01*
X194276153Y-124636284D01*
X193735455Y-124537562D01*
X193195591Y-124440618D01*
X192677307Y-124349213D01*
X192201349Y-124267110D01*
X191788463Y-124198071D01*
X191459394Y-124145858D01*
X191234889Y-124114235D01*
X191135693Y-124106963D01*
X191123194Y-124116277D01*
X189515013Y-124116277D01*
X188860637Y-122861478D01*
X188100204Y-121083164D01*
X187475782Y-119245632D01*
X187451850Y-119152450D01*
X188835476Y-119152450D01*
X189082081Y-119875393D01*
X189202368Y-120211008D01*
X189394900Y-120710905D01*
X189615029Y-121253200D01*
X189843535Y-121791799D01*
X190061196Y-122280604D01*
X190248793Y-122673520D01*
X190364664Y-122874566D01*
X190498151Y-123007621D01*
X190671728Y-123071614D01*
X190758760Y-123088761D01*
X190995088Y-123133311D01*
X191328091Y-123194821D01*
X191726685Y-123267563D01*
X192159788Y-123345811D01*
X192460504Y-123399888D01*
X192970331Y-123491629D01*
X193563954Y-123598498D01*
X194204472Y-123713850D01*
X194854982Y-123831041D01*
X195478583Y-123943426D01*
X195563152Y-123958663D01*
X196095532Y-124054228D01*
X196574897Y-124139683D01*
X196982273Y-124211690D01*
X197298686Y-124266910D01*
X197505162Y-124302006D01*
X197582725Y-124313638D01*
X197595332Y-124309934D01*
X197717747Y-124242268D01*
X197915234Y-124110729D01*
X198154554Y-123940031D01*
X198402470Y-123754887D01*
X198625743Y-123580012D01*
X198791138Y-123440117D01*
X198865414Y-123359917D01*
X198876508Y-123317956D01*
X198912761Y-123142104D01*
X198967929Y-122852589D01*
X199013813Y-122603500D01*
X199925027Y-122603500D01*
X199954954Y-122664267D01*
X199975688Y-122656867D01*
X200101818Y-122584561D01*
X200316447Y-122448367D01*
X200595795Y-122264571D01*
X200916083Y-122049458D01*
X201253533Y-121819312D01*
X201584366Y-121590419D01*
X201884803Y-121379064D01*
X202131065Y-121201532D01*
X202299374Y-121074109D01*
X202365949Y-121013079D01*
X202350420Y-120969860D01*
X202252900Y-120833078D01*
X202085164Y-120633047D01*
X201868347Y-120395975D01*
X201766072Y-120287907D01*
X201482546Y-119985768D01*
X201208133Y-119690255D01*
X200990251Y-119452330D01*
X200977420Y-119438185D01*
X200795155Y-119246009D01*
X200651448Y-119109641D01*
X200576426Y-119057803D01*
X200572003Y-119059279D01*
X200532045Y-119145771D01*
X200483606Y-119339187D01*
X200436184Y-119602626D01*
X200418699Y-119715248D01*
X200364512Y-120052015D01*
X200298167Y-120452426D01*
X200224885Y-120886201D01*
X200149888Y-121323063D01*
X200078398Y-121732734D01*
X200015638Y-122084936D01*
X199966829Y-122349391D01*
X199937194Y-122495821D01*
X199925027Y-122603500D01*
X199013813Y-122603500D01*
X199038220Y-122471005D01*
X199119845Y-122018946D01*
X199209013Y-121518006D01*
X199301935Y-120989777D01*
X199394820Y-120455855D01*
X199483877Y-119937833D01*
X199565318Y-119457304D01*
X199635352Y-119035863D01*
X199690188Y-118695104D01*
X199726036Y-118456620D01*
X199730934Y-118418555D01*
X199732875Y-118345586D01*
X199714293Y-118270488D01*
X199663774Y-118180974D01*
X199569908Y-118064756D01*
X199421282Y-117909548D01*
X199289488Y-117782853D01*
X200651504Y-117782853D01*
X201177667Y-118345586D01*
X201897496Y-119115446D01*
X202147493Y-119381970D01*
X202473537Y-119726827D01*
X202755812Y-120022201D01*
X202979697Y-120252927D01*
X203130566Y-120403840D01*
X203193798Y-120459775D01*
X203262836Y-120429351D01*
X203431472Y-120328511D01*
X203672024Y-120173289D01*
X203958013Y-119980298D01*
X203990051Y-119958264D01*
X204290506Y-119752184D01*
X204678556Y-119486735D01*
X205121836Y-119184023D01*
X205587978Y-118866152D01*
X206044618Y-118555226D01*
X207417319Y-117621367D01*
X207409535Y-110217641D01*
X205477117Y-108899233D01*
X204783218Y-108426020D01*
X203896622Y-107822150D01*
X203127192Y-107299103D01*
X202471049Y-106854268D01*
X201924312Y-106485033D01*
X201483102Y-106188788D01*
X201143537Y-105962920D01*
X200901739Y-105804819D01*
X200753827Y-105711873D01*
X200695921Y-105681472D01*
X200692951Y-105694955D01*
X200686187Y-105828832D01*
X200679786Y-106097019D01*
X200673829Y-106488301D01*
X200668400Y-106991469D01*
X200663580Y-107595308D01*
X200659452Y-108288608D01*
X200656098Y-109060155D01*
X200653601Y-109898738D01*
X200652042Y-110793145D01*
X200651504Y-111732162D01*
X200651504Y-117782853D01*
X199289488Y-117782853D01*
X199206485Y-117703062D01*
X198914104Y-117433012D01*
X198532728Y-117087110D01*
X198050945Y-116653069D01*
X197635849Y-116279150D01*
X197070027Y-115768630D01*
X196481220Y-115236598D01*
X195903131Y-114713535D01*
X195369468Y-114229921D01*
X194913934Y-113816235D01*
X194575035Y-113509421D01*
X194217545Y-113189107D01*
X193909330Y-112916538D01*
X193665762Y-112705177D01*
X193502210Y-112568488D01*
X193434044Y-112519933D01*
X193430768Y-112520258D01*
X193353302Y-112584541D01*
X193247742Y-112726590D01*
X193172431Y-112840255D01*
X193021795Y-113060909D01*
X192827602Y-113341300D01*
X192613467Y-113647152D01*
X192466791Y-113856712D01*
X192229325Y-114198326D01*
X191936405Y-114621374D01*
X191602131Y-115105353D01*
X191240602Y-115629764D01*
X190865918Y-116174103D01*
X190492178Y-116717871D01*
X190133481Y-117240567D01*
X189803927Y-117721689D01*
X189517616Y-118140735D01*
X189288647Y-118477206D01*
X189131119Y-118710600D01*
X188835476Y-119152450D01*
X187451850Y-119152450D01*
X186989917Y-117353882D01*
X186645151Y-115412914D01*
X186527391Y-114424761D01*
X186410247Y-112500351D01*
X186415836Y-112130150D01*
X187751041Y-112130150D01*
X187790470Y-113287601D01*
X187840321Y-113918893D01*
X187915716Y-114655846D01*
X188007645Y-115398175D01*
X188111564Y-116114772D01*
X188222926Y-116774526D01*
X188337183Y-117346330D01*
X188449790Y-117799075D01*
X188478062Y-117869065D01*
X188538964Y-117928294D01*
X188541329Y-117926952D01*
X188604223Y-117849560D01*
X188742364Y-117661638D01*
X188947411Y-117375050D01*
X189211021Y-117001659D01*
X189524854Y-116553328D01*
X189880567Y-116041919D01*
X190269819Y-115479295D01*
X190684270Y-114877321D01*
X191034673Y-114366698D01*
X191457543Y-113748357D01*
X191805823Y-113235414D01*
X192086087Y-112817374D01*
X192304911Y-112483746D01*
X192468869Y-112224038D01*
X192584534Y-112027755D01*
X192658483Y-111884407D01*
X192697289Y-111783499D01*
X192697829Y-111779863D01*
X194055587Y-111779863D01*
X194094467Y-111822883D01*
X194233286Y-111957885D01*
X194460321Y-112172012D01*
X194762657Y-112453261D01*
X195127381Y-112789632D01*
X195541577Y-113169122D01*
X195992332Y-113579730D01*
X196313856Y-113871829D01*
X196768888Y-114285293D01*
X197191950Y-114669793D01*
X197567186Y-115010914D01*
X197878737Y-115294239D01*
X198110745Y-115505350D01*
X198247352Y-115629831D01*
X198331825Y-115706581D01*
X198578260Y-115928347D01*
X198869943Y-116188823D01*
X199160366Y-116446413D01*
X199333212Y-116598019D01*
X199546416Y-116781572D01*
X199697305Y-116907132D01*
X199760968Y-116953661D01*
X199762670Y-116947583D01*
X199767882Y-116834674D01*
X199771979Y-116590486D01*
X199775019Y-116229807D01*
X199777059Y-115767426D01*
X199778158Y-115218129D01*
X199778372Y-114596704D01*
X199777759Y-113917938D01*
X199776376Y-113196620D01*
X199774282Y-112447536D01*
X199771533Y-111685474D01*
X199768187Y-110925221D01*
X199764302Y-110181566D01*
X199759934Y-109469295D01*
X199755143Y-108803197D01*
X199749985Y-108198058D01*
X199744517Y-107668666D01*
X199738798Y-107229809D01*
X199732885Y-106896275D01*
X199726835Y-106682850D01*
X199720705Y-106604322D01*
X199717284Y-106603304D01*
X199681502Y-106621802D01*
X199604586Y-106679701D01*
X199480218Y-106782665D01*
X199302078Y-106936359D01*
X199063847Y-107146449D01*
X198759204Y-107418599D01*
X198381830Y-107758473D01*
X197925405Y-108171737D01*
X197383610Y-108664055D01*
X196750125Y-109241093D01*
X196018630Y-109908514D01*
X195182806Y-110671984D01*
X195084952Y-110761687D01*
X194752250Y-111071189D01*
X194466840Y-111343603D01*
X194244845Y-111563083D01*
X194102387Y-111713785D01*
X194101852Y-111714540D01*
X194055587Y-111779863D01*
X192697829Y-111779863D01*
X192707526Y-111714540D01*
X192695769Y-111667037D01*
X192680653Y-111640445D01*
X192586386Y-111492190D01*
X192425112Y-111248754D01*
X192210645Y-110930679D01*
X191956801Y-110558505D01*
X191677393Y-110152774D01*
X191375583Y-109715666D01*
X190976451Y-109135770D01*
X190557019Y-108524785D01*
X190151660Y-107932793D01*
X189794750Y-107409874D01*
X189676476Y-107236371D01*
X189400296Y-106832566D01*
X189150886Y-106469705D01*
X188942651Y-106168643D01*
X188789996Y-105950238D01*
X188707323Y-105835346D01*
X188566671Y-105651054D01*
X188483402Y-105960292D01*
X188447226Y-106097372D01*
X188202147Y-107196361D01*
X188006008Y-108391225D01*
X187862790Y-109639871D01*
X187776474Y-110900210D01*
X187751041Y-112130150D01*
X186415836Y-112130150D01*
X186439184Y-110583492D01*
X186611461Y-108682146D01*
X186924338Y-106804275D01*
X187375074Y-104957840D01*
X187535112Y-104464213D01*
X188929263Y-104464213D01*
X188937979Y-104488393D01*
X189014549Y-104623913D01*
X189161619Y-104859970D01*
X189368898Y-105180745D01*
X189626098Y-105570422D01*
X189922929Y-106013182D01*
X190249102Y-106493207D01*
X190624857Y-107043006D01*
X191029816Y-107636168D01*
X191436086Y-108231806D01*
X191822107Y-108798300D01*
X192166324Y-109304029D01*
X192447179Y-109717372D01*
X192524005Y-109830170D01*
X192784292Y-110205966D01*
X193015581Y-110530393D01*
X193204299Y-110785015D01*
X193336872Y-110951400D01*
X193399729Y-111011112D01*
X193449179Y-110988746D01*
X193575666Y-110896209D01*
X193780346Y-110726911D01*
X194069362Y-110475491D01*
X194448859Y-110136586D01*
X194924980Y-109704834D01*
X195503871Y-109174874D01*
X195546748Y-109135503D01*
X195818388Y-108886506D01*
X196174628Y-108560471D01*
X196593460Y-108177514D01*
X197052876Y-107757754D01*
X197530867Y-107321306D01*
X198005426Y-106888289D01*
X198093231Y-106808164D01*
X198571175Y-106370091D01*
X198949032Y-106019105D01*
X199237377Y-105744274D01*
X199446786Y-105534664D01*
X199587837Y-105379343D01*
X199671104Y-105267379D01*
X199707165Y-105187839D01*
X199706595Y-105129789D01*
X199668146Y-105024052D01*
X199609774Y-104919535D01*
X199609309Y-104919081D01*
X199527221Y-104858103D01*
X199324161Y-104715691D01*
X199003726Y-104494310D01*
X198569516Y-104196422D01*
X198025128Y-103824492D01*
X197407489Y-103403687D01*
X203310167Y-103403687D01*
X203332752Y-103463514D01*
X203408271Y-103550259D01*
X203550089Y-103676704D01*
X203771567Y-103855627D01*
X204086070Y-104099812D01*
X204506960Y-104422037D01*
X204578802Y-104477048D01*
X204836688Y-104675544D01*
X205189434Y-104948027D01*
X205499261Y-105187839D01*
X205620032Y-105281318D01*
X206111476Y-105662238D01*
X206646759Y-106077609D01*
X207208875Y-106514252D01*
X207780815Y-106958987D01*
X210340438Y-108950407D01*
X210343012Y-113911733D01*
X210344937Y-117621367D01*
X210345587Y-118873060D01*
X209462598Y-119560015D01*
X209355055Y-119643701D01*
X208994126Y-119924730D01*
X208558234Y-120264307D01*
X208079202Y-120637633D01*
X207597613Y-121013079D01*
X207588853Y-121019908D01*
X207119011Y-121386335D01*
X206824992Y-121615459D01*
X206434839Y-121918759D01*
X206090619Y-122185501D01*
X205810448Y-122401681D01*
X205612445Y-122553295D01*
X205514727Y-122626341D01*
X205430363Y-122711261D01*
X205434793Y-122838581D01*
X205491807Y-122911619D01*
X205638540Y-123079821D01*
X205855222Y-123319622D01*
X206123924Y-123611206D01*
X206426715Y-123934761D01*
X207292937Y-124853629D01*
X207354885Y-124919342D01*
X216634340Y-124919342D01*
X216699158Y-124850825D01*
X217948052Y-124850825D01*
X217956799Y-124859577D01*
X218077055Y-124879367D01*
X218324781Y-124895886D01*
X218683718Y-124908486D01*
X219137607Y-124916520D01*
X219670192Y-124919342D01*
X219977763Y-124918882D01*
X220437798Y-124916312D01*
X220829015Y-124911789D01*
X221131046Y-124905662D01*
X221323521Y-124898280D01*
X221386070Y-124889990D01*
X221365694Y-124873359D01*
X221246413Y-124779818D01*
X221040226Y-124619701D01*
X220768594Y-124409652D01*
X220452983Y-124166318D01*
X220297952Y-124046925D01*
X219992057Y-123811180D01*
X219735625Y-123613334D01*
X219551874Y-123471306D01*
X219464020Y-123403014D01*
X219396633Y-123409102D01*
X219242553Y-123514412D01*
X219003500Y-123729521D01*
X218674967Y-124058170D01*
X218613824Y-124121415D01*
X218360246Y-124387358D01*
X218151264Y-124612288D01*
X218007120Y-124774134D01*
X217948052Y-124850825D01*
X216699158Y-124850825D01*
X217623099Y-123874161D01*
X217644667Y-123851347D01*
X217950050Y-123524711D01*
X218214913Y-123234940D01*
X218423366Y-122999926D01*
X218559519Y-122837558D01*
X218607485Y-122765729D01*
X218576843Y-122727842D01*
X218444715Y-122608976D01*
X218226531Y-122428131D01*
X217942236Y-122201724D01*
X217611775Y-121946173D01*
X217490628Y-121853570D01*
X217097198Y-121551300D01*
X216631548Y-121191839D01*
X216394536Y-121008235D01*
X221617776Y-121008235D01*
X221645850Y-121066662D01*
X221761299Y-121158321D01*
X221811946Y-121188658D01*
X221982121Y-121298786D01*
X222236554Y-121468236D01*
X222550472Y-121680448D01*
X222899102Y-121918864D01*
X223176891Y-122109234D01*
X223534406Y-122350517D01*
X223791376Y-122516838D01*
X223961293Y-122615772D01*
X224057647Y-122654897D01*
X224093928Y-122641786D01*
X224083629Y-122584015D01*
X224074401Y-122548923D01*
X224039812Y-122379621D01*
X223986806Y-122096126D01*
X223919469Y-121721011D01*
X223841886Y-121276846D01*
X223758145Y-120786206D01*
X223713135Y-120521376D01*
X223633205Y-120060534D01*
X223562078Y-119662354D01*
X223503686Y-119348241D01*
X223461958Y-119139599D01*
X223440823Y-119057834D01*
X223436223Y-119056127D01*
X223359162Y-119106551D01*
X223214238Y-119240539D01*
X223028364Y-119433573D01*
X222956969Y-119510900D01*
X222701652Y-119785420D01*
X222410247Y-120096596D01*
X222132820Y-120390909D01*
X221989203Y-120545531D01*
X221797809Y-120762520D01*
X221666523Y-120925717D01*
X221617776Y-121008235D01*
X216394536Y-121008235D01*
X216127208Y-120801146D01*
X215617709Y-120405181D01*
X215136579Y-120029901D01*
X213652718Y-118869933D01*
X213653155Y-117621066D01*
X216582865Y-117621066D01*
X217954314Y-118554468D01*
X218009104Y-118591756D01*
X218470758Y-118905775D01*
X218939919Y-119224650D01*
X219383656Y-119526013D01*
X219769039Y-119787500D01*
X220063135Y-119986742D01*
X220349154Y-120178874D01*
X220590389Y-120338276D01*
X220758003Y-120446027D01*
X220826721Y-120485614D01*
X220839775Y-120477793D01*
X220925098Y-120391783D01*
X221055334Y-120241383D01*
X221142144Y-120140830D01*
X221333207Y-119929056D01*
X221573998Y-119668892D01*
X221832280Y-119395438D01*
X221974465Y-119246314D01*
X222293446Y-118910639D01*
X222611265Y-118574952D01*
X222860203Y-118310807D01*
X224247954Y-118310807D01*
X224253520Y-118386839D01*
X224281373Y-118590132D01*
X224324776Y-118840889D01*
X224353235Y-118996768D01*
X224405325Y-119290905D01*
X224474467Y-119686680D01*
X224556374Y-120159419D01*
X224646756Y-120684448D01*
X224741323Y-121237093D01*
X224831364Y-121761730D01*
X224916465Y-122251438D01*
X224985289Y-122641786D01*
X224991294Y-122675842D01*
X225052162Y-123014218D01*
X225095384Y-123245843D01*
X225117270Y-123349994D01*
X225153680Y-123401806D01*
X225296098Y-123532561D01*
X225517739Y-123704723D01*
X225789630Y-123894816D01*
X225976561Y-124016158D01*
X226229528Y-124169823D01*
X226421210Y-124273329D01*
X226520441Y-124309010D01*
X226533734Y-124307246D01*
X226669165Y-124284551D01*
X226922537Y-124239614D01*
X227270384Y-124176672D01*
X227689243Y-124099962D01*
X228155646Y-124013721D01*
X228555960Y-123939803D01*
X229226791Y-123817275D01*
X229939268Y-123688425D01*
X230630278Y-123564649D01*
X231236711Y-123457345D01*
X231306934Y-123445009D01*
X231798016Y-123357843D01*
X232261285Y-123274158D01*
X232666669Y-123199484D01*
X232984097Y-123139352D01*
X233183498Y-123099293D01*
X233589753Y-123011478D01*
X233942791Y-122255794D01*
X234226290Y-121623587D01*
X234629300Y-120639944D01*
X234993000Y-119651234D01*
X235164407Y-119155019D01*
X234792602Y-118599163D01*
X234766979Y-118560931D01*
X234579643Y-118283830D01*
X234324056Y-117908562D01*
X234014956Y-117456541D01*
X233667082Y-116949184D01*
X233295174Y-116407905D01*
X232913971Y-115854120D01*
X232538211Y-115309245D01*
X232182635Y-114794696D01*
X231861981Y-114331886D01*
X231590988Y-113942234D01*
X231384395Y-113647152D01*
X231204753Y-113390877D01*
X231005597Y-113103947D01*
X230846120Y-112871095D01*
X230749940Y-112726590D01*
X230742452Y-112714975D01*
X230637434Y-112576836D01*
X230563638Y-112519933D01*
X230510119Y-112556855D01*
X230358152Y-112682798D01*
X230124162Y-112885171D01*
X229823518Y-113150510D01*
X229471590Y-113465352D01*
X229083749Y-113816235D01*
X228730044Y-114137579D01*
X228209268Y-114609861D01*
X227637357Y-115127767D01*
X227048151Y-115660676D01*
X226475488Y-116177968D01*
X225953208Y-116649022D01*
X225781320Y-116804535D01*
X225369831Y-117182260D01*
X225002461Y-117527101D01*
X224726506Y-117793297D01*
X224692898Y-117825716D01*
X224454833Y-118064766D01*
X224301955Y-118230910D01*
X224247954Y-118310807D01*
X222860203Y-118310807D01*
X222876504Y-118293510D01*
X223346178Y-117793297D01*
X223346178Y-111780209D01*
X224212056Y-111780209D01*
X224212079Y-112283968D01*
X224212976Y-113121704D01*
X224214884Y-113907334D01*
X224217714Y-114628584D01*
X224221377Y-115273182D01*
X224225786Y-115828852D01*
X224230852Y-116283322D01*
X224236486Y-116624318D01*
X224242599Y-116839566D01*
X224249103Y-116916791D01*
X224290166Y-116903106D01*
X224416399Y-116813429D01*
X224589435Y-116665391D01*
X224707102Y-116558671D01*
X224946527Y-116343280D01*
X225232354Y-116087513D01*
X225525455Y-115826442D01*
X225696631Y-115673968D01*
X226039551Y-115366748D01*
X226375928Y-115063488D01*
X226652699Y-114811945D01*
X226760962Y-114713046D01*
X227014590Y-114481843D01*
X227343140Y-114182736D01*
X227724015Y-113836283D01*
X228134622Y-113463041D01*
X228552364Y-113083568D01*
X228873516Y-112790704D01*
X229224644Y-112467367D01*
X229523670Y-112188535D01*
X229755700Y-111968227D01*
X229905840Y-111820463D01*
X229959196Y-111759263D01*
X229915387Y-111697308D01*
X229912749Y-111694565D01*
X231292512Y-111694565D01*
X231295211Y-111755635D01*
X231296398Y-111759263D01*
X231324752Y-111845946D01*
X231387692Y-111975957D01*
X231490585Y-112156127D01*
X231639985Y-112396916D01*
X231842447Y-112708782D01*
X232104527Y-113102185D01*
X232432779Y-113587583D01*
X232833757Y-114175437D01*
X233314017Y-114876205D01*
X233375290Y-114965453D01*
X233786400Y-115562670D01*
X234171081Y-116118802D01*
X234521002Y-116621987D01*
X234827831Y-117060362D01*
X235083238Y-117422064D01*
X235278892Y-117695230D01*
X235406460Y-117867998D01*
X235457613Y-117928504D01*
X235457766Y-117928507D01*
X235494418Y-117858699D01*
X235552935Y-117665054D01*
X235627600Y-117371319D01*
X235712696Y-117001239D01*
X235802505Y-116578562D01*
X235891313Y-116127034D01*
X235918382Y-115978255D01*
X236046341Y-115095690D01*
X236141841Y-114113331D01*
X236203738Y-113071067D01*
X236230890Y-112008784D01*
X236222157Y-110966371D01*
X236176396Y-109983714D01*
X236092465Y-109100703D01*
X236024423Y-108598210D01*
X235938335Y-108037764D01*
X235845703Y-107498458D01*
X235750430Y-106998537D01*
X235656420Y-106556247D01*
X235567574Y-106189830D01*
X235487796Y-105917533D01*
X235420989Y-105757599D01*
X235371055Y-105728274D01*
X235345676Y-105761456D01*
X235242459Y-105906529D01*
X235071617Y-106151269D01*
X234843653Y-106480490D01*
X234569072Y-106879007D01*
X234258376Y-107331635D01*
X233922069Y-107823188D01*
X233800571Y-108000989D01*
X233430776Y-108541438D01*
X233064554Y-109075694D01*
X232718121Y-109580158D01*
X232407694Y-110031230D01*
X232149490Y-110405314D01*
X231959724Y-110678809D01*
X231920971Y-110734487D01*
X231702877Y-111051482D01*
X231514320Y-111331398D01*
X231374344Y-111545665D01*
X231301990Y-111665711D01*
X231292512Y-111694565D01*
X229912749Y-111694565D01*
X229786475Y-111563271D01*
X229602243Y-111390176D01*
X229390249Y-111197475D01*
X229101889Y-110932985D01*
X228831977Y-110683294D01*
X228398823Y-110281965D01*
X227891103Y-109815352D01*
X227373615Y-109343291D01*
X226858401Y-108876498D01*
X226357502Y-108425690D01*
X225882960Y-108001583D01*
X225446817Y-107614893D01*
X225061114Y-107276335D01*
X224737893Y-106996627D01*
X224489196Y-106786484D01*
X224327065Y-106656623D01*
X224263541Y-106617759D01*
X224258668Y-106646989D01*
X224250457Y-106809252D01*
X224242716Y-107102370D01*
X224235569Y-107513987D01*
X224229139Y-108031746D01*
X224223549Y-108643292D01*
X224218922Y-109336268D01*
X224215383Y-110098317D01*
X224213053Y-110917083D01*
X224212056Y-111780209D01*
X223346178Y-111780209D01*
X223346178Y-111737384D01*
X223346086Y-111328362D01*
X223345188Y-110406752D01*
X223343392Y-109534572D01*
X223340775Y-108723028D01*
X223337410Y-107983329D01*
X223333373Y-107326681D01*
X223328738Y-106764292D01*
X223323581Y-106307369D01*
X223317976Y-105967120D01*
X223311998Y-105754752D01*
X223305722Y-105681472D01*
X223271821Y-105698255D01*
X223126003Y-105788605D01*
X222879465Y-105948744D01*
X222546245Y-106169109D01*
X222140381Y-106440138D01*
X221675909Y-106752266D01*
X221166866Y-107095930D01*
X220627290Y-107461567D01*
X220071218Y-107839613D01*
X219512686Y-108220505D01*
X218965733Y-108594680D01*
X218444396Y-108952574D01*
X217962711Y-109284624D01*
X217534716Y-109581266D01*
X217174447Y-109832938D01*
X216895943Y-110030076D01*
X216713241Y-110163115D01*
X216640376Y-110222494D01*
X216639390Y-110224512D01*
X216628444Y-110326098D01*
X216618201Y-110561832D01*
X216608883Y-110916870D01*
X216600715Y-111376368D01*
X216593921Y-111925481D01*
X216588723Y-112549365D01*
X216585347Y-113233176D01*
X216584015Y-113962068D01*
X216582865Y-117621066D01*
X213653155Y-117621066D01*
X213654455Y-113910170D01*
X213656193Y-108950407D01*
X214311688Y-108449202D01*
X214366413Y-108407263D01*
X214624224Y-108208418D01*
X214972724Y-107938295D01*
X215390527Y-107613531D01*
X215856245Y-107250765D01*
X216348492Y-106866632D01*
X216845883Y-106477770D01*
X216923297Y-106417203D01*
X217447433Y-106007879D01*
X217982935Y-105590832D01*
X218503887Y-105186170D01*
X218522305Y-105171904D01*
X224282838Y-105171904D01*
X224294221Y-105226937D01*
X224332345Y-105297550D01*
X224406607Y-105393228D01*
X224526407Y-105523460D01*
X224701144Y-105697734D01*
X224940215Y-105925538D01*
X225253022Y-106216358D01*
X225648961Y-106579683D01*
X226137433Y-107025000D01*
X226727835Y-107561797D01*
X226885575Y-107705167D01*
X227302197Y-108084051D01*
X227680599Y-108428481D01*
X228006170Y-108725140D01*
X228264303Y-108960710D01*
X228440388Y-109121876D01*
X228519818Y-109195319D01*
X228577103Y-109248283D01*
X228735804Y-109392487D01*
X228970051Y-109604078D01*
X229259134Y-109864357D01*
X229582342Y-110154625D01*
X229838831Y-110382527D01*
X230129562Y-110635090D01*
X230367744Y-110835467D01*
X230533864Y-110967311D01*
X230608407Y-111014273D01*
X230668891Y-110959388D01*
X230794613Y-110802436D01*
X230965617Y-110568210D01*
X231163076Y-110281580D01*
X231178165Y-110259122D01*
X231341863Y-110016860D01*
X231576199Y-109671728D01*
X231868421Y-109242431D01*
X232205778Y-108747669D01*
X232575519Y-108206144D01*
X232964895Y-107636558D01*
X233361153Y-107057614D01*
X233493523Y-106864064D01*
X233857333Y-106329114D01*
X234189976Y-105835679D01*
X234482409Y-105397451D01*
X234725594Y-105028123D01*
X234910490Y-104741386D01*
X235028057Y-104550934D01*
X235069255Y-104470458D01*
X235067941Y-104452200D01*
X235027729Y-104288968D01*
X234938743Y-104018705D01*
X234810962Y-103666556D01*
X234654362Y-103257665D01*
X234478921Y-102817178D01*
X234294616Y-102370240D01*
X234111425Y-101941995D01*
X233939325Y-101557588D01*
X233788293Y-101242165D01*
X233728613Y-101120053D01*
X233669595Y-101007653D01*
X233603591Y-100921164D01*
X233510590Y-100852447D01*
X233370583Y-100793365D01*
X233163562Y-100735782D01*
X232869515Y-100671560D01*
X232468435Y-100592561D01*
X231940310Y-100490648D01*
X231103377Y-100328272D01*
X230287056Y-100887364D01*
X229989745Y-101090807D01*
X229528929Y-101405669D01*
X229058458Y-101726699D01*
X228644107Y-102008992D01*
X228413985Y-102165612D01*
X228040873Y-102419583D01*
X227593281Y-102724279D01*
X227098611Y-103061044D01*
X226584264Y-103411225D01*
X226549495Y-103434898D01*
X226077641Y-103756168D01*
X225940406Y-103849838D01*
X225366305Y-104247882D01*
X224912553Y-104573889D01*
X224581163Y-104826339D01*
X224374146Y-105003710D01*
X224293515Y-105104483D01*
X224288795Y-105122961D01*
X224282838Y-105171904D01*
X218522305Y-105171904D01*
X218984374Y-104814001D01*
X219398481Y-104494432D01*
X219720291Y-104247571D01*
X219965523Y-104058771D01*
X220264223Y-103823800D01*
X220502040Y-103630748D01*
X220659218Y-103495739D01*
X220716001Y-103434898D01*
X220697553Y-103411375D01*
X220583475Y-103299991D01*
X220376826Y-103109462D01*
X220091062Y-102851880D01*
X219739643Y-102539333D01*
X219336024Y-102183912D01*
X218893664Y-101797708D01*
X218736106Y-101660702D01*
X218256680Y-101243678D01*
X217789436Y-100837063D01*
X217354628Y-100458493D01*
X216972506Y-100125603D01*
X216663322Y-99856029D01*
X216447330Y-99667407D01*
X216232441Y-99486304D01*
X216004859Y-99312258D01*
X215840217Y-99207660D01*
X215762075Y-99188959D01*
X215752926Y-99203898D01*
X215701232Y-99336984D01*
X215622403Y-99578062D01*
X215525420Y-99898790D01*
X215419266Y-100270821D01*
X215407328Y-100313819D01*
X215273447Y-100794441D01*
X215118673Y-101347827D01*
X214961238Y-101908888D01*
X214819374Y-102412537D01*
X214770691Y-102585354D01*
X214652389Y-103008690D01*
X214544407Y-103399523D01*
X214457026Y-103720503D01*
X214400523Y-103934282D01*
X214300014Y-104328809D01*
X209697669Y-104328809D01*
X209597159Y-103934282D01*
X209578574Y-103862704D01*
X209508279Y-103600841D01*
X209411283Y-103246960D01*
X209297866Y-102838409D01*
X209178308Y-102412537D01*
X209164877Y-102364964D01*
X209020555Y-101852350D01*
X208862549Y-101289063D01*
X208709093Y-100740190D01*
X208578416Y-100270821D01*
X208544820Y-100150805D01*
X208440751Y-99791989D01*
X208348821Y-99493471D01*
X208277968Y-99283538D01*
X208237127Y-99190480D01*
X208236148Y-99189621D01*
X208159141Y-99219972D01*
X207989425Y-99335792D01*
X207745464Y-99522942D01*
X207445718Y-99767285D01*
X207108649Y-100054681D01*
X206708015Y-100403294D01*
X206231419Y-100817959D01*
X205720553Y-101262404D01*
X205215096Y-101702108D01*
X204754730Y-102102548D01*
X204572270Y-102261326D01*
X204209723Y-102577286D01*
X203889286Y-102857166D01*
X203628801Y-103085351D01*
X203446109Y-103246222D01*
X203359053Y-103324163D01*
X203327153Y-103357998D01*
X203310167Y-103403687D01*
X197407489Y-103403687D01*
X197374162Y-103380981D01*
X196620216Y-102868354D01*
X195766888Y-102289073D01*
X195504432Y-102110891D01*
X195031188Y-101789084D01*
X194551665Y-101462456D01*
X194109441Y-101160699D01*
X193748095Y-100913507D01*
X192894094Y-100328127D01*
X191691990Y-100563201D01*
X191416671Y-100617682D01*
X191040393Y-100694421D01*
X190733507Y-100759775D01*
X190522092Y-100808139D01*
X190432225Y-100833911D01*
X190398611Y-100873916D01*
X190306367Y-101038830D01*
X190176660Y-101306560D01*
X190019222Y-101653599D01*
X189843787Y-102056439D01*
X189660084Y-102491575D01*
X189477848Y-102935499D01*
X189306808Y-103364705D01*
X189156698Y-103755687D01*
X189037249Y-104084936D01*
X188958194Y-104328947D01*
X188929263Y-104464213D01*
X187535112Y-104464213D01*
X187960929Y-103150804D01*
X188679161Y-101391127D01*
X189527031Y-99686773D01*
X189530246Y-99681361D01*
X191070165Y-99681361D01*
X191088790Y-99732614D01*
X191199722Y-99734552D01*
X191255440Y-99730867D01*
X191539909Y-99693085D01*
X191679973Y-99629525D01*
X191679381Y-99536640D01*
X191541884Y-99410881D01*
X191504111Y-99385042D01*
X198036172Y-99385042D01*
X198134414Y-99480069D01*
X198282931Y-99591763D01*
X198345279Y-99629525D01*
X198442479Y-99688395D01*
X198524302Y-99690348D01*
X198547362Y-99603280D01*
X198536370Y-99465840D01*
X198453983Y-99279430D01*
X198302784Y-99218271D01*
X198096840Y-99292081D01*
X198057497Y-99319954D01*
X198036172Y-99385042D01*
X191504111Y-99385042D01*
X191488333Y-99374249D01*
X191346120Y-99305851D01*
X191248479Y-99349646D01*
X191145291Y-99519342D01*
X191133892Y-99541430D01*
X191070165Y-99681361D01*
X189530246Y-99681361D01*
X189853301Y-99137480D01*
X199415417Y-99137480D01*
X199418835Y-99229459D01*
X199447636Y-99427707D01*
X199478476Y-99603280D01*
X199494275Y-99693228D01*
X199551208Y-99987030D01*
X199610887Y-100270118D01*
X199665769Y-100503499D01*
X199708309Y-100648177D01*
X199764286Y-100734621D01*
X199903165Y-100856526D01*
X199912380Y-100862525D01*
X200033138Y-100949866D01*
X200248082Y-101111871D01*
X200536598Y-101332771D01*
X200878074Y-101596801D01*
X201251898Y-101888193D01*
X201331349Y-101950265D01*
X201690618Y-102228273D01*
X202006670Y-102468604D01*
X202260846Y-102657359D01*
X202434488Y-102780638D01*
X202508936Y-102824544D01*
X202529110Y-102816431D01*
X202645293Y-102735551D01*
X202832067Y-102586538D01*
X203060034Y-102392444D01*
X203126821Y-102334063D01*
X203350941Y-102138540D01*
X203661921Y-101867573D01*
X204041346Y-101537197D01*
X204470798Y-101163444D01*
X204931861Y-100762349D01*
X205406119Y-100349943D01*
X205696389Y-100096936D01*
X206116901Y-99727936D01*
X206489006Y-99398429D01*
X206799630Y-99120156D01*
X207035699Y-98904861D01*
X207184139Y-98764284D01*
X207230700Y-98711504D01*
X216764470Y-98711504D01*
X216790189Y-98740105D01*
X216913418Y-98855659D01*
X217125363Y-99048015D01*
X217411701Y-99304570D01*
X217758107Y-99612719D01*
X218150257Y-99959857D01*
X218573826Y-100333379D01*
X219014491Y-100720681D01*
X219457926Y-101109158D01*
X219889807Y-101486205D01*
X220295811Y-101839218D01*
X220661612Y-102155593D01*
X220972887Y-102422723D01*
X221215310Y-102628006D01*
X221268163Y-102670883D01*
X221422540Y-102780161D01*
X221515902Y-102822138D01*
X221532296Y-102814716D01*
X221648553Y-102736087D01*
X221857224Y-102582543D01*
X222140308Y-102367683D01*
X222479806Y-102105106D01*
X222857717Y-101808412D01*
X223010069Y-101688226D01*
X223373410Y-101403851D01*
X223690163Y-101159084D01*
X223942593Y-100967445D01*
X224112968Y-100842452D01*
X224183553Y-100797627D01*
X224213205Y-100785401D01*
X224262337Y-100707141D01*
X224318070Y-100539482D01*
X224386457Y-100262809D01*
X224473548Y-99857507D01*
X224504209Y-99701317D01*
X224524785Y-99575703D01*
X225451471Y-99575703D01*
X225455088Y-99680848D01*
X225470166Y-99744785D01*
X225513092Y-99727386D01*
X225639129Y-99644472D01*
X225670590Y-99620472D01*
X232270026Y-99620472D01*
X232295861Y-99632266D01*
X232446372Y-99673991D01*
X232660421Y-99715272D01*
X232980150Y-99766399D01*
X232857980Y-99530148D01*
X232842496Y-99501012D01*
X232748504Y-99353999D01*
X232681379Y-99294393D01*
X232641555Y-99301908D01*
X232542308Y-99351690D01*
X232514559Y-99365609D01*
X232379544Y-99464320D01*
X232282652Y-99561467D01*
X232270026Y-99620472D01*
X225670590Y-99620472D01*
X225791708Y-99528079D01*
X225920470Y-99417416D01*
X225975057Y-99351690D01*
X225924214Y-99301623D01*
X225780420Y-99247585D01*
X225618167Y-99240850D01*
X225493934Y-99345447D01*
X225451471Y-99575703D01*
X224524785Y-99575703D01*
X224549617Y-99424110D01*
X224570388Y-99222443D01*
X224562185Y-99131824D01*
X224539720Y-99126617D01*
X224390769Y-99111209D01*
X224117550Y-99090054D01*
X223737206Y-99064077D01*
X223266880Y-99034201D01*
X222723715Y-99001351D01*
X222124855Y-98966451D01*
X221487442Y-98930424D01*
X220828621Y-98894195D01*
X220165534Y-98858687D01*
X219515325Y-98824826D01*
X218895136Y-98793535D01*
X218322112Y-98765737D01*
X217813396Y-98742358D01*
X217386130Y-98724321D01*
X217057458Y-98712550D01*
X216844524Y-98707970D01*
X216794711Y-98710169D01*
X216764470Y-98711504D01*
X207230700Y-98711504D01*
X207231878Y-98710169D01*
X207220454Y-98707586D01*
X207153343Y-98705810D01*
X207020016Y-98708176D01*
X206812852Y-98715051D01*
X206524226Y-98726803D01*
X206146515Y-98743797D01*
X205672095Y-98766400D01*
X205093343Y-98794979D01*
X204402635Y-98829902D01*
X203592348Y-98871533D01*
X202654858Y-98920242D01*
X201582542Y-98976393D01*
X200367777Y-99040353D01*
X200346012Y-99041514D01*
X199992910Y-99064078D01*
X199700239Y-99089480D01*
X199497911Y-99114692D01*
X199415837Y-99136687D01*
X199415417Y-99137480D01*
X189853301Y-99137480D01*
X190501797Y-98045701D01*
X191600719Y-96475875D01*
X191994377Y-95995029D01*
X193737894Y-95995029D01*
X193793540Y-96051867D01*
X193952991Y-96188169D01*
X194200784Y-96391244D01*
X194521452Y-96648564D01*
X194899524Y-96947604D01*
X195319532Y-97275836D01*
X195352401Y-97301362D01*
X195922383Y-97738078D01*
X196380972Y-98076942D01*
X196729759Y-98319062D01*
X196970336Y-98465545D01*
X197104296Y-98517498D01*
X197131420Y-98517939D01*
X197305295Y-98502468D01*
X197552632Y-98465845D01*
X197828967Y-98416455D01*
X198089837Y-98362683D01*
X198290779Y-98312913D01*
X198387331Y-98275532D01*
X198390008Y-98269004D01*
X198405656Y-98166679D01*
X199289632Y-98166679D01*
X199914207Y-98152778D01*
X199945777Y-98152058D01*
X200308819Y-98141802D01*
X200668793Y-98128687D01*
X200952096Y-98115367D01*
X201077467Y-98108454D01*
X201376526Y-98092537D01*
X201787650Y-98071046D01*
X202287971Y-98045146D01*
X202854617Y-98016005D01*
X203464722Y-97984789D01*
X204095414Y-97952664D01*
X204723826Y-97920798D01*
X205327087Y-97890356D01*
X205882328Y-97862506D01*
X206366680Y-97838413D01*
X206757273Y-97819245D01*
X207164026Y-97798161D01*
X207451393Y-97777910D01*
X207634549Y-97754400D01*
X207736674Y-97723148D01*
X207766332Y-97694028D01*
X216190866Y-97694028D01*
X216229649Y-97752167D01*
X216248753Y-97755012D01*
X216395485Y-97766782D01*
X216672310Y-97784619D01*
X217064940Y-97807733D01*
X217559088Y-97835338D01*
X218140466Y-97866643D01*
X218794788Y-97900861D01*
X219507766Y-97937203D01*
X220265113Y-97974880D01*
X220547220Y-97988713D01*
X221298246Y-98025204D01*
X222004505Y-98059048D01*
X222650948Y-98089551D01*
X223222526Y-98116021D01*
X223704191Y-98137768D01*
X224080893Y-98154098D01*
X224337584Y-98164319D01*
X224459215Y-98167741D01*
X224708050Y-98166679D01*
X224665665Y-97847300D01*
X224658146Y-97780569D01*
X224636681Y-97558565D01*
X224605494Y-97214166D01*
X224566071Y-96764593D01*
X224519899Y-96227068D01*
X224468467Y-95618811D01*
X224413261Y-94957043D01*
X224355768Y-94258987D01*
X224318366Y-93804006D01*
X224263585Y-93145285D01*
X224212710Y-92542480D01*
X224167103Y-92011240D01*
X224128126Y-91567213D01*
X224126076Y-91544641D01*
X225065453Y-91544641D01*
X225066064Y-91659407D01*
X225078189Y-91901056D01*
X225100327Y-92251150D01*
X225130977Y-92691254D01*
X225168638Y-93202932D01*
X225211808Y-93767748D01*
X225258986Y-94367266D01*
X225308673Y-94983049D01*
X225359365Y-95596662D01*
X225409563Y-96189669D01*
X225457765Y-96743634D01*
X225502471Y-97240120D01*
X225542179Y-97660693D01*
X225575387Y-97986915D01*
X225596619Y-98166679D01*
X225600596Y-98200351D01*
X225616304Y-98282564D01*
X225626429Y-98288043D01*
X225744775Y-98321909D01*
X225963165Y-98371546D01*
X226244237Y-98428284D01*
X226315538Y-98441766D01*
X226602197Y-98492665D01*
X226829435Y-98527982D01*
X226953279Y-98540744D01*
X226975948Y-98532137D01*
X227104126Y-98451332D01*
X227322189Y-98297483D01*
X227611042Y-98085368D01*
X227951587Y-97829767D01*
X228324730Y-97545457D01*
X228711374Y-97247219D01*
X229092423Y-96949830D01*
X229448782Y-96668070D01*
X229761354Y-96416717D01*
X230011044Y-96210550D01*
X230178756Y-96064349D01*
X230245393Y-95992892D01*
X230245770Y-95991477D01*
X230201581Y-95903196D01*
X230063239Y-95730862D01*
X229847127Y-95491010D01*
X229569627Y-95200173D01*
X229247122Y-94874884D01*
X228895994Y-94531679D01*
X228532624Y-94187089D01*
X228173396Y-93857650D01*
X227834691Y-93559895D01*
X227808033Y-93537128D01*
X227445165Y-93234932D01*
X227054812Y-92922023D01*
X226655003Y-92611572D01*
X226263765Y-92316749D01*
X225899129Y-92050725D01*
X225579122Y-91826672D01*
X225321773Y-91657761D01*
X225145112Y-91557163D01*
X225067166Y-91538048D01*
X225065453Y-91544641D01*
X224126076Y-91544641D01*
X224097141Y-91226049D01*
X224075512Y-91003396D01*
X224064600Y-90914904D01*
X224047397Y-90892550D01*
X223918949Y-90800748D01*
X223685598Y-90663874D01*
X223370062Y-90493444D01*
X222995060Y-90300977D01*
X222583310Y-90097991D01*
X222157530Y-89896002D01*
X221740440Y-89706530D01*
X221354758Y-89541090D01*
X221291454Y-89515115D01*
X220903004Y-89361150D01*
X220485373Y-89203259D01*
X220062759Y-89049741D01*
X219659359Y-88908894D01*
X219299368Y-88789015D01*
X219006986Y-88698402D01*
X218806407Y-88645354D01*
X218721830Y-88638168D01*
X218713730Y-88660321D01*
X218669236Y-88805964D01*
X218589805Y-89076123D01*
X218479203Y-89457560D01*
X218341194Y-89937040D01*
X218179546Y-90501328D01*
X217998024Y-91137187D01*
X217841494Y-91687014D01*
X217800394Y-91831382D01*
X217590422Y-92570677D01*
X217371874Y-93341836D01*
X217148515Y-94131623D01*
X216924112Y-94926802D01*
X216702430Y-95714138D01*
X216487235Y-96480394D01*
X216362092Y-96927337D01*
X216282294Y-97212335D01*
X216263115Y-97282081D01*
X216201297Y-97544761D01*
X216196074Y-97619499D01*
X216190866Y-97694028D01*
X207766332Y-97694028D01*
X207780950Y-97679675D01*
X207790557Y-97619499D01*
X207790557Y-97619458D01*
X207770772Y-97526736D01*
X207714391Y-97305808D01*
X207625664Y-96971848D01*
X207613945Y-96928529D01*
X210195291Y-96928529D01*
X210195600Y-96933988D01*
X210219538Y-96968136D01*
X210293522Y-96994211D01*
X210434257Y-97013241D01*
X210658450Y-97026253D01*
X210982807Y-97034275D01*
X211424036Y-97038335D01*
X211998841Y-97039460D01*
X212117504Y-97039426D01*
X212665268Y-97037871D01*
X213082689Y-97033237D01*
X213386561Y-97024479D01*
X213593675Y-97010554D01*
X213720823Y-96990418D01*
X213784798Y-96963027D01*
X213802391Y-96927337D01*
X213777062Y-96864442D01*
X213678116Y-96695542D01*
X213519231Y-96448590D01*
X213316322Y-96146158D01*
X213085307Y-95810816D01*
X212842101Y-95465138D01*
X212602622Y-95131695D01*
X212382785Y-94833059D01*
X212198508Y-94591801D01*
X212065706Y-94430494D01*
X212000296Y-94371708D01*
X211955421Y-94408260D01*
X211835913Y-94549207D01*
X211661396Y-94774973D01*
X211447789Y-95063009D01*
X211211012Y-95390762D01*
X210966985Y-95735683D01*
X210731628Y-96075221D01*
X210520860Y-96386825D01*
X210350601Y-96647945D01*
X210236772Y-96836029D01*
X210195291Y-96928529D01*
X207613945Y-96928529D01*
X207508840Y-96540028D01*
X207368169Y-96025521D01*
X207207901Y-95443499D01*
X207032285Y-94809136D01*
X206845571Y-94137604D01*
X206652009Y-93444075D01*
X206455849Y-92743723D01*
X206261340Y-92051719D01*
X206157605Y-91684054D01*
X209237527Y-91684054D01*
X209239527Y-91741784D01*
X209264584Y-91932416D01*
X209312004Y-92233745D01*
X209378301Y-92624729D01*
X209459987Y-93084325D01*
X209553576Y-93591490D01*
X209627078Y-93977408D01*
X209719787Y-94448178D01*
X209803194Y-94854084D01*
X209872895Y-95174375D01*
X209924482Y-95388302D01*
X209953549Y-95475114D01*
X209966416Y-95475995D01*
X210051687Y-95403150D01*
X210194146Y-95237767D01*
X210375845Y-95005047D01*
X210578836Y-94730189D01*
X210785168Y-94438396D01*
X210976893Y-94154865D01*
X211136062Y-93904799D01*
X211244726Y-93713396D01*
X211284936Y-93605858D01*
X211273046Y-93578048D01*
X212692229Y-93578048D01*
X212696729Y-93605858D01*
X212697002Y-93607545D01*
X212765553Y-93751562D01*
X212902207Y-93980928D01*
X213091808Y-94271004D01*
X213319199Y-94597152D01*
X213505423Y-94854739D01*
X213744597Y-95176406D01*
X213914920Y-95389485D01*
X214025412Y-95504119D01*
X214085094Y-95530450D01*
X214102983Y-95478624D01*
X214110512Y-95423848D01*
X214142274Y-95236710D01*
X214195393Y-94938471D01*
X214266083Y-94550070D01*
X214350559Y-94092446D01*
X214445036Y-93586539D01*
X214515715Y-93205376D01*
X214600697Y-92732732D01*
X214671231Y-92323543D01*
X214723816Y-91998839D01*
X214754953Y-91779653D01*
X214761142Y-91687014D01*
X214742948Y-91685625D01*
X214636543Y-91752706D01*
X214453646Y-91896808D01*
X214214720Y-92099228D01*
X213940227Y-92341264D01*
X213650628Y-92604213D01*
X213366387Y-92869372D01*
X213107964Y-93118038D01*
X212895822Y-93331507D01*
X212750423Y-93491079D01*
X212692229Y-93578048D01*
X211273046Y-93578048D01*
X211267008Y-93563927D01*
X211162819Y-93430263D01*
X210983134Y-93234263D01*
X210748034Y-92994776D01*
X210477600Y-92730650D01*
X210191913Y-92460736D01*
X209911055Y-92203882D01*
X209655106Y-91978938D01*
X209444147Y-91804753D01*
X209298260Y-91700175D01*
X209237527Y-91684054D01*
X206157605Y-91684054D01*
X206072731Y-91383238D01*
X205894273Y-90753451D01*
X205730215Y-90177531D01*
X205584807Y-89670650D01*
X205462299Y-89247983D01*
X205366939Y-88924700D01*
X205302979Y-88715976D01*
X205274667Y-88636982D01*
X205260993Y-88633383D01*
X205134716Y-88655970D01*
X204899350Y-88723165D01*
X204578045Y-88826875D01*
X204193949Y-88959004D01*
X203770211Y-89111457D01*
X203329979Y-89276141D01*
X202896402Y-89444959D01*
X202492628Y-89609818D01*
X202434483Y-89634384D01*
X201975919Y-89835354D01*
X201496497Y-90056079D01*
X201049717Y-90271449D01*
X200689078Y-90456351D01*
X199937598Y-90860749D01*
X199882879Y-91451436D01*
X199867836Y-91619573D01*
X199867172Y-91626997D01*
X199839013Y-91951953D01*
X199801940Y-92386361D01*
X199757786Y-92908546D01*
X199708381Y-93496834D01*
X199655558Y-94129550D01*
X199601148Y-94785022D01*
X199550866Y-95387993D01*
X199499377Y-95995993D01*
X199451628Y-96550402D01*
X199409313Y-97031980D01*
X199374122Y-97421483D01*
X199347749Y-97699671D01*
X199331885Y-97847300D01*
X199289632Y-98166679D01*
X198405656Y-98166679D01*
X198407507Y-98154574D01*
X198434100Y-97913255D01*
X198468303Y-97563487D01*
X198508631Y-97123711D01*
X198553600Y-96612367D01*
X198601725Y-96047895D01*
X198651519Y-95448735D01*
X198701500Y-94833329D01*
X198750182Y-94220117D01*
X198796079Y-93627539D01*
X198837708Y-93074035D01*
X198873583Y-92578046D01*
X198902219Y-92158013D01*
X198922132Y-91832375D01*
X198931837Y-91619573D01*
X198929848Y-91538048D01*
X198927242Y-91536008D01*
X198839461Y-91563162D01*
X198654578Y-91670718D01*
X198390502Y-91845577D01*
X198065143Y-92074639D01*
X197696409Y-92344802D01*
X197302209Y-92642969D01*
X196900450Y-92956037D01*
X196509043Y-93270908D01*
X196145895Y-93574482D01*
X196074721Y-93635926D01*
X195771188Y-93907294D01*
X195437740Y-94217450D01*
X195091899Y-94548781D01*
X194751188Y-94883672D01*
X194433130Y-95204509D01*
X194155249Y-95493678D01*
X193935067Y-95733564D01*
X193790108Y-95906552D01*
X193737894Y-95995029D01*
X191994377Y-95995029D01*
X192821056Y-94985256D01*
X194160068Y-93581805D01*
X194769314Y-93008109D01*
X196273446Y-91734438D01*
X197850992Y-90591192D01*
X199498513Y-89579874D01*
X201212566Y-88701991D01*
X202989712Y-87959045D01*
X203025312Y-87947290D01*
X208530499Y-87947290D01*
X208536355Y-88075236D01*
X208567317Y-88313472D01*
X208619349Y-88633850D01*
X208688413Y-89008219D01*
X208887585Y-90032303D01*
X209485077Y-90592360D01*
X209638125Y-90735329D01*
X209957435Y-91031251D01*
X210266989Y-91315518D01*
X210517049Y-91542343D01*
X210528766Y-91552868D01*
X210810143Y-91809522D01*
X211129093Y-92105944D01*
X211418824Y-92380085D01*
X211501839Y-92457991D01*
X211719718Y-92647002D01*
X211896064Y-92778541D01*
X211998841Y-92827876D01*
X212045898Y-92810688D01*
X212194087Y-92710095D01*
X212401964Y-92539576D01*
X212640185Y-92322265D01*
X212750180Y-92217884D01*
X213037370Y-91949350D01*
X213385159Y-91627880D01*
X213759296Y-91285061D01*
X214125532Y-90952478D01*
X214369874Y-90727967D01*
X214659302Y-90451083D01*
X214893876Y-90213945D01*
X215054199Y-90036322D01*
X215120877Y-89937981D01*
X215162210Y-89762484D01*
X215222561Y-89471841D01*
X215286215Y-89136814D01*
X215347749Y-88789370D01*
X215401737Y-88461479D01*
X215442757Y-88185106D01*
X215465382Y-87992222D01*
X215464188Y-87914793D01*
X215444102Y-87905388D01*
X215277149Y-87867349D01*
X214988738Y-87829643D01*
X214601927Y-87793745D01*
X214139772Y-87761131D01*
X213625329Y-87733277D01*
X213081655Y-87711657D01*
X212531807Y-87697749D01*
X211998841Y-87693026D01*
X211883700Y-87693324D01*
X211301511Y-87701030D01*
X210724616Y-87718030D01*
X210173730Y-87742883D01*
X209669567Y-87774144D01*
X209232841Y-87810370D01*
X208884266Y-87850118D01*
X208644556Y-87891945D01*
X208534426Y-87934408D01*
X208530499Y-87947290D01*
X203025312Y-87947290D01*
X204826510Y-87352542D01*
X206719518Y-86883987D01*
X208665295Y-86554883D01*
X210660401Y-86366736D01*
X212031757Y-86327218D01*
X213909365Y-86399048D01*
X215788079Y-86612269D01*
X217652557Y-86963258D01*
X219487456Y-87448393D01*
X221068599Y-87992222D01*
X221277436Y-88064051D01*
X223007154Y-88806610D01*
X224661267Y-89672449D01*
X224932063Y-89830282D01*
X226581622Y-90890126D01*
X228133839Y-92060272D01*
X229584395Y-93334339D01*
X230928972Y-94705947D01*
X232013698Y-95991477D01*
X232163251Y-96168715D01*
X233282914Y-97716262D01*
G37*
G36*
X178664301Y-103652478D02*
G01*
X178278780Y-105303030D01*
X177935898Y-107042758D01*
X177651541Y-108795463D01*
X177428350Y-110537215D01*
X177268966Y-112244083D01*
X177176032Y-113892138D01*
X177152189Y-115457449D01*
X177200080Y-116916087D01*
X177246606Y-117591882D01*
X177327094Y-118464042D01*
X177432400Y-119310475D01*
X177568640Y-120173111D01*
X177741929Y-121093876D01*
X177958383Y-122114699D01*
X177999374Y-122299133D01*
X178424777Y-124119924D01*
X178857442Y-125800188D01*
X179300358Y-127348781D01*
X179756509Y-128774558D01*
X180228884Y-130086375D01*
X180720468Y-131293090D01*
X181234249Y-132403557D01*
X181773213Y-133426634D01*
X182377364Y-134500703D01*
X182423013Y-135815791D01*
X182433043Y-136095551D01*
X182452349Y-136595996D01*
X182472446Y-137077193D01*
X182491481Y-137495483D01*
X182507599Y-137807211D01*
X182546536Y-138483543D01*
X181938625Y-137844785D01*
X181770291Y-137665959D01*
X181433071Y-137299491D01*
X181095655Y-136924173D01*
X180810670Y-136598168D01*
X180290628Y-135990308D01*
X180335076Y-135615009D01*
X180342086Y-135537818D01*
X180321203Y-135139777D01*
X180209257Y-134678397D01*
X180003072Y-134147185D01*
X179699473Y-133539650D01*
X179295283Y-132849301D01*
X178787327Y-132069646D01*
X178172430Y-131194194D01*
X178085185Y-131073116D01*
X177676590Y-130495769D01*
X177248349Y-129876004D01*
X176822341Y-129246416D01*
X176420445Y-128639600D01*
X176064540Y-128088152D01*
X175776503Y-127624667D01*
X175479619Y-127115698D01*
X174822671Y-125853775D01*
X174233015Y-124526441D01*
X173721577Y-123164354D01*
X173299282Y-121798176D01*
X172977057Y-120458565D01*
X172765828Y-119176181D01*
X172713432Y-118535377D01*
X172719696Y-117495439D01*
X172824563Y-116367013D01*
X173025077Y-115162352D01*
X173318285Y-113893709D01*
X173701230Y-112573337D01*
X174170958Y-111213488D01*
X174724514Y-109826415D01*
X175358942Y-108424371D01*
X175487373Y-108160004D01*
X175908004Y-107336086D01*
X176352643Y-106521737D01*
X176807997Y-105738624D01*
X177260773Y-105008414D01*
X177697680Y-104352776D01*
X178105424Y-103793377D01*
X178470715Y-103351886D01*
X178844732Y-102938572D01*
X178664301Y-103652478D01*
G37*
M02*
