G04 #@! TF.GenerationSoftware,KiCad,Pcbnew,(6.0.11)*
G04 #@! TF.CreationDate,2024-11-25T11:35:45+09:00*
G04 #@! TF.ProjectId,Flame60_Bottom,466c616d-6536-4305-9f42-6f74746f6d2e,rev?*
G04 #@! TF.SameCoordinates,Original*
G04 #@! TF.FileFunction,Legend,Top*
G04 #@! TF.FilePolarity,Positive*
%FSLAX46Y46*%
G04 Gerber Fmt 4.6, Leading zero omitted, Abs format (unit mm)*
G04 Created by KiCad (PCBNEW (6.0.11)) date 2024-11-25 11:35:45*
%MOMM*%
%LPD*%
G01*
G04 APERTURE LIST*
%ADD10C,0.125000*%
G04 APERTURE END LIST*
D10*
X315680654Y-162928571D02*
X315347321Y-162928571D01*
X315347321Y-163452380D02*
X315347321Y-162452380D01*
X315823511Y-162452380D01*
X316347321Y-163452380D02*
X316252083Y-163404761D01*
X316204464Y-163309523D01*
X316204464Y-162452380D01*
X317156845Y-163452380D02*
X317156845Y-162928571D01*
X317109226Y-162833333D01*
X317013988Y-162785714D01*
X316823511Y-162785714D01*
X316728273Y-162833333D01*
X317156845Y-163404761D02*
X317061607Y-163452380D01*
X316823511Y-163452380D01*
X316728273Y-163404761D01*
X316680654Y-163309523D01*
X316680654Y-163214285D01*
X316728273Y-163119047D01*
X316823511Y-163071428D01*
X317061607Y-163071428D01*
X317156845Y-163023809D01*
X317633035Y-163452380D02*
X317633035Y-162785714D01*
X317633035Y-162880952D02*
X317680654Y-162833333D01*
X317775892Y-162785714D01*
X317918750Y-162785714D01*
X318013988Y-162833333D01*
X318061607Y-162928571D01*
X318061607Y-163452380D01*
X318061607Y-162928571D02*
X318109226Y-162833333D01*
X318204464Y-162785714D01*
X318347321Y-162785714D01*
X318442559Y-162833333D01*
X318490178Y-162928571D01*
X318490178Y-163452380D01*
X319347321Y-163404761D02*
X319252083Y-163452380D01*
X319061607Y-163452380D01*
X318966369Y-163404761D01*
X318918750Y-163309523D01*
X318918750Y-162928571D01*
X318966369Y-162833333D01*
X319061607Y-162785714D01*
X319252083Y-162785714D01*
X319347321Y-162833333D01*
X319394940Y-162928571D01*
X319394940Y-163023809D01*
X318918750Y-163119047D01*
X320252083Y-162452380D02*
X320061607Y-162452380D01*
X319966369Y-162500000D01*
X319918750Y-162547619D01*
X319823511Y-162690476D01*
X319775892Y-162880952D01*
X319775892Y-163261904D01*
X319823511Y-163357142D01*
X319871130Y-163404761D01*
X319966369Y-163452380D01*
X320156845Y-163452380D01*
X320252083Y-163404761D01*
X320299702Y-163357142D01*
X320347321Y-163261904D01*
X320347321Y-163023809D01*
X320299702Y-162928571D01*
X320252083Y-162880952D01*
X320156845Y-162833333D01*
X319966369Y-162833333D01*
X319871130Y-162880952D01*
X319823511Y-162928571D01*
X319775892Y-163023809D01*
X320966369Y-162452380D02*
X321061607Y-162452380D01*
X321156845Y-162500000D01*
X321204464Y-162547619D01*
X321252083Y-162642857D01*
X321299702Y-162833333D01*
X321299702Y-163071428D01*
X321252083Y-163261904D01*
X321204464Y-163357142D01*
X321156845Y-163404761D01*
X321061607Y-163452380D01*
X320966369Y-163452380D01*
X320871130Y-163404761D01*
X320823511Y-163357142D01*
X320775892Y-163261904D01*
X320728273Y-163071428D01*
X320728273Y-162833333D01*
X320775892Y-162642857D01*
X320823511Y-162547619D01*
X320871130Y-162500000D01*
X320966369Y-162452380D01*
X322394940Y-162785714D02*
X322633035Y-163452380D01*
X322871130Y-162785714D01*
X323633035Y-163404761D02*
X323537797Y-163452380D01*
X323347321Y-163452380D01*
X323252083Y-163404761D01*
X323204464Y-163309523D01*
X323204464Y-162928571D01*
X323252083Y-162833333D01*
X323347321Y-162785714D01*
X323537797Y-162785714D01*
X323633035Y-162833333D01*
X323680654Y-162928571D01*
X323680654Y-163023809D01*
X323204464Y-163119047D01*
X324109226Y-163452380D02*
X324109226Y-162785714D01*
X324109226Y-162976190D02*
X324156845Y-162880952D01*
X324204464Y-162833333D01*
X324299702Y-162785714D01*
X324394940Y-162785714D01*
X325252083Y-163452380D02*
X324680654Y-163452380D01*
X324966369Y-163452380D02*
X324966369Y-162452380D01*
X324871130Y-162595238D01*
X324775892Y-162690476D01*
X324680654Y-162738095D01*
X325680654Y-163357142D02*
X325728273Y-163404761D01*
X325680654Y-163452380D01*
X325633035Y-163404761D01*
X325680654Y-163357142D01*
X325680654Y-163452380D01*
X326347321Y-162452380D02*
X326442559Y-162452380D01*
X326537797Y-162500000D01*
X326585416Y-162547619D01*
X326633035Y-162642857D01*
X326680654Y-162833333D01*
X326680654Y-163071428D01*
X326633035Y-163261904D01*
X326585416Y-163357142D01*
X326537797Y-163404761D01*
X326442559Y-163452380D01*
X326347321Y-163452380D01*
X326252083Y-163404761D01*
X326204464Y-163357142D01*
X326156845Y-163261904D01*
X326109226Y-163071428D01*
X326109226Y-162833333D01*
X326156845Y-162642857D01*
X326204464Y-162547619D01*
X326252083Y-162500000D01*
X326347321Y-162452380D01*
X328490178Y-162976190D02*
X328442559Y-162928571D01*
X328347321Y-162880952D01*
X328252083Y-162880952D01*
X328156845Y-162928571D01*
X328109226Y-162976190D01*
X328061607Y-163071428D01*
X328061607Y-163166666D01*
X328109226Y-163261904D01*
X328156845Y-163309523D01*
X328252083Y-163357142D01*
X328347321Y-163357142D01*
X328442559Y-163309523D01*
X328490178Y-163261904D01*
X328490178Y-162880952D02*
X328490178Y-163261904D01*
X328537797Y-163309523D01*
X328585416Y-163309523D01*
X328680654Y-163261904D01*
X328728273Y-163166666D01*
X328728273Y-162928571D01*
X328633035Y-162785714D01*
X328490178Y-162690476D01*
X328299702Y-162642857D01*
X328109226Y-162690476D01*
X327966369Y-162785714D01*
X327871130Y-162928571D01*
X327823511Y-163119047D01*
X327871130Y-163309523D01*
X327966369Y-163452380D01*
X328109226Y-163547619D01*
X328299702Y-163595238D01*
X328490178Y-163547619D01*
X328633035Y-163452380D01*
X329490178Y-162928571D02*
X329633035Y-162976190D01*
X329680654Y-163023809D01*
X329728273Y-163119047D01*
X329728273Y-163261904D01*
X329680654Y-163357142D01*
X329633035Y-163404761D01*
X329537797Y-163452380D01*
X329156845Y-163452380D01*
X329156845Y-162452380D01*
X329490178Y-162452380D01*
X329585416Y-162500000D01*
X329633035Y-162547619D01*
X329680654Y-162642857D01*
X329680654Y-162738095D01*
X329633035Y-162833333D01*
X329585416Y-162880952D01*
X329490178Y-162928571D01*
X329156845Y-162928571D01*
X330299702Y-163452380D02*
X330204464Y-163404761D01*
X330156845Y-163357142D01*
X330109226Y-163261904D01*
X330109226Y-162976190D01*
X330156845Y-162880952D01*
X330204464Y-162833333D01*
X330299702Y-162785714D01*
X330442559Y-162785714D01*
X330537797Y-162833333D01*
X330585416Y-162880952D01*
X330633035Y-162976190D01*
X330633035Y-163261904D01*
X330585416Y-163357142D01*
X330537797Y-163404761D01*
X330442559Y-163452380D01*
X330299702Y-163452380D01*
X330918750Y-162785714D02*
X331299702Y-162785714D01*
X331061607Y-162452380D02*
X331061607Y-163309523D01*
X331109226Y-163404761D01*
X331204464Y-163452380D01*
X331299702Y-163452380D01*
X331490178Y-162785714D02*
X331871130Y-162785714D01*
X331633035Y-162452380D02*
X331633035Y-163309523D01*
X331680654Y-163404761D01*
X331775892Y-163452380D01*
X331871130Y-163452380D01*
X332347321Y-163452380D02*
X332252083Y-163404761D01*
X332204464Y-163357142D01*
X332156845Y-163261904D01*
X332156845Y-162976190D01*
X332204464Y-162880952D01*
X332252083Y-162833333D01*
X332347321Y-162785714D01*
X332490178Y-162785714D01*
X332585416Y-162833333D01*
X332633035Y-162880952D01*
X332680654Y-162976190D01*
X332680654Y-163261904D01*
X332633035Y-163357142D01*
X332585416Y-163404761D01*
X332490178Y-163452380D01*
X332347321Y-163452380D01*
X333109226Y-163452380D02*
X333109226Y-162785714D01*
X333109226Y-162880952D02*
X333156845Y-162833333D01*
X333252083Y-162785714D01*
X333394940Y-162785714D01*
X333490178Y-162833333D01*
X333537797Y-162928571D01*
X333537797Y-163452380D01*
X333537797Y-162928571D02*
X333585416Y-162833333D01*
X333680654Y-162785714D01*
X333823511Y-162785714D01*
X333918750Y-162833333D01*
X333966369Y-162928571D01*
X333966369Y-163452380D01*
X335204464Y-163452380D02*
X335204464Y-162452380D01*
X335442559Y-162452380D01*
X335585416Y-162500000D01*
X335680654Y-162595238D01*
X335728273Y-162690476D01*
X335775892Y-162880952D01*
X335775892Y-163023809D01*
X335728273Y-163214285D01*
X335680654Y-163309523D01*
X335585416Y-163404761D01*
X335442559Y-163452380D01*
X335204464Y-163452380D01*
X336585416Y-163404761D02*
X336490178Y-163452380D01*
X336299702Y-163452380D01*
X336204464Y-163404761D01*
X336156845Y-163309523D01*
X336156845Y-162928571D01*
X336204464Y-162833333D01*
X336299702Y-162785714D01*
X336490178Y-162785714D01*
X336585416Y-162833333D01*
X336633035Y-162928571D01*
X336633035Y-163023809D01*
X336156845Y-163119047D01*
X337013988Y-163404761D02*
X337109226Y-163452380D01*
X337299702Y-163452380D01*
X337394940Y-163404761D01*
X337442559Y-163309523D01*
X337442559Y-163261904D01*
X337394940Y-163166666D01*
X337299702Y-163119047D01*
X337156845Y-163119047D01*
X337061607Y-163071428D01*
X337013988Y-162976190D01*
X337013988Y-162928571D01*
X337061607Y-162833333D01*
X337156845Y-162785714D01*
X337299702Y-162785714D01*
X337394940Y-162833333D01*
X337871130Y-163452380D02*
X337871130Y-162785714D01*
X337871130Y-162452380D02*
X337823511Y-162500000D01*
X337871130Y-162547619D01*
X337918750Y-162500000D01*
X337871130Y-162452380D01*
X337871130Y-162547619D01*
X338775892Y-162785714D02*
X338775892Y-163595238D01*
X338728273Y-163690476D01*
X338680654Y-163738095D01*
X338585416Y-163785714D01*
X338442559Y-163785714D01*
X338347321Y-163738095D01*
X338775892Y-163404761D02*
X338680654Y-163452380D01*
X338490178Y-163452380D01*
X338394940Y-163404761D01*
X338347321Y-163357142D01*
X338299702Y-163261904D01*
X338299702Y-162976190D01*
X338347321Y-162880952D01*
X338394940Y-162833333D01*
X338490178Y-162785714D01*
X338680654Y-162785714D01*
X338775892Y-162833333D01*
X339252083Y-162785714D02*
X339252083Y-163452380D01*
X339252083Y-162880952D02*
X339299702Y-162833333D01*
X339394940Y-162785714D01*
X339537797Y-162785714D01*
X339633035Y-162833333D01*
X339680654Y-162928571D01*
X339680654Y-163452380D01*
X340537797Y-163404761D02*
X340442559Y-163452380D01*
X340252083Y-163452380D01*
X340156845Y-163404761D01*
X340109226Y-163309523D01*
X340109226Y-162928571D01*
X340156845Y-162833333D01*
X340252083Y-162785714D01*
X340442559Y-162785714D01*
X340537797Y-162833333D01*
X340585416Y-162928571D01*
X340585416Y-163023809D01*
X340109226Y-163119047D01*
X341442559Y-163452380D02*
X341442559Y-162452380D01*
X341442559Y-163404761D02*
X341347321Y-163452380D01*
X341156845Y-163452380D01*
X341061607Y-163404761D01*
X341013988Y-163357142D01*
X340966369Y-163261904D01*
X340966369Y-162976190D01*
X341013988Y-162880952D01*
X341061607Y-162833333D01*
X341156845Y-162785714D01*
X341347321Y-162785714D01*
X341442559Y-162833333D01*
X342680654Y-163452380D02*
X342680654Y-162452380D01*
X342680654Y-162833333D02*
X342775892Y-162785714D01*
X342966369Y-162785714D01*
X343061607Y-162833333D01*
X343109226Y-162880952D01*
X343156845Y-162976190D01*
X343156845Y-163261904D01*
X343109226Y-163357142D01*
X343061607Y-163404761D01*
X342966369Y-163452380D01*
X342775892Y-163452380D01*
X342680654Y-163404761D01*
X343490178Y-162785714D02*
X343728273Y-163452380D01*
X343966369Y-162785714D02*
X343728273Y-163452380D01*
X343633035Y-163690476D01*
X343585416Y-163738095D01*
X343490178Y-163785714D01*
X345109226Y-163452380D02*
X345109226Y-162785714D01*
X345109226Y-162880952D02*
X345156845Y-162833333D01*
X345252083Y-162785714D01*
X345394940Y-162785714D01*
X345490178Y-162833333D01*
X345537797Y-162928571D01*
X345537797Y-163452380D01*
X345537797Y-162928571D02*
X345585416Y-162833333D01*
X345680654Y-162785714D01*
X345823511Y-162785714D01*
X345918750Y-162833333D01*
X345966369Y-162928571D01*
X345966369Y-163452380D01*
X346871130Y-162785714D02*
X346871130Y-163452380D01*
X346442559Y-162785714D02*
X346442559Y-163309523D01*
X346490178Y-163404761D01*
X346585416Y-163452380D01*
X346728273Y-163452380D01*
X346823511Y-163404761D01*
X346871130Y-163357142D01*
X347490178Y-163452380D02*
X347394940Y-163404761D01*
X347347321Y-163309523D01*
X347347321Y-162452380D01*
X347728273Y-162785714D02*
X348109226Y-162785714D01*
X347871130Y-162452380D02*
X347871130Y-163309523D01*
X347918750Y-163404761D01*
X348013988Y-163452380D01*
X348109226Y-163452380D01*
X348442559Y-163452380D02*
X348442559Y-162785714D01*
X348442559Y-162452380D02*
X348394940Y-162500000D01*
X348442559Y-162547619D01*
X348490178Y-162500000D01*
X348442559Y-162452380D01*
X348442559Y-162547619D01*
X348775892Y-162785714D02*
X349156845Y-162785714D01*
X348918750Y-163452380D02*
X348918750Y-162595238D01*
X348966369Y-162500000D01*
X349061607Y-162452380D01*
X349156845Y-162452380D01*
X349871130Y-163404761D02*
X349775892Y-163452380D01*
X349585416Y-163452380D01*
X349490178Y-163404761D01*
X349442559Y-163309523D01*
X349442559Y-162928571D01*
X349490178Y-162833333D01*
X349585416Y-162785714D01*
X349775892Y-162785714D01*
X349871130Y-162833333D01*
X349918750Y-162928571D01*
X349918750Y-163023809D01*
X349442559Y-163119047D01*
X350347321Y-163452380D02*
X350347321Y-162452380D01*
X350347321Y-162833333D02*
X350442559Y-162785714D01*
X350633035Y-162785714D01*
X350728273Y-162833333D01*
X350775892Y-162880952D01*
X350823511Y-162976190D01*
X350823511Y-163261904D01*
X350775892Y-163357142D01*
X350728273Y-163404761D01*
X350633035Y-163452380D01*
X350442559Y-163452380D01*
X350347321Y-163404761D01*
X351775892Y-163452380D02*
X351204464Y-163452380D01*
X351490178Y-163452380D02*
X351490178Y-162452380D01*
X351394940Y-162595238D01*
X351299702Y-162690476D01*
X351204464Y-162738095D01*
X352109226Y-162452380D02*
X352728273Y-162452380D01*
X352394940Y-162833333D01*
X352537797Y-162833333D01*
X352633035Y-162880952D01*
X352680654Y-162928571D01*
X352728273Y-163023809D01*
X352728273Y-163261904D01*
X352680654Y-163357142D01*
X352633035Y-163404761D01*
X352537797Y-163452380D01*
X352252083Y-163452380D01*
X352156845Y-163404761D01*
X352109226Y-163357142D01*
M02*
