G04 #@! TF.GenerationSoftware,KiCad,Pcbnew,(6.0.11)*
G04 #@! TF.CreationDate,2024-11-25T11:33:10+09:00*
G04 #@! TF.ProjectId,Flame60_Top,466c616d-6536-4305-9f54-6f702e6b6963,rev?*
G04 #@! TF.SameCoordinates,Original*
G04 #@! TF.FileFunction,Profile,NP*
%FSLAX46Y46*%
G04 Gerber Fmt 4.6, Leading zero omitted, Abs format (unit mm)*
G04 Created by KiCad (PCBNEW (6.0.11)) date 2024-11-25 11:33:10*
%MOMM*%
%LPD*%
G01*
G04 APERTURE LIST*
G04 #@! TA.AperFunction,Profile*
%ADD10C,0.100000*%
G04 #@! TD*
G04 #@! TA.AperFunction,Profile*
%ADD11C,0.150000*%
G04 #@! TD*
G04 #@! TA.AperFunction,Profile*
%ADD12C,0.120000*%
G04 #@! TD*
G04 APERTURE END LIST*
D10*
X361000000Y-60000000D02*
G75*
G03*
X359000000Y-58000000I-2000000J0D01*
G01*
X359000000Y-166000000D02*
G75*
G03*
X361000000Y-164000000I0J2000000D01*
G01*
X361000000Y-164000000D02*
X361000000Y-60000000D01*
X65000000Y-58000000D02*
G75*
G03*
X63000000Y-60000000I0J-2000000D01*
G01*
X63000000Y-60000000D02*
X63000000Y-164000000D01*
X65000000Y-166000000D02*
X359000000Y-166000000D01*
X359000000Y-58000000D02*
X65000000Y-58000000D01*
X63000000Y-164000000D02*
G75*
G03*
X65000000Y-166000000I2000000J0D01*
G01*
D11*
X338231250Y-123918750D02*
X352331250Y-123918750D01*
X352331250Y-123918750D02*
X352331250Y-138018750D01*
X352331250Y-138018750D02*
X338231250Y-138018750D01*
X338231250Y-138018750D02*
X338231250Y-123918750D01*
X76293750Y-99918750D02*
X76293750Y-85818750D01*
X90393750Y-99918750D02*
X76293750Y-99918750D01*
X90393750Y-85818750D02*
X90393750Y-99918750D01*
X76293750Y-85818750D02*
X90393750Y-85818750D01*
X147731250Y-66768750D02*
X161831250Y-66768750D01*
X161831250Y-66768750D02*
X161831250Y-80868750D01*
X161831250Y-80868750D02*
X147731250Y-80868750D01*
X147731250Y-80868750D02*
X147731250Y-66768750D01*
X78675000Y-118968750D02*
X78675000Y-104868750D01*
X92775000Y-104868750D02*
X92775000Y-118968750D01*
X92775000Y-118968750D02*
X78675000Y-118968750D01*
X78675000Y-104868750D02*
X92775000Y-104868750D01*
X118968750Y-118968750D02*
X104868750Y-118968750D01*
X104868750Y-118968750D02*
X104868750Y-104868750D01*
X118968750Y-104868750D02*
X118968750Y-118968750D01*
X104868750Y-104868750D02*
X118968750Y-104868750D01*
X242981250Y-66768750D02*
X257081250Y-66768750D01*
X257081250Y-80868750D02*
X242981250Y-80868750D01*
X257081250Y-66768750D02*
X257081250Y-80868750D01*
X242981250Y-80868750D02*
X242981250Y-66768750D01*
D12*
X317975000Y-120718750D02*
X317975000Y-105918750D01*
X341775000Y-105918750D02*
X341775000Y-120718750D01*
X317975000Y-105918750D02*
X324975000Y-105918750D01*
D11*
X340425000Y-118968750D02*
X326325000Y-118968750D01*
D12*
X324975000Y-120718750D02*
X317975000Y-120718750D01*
D11*
X326325000Y-118968750D02*
X326325000Y-104868750D01*
D12*
X348775000Y-120718750D02*
X348775000Y-105918750D01*
D11*
X326325000Y-104868750D02*
X340425000Y-104868750D01*
D12*
X341775000Y-120718750D02*
X348775000Y-120718750D01*
X348775000Y-105918750D02*
X341775000Y-105918750D01*
X324975000Y-105918750D02*
X324975000Y-120718750D01*
D11*
X340425000Y-104868750D02*
X340425000Y-118968750D01*
X290606250Y-85818750D02*
X304706250Y-85818750D01*
X304706250Y-85818750D02*
X304706250Y-99918750D01*
X290606250Y-99918750D02*
X290606250Y-85818750D01*
X304706250Y-99918750D02*
X290606250Y-99918750D01*
X114393750Y-138018750D02*
X114393750Y-123918750D01*
X128493750Y-138018750D02*
X114393750Y-138018750D01*
X128493750Y-123918750D02*
X128493750Y-138018750D01*
X114393750Y-123918750D02*
X128493750Y-123918750D01*
X123918750Y-118968750D02*
X123918750Y-104868750D01*
X138018750Y-104868750D02*
X138018750Y-118968750D01*
X123918750Y-104868750D02*
X138018750Y-104868750D01*
X138018750Y-118968750D02*
X123918750Y-118968750D01*
X280893750Y-138018750D02*
X266793750Y-138018750D01*
X266793750Y-123918750D02*
X280893750Y-123918750D01*
X266793750Y-138018750D02*
X266793750Y-123918750D01*
X280893750Y-123918750D02*
X280893750Y-138018750D01*
X133443750Y-138018750D02*
X133443750Y-123918750D01*
X147543750Y-123918750D02*
X147543750Y-138018750D01*
X133443750Y-123918750D02*
X147543750Y-123918750D01*
X147543750Y-138018750D02*
X133443750Y-138018750D01*
X228693750Y-138018750D02*
X228693750Y-123918750D01*
X242793750Y-138018750D02*
X228693750Y-138018750D01*
X228693750Y-123918750D02*
X242793750Y-123918750D01*
X242793750Y-123918750D02*
X242793750Y-138018750D01*
X90581250Y-80868750D02*
X90581250Y-66768750D01*
X104681250Y-66768750D02*
X104681250Y-80868750D01*
X104681250Y-80868750D02*
X90581250Y-80868750D01*
X90581250Y-66768750D02*
X104681250Y-66768750D01*
X290418750Y-104868750D02*
X290418750Y-118968750D01*
X276318750Y-118968750D02*
X276318750Y-104868750D01*
X276318750Y-104868750D02*
X290418750Y-104868750D01*
X290418750Y-118968750D02*
X276318750Y-118968750D01*
X85631250Y-66768750D02*
X85631250Y-80868750D01*
X71531250Y-80868750D02*
X71531250Y-66768750D01*
X71531250Y-66768750D02*
X85631250Y-66768750D01*
X85631250Y-80868750D02*
X71531250Y-80868750D01*
X157256250Y-99918750D02*
X157256250Y-85818750D01*
X171356250Y-85818750D02*
X171356250Y-99918750D01*
X157256250Y-85818750D02*
X171356250Y-85818750D01*
X171356250Y-99918750D02*
X157256250Y-99918750D01*
X218981250Y-66768750D02*
X218981250Y-80868750D01*
X204881250Y-66768750D02*
X218981250Y-66768750D01*
X204881250Y-80868750D02*
X204881250Y-66768750D01*
X218981250Y-80868750D02*
X204881250Y-80868750D01*
X228506250Y-85818750D02*
X228506250Y-99918750D01*
X214406250Y-85818750D02*
X228506250Y-85818750D01*
X214406250Y-99918750D02*
X214406250Y-85818750D01*
X228506250Y-99918750D02*
X214406250Y-99918750D01*
X138018750Y-157068750D02*
X123918750Y-157068750D01*
X138018750Y-142968750D02*
X138018750Y-157068750D01*
X123918750Y-157068750D02*
X123918750Y-142968750D01*
X123918750Y-142968750D02*
X138018750Y-142968750D01*
D12*
X82087500Y-124968750D02*
X82087500Y-139768750D01*
X98887500Y-124968750D02*
X98887500Y-139768750D01*
X105887500Y-124968750D02*
X98887500Y-124968750D01*
X105887500Y-139768750D02*
X105887500Y-124968750D01*
X75087500Y-124968750D02*
X82087500Y-124968750D01*
X75087500Y-139768750D02*
X75087500Y-124968750D01*
D11*
X83437500Y-123918750D02*
X97537500Y-123918750D01*
X97537500Y-123918750D02*
X97537500Y-138018750D01*
X97537500Y-138018750D02*
X83437500Y-138018750D01*
D12*
X98887500Y-139768750D02*
X105887500Y-139768750D01*
X82087500Y-139768750D02*
X75087500Y-139768750D01*
D11*
X83437500Y-138018750D02*
X83437500Y-123918750D01*
X295181250Y-80868750D02*
X281081250Y-80868750D01*
X281081250Y-66768750D02*
X295181250Y-66768750D01*
X281081250Y-80868750D02*
X281081250Y-66768750D01*
X295181250Y-66768750D02*
X295181250Y-80868750D01*
D12*
X253535000Y-144018750D02*
X246535000Y-144018750D01*
D11*
X195356250Y-142968750D02*
X209456250Y-142968750D01*
D12*
X246535000Y-144018750D02*
X246535000Y-158818750D01*
X158277500Y-158818750D02*
X151277500Y-158818750D01*
D11*
X195356250Y-157068750D02*
X195356250Y-142968750D01*
D12*
X253535000Y-158818750D02*
X253535000Y-144018750D01*
D11*
X209456250Y-157068750D02*
X195356250Y-157068750D01*
D12*
X151277500Y-144018750D02*
X158277500Y-144018750D01*
X246535000Y-158818750D02*
X253535000Y-158818750D01*
D11*
X209456250Y-142968750D02*
X209456250Y-157068750D01*
D12*
X151277500Y-158818750D02*
X151277500Y-144018750D01*
X158277500Y-144018750D02*
X158277500Y-158818750D01*
D11*
X195168750Y-118968750D02*
X181068750Y-118968750D01*
X195168750Y-104868750D02*
X195168750Y-118968750D01*
X181068750Y-118968750D02*
X181068750Y-104868750D01*
X181068750Y-104868750D02*
X195168750Y-104868750D01*
X333281250Y-66768750D02*
X333281250Y-80868750D01*
X333281250Y-80868750D02*
X319181250Y-80868750D01*
X319181250Y-66768750D02*
X333281250Y-66768750D01*
X319181250Y-80868750D02*
X319181250Y-66768750D01*
X119156250Y-99918750D02*
X119156250Y-85818750D01*
X119156250Y-85818750D02*
X133256250Y-85818750D01*
X133256250Y-85818750D02*
X133256250Y-99918750D01*
X133256250Y-99918750D02*
X119156250Y-99918750D01*
X176306250Y-85818750D02*
X190406250Y-85818750D01*
X190406250Y-99918750D02*
X176306250Y-99918750D01*
X190406250Y-85818750D02*
X190406250Y-99918750D01*
X176306250Y-99918750D02*
X176306250Y-85818750D01*
X162018750Y-118968750D02*
X162018750Y-104868750D01*
X162018750Y-104868750D02*
X176118750Y-104868750D01*
X176118750Y-118968750D02*
X162018750Y-118968750D01*
X176118750Y-104868750D02*
X176118750Y-118968750D01*
X262031250Y-80868750D02*
X262031250Y-66768750D01*
X276131250Y-80868750D02*
X262031250Y-80868750D01*
X276131250Y-66768750D02*
X276131250Y-80868750D01*
X262031250Y-66768750D02*
X276131250Y-66768750D01*
X142781250Y-80868750D02*
X128681250Y-80868750D01*
X128681250Y-66768750D02*
X142781250Y-66768750D01*
X142781250Y-66768750D02*
X142781250Y-80868750D01*
X128681250Y-80868750D02*
X128681250Y-66768750D01*
X219168750Y-118968750D02*
X219168750Y-104868750D01*
X233268750Y-104868750D02*
X233268750Y-118968750D01*
X219168750Y-104868750D02*
X233268750Y-104868750D01*
X233268750Y-118968750D02*
X219168750Y-118968750D01*
X157068750Y-104868750D02*
X157068750Y-118968750D01*
X157068750Y-118968750D02*
X142968750Y-118968750D01*
X142968750Y-118968750D02*
X142968750Y-104868750D01*
X142968750Y-104868750D02*
X157068750Y-104868750D01*
X223743750Y-138018750D02*
X209643750Y-138018750D01*
X209643750Y-138018750D02*
X209643750Y-123918750D01*
X209643750Y-123918750D02*
X223743750Y-123918750D01*
X223743750Y-123918750D02*
X223743750Y-138018750D01*
X109631250Y-80868750D02*
X109631250Y-66768750D01*
X123731250Y-80868750D02*
X109631250Y-80868750D01*
X123731250Y-66768750D02*
X123731250Y-80868750D01*
X109631250Y-66768750D02*
X123731250Y-66768750D01*
X333504500Y-99918750D02*
X333504500Y-85818750D01*
X347604500Y-85818750D02*
X347604500Y-99918750D01*
X333504500Y-85818750D02*
X347604500Y-85818750D01*
X347604500Y-99918750D02*
X333504500Y-99918750D01*
X252318750Y-104868750D02*
X252318750Y-118968750D01*
X252318750Y-118968750D02*
X238218750Y-118968750D01*
X238218750Y-104868750D02*
X252318750Y-104868750D01*
X238218750Y-118968750D02*
X238218750Y-104868750D01*
X180881250Y-66768750D02*
X180881250Y-80868750D01*
X166781250Y-66768750D02*
X180881250Y-66768750D01*
X180881250Y-80868750D02*
X166781250Y-80868750D01*
X166781250Y-80868750D02*
X166781250Y-66768750D01*
X266793750Y-157068750D02*
X266793750Y-142968750D01*
X266793750Y-142968750D02*
X280893750Y-142968750D01*
X280893750Y-157068750D02*
X266793750Y-157068750D01*
X280893750Y-142968750D02*
X280893750Y-157068750D01*
X247743750Y-123918750D02*
X261843750Y-123918750D01*
X261843750Y-123918750D02*
X261843750Y-138018750D01*
X261843750Y-138018750D02*
X247743750Y-138018750D01*
X247743750Y-138018750D02*
X247743750Y-123918750D01*
X199931250Y-80868750D02*
X185831250Y-80868750D01*
X185831250Y-80868750D02*
X185831250Y-66768750D01*
X185831250Y-66768750D02*
X199931250Y-66768750D01*
X199931250Y-66768750D02*
X199931250Y-80868750D01*
X214218750Y-118968750D02*
X200118750Y-118968750D01*
X200118750Y-104868750D02*
X214218750Y-104868750D01*
X200118750Y-118968750D02*
X200118750Y-104868750D01*
X214218750Y-104868750D02*
X214218750Y-118968750D01*
X166593750Y-123918750D02*
X166593750Y-138018750D01*
X152493750Y-123918750D02*
X166593750Y-123918750D01*
X152493750Y-138018750D02*
X152493750Y-123918750D01*
X166593750Y-138018750D02*
X152493750Y-138018750D01*
X204693750Y-138018750D02*
X190593750Y-138018750D01*
X204693750Y-123918750D02*
X204693750Y-138018750D01*
X190593750Y-138018750D02*
X190593750Y-123918750D01*
X190593750Y-123918750D02*
X204693750Y-123918750D01*
X323756250Y-99918750D02*
X309656250Y-99918750D01*
X309656250Y-85818750D02*
X323756250Y-85818750D01*
X323756250Y-85818750D02*
X323756250Y-99918750D01*
X309656250Y-99918750D02*
X309656250Y-85818750D01*
X295368750Y-118968750D02*
X295368750Y-104868750D01*
X309468750Y-104868750D02*
X309468750Y-118968750D01*
X309468750Y-118968750D02*
X295368750Y-118968750D01*
X295368750Y-104868750D02*
X309468750Y-104868750D01*
X314231250Y-66768750D02*
X314231250Y-80868750D01*
X314231250Y-80868750D02*
X300131250Y-80868750D01*
X300131250Y-80868750D02*
X300131250Y-66768750D01*
X300131250Y-66768750D02*
X314231250Y-66768750D01*
X285843750Y-138018750D02*
X285843750Y-123918750D01*
X299943750Y-138018750D02*
X285843750Y-138018750D01*
X299943750Y-123918750D02*
X299943750Y-138018750D01*
X285843750Y-123918750D02*
X299943750Y-123918750D01*
X152306250Y-99918750D02*
X138206250Y-99918750D01*
X152306250Y-85818750D02*
X152306250Y-99918750D01*
X138206250Y-99918750D02*
X138206250Y-85818750D01*
X138206250Y-85818750D02*
X152306250Y-85818750D01*
X185643750Y-138018750D02*
X171543750Y-138018750D01*
X171543750Y-123918750D02*
X185643750Y-123918750D01*
X185643750Y-123918750D02*
X185643750Y-138018750D01*
X171543750Y-138018750D02*
X171543750Y-123918750D01*
X247556250Y-85818750D02*
X247556250Y-99918750D01*
X233456250Y-85818750D02*
X247556250Y-85818750D01*
X233456250Y-99918750D02*
X233456250Y-85818750D01*
X247556250Y-99918750D02*
X233456250Y-99918750D01*
X114206250Y-157068750D02*
X100106250Y-157068750D01*
X114206250Y-142968750D02*
X114206250Y-157068750D01*
X100106250Y-142968750D02*
X114206250Y-142968750D01*
X100106250Y-157068750D02*
X100106250Y-142968750D01*
X209456250Y-99918750D02*
X195356250Y-99918750D01*
X195356250Y-99918750D02*
X195356250Y-85818750D01*
X195356250Y-85818750D02*
X209456250Y-85818750D01*
X209456250Y-85818750D02*
X209456250Y-99918750D01*
X223931250Y-66768750D02*
X238031250Y-66768750D01*
X223931250Y-80868750D02*
X223931250Y-66768750D01*
X238031250Y-80868750D02*
X223931250Y-80868750D01*
X238031250Y-66768750D02*
X238031250Y-80868750D01*
X312037500Y-138018750D02*
X312037500Y-123918750D01*
X326137500Y-123918750D02*
X326137500Y-138018750D01*
X312037500Y-123918750D02*
X326137500Y-123918750D01*
X326137500Y-138018750D02*
X312037500Y-138018750D01*
X285656250Y-85818750D02*
X285656250Y-99918750D01*
X285656250Y-99918750D02*
X271556250Y-99918750D01*
X271556250Y-99918750D02*
X271556250Y-85818750D01*
X271556250Y-85818750D02*
X285656250Y-85818750D01*
X266606250Y-85818750D02*
X266606250Y-99918750D01*
X266606250Y-99918750D02*
X252506250Y-99918750D01*
X252506250Y-99918750D02*
X252506250Y-85818750D01*
X252506250Y-85818750D02*
X266606250Y-85818750D01*
X257268750Y-104868750D02*
X271368750Y-104868750D01*
X271368750Y-104868750D02*
X271368750Y-118968750D01*
X271368750Y-118968750D02*
X257268750Y-118968750D01*
X257268750Y-118968750D02*
X257268750Y-104868750D01*
X100106250Y-99918750D02*
X100106250Y-85818750D01*
X114206250Y-99918750D02*
X100106250Y-99918750D01*
X100106250Y-85818750D02*
X114206250Y-85818750D01*
X114206250Y-85818750D02*
X114206250Y-99918750D01*
X290606250Y-157068750D02*
X290606250Y-142968750D01*
X304706250Y-157068750D02*
X290606250Y-157068750D01*
X304706250Y-142968750D02*
X304706250Y-157068750D01*
X290606250Y-142968750D02*
X304706250Y-142968750D01*
X352426500Y-66768750D02*
X352426500Y-80868750D01*
X352426500Y-80868750D02*
X338326500Y-80868750D01*
X338326500Y-66768750D02*
X352426500Y-66768750D01*
X338326500Y-80868750D02*
X338326500Y-66768750D01*
M02*
