G04 #@! TF.GenerationSoftware,KiCad,Pcbnew,(6.0.11)*
G04 #@! TF.CreationDate,2024-11-25T11:33:09+09:00*
G04 #@! TF.ProjectId,Flame60_Top,466c616d-6536-4305-9f54-6f702e6b6963,rev?*
G04 #@! TF.SameCoordinates,Original*
G04 #@! TF.FileFunction,Legend,Top*
G04 #@! TF.FilePolarity,Positive*
%FSLAX46Y46*%
G04 Gerber Fmt 4.6, Leading zero omitted, Abs format (unit mm)*
G04 Created by KiCad (PCBNEW (6.0.11)) date 2024-11-25 11:33:09*
%MOMM*%
%LPD*%
G01*
G04 APERTURE LIST*
%ADD10C,0.300000*%
G04 APERTURE END LIST*
D10*
X210658588Y-111156750D02*
X210513445Y-111084178D01*
X210295731Y-111084178D01*
X210078017Y-111156750D01*
X209932874Y-111301892D01*
X209860302Y-111447035D01*
X209787731Y-111737321D01*
X209787731Y-111955035D01*
X209860302Y-112245321D01*
X209932874Y-112390464D01*
X210078017Y-112535607D01*
X210295731Y-112608178D01*
X210440874Y-112608178D01*
X210658588Y-112535607D01*
X210731160Y-112463035D01*
X210731160Y-111955035D01*
X210440874Y-111955035D01*
X211602017Y-111084178D02*
X211602017Y-111447035D01*
X211239160Y-111301892D02*
X211602017Y-111447035D01*
X211964874Y-111301892D01*
X211384302Y-111737321D02*
X211602017Y-111447035D01*
X211819731Y-111737321D01*
X212763160Y-111084178D02*
X212763160Y-111447035D01*
X212400302Y-111301892D02*
X212763160Y-111447035D01*
X213126017Y-111301892D01*
X212545445Y-111737321D02*
X212763160Y-111447035D01*
X212980874Y-111737321D01*
X213924302Y-111084178D02*
X213924302Y-111447035D01*
X213561445Y-111301892D02*
X213924302Y-111447035D01*
X214287160Y-111301892D01*
X213706588Y-111737321D02*
X213924302Y-111447035D01*
X214142017Y-111737321D01*
G36*
X245529286Y-103351886D02*
G01*
X245894577Y-103793377D01*
X246302321Y-104352776D01*
X246739228Y-105008414D01*
X247192004Y-105738624D01*
X247647358Y-106521737D01*
X248091997Y-107336086D01*
X248512628Y-108160004D01*
X248641059Y-108424371D01*
X249275487Y-109826415D01*
X249829043Y-111213488D01*
X250298771Y-112573337D01*
X250681716Y-113893709D01*
X250974924Y-115162352D01*
X251175438Y-116367013D01*
X251280305Y-117495439D01*
X251286569Y-118535377D01*
X251234173Y-119176181D01*
X251022944Y-120458565D01*
X250700719Y-121798176D01*
X250278424Y-123164354D01*
X249766986Y-124526441D01*
X249177330Y-125853775D01*
X248520382Y-127115698D01*
X248223498Y-127624667D01*
X247935461Y-128088152D01*
X247579556Y-128639600D01*
X247177660Y-129246416D01*
X246751652Y-129876004D01*
X246323411Y-130495769D01*
X245914816Y-131073116D01*
X245827571Y-131194194D01*
X245212674Y-132069646D01*
X244704718Y-132849301D01*
X244300528Y-133539650D01*
X243996929Y-134147185D01*
X243790744Y-134678397D01*
X243678798Y-135139777D01*
X243657915Y-135537818D01*
X243664925Y-135615009D01*
X243709373Y-135990308D01*
X243189331Y-136598168D01*
X242904346Y-136924173D01*
X242566930Y-137299491D01*
X242229710Y-137665959D01*
X242061376Y-137844785D01*
X241453465Y-138483543D01*
X241492402Y-137807211D01*
X241508520Y-137495483D01*
X241527555Y-137077193D01*
X241547652Y-136595996D01*
X241566958Y-136095551D01*
X241576988Y-135815791D01*
X241622637Y-134500703D01*
X242226788Y-133426634D01*
X242765752Y-132403557D01*
X243279533Y-131293090D01*
X243771117Y-130086375D01*
X244243492Y-128774558D01*
X244699643Y-127348781D01*
X245142559Y-125800188D01*
X245575224Y-124119924D01*
X246000627Y-122299133D01*
X246041618Y-122114699D01*
X246258072Y-121093876D01*
X246431361Y-120173111D01*
X246567601Y-119310475D01*
X246672907Y-118464042D01*
X246753395Y-117591882D01*
X246799921Y-116916087D01*
X246847812Y-115457449D01*
X246823969Y-113892138D01*
X246731035Y-112244083D01*
X246571651Y-110537215D01*
X246348460Y-108795463D01*
X246064103Y-107042758D01*
X245721221Y-105303030D01*
X245335700Y-103652478D01*
X245155269Y-102938572D01*
X245529286Y-103351886D01*
G37*
G36*
X191611362Y-127373233D02*
G01*
X199448743Y-127373233D01*
X199643224Y-130146907D01*
X199687641Y-130775662D01*
X199729213Y-131355110D01*
X199766700Y-131868658D01*
X199798863Y-132299709D01*
X199824462Y-132631669D01*
X199842259Y-132847941D01*
X199851014Y-132931932D01*
X199851237Y-132932414D01*
X199919084Y-132969125D01*
X200097175Y-133062504D01*
X200362151Y-133200380D01*
X200690651Y-133370584D01*
X200879266Y-133468054D01*
X201223962Y-133640408D01*
X201622551Y-133830654D01*
X202050384Y-134028021D01*
X202482810Y-134221739D01*
X202895179Y-134401036D01*
X203262842Y-134555142D01*
X203561149Y-134673285D01*
X203765450Y-134744696D01*
X203838472Y-134761081D01*
X203918176Y-134713754D01*
X204078979Y-134584287D01*
X204293987Y-134395073D01*
X204439655Y-134260461D01*
X204969747Y-133760655D01*
X205520388Y-133239056D01*
X206080902Y-132705968D01*
X206640614Y-132171695D01*
X207188851Y-131646541D01*
X207714938Y-131140811D01*
X208208199Y-130664808D01*
X208657962Y-130228837D01*
X209053550Y-129843202D01*
X209384290Y-129518207D01*
X209639506Y-129264157D01*
X209808525Y-129091355D01*
X209879757Y-129011134D01*
X214120797Y-129011134D01*
X214121784Y-129016520D01*
X214150006Y-129054870D01*
X214229590Y-129140867D01*
X214365494Y-129279299D01*
X214562678Y-129474950D01*
X214826103Y-129732606D01*
X215160729Y-130057053D01*
X215571514Y-130453077D01*
X216063419Y-130925463D01*
X216641405Y-131478998D01*
X217310429Y-132118466D01*
X218075454Y-132848654D01*
X218941437Y-133674347D01*
X219553527Y-134257586D01*
X219784656Y-134472750D01*
X219976724Y-134642220D01*
X220103257Y-134743119D01*
X220136425Y-134761221D01*
X220226711Y-134736796D01*
X220423827Y-134669020D01*
X220694735Y-134569549D01*
X220887904Y-134496057D01*
X221187884Y-134372377D01*
X221583590Y-134197490D01*
X222037037Y-133988810D01*
X222510237Y-133763756D01*
X222871450Y-133586636D01*
X224160379Y-132944877D01*
X224207434Y-132294979D01*
X224213366Y-132212842D01*
X225140866Y-132212842D01*
X225144764Y-132251506D01*
X225190912Y-132253302D01*
X225292946Y-132204854D01*
X225466959Y-132096112D01*
X225729042Y-131917026D01*
X226091397Y-131660329D01*
X226400590Y-131433599D01*
X226732549Y-131180767D01*
X227065813Y-130919318D01*
X227378919Y-130666734D01*
X227650404Y-130440501D01*
X227858806Y-130258103D01*
X227982662Y-130137025D01*
X228007669Y-130099246D01*
X227951302Y-130038028D01*
X227796256Y-129902576D01*
X227563615Y-129709460D01*
X227274462Y-129475254D01*
X226949879Y-129216528D01*
X226610951Y-128949857D01*
X226278760Y-128691810D01*
X225974390Y-128458962D01*
X225718923Y-128267884D01*
X225533443Y-128135147D01*
X225439033Y-128077325D01*
X225433852Y-128076133D01*
X225396568Y-128142196D01*
X225374801Y-128306712D01*
X225373092Y-128357359D01*
X225366530Y-128511488D01*
X225350516Y-128790437D01*
X225326659Y-129169136D01*
X225296565Y-129622517D01*
X225261841Y-130125509D01*
X225240298Y-130428905D01*
X225205679Y-130931173D01*
X225177323Y-131381733D01*
X225156334Y-131759553D01*
X225143814Y-132043600D01*
X225140866Y-132212842D01*
X224213366Y-132212842D01*
X224278357Y-131313002D01*
X224338699Y-130470094D01*
X224389006Y-129755442D01*
X224429822Y-129158233D01*
X224461694Y-128667652D01*
X224485166Y-128272886D01*
X224500784Y-127963121D01*
X224509093Y-127727543D01*
X224510637Y-127555339D01*
X224505963Y-127435695D01*
X224495616Y-127357797D01*
X224480140Y-127310832D01*
X224460094Y-127283997D01*
X224368399Y-127207870D01*
X224181552Y-127058633D01*
X223923322Y-126855079D01*
X223617481Y-126616000D01*
X223478444Y-126507882D01*
X222593895Y-125821117D01*
X217041253Y-125821117D01*
X216832005Y-126030924D01*
X216718835Y-126147545D01*
X216522475Y-126353121D01*
X216262479Y-126626915D01*
X215958399Y-126948189D01*
X215629790Y-127296205D01*
X215296205Y-127650226D01*
X214977197Y-127989514D01*
X214692321Y-128293332D01*
X214461129Y-128540941D01*
X214303176Y-128711603D01*
X214268431Y-128749743D01*
X214159237Y-128899196D01*
X214120797Y-129011134D01*
X209879757Y-129011134D01*
X209880671Y-129010105D01*
X209882463Y-129006514D01*
X209841867Y-128921294D01*
X209714534Y-128751424D01*
X209518941Y-128519578D01*
X209273568Y-128248428D01*
X209206131Y-128176649D01*
X208660377Y-127600367D01*
X208209280Y-127124680D01*
X207844421Y-126740802D01*
X207557380Y-126439951D01*
X207339738Y-126213338D01*
X207183076Y-126052181D01*
X207078974Y-125947693D01*
X207019975Y-125891996D01*
X208331436Y-125891996D01*
X208390791Y-125972942D01*
X208534398Y-126139854D01*
X208743941Y-126373276D01*
X209001102Y-126653749D01*
X209287567Y-126961817D01*
X209585018Y-127278023D01*
X209875139Y-127582909D01*
X210139614Y-127857017D01*
X210360126Y-128080891D01*
X210518360Y-128235072D01*
X210595999Y-128300104D01*
X210599165Y-128300996D01*
X210676225Y-128253031D01*
X210839282Y-128122410D01*
X211064475Y-127929047D01*
X211327947Y-127692855D01*
X211329609Y-127691336D01*
X211996664Y-127081674D01*
X212671819Y-127698740D01*
X212936744Y-127934189D01*
X213164094Y-128123766D01*
X213330250Y-128248633D01*
X213411590Y-128289952D01*
X213412708Y-128289615D01*
X213486201Y-128227654D01*
X213641208Y-128075958D01*
X213859412Y-127853981D01*
X214122495Y-127581176D01*
X214412141Y-127276995D01*
X214710032Y-126960890D01*
X214997852Y-126652315D01*
X215257282Y-126370723D01*
X215470006Y-126135566D01*
X215617708Y-125966296D01*
X215682068Y-125882366D01*
X215683408Y-125878142D01*
X215610654Y-125866879D01*
X215401966Y-125856353D01*
X215071703Y-125846788D01*
X214634226Y-125838406D01*
X214103895Y-125831427D01*
X213495071Y-125826076D01*
X212822115Y-125822572D01*
X212099385Y-125821139D01*
X211994898Y-125821117D01*
X211133594Y-125822530D01*
X210373090Y-125826673D01*
X209720976Y-125833397D01*
X209184844Y-125842557D01*
X208772286Y-125854005D01*
X208490893Y-125867595D01*
X208348259Y-125883179D01*
X208331436Y-125891996D01*
X207019975Y-125891996D01*
X207019014Y-125891089D01*
X207003823Y-125878628D01*
X206913855Y-125865992D01*
X206690834Y-125854310D01*
X206352002Y-125843928D01*
X205914600Y-125835189D01*
X205395870Y-125828437D01*
X204813053Y-125824016D01*
X204183391Y-125822270D01*
X204178423Y-125822267D01*
X201428171Y-125821117D01*
X200718680Y-126365939D01*
X200407400Y-126606354D01*
X200110666Y-126837961D01*
X199865653Y-127031609D01*
X199728966Y-127141997D01*
X199448743Y-127373233D01*
X191611362Y-127373233D01*
X191601876Y-127361654D01*
X190502623Y-125792022D01*
X189527713Y-124150922D01*
X189507350Y-124109980D01*
X191067721Y-124109980D01*
X191089606Y-124187051D01*
X191185032Y-124364845D01*
X191339896Y-124621984D01*
X191540098Y-124937095D01*
X191771535Y-125288801D01*
X192020107Y-125655727D01*
X192271712Y-126016498D01*
X192512248Y-126349738D01*
X192727613Y-126634071D01*
X192759759Y-126674814D01*
X193000877Y-126964339D01*
X193172579Y-127136349D01*
X193285431Y-127200579D01*
X193324034Y-127194801D01*
X193413614Y-127137707D01*
X193609134Y-127008799D01*
X193892031Y-126820460D01*
X194243746Y-126585070D01*
X194645718Y-126315013D01*
X194932633Y-126121708D01*
X195348244Y-125838036D01*
X195715579Y-125580864D01*
X196018297Y-125362171D01*
X196240054Y-125193933D01*
X196364508Y-125088129D01*
X196384226Y-125058245D01*
X227618810Y-125058245D01*
X227664504Y-125111634D01*
X227819462Y-125236492D01*
X228067727Y-125421175D01*
X228393338Y-125654041D01*
X228780335Y-125923446D01*
X229152661Y-126177224D01*
X229649956Y-126511155D01*
X230038432Y-126766891D01*
X230332281Y-126952595D01*
X230545695Y-127076432D01*
X230692864Y-127146564D01*
X230787980Y-127171155D01*
X230845232Y-127158368D01*
X230850927Y-127154147D01*
X230939697Y-127058608D01*
X231094278Y-126869991D01*
X231291973Y-126616691D01*
X231484675Y-126361357D01*
X231817693Y-125902864D01*
X232122309Y-125463640D01*
X232388735Y-125059676D01*
X232607185Y-124706965D01*
X232767871Y-124421500D01*
X232861008Y-124219273D01*
X232876807Y-124116277D01*
X232864308Y-124106963D01*
X232765112Y-124114235D01*
X232540607Y-124145858D01*
X232211538Y-124198071D01*
X231798652Y-124267110D01*
X231322694Y-124349213D01*
X230804410Y-124440618D01*
X230264546Y-124537562D01*
X229723848Y-124636284D01*
X229203062Y-124733021D01*
X228722933Y-124824011D01*
X228304208Y-124905491D01*
X227967633Y-124973698D01*
X227733953Y-125024872D01*
X227623914Y-125055249D01*
X227618810Y-125058245D01*
X196384226Y-125058245D01*
X196384776Y-125057412D01*
X196298375Y-125030137D01*
X196085480Y-124982090D01*
X195766483Y-124916904D01*
X195628066Y-124889990D01*
X202613931Y-124889990D01*
X202676480Y-124898280D01*
X202868955Y-124905662D01*
X203170986Y-124911789D01*
X203562203Y-124916312D01*
X204022238Y-124918882D01*
X204329809Y-124919342D01*
X204862394Y-124916520D01*
X205316283Y-124908486D01*
X205675220Y-124895886D01*
X205922946Y-124879367D01*
X206043202Y-124859577D01*
X206051949Y-124850825D01*
X205992881Y-124774134D01*
X205848737Y-124612288D01*
X205639755Y-124387358D01*
X205386177Y-124121415D01*
X205325034Y-124058170D01*
X204996501Y-123729521D01*
X204757448Y-123514412D01*
X204603368Y-123409102D01*
X204535981Y-123403014D01*
X204448127Y-123471306D01*
X204264376Y-123613334D01*
X204007944Y-123811180D01*
X203702049Y-124046925D01*
X203547018Y-124166318D01*
X203231407Y-124409652D01*
X202959775Y-124619701D01*
X202753588Y-124779818D01*
X202634307Y-124873359D01*
X202613931Y-124889990D01*
X195628066Y-124889990D01*
X195361775Y-124838212D01*
X194891749Y-124749649D01*
X194376796Y-124654848D01*
X193837308Y-124557442D01*
X193293675Y-124461065D01*
X192766290Y-124369350D01*
X192275544Y-124285931D01*
X191841829Y-124214441D01*
X191485536Y-124158515D01*
X191227057Y-124121784D01*
X191086784Y-124107884D01*
X191067721Y-124109980D01*
X189507350Y-124109980D01*
X188679871Y-122446271D01*
X187961822Y-120685987D01*
X187466010Y-119155019D01*
X188835594Y-119155019D01*
X189007001Y-119651234D01*
X189370701Y-120639944D01*
X189773711Y-121623587D01*
X190057210Y-122255794D01*
X190410248Y-123011478D01*
X190816503Y-123099293D01*
X191015904Y-123139352D01*
X191333332Y-123199484D01*
X191738716Y-123274158D01*
X192201985Y-123357843D01*
X192693067Y-123445009D01*
X192763290Y-123457345D01*
X193369723Y-123564649D01*
X194060733Y-123688425D01*
X194773210Y-123817275D01*
X195444041Y-123939803D01*
X195844355Y-124013721D01*
X196310758Y-124099962D01*
X196729617Y-124176672D01*
X197077464Y-124239614D01*
X197330836Y-124284551D01*
X197466267Y-124307246D01*
X197479560Y-124309010D01*
X197578791Y-124273329D01*
X197770473Y-124169823D01*
X198023440Y-124016158D01*
X198210371Y-123894816D01*
X198482262Y-123704723D01*
X198703903Y-123532561D01*
X198846321Y-123401806D01*
X198882731Y-123349994D01*
X198904617Y-123245843D01*
X198947839Y-123014218D01*
X199008707Y-122675842D01*
X199014712Y-122641786D01*
X199906073Y-122641786D01*
X199942354Y-122654897D01*
X200038708Y-122615772D01*
X200208625Y-122516838D01*
X200465595Y-122350517D01*
X200823110Y-122109234D01*
X201100899Y-121918864D01*
X201449529Y-121680448D01*
X201763447Y-121468236D01*
X202017880Y-121298786D01*
X202188055Y-121188658D01*
X202238702Y-121158321D01*
X202354151Y-121066662D01*
X202382225Y-121008235D01*
X202333478Y-120925717D01*
X202202192Y-120762520D01*
X202010798Y-120545531D01*
X201867181Y-120390909D01*
X201589754Y-120096596D01*
X201298349Y-119785420D01*
X201043032Y-119510900D01*
X200971637Y-119433573D01*
X200785763Y-119240539D01*
X200640839Y-119106551D01*
X200563778Y-119056127D01*
X200559178Y-119057834D01*
X200538043Y-119139599D01*
X200496315Y-119348241D01*
X200437923Y-119662354D01*
X200366796Y-120060534D01*
X200286866Y-120521376D01*
X200241856Y-120786206D01*
X200158115Y-121276846D01*
X200080532Y-121721011D01*
X200013195Y-122096126D01*
X199960189Y-122379621D01*
X199925600Y-122548923D01*
X199916372Y-122584015D01*
X199906073Y-122641786D01*
X199014712Y-122641786D01*
X199083536Y-122251438D01*
X199168637Y-121761730D01*
X199258678Y-121237093D01*
X199353245Y-120684448D01*
X199443627Y-120159419D01*
X199525534Y-119686680D01*
X199594676Y-119290905D01*
X199646766Y-118996768D01*
X199675225Y-118840889D01*
X199718628Y-118590132D01*
X199746481Y-118386839D01*
X199752047Y-118310807D01*
X199698046Y-118230910D01*
X199545168Y-118064766D01*
X199307103Y-117825716D01*
X199273495Y-117793297D01*
X200653823Y-117793297D01*
X201123497Y-118293510D01*
X201388736Y-118574952D01*
X201706555Y-118910639D01*
X202025536Y-119246314D01*
X202167721Y-119395438D01*
X202426003Y-119668892D01*
X202666794Y-119929056D01*
X202857857Y-120140830D01*
X202944667Y-120241383D01*
X203074903Y-120391783D01*
X203160226Y-120477793D01*
X203173280Y-120485614D01*
X203241998Y-120446027D01*
X203409612Y-120338276D01*
X203650847Y-120178874D01*
X203936866Y-119986742D01*
X204230962Y-119787500D01*
X204616345Y-119526013D01*
X205060082Y-119224650D01*
X205529243Y-118905775D01*
X205990897Y-118591756D01*
X206045687Y-118554468D01*
X207417136Y-117621066D01*
X207415986Y-113962068D01*
X207414654Y-113233176D01*
X207411278Y-112549365D01*
X207406080Y-111925481D01*
X207399286Y-111376368D01*
X207391118Y-110916870D01*
X207381800Y-110561832D01*
X207371557Y-110326098D01*
X207360611Y-110224512D01*
X207359625Y-110222494D01*
X207286760Y-110163115D01*
X207104058Y-110030076D01*
X206825554Y-109832938D01*
X206465285Y-109581266D01*
X206037290Y-109284624D01*
X205555605Y-108952574D01*
X205034268Y-108594680D01*
X204487315Y-108220505D01*
X203928783Y-107839613D01*
X203372711Y-107461567D01*
X202833135Y-107095930D01*
X202324092Y-106752266D01*
X201859620Y-106440138D01*
X201453756Y-106169109D01*
X201120536Y-105948744D01*
X200873998Y-105788605D01*
X200728180Y-105698255D01*
X200694279Y-105681472D01*
X200688003Y-105754752D01*
X200682025Y-105967120D01*
X200676420Y-106307369D01*
X200671263Y-106764292D01*
X200666628Y-107326681D01*
X200662591Y-107983329D01*
X200659226Y-108723028D01*
X200656609Y-109534572D01*
X200654813Y-110406752D01*
X200653915Y-111328362D01*
X200653823Y-111737384D01*
X200653823Y-117793297D01*
X199273495Y-117793297D01*
X198997540Y-117527101D01*
X198630170Y-117182260D01*
X198218681Y-116804535D01*
X198046793Y-116649022D01*
X197524513Y-116177968D01*
X196951850Y-115660676D01*
X196362644Y-115127767D01*
X195790733Y-114609861D01*
X195269957Y-114137579D01*
X194916252Y-113816235D01*
X194528411Y-113465352D01*
X194176483Y-113150510D01*
X193875839Y-112885171D01*
X193641849Y-112682798D01*
X193489882Y-112556855D01*
X193436363Y-112519933D01*
X193362567Y-112576836D01*
X193257549Y-112714975D01*
X193250061Y-112726590D01*
X193153881Y-112871095D01*
X192994404Y-113103947D01*
X192795248Y-113390877D01*
X192615606Y-113647152D01*
X192409013Y-113942234D01*
X192138020Y-114331886D01*
X191817366Y-114794696D01*
X191461790Y-115309245D01*
X191086030Y-115854120D01*
X190704827Y-116407905D01*
X190332919Y-116949184D01*
X189985045Y-117456541D01*
X189675945Y-117908562D01*
X189420358Y-118283830D01*
X189233022Y-118560931D01*
X189207399Y-118599163D01*
X188835594Y-119155019D01*
X187466010Y-119155019D01*
X187376292Y-118877986D01*
X186926007Y-117030186D01*
X186613690Y-115150505D01*
X186442069Y-113246858D01*
X186423881Y-112008784D01*
X187769111Y-112008784D01*
X187796263Y-113071067D01*
X187858160Y-114113331D01*
X187953660Y-115095690D01*
X188081619Y-115978255D01*
X188108688Y-116127034D01*
X188197496Y-116578562D01*
X188287305Y-117001239D01*
X188372401Y-117371319D01*
X188447066Y-117665054D01*
X188505583Y-117858699D01*
X188542235Y-117928507D01*
X188542388Y-117928504D01*
X188593541Y-117867998D01*
X188721109Y-117695230D01*
X188916763Y-117422064D01*
X189172170Y-117060362D01*
X189478999Y-116621987D01*
X189828920Y-116118802D01*
X190213601Y-115562670D01*
X190624711Y-114965453D01*
X190685984Y-114876205D01*
X191166244Y-114175437D01*
X191567222Y-113587583D01*
X191895474Y-113102185D01*
X192157554Y-112708782D01*
X192360016Y-112396916D01*
X192509416Y-112156127D01*
X192612309Y-111975957D01*
X192675249Y-111845946D01*
X192703603Y-111759263D01*
X194040805Y-111759263D01*
X194094161Y-111820463D01*
X194244301Y-111968227D01*
X194476331Y-112188535D01*
X194775357Y-112467367D01*
X195126485Y-112790704D01*
X195447637Y-113083568D01*
X195865379Y-113463041D01*
X196275986Y-113836283D01*
X196656861Y-114182736D01*
X196985411Y-114481843D01*
X197239039Y-114713046D01*
X197347302Y-114811945D01*
X197624073Y-115063488D01*
X197960450Y-115366748D01*
X198303370Y-115673968D01*
X198474546Y-115826442D01*
X198767647Y-116087513D01*
X199053474Y-116343280D01*
X199292899Y-116558671D01*
X199410566Y-116665391D01*
X199583602Y-116813429D01*
X199709835Y-116903106D01*
X199750898Y-116916791D01*
X199757402Y-116839566D01*
X199763515Y-116624318D01*
X199769149Y-116283322D01*
X199774215Y-115828852D01*
X199778624Y-115273182D01*
X199782287Y-114628584D01*
X199785117Y-113907334D01*
X199787025Y-113121704D01*
X199787922Y-112283968D01*
X199787945Y-111780209D01*
X199786948Y-110917083D01*
X199784618Y-110098317D01*
X199781079Y-109336268D01*
X199776452Y-108643292D01*
X199770862Y-108031746D01*
X199764432Y-107513987D01*
X199757285Y-107102370D01*
X199749544Y-106809252D01*
X199741333Y-106646989D01*
X199736460Y-106617759D01*
X199672936Y-106656623D01*
X199510805Y-106786484D01*
X199262108Y-106996627D01*
X198938887Y-107276335D01*
X198553184Y-107614893D01*
X198117041Y-108001583D01*
X197642499Y-108425690D01*
X197141600Y-108876498D01*
X196626386Y-109343291D01*
X196108898Y-109815352D01*
X195601178Y-110281965D01*
X195168024Y-110683294D01*
X194898112Y-110932985D01*
X194609752Y-111197475D01*
X194397758Y-111390176D01*
X194213526Y-111563271D01*
X194084614Y-111697308D01*
X194040805Y-111759263D01*
X192703603Y-111759263D01*
X192704790Y-111755635D01*
X192707489Y-111694565D01*
X192698011Y-111665711D01*
X192625657Y-111545665D01*
X192485681Y-111331398D01*
X192297124Y-111051482D01*
X192079030Y-110734487D01*
X192040277Y-110678809D01*
X191850511Y-110405314D01*
X191592307Y-110031230D01*
X191281880Y-109580158D01*
X190935447Y-109075694D01*
X190569225Y-108541438D01*
X190199430Y-108000989D01*
X190077932Y-107823188D01*
X189741625Y-107331635D01*
X189430929Y-106879007D01*
X189156348Y-106480490D01*
X188928384Y-106151269D01*
X188757542Y-105906529D01*
X188654325Y-105761456D01*
X188628946Y-105728274D01*
X188579012Y-105757599D01*
X188512205Y-105917533D01*
X188432427Y-106189830D01*
X188343581Y-106556247D01*
X188249571Y-106998537D01*
X188154298Y-107498458D01*
X188061666Y-108037764D01*
X187975578Y-108598210D01*
X187907536Y-109100703D01*
X187823605Y-109983714D01*
X187777844Y-110966371D01*
X187769111Y-112008784D01*
X186423881Y-112008784D01*
X186413867Y-111327165D01*
X186531811Y-109399342D01*
X186647862Y-108424586D01*
X186989147Y-106502359D01*
X187470957Y-104626627D01*
X187523904Y-104470458D01*
X188930746Y-104470458D01*
X188971944Y-104550934D01*
X189089511Y-104741386D01*
X189274407Y-105028123D01*
X189517592Y-105397451D01*
X189810025Y-105835679D01*
X190142668Y-106329114D01*
X190506478Y-106864064D01*
X190638848Y-107057614D01*
X191035106Y-107636558D01*
X191424482Y-108206144D01*
X191794223Y-108747669D01*
X192131580Y-109242431D01*
X192423802Y-109671728D01*
X192658138Y-110016860D01*
X192821836Y-110259122D01*
X192836925Y-110281580D01*
X193034384Y-110568210D01*
X193205388Y-110802436D01*
X193331110Y-110959388D01*
X193391594Y-111014273D01*
X193466137Y-110967311D01*
X193632257Y-110835467D01*
X193870439Y-110635090D01*
X194161170Y-110382527D01*
X194417659Y-110154625D01*
X194740867Y-109864357D01*
X195029950Y-109604078D01*
X195264197Y-109392487D01*
X195422898Y-109248283D01*
X195480183Y-109195319D01*
X195559613Y-109121876D01*
X195735698Y-108960710D01*
X195993831Y-108725140D01*
X196319402Y-108428481D01*
X196697804Y-108084051D01*
X197114426Y-107705167D01*
X197272166Y-107561797D01*
X197862568Y-107025000D01*
X198351040Y-106579683D01*
X198746979Y-106216358D01*
X199059786Y-105925538D01*
X199298857Y-105697734D01*
X199473594Y-105523460D01*
X199593394Y-105393228D01*
X199667656Y-105297550D01*
X199705780Y-105226937D01*
X199717163Y-105171904D01*
X199711206Y-105122961D01*
X199706486Y-105104483D01*
X199625855Y-105003710D01*
X199418838Y-104826339D01*
X199087448Y-104573889D01*
X198633696Y-104247882D01*
X198059595Y-103849838D01*
X197922360Y-103756168D01*
X197450506Y-103434898D01*
X203284000Y-103434898D01*
X203340783Y-103495739D01*
X203497961Y-103630748D01*
X203735778Y-103823800D01*
X204034478Y-104058771D01*
X204279710Y-104247571D01*
X204601520Y-104494432D01*
X205015627Y-104814001D01*
X205496114Y-105186170D01*
X206017066Y-105590832D01*
X206552568Y-106007879D01*
X207076704Y-106417203D01*
X207154118Y-106477770D01*
X207651509Y-106866632D01*
X208143756Y-107250765D01*
X208609474Y-107613531D01*
X209027277Y-107938295D01*
X209375777Y-108208418D01*
X209633588Y-108407263D01*
X209688313Y-108449202D01*
X210343808Y-108950407D01*
X210345546Y-113910170D01*
X210347283Y-118869933D01*
X208863422Y-120029901D01*
X208382292Y-120405181D01*
X207872793Y-120801146D01*
X207368453Y-121191839D01*
X206902803Y-121551300D01*
X206509373Y-121853570D01*
X206388226Y-121946173D01*
X206057765Y-122201724D01*
X205773470Y-122428131D01*
X205555286Y-122608976D01*
X205423158Y-122727842D01*
X205392516Y-122765729D01*
X205440482Y-122837558D01*
X205576635Y-122999926D01*
X205785088Y-123234940D01*
X206049951Y-123524711D01*
X206355334Y-123851347D01*
X206376902Y-123874161D01*
X207365661Y-124919342D01*
X216645116Y-124919342D01*
X216707064Y-124853629D01*
X217950371Y-124853629D01*
X218014723Y-124872343D01*
X218209235Y-124888945D01*
X218513780Y-124902666D01*
X218908227Y-124912738D01*
X219372448Y-124918391D01*
X219670188Y-124919342D01*
X221415054Y-124919342D01*
X220860030Y-124484960D01*
X220540243Y-124234905D01*
X220195118Y-123965382D01*
X219889699Y-123727183D01*
X219837080Y-123686195D01*
X219369155Y-123321812D01*
X218672287Y-124054865D01*
X218413716Y-124329648D01*
X218194712Y-124567652D01*
X218035275Y-124746748D01*
X217955405Y-124844809D01*
X217950371Y-124853629D01*
X216707064Y-124853629D01*
X217573286Y-123934761D01*
X217876077Y-123611206D01*
X218144779Y-123319622D01*
X218361461Y-123079821D01*
X218508194Y-122911619D01*
X218565208Y-122838581D01*
X218569638Y-122711261D01*
X218485274Y-122626341D01*
X218387556Y-122553295D01*
X218189553Y-122401681D01*
X217909382Y-122185501D01*
X217565162Y-121918759D01*
X217175009Y-121615459D01*
X216880990Y-121386335D01*
X216411148Y-121019908D01*
X216402388Y-121013079D01*
X221634052Y-121013079D01*
X221700627Y-121074109D01*
X221868936Y-121201532D01*
X222115198Y-121379064D01*
X222415635Y-121590419D01*
X222746468Y-121819312D01*
X223083918Y-122049458D01*
X223404206Y-122264571D01*
X223683554Y-122448367D01*
X223898183Y-122584561D01*
X224024313Y-122656867D01*
X224045047Y-122664267D01*
X224074974Y-122603500D01*
X224062807Y-122495821D01*
X224033172Y-122349391D01*
X223984363Y-122084936D01*
X223921603Y-121732734D01*
X223850113Y-121323063D01*
X223775116Y-120886201D01*
X223701834Y-120452426D01*
X223635489Y-120052015D01*
X223581302Y-119715248D01*
X223563817Y-119602626D01*
X223516395Y-119339187D01*
X223467956Y-119145771D01*
X223427998Y-119059279D01*
X223423575Y-119057803D01*
X223348553Y-119109641D01*
X223204846Y-119246009D01*
X223022581Y-119438185D01*
X223009750Y-119452330D01*
X222791868Y-119690255D01*
X222517455Y-119985768D01*
X222233929Y-120287907D01*
X222131654Y-120395975D01*
X221914837Y-120633047D01*
X221747101Y-120833078D01*
X221649581Y-120969860D01*
X221634052Y-121013079D01*
X216402388Y-121013079D01*
X215920799Y-120637633D01*
X215441767Y-120264307D01*
X215005875Y-119924730D01*
X214644946Y-119643701D01*
X214537403Y-119560015D01*
X213654414Y-118873060D01*
X213655064Y-117621367D01*
X216582682Y-117621367D01*
X217955383Y-118555226D01*
X218412023Y-118866152D01*
X218878165Y-119184023D01*
X219321445Y-119486735D01*
X219709495Y-119752184D01*
X220009950Y-119958264D01*
X220041988Y-119980298D01*
X220327977Y-120173289D01*
X220568529Y-120328511D01*
X220737165Y-120429351D01*
X220806203Y-120459775D01*
X220869435Y-120403840D01*
X221020304Y-120252927D01*
X221244189Y-120022201D01*
X221526464Y-119726827D01*
X221852508Y-119381970D01*
X222102505Y-119115446D01*
X222822334Y-118345586D01*
X224267126Y-118345586D01*
X224269067Y-118418555D01*
X224273965Y-118456620D01*
X224309813Y-118695104D01*
X224364649Y-119035863D01*
X224434683Y-119457304D01*
X224516124Y-119937833D01*
X224605181Y-120455855D01*
X224698066Y-120989777D01*
X224790988Y-121518006D01*
X224880156Y-122018946D01*
X224961781Y-122471005D01*
X225032072Y-122852589D01*
X225087240Y-123142104D01*
X225123493Y-123317956D01*
X225134587Y-123359917D01*
X225208863Y-123440117D01*
X225374258Y-123580012D01*
X225597531Y-123754887D01*
X225845447Y-123940031D01*
X226084767Y-124110729D01*
X226282254Y-124242268D01*
X226404669Y-124309934D01*
X226417276Y-124313638D01*
X226494839Y-124302006D01*
X226701315Y-124266910D01*
X227017728Y-124211690D01*
X227425104Y-124139683D01*
X227904469Y-124054228D01*
X228436849Y-123958663D01*
X228521418Y-123943426D01*
X229145019Y-123831041D01*
X229795529Y-123713850D01*
X230436047Y-123598498D01*
X231029670Y-123491629D01*
X231539497Y-123399888D01*
X231840213Y-123345811D01*
X232273316Y-123267563D01*
X232671910Y-123194821D01*
X233004913Y-123133311D01*
X233241241Y-123088761D01*
X233328273Y-123071614D01*
X233501850Y-123007621D01*
X233635337Y-122874566D01*
X233751208Y-122673520D01*
X233938805Y-122280604D01*
X234156466Y-121791799D01*
X234384972Y-121253200D01*
X234605101Y-120710905D01*
X234797633Y-120211008D01*
X234917920Y-119875393D01*
X235164525Y-119152450D01*
X234868882Y-118710600D01*
X234711354Y-118477206D01*
X234482385Y-118140735D01*
X234196074Y-117721689D01*
X233866520Y-117240567D01*
X233507823Y-116717871D01*
X233134083Y-116174103D01*
X232759399Y-115629764D01*
X232397870Y-115105353D01*
X232063596Y-114621374D01*
X231770676Y-114198326D01*
X231533210Y-113856712D01*
X231386534Y-113647152D01*
X231172399Y-113341300D01*
X230978206Y-113060909D01*
X230827570Y-112840255D01*
X230752259Y-112726590D01*
X230646699Y-112584541D01*
X230569233Y-112520258D01*
X230565957Y-112519933D01*
X230497791Y-112568488D01*
X230334239Y-112705177D01*
X230090671Y-112916538D01*
X229782456Y-113189107D01*
X229424966Y-113509421D01*
X229086067Y-113816235D01*
X228630533Y-114229921D01*
X228096870Y-114713535D01*
X227518781Y-115236598D01*
X226929974Y-115768630D01*
X226364152Y-116279150D01*
X225949056Y-116653069D01*
X225467273Y-117087110D01*
X225085897Y-117433012D01*
X224793516Y-117703062D01*
X224578719Y-117909548D01*
X224430093Y-118064756D01*
X224336227Y-118180974D01*
X224285708Y-118270488D01*
X224267126Y-118345586D01*
X222822334Y-118345586D01*
X223348497Y-117782853D01*
X223348497Y-114596704D01*
X224221629Y-114596704D01*
X224221843Y-115218129D01*
X224222942Y-115767426D01*
X224224982Y-116229807D01*
X224228022Y-116590486D01*
X224232119Y-116834674D01*
X224237331Y-116947583D01*
X224239033Y-116953661D01*
X224302696Y-116907132D01*
X224453585Y-116781572D01*
X224666789Y-116598019D01*
X224839635Y-116446413D01*
X225130058Y-116188823D01*
X225421741Y-115928347D01*
X225668176Y-115706581D01*
X225752649Y-115629831D01*
X225889256Y-115505350D01*
X226121264Y-115294239D01*
X226432815Y-115010914D01*
X226808051Y-114669793D01*
X227231113Y-114285293D01*
X227686145Y-113871829D01*
X228007669Y-113579730D01*
X228458424Y-113169122D01*
X228872620Y-112789632D01*
X229237344Y-112453261D01*
X229539680Y-112172012D01*
X229766715Y-111957885D01*
X229905534Y-111822883D01*
X229944414Y-111779863D01*
X229898149Y-111714540D01*
X231292475Y-111714540D01*
X231302712Y-111783499D01*
X231341518Y-111884407D01*
X231415467Y-112027755D01*
X231531132Y-112224038D01*
X231695090Y-112483746D01*
X231913914Y-112817374D01*
X232194178Y-113235414D01*
X232542458Y-113748357D01*
X232965328Y-114366698D01*
X233315731Y-114877321D01*
X233730182Y-115479295D01*
X234119434Y-116041919D01*
X234475147Y-116553328D01*
X234788980Y-117001659D01*
X235052590Y-117375050D01*
X235257637Y-117661638D01*
X235395778Y-117849560D01*
X235458672Y-117926952D01*
X235461037Y-117928294D01*
X235521939Y-117869065D01*
X235550211Y-117799075D01*
X235662818Y-117346330D01*
X235777075Y-116774526D01*
X235888437Y-116114772D01*
X235992356Y-115398175D01*
X236084285Y-114655846D01*
X236159680Y-113918893D01*
X236209531Y-113287601D01*
X236248960Y-112130150D01*
X236223527Y-110900210D01*
X236137211Y-109639871D01*
X235993993Y-108391225D01*
X235797854Y-107196361D01*
X235552775Y-106097372D01*
X235516599Y-105960292D01*
X235433330Y-105651054D01*
X235292678Y-105835346D01*
X235210005Y-105950238D01*
X235057350Y-106168643D01*
X234849115Y-106469705D01*
X234599705Y-106832566D01*
X234323525Y-107236371D01*
X234205251Y-107409874D01*
X233848341Y-107932793D01*
X233442982Y-108524785D01*
X233023550Y-109135770D01*
X232624418Y-109715666D01*
X232322608Y-110152774D01*
X232043200Y-110558505D01*
X231789356Y-110930679D01*
X231574889Y-111248754D01*
X231413615Y-111492190D01*
X231319348Y-111640445D01*
X231304232Y-111667037D01*
X231292475Y-111714540D01*
X229898149Y-111714540D01*
X229897614Y-111713785D01*
X229755156Y-111563083D01*
X229533161Y-111343603D01*
X229247751Y-111071189D01*
X228915049Y-110761687D01*
X228817195Y-110671984D01*
X227981371Y-109908514D01*
X227249876Y-109241093D01*
X226616391Y-108664055D01*
X226074596Y-108171737D01*
X225618171Y-107758473D01*
X225240797Y-107418599D01*
X224936154Y-107146449D01*
X224697923Y-106936359D01*
X224519783Y-106782665D01*
X224395415Y-106679701D01*
X224318499Y-106621802D01*
X224282717Y-106603304D01*
X224279296Y-106604322D01*
X224273166Y-106682850D01*
X224267116Y-106896275D01*
X224261203Y-107229809D01*
X224255484Y-107668666D01*
X224250016Y-108198058D01*
X224244858Y-108803197D01*
X224240067Y-109469295D01*
X224235699Y-110181566D01*
X224231814Y-110925221D01*
X224228468Y-111685474D01*
X224225719Y-112447536D01*
X224223625Y-113196620D01*
X224222242Y-113917938D01*
X224221629Y-114596704D01*
X223348497Y-114596704D01*
X223348497Y-111732162D01*
X223347959Y-110793145D01*
X223346400Y-109898738D01*
X223343903Y-109060155D01*
X223340549Y-108288608D01*
X223336421Y-107595308D01*
X223331601Y-106991469D01*
X223326172Y-106488301D01*
X223320215Y-106097019D01*
X223313814Y-105828832D01*
X223307050Y-105694955D01*
X223304080Y-105681472D01*
X223246174Y-105711873D01*
X223098262Y-105804819D01*
X222856464Y-105962920D01*
X222516899Y-106188788D01*
X222075689Y-106485033D01*
X221528952Y-106854268D01*
X220872809Y-107299103D01*
X220103379Y-107822150D01*
X219216783Y-108426020D01*
X218522884Y-108899233D01*
X216590466Y-110217641D01*
X216582682Y-117621367D01*
X213655064Y-117621367D01*
X213656989Y-113911733D01*
X213659563Y-108950407D01*
X216219186Y-106958987D01*
X216791126Y-106514252D01*
X217353242Y-106077609D01*
X217888525Y-105662238D01*
X218379969Y-105281318D01*
X218500740Y-105187839D01*
X224292836Y-105187839D01*
X224328897Y-105267379D01*
X224412164Y-105379343D01*
X224553215Y-105534664D01*
X224762624Y-105744274D01*
X225050969Y-106019105D01*
X225428826Y-106370091D01*
X225906770Y-106808164D01*
X225994575Y-106888289D01*
X226469134Y-107321306D01*
X226947125Y-107757754D01*
X227406541Y-108177514D01*
X227825373Y-108560471D01*
X228181613Y-108886506D01*
X228453253Y-109135503D01*
X228496130Y-109174874D01*
X229075021Y-109704834D01*
X229551142Y-110136586D01*
X229930639Y-110475491D01*
X230219655Y-110726911D01*
X230424335Y-110896209D01*
X230550822Y-110988746D01*
X230600272Y-111011112D01*
X230663129Y-110951400D01*
X230795702Y-110785015D01*
X230984420Y-110530393D01*
X231215709Y-110205966D01*
X231475996Y-109830170D01*
X231552822Y-109717372D01*
X231833677Y-109304029D01*
X232177894Y-108798300D01*
X232563915Y-108231806D01*
X232970185Y-107636168D01*
X233375144Y-107043006D01*
X233750899Y-106493207D01*
X234077072Y-106013182D01*
X234373903Y-105570422D01*
X234631103Y-105180745D01*
X234838382Y-104859970D01*
X234985452Y-104623913D01*
X235062022Y-104488393D01*
X235070738Y-104464213D01*
X235041807Y-104328947D01*
X234962752Y-104084936D01*
X234843303Y-103755687D01*
X234693193Y-103364705D01*
X234522153Y-102935499D01*
X234339917Y-102491575D01*
X234156214Y-102056439D01*
X233980779Y-101653599D01*
X233823341Y-101306560D01*
X233693634Y-101038830D01*
X233601390Y-100873916D01*
X233567776Y-100833911D01*
X233477909Y-100808139D01*
X233266494Y-100759775D01*
X232959608Y-100694421D01*
X232583330Y-100617682D01*
X232308011Y-100563201D01*
X231105907Y-100328127D01*
X230251906Y-100913507D01*
X229890560Y-101160699D01*
X229448336Y-101462456D01*
X228968813Y-101789084D01*
X228495569Y-102110891D01*
X228233113Y-102289073D01*
X227379785Y-102868354D01*
X226625839Y-103380981D01*
X225974873Y-103824492D01*
X225430485Y-104196422D01*
X224996275Y-104494310D01*
X224675840Y-104715691D01*
X224472780Y-104858103D01*
X224390692Y-104919081D01*
X224390227Y-104919535D01*
X224331855Y-105024052D01*
X224293406Y-105129789D01*
X224292836Y-105187839D01*
X218500740Y-105187839D01*
X218810567Y-104948027D01*
X219163313Y-104675544D01*
X219421199Y-104477048D01*
X219493041Y-104422037D01*
X219913931Y-104099812D01*
X220228434Y-103855627D01*
X220449912Y-103676704D01*
X220591730Y-103550259D01*
X220667249Y-103463514D01*
X220689834Y-103403687D01*
X220672848Y-103357998D01*
X220640948Y-103324163D01*
X220553892Y-103246222D01*
X220371200Y-103085351D01*
X220110715Y-102857166D01*
X219790278Y-102577286D01*
X219427731Y-102261326D01*
X219245271Y-102102548D01*
X218784905Y-101702108D01*
X218279448Y-101262404D01*
X217768582Y-100817959D01*
X217291986Y-100403294D01*
X216891352Y-100054681D01*
X216554283Y-99767285D01*
X216254537Y-99522942D01*
X216010576Y-99335792D01*
X215840860Y-99219972D01*
X215763853Y-99189621D01*
X215762874Y-99190480D01*
X215722033Y-99283538D01*
X215651180Y-99493471D01*
X215559250Y-99791989D01*
X215455181Y-100150805D01*
X215421585Y-100270821D01*
X215290908Y-100740190D01*
X215137452Y-101289063D01*
X214979446Y-101852350D01*
X214835124Y-102364964D01*
X214821693Y-102412537D01*
X214702135Y-102838409D01*
X214588718Y-103246960D01*
X214491722Y-103600841D01*
X214421427Y-103862704D01*
X214402842Y-103934282D01*
X214302332Y-104328809D01*
X209699987Y-104328809D01*
X209599478Y-103934282D01*
X209542975Y-103720503D01*
X209455594Y-103399523D01*
X209347612Y-103008690D01*
X209229310Y-102585354D01*
X209180627Y-102412537D01*
X209038763Y-101908888D01*
X208881328Y-101347827D01*
X208726554Y-100794441D01*
X208592673Y-100313819D01*
X208580735Y-100270821D01*
X208474581Y-99898790D01*
X208377598Y-99578062D01*
X208298769Y-99336984D01*
X208247075Y-99203898D01*
X208237926Y-99188959D01*
X208159784Y-99207660D01*
X207995142Y-99312258D01*
X207767560Y-99486304D01*
X207552671Y-99667407D01*
X207336679Y-99856029D01*
X207027495Y-100125603D01*
X206645373Y-100458493D01*
X206210565Y-100837063D01*
X205743321Y-101243678D01*
X205263895Y-101660702D01*
X205106337Y-101797708D01*
X204663977Y-102183912D01*
X204260358Y-102539333D01*
X203908939Y-102851880D01*
X203623175Y-103109462D01*
X203416526Y-103299991D01*
X203302448Y-103411375D01*
X203284000Y-103434898D01*
X197450506Y-103434898D01*
X197415737Y-103411225D01*
X196901390Y-103061044D01*
X196406720Y-102724279D01*
X195959128Y-102419583D01*
X195586016Y-102165612D01*
X195355894Y-102008992D01*
X194941543Y-101726699D01*
X194471072Y-101405669D01*
X194010256Y-101090807D01*
X193712945Y-100887364D01*
X192896624Y-100328272D01*
X192059691Y-100490648D01*
X191531566Y-100592561D01*
X191130486Y-100671560D01*
X190836439Y-100735782D01*
X190629418Y-100793365D01*
X190489411Y-100852447D01*
X190396410Y-100921164D01*
X190330406Y-101007653D01*
X190271388Y-101120053D01*
X190211708Y-101242165D01*
X190060676Y-101557588D01*
X189888576Y-101941995D01*
X189705385Y-102370240D01*
X189521080Y-102817178D01*
X189345639Y-103257665D01*
X189189039Y-103666556D01*
X189061258Y-104018705D01*
X188972272Y-104288968D01*
X188932060Y-104452200D01*
X188930746Y-104470458D01*
X187523904Y-104470458D01*
X188088974Y-102803771D01*
X188838881Y-101040171D01*
X189497143Y-99766399D01*
X191019851Y-99766399D01*
X191339580Y-99715272D01*
X191553629Y-99673991D01*
X191704140Y-99632266D01*
X191729975Y-99620472D01*
X191717349Y-99561467D01*
X191620457Y-99464320D01*
X191485442Y-99365609D01*
X191457693Y-99351690D01*
X198024944Y-99351690D01*
X198079531Y-99417416D01*
X198208293Y-99528079D01*
X198360872Y-99644472D01*
X198486909Y-99727386D01*
X198529835Y-99744785D01*
X198544913Y-99680848D01*
X198548530Y-99575703D01*
X198506067Y-99345447D01*
X198381834Y-99240850D01*
X198219581Y-99247585D01*
X198075787Y-99301623D01*
X198024944Y-99351690D01*
X191457693Y-99351690D01*
X191358446Y-99301908D01*
X191318622Y-99294393D01*
X191251497Y-99353999D01*
X191157505Y-99501012D01*
X191142021Y-99530148D01*
X191019851Y-99766399D01*
X189497143Y-99766399D01*
X189716357Y-99342208D01*
X189790069Y-99222443D01*
X199429613Y-99222443D01*
X199450384Y-99424110D01*
X199495792Y-99701317D01*
X199526453Y-99857507D01*
X199613544Y-100262809D01*
X199681931Y-100539482D01*
X199737664Y-100707141D01*
X199786796Y-100785401D01*
X199816448Y-100797627D01*
X199887033Y-100842452D01*
X200057408Y-100967445D01*
X200309838Y-101159084D01*
X200626591Y-101403851D01*
X200989932Y-101688226D01*
X201142284Y-101808412D01*
X201520195Y-102105106D01*
X201859693Y-102367683D01*
X202142777Y-102582543D01*
X202351448Y-102736087D01*
X202467705Y-102814716D01*
X202484099Y-102822138D01*
X202577461Y-102780161D01*
X202731838Y-102670883D01*
X202784691Y-102628006D01*
X203027114Y-102422723D01*
X203338389Y-102155593D01*
X203704190Y-101839218D01*
X204110194Y-101486205D01*
X204542075Y-101109158D01*
X204985510Y-100720681D01*
X205426175Y-100333379D01*
X205849744Y-99959857D01*
X206241894Y-99612719D01*
X206588300Y-99304570D01*
X206874638Y-99048015D01*
X207086583Y-98855659D01*
X207209812Y-98740105D01*
X207235531Y-98711504D01*
X207205290Y-98710169D01*
X216768123Y-98710169D01*
X216815862Y-98764284D01*
X216964302Y-98904861D01*
X217200371Y-99120156D01*
X217510995Y-99398429D01*
X217883100Y-99727936D01*
X218303612Y-100096936D01*
X218593882Y-100349943D01*
X219068140Y-100762349D01*
X219529203Y-101163444D01*
X219958655Y-101537197D01*
X220338080Y-101867573D01*
X220649060Y-102138540D01*
X220873180Y-102334063D01*
X220939967Y-102392444D01*
X221167934Y-102586538D01*
X221354708Y-102735551D01*
X221470891Y-102816431D01*
X221491065Y-102824544D01*
X221565513Y-102780638D01*
X221739155Y-102657359D01*
X221993331Y-102468604D01*
X222309383Y-102228273D01*
X222668652Y-101950265D01*
X222748103Y-101888193D01*
X223121927Y-101596801D01*
X223463403Y-101332771D01*
X223751919Y-101111871D01*
X223966863Y-100949866D01*
X224087621Y-100862525D01*
X224096836Y-100856526D01*
X224235715Y-100734621D01*
X224291692Y-100648177D01*
X224334232Y-100503499D01*
X224389114Y-100270118D01*
X224448793Y-99987030D01*
X224505726Y-99693228D01*
X224521525Y-99603280D01*
X225452639Y-99603280D01*
X225475699Y-99690348D01*
X225557522Y-99688395D01*
X225654722Y-99629525D01*
X232320028Y-99629525D01*
X232460092Y-99693085D01*
X232744561Y-99730867D01*
X232800279Y-99734552D01*
X232911211Y-99732614D01*
X232929836Y-99681361D01*
X232866109Y-99541430D01*
X232854710Y-99519342D01*
X232751522Y-99349646D01*
X232653881Y-99305851D01*
X232511668Y-99374249D01*
X232458117Y-99410881D01*
X232320620Y-99536640D01*
X232320028Y-99629525D01*
X225654722Y-99629525D01*
X225717070Y-99591763D01*
X225865587Y-99480069D01*
X225963829Y-99385042D01*
X225942504Y-99319954D01*
X225903161Y-99292081D01*
X225697217Y-99218271D01*
X225546018Y-99279430D01*
X225463631Y-99465840D01*
X225452639Y-99603280D01*
X224521525Y-99603280D01*
X224552365Y-99427707D01*
X224581166Y-99229459D01*
X224584584Y-99137480D01*
X224584164Y-99136687D01*
X224502090Y-99114692D01*
X224299762Y-99089480D01*
X224007091Y-99064078D01*
X223653989Y-99041514D01*
X223632224Y-99040353D01*
X222417459Y-98976393D01*
X221345143Y-98920242D01*
X220407653Y-98871533D01*
X219597366Y-98829902D01*
X218906658Y-98794979D01*
X218327906Y-98766400D01*
X217853486Y-98743797D01*
X217475775Y-98726803D01*
X217187149Y-98715051D01*
X216979985Y-98708176D01*
X216846658Y-98705810D01*
X216779547Y-98707586D01*
X216768123Y-98710169D01*
X207205290Y-98710169D01*
X207155477Y-98707970D01*
X206942543Y-98712550D01*
X206613871Y-98724321D01*
X206186605Y-98742358D01*
X205677889Y-98765737D01*
X205104865Y-98793535D01*
X204484676Y-98824826D01*
X203834467Y-98858687D01*
X203171380Y-98894195D01*
X202512559Y-98930424D01*
X201875146Y-98966451D01*
X201276286Y-99001351D01*
X200733121Y-99034201D01*
X200262795Y-99064077D01*
X199882451Y-99090054D01*
X199609232Y-99111209D01*
X199460281Y-99126617D01*
X199437816Y-99131824D01*
X199429613Y-99222443D01*
X189790069Y-99222443D01*
X190717087Y-97716262D01*
X191836750Y-96168715D01*
X191986303Y-95991477D01*
X193754231Y-95991477D01*
X193754608Y-95992892D01*
X193821245Y-96064349D01*
X193988957Y-96210550D01*
X194238647Y-96416717D01*
X194551219Y-96668070D01*
X194907578Y-96949830D01*
X195288627Y-97247219D01*
X195675271Y-97545457D01*
X196048414Y-97829767D01*
X196388959Y-98085368D01*
X196677812Y-98297483D01*
X196895875Y-98451332D01*
X197024053Y-98532137D01*
X197046722Y-98540744D01*
X197170566Y-98527982D01*
X197397804Y-98492665D01*
X197684463Y-98441766D01*
X197755764Y-98428284D01*
X198036836Y-98371546D01*
X198255226Y-98321909D01*
X198373572Y-98288043D01*
X198383697Y-98282564D01*
X198399405Y-98200351D01*
X198403382Y-98166679D01*
X199291951Y-98166679D01*
X199540786Y-98167741D01*
X199662417Y-98164319D01*
X199919108Y-98154098D01*
X200295810Y-98137768D01*
X200777475Y-98116021D01*
X201349053Y-98089551D01*
X201995496Y-98059048D01*
X202701755Y-98025204D01*
X203452781Y-97988713D01*
X203734888Y-97974880D01*
X204492235Y-97937203D01*
X205205213Y-97900861D01*
X205859535Y-97866643D01*
X206440913Y-97835338D01*
X206935061Y-97807733D01*
X207327691Y-97784619D01*
X207604516Y-97766782D01*
X207751248Y-97755012D01*
X207770352Y-97752167D01*
X207809135Y-97694028D01*
X207803927Y-97619499D01*
X216209444Y-97619499D01*
X216219051Y-97679675D01*
X216263327Y-97723148D01*
X216365452Y-97754400D01*
X216548608Y-97777910D01*
X216835975Y-97798161D01*
X217242728Y-97819245D01*
X217633321Y-97838413D01*
X218117673Y-97862506D01*
X218672914Y-97890356D01*
X219276175Y-97920798D01*
X219904587Y-97952664D01*
X220535279Y-97984789D01*
X221145384Y-98016005D01*
X221712030Y-98045146D01*
X222212351Y-98071046D01*
X222623475Y-98092537D01*
X222922534Y-98108454D01*
X223047905Y-98115367D01*
X223331208Y-98128687D01*
X223691182Y-98141802D01*
X224054224Y-98152058D01*
X224085794Y-98152778D01*
X224710369Y-98166679D01*
X224668116Y-97847300D01*
X224652252Y-97699671D01*
X224625879Y-97421483D01*
X224590688Y-97031980D01*
X224548373Y-96550402D01*
X224500624Y-95995993D01*
X224449135Y-95387993D01*
X224398853Y-94785022D01*
X224344443Y-94129550D01*
X224291620Y-93496834D01*
X224242215Y-92908546D01*
X224198061Y-92386361D01*
X224160988Y-91951953D01*
X224132829Y-91626997D01*
X224132165Y-91619573D01*
X225068164Y-91619573D01*
X225077869Y-91832375D01*
X225097782Y-92158013D01*
X225126418Y-92578046D01*
X225162293Y-93074035D01*
X225203922Y-93627539D01*
X225249819Y-94220117D01*
X225298501Y-94833329D01*
X225348482Y-95448735D01*
X225398276Y-96047895D01*
X225446401Y-96612367D01*
X225491370Y-97123711D01*
X225531698Y-97563487D01*
X225565901Y-97913255D01*
X225592494Y-98154574D01*
X225609993Y-98269004D01*
X225612670Y-98275532D01*
X225709222Y-98312913D01*
X225910164Y-98362683D01*
X226171034Y-98416455D01*
X226447369Y-98465845D01*
X226694706Y-98502468D01*
X226868581Y-98517939D01*
X226895705Y-98517498D01*
X227029665Y-98465545D01*
X227270242Y-98319062D01*
X227619029Y-98076942D01*
X228077618Y-97738078D01*
X228647600Y-97301362D01*
X228680469Y-97275836D01*
X229100477Y-96947604D01*
X229478549Y-96648564D01*
X229799217Y-96391244D01*
X230047010Y-96188169D01*
X230206461Y-96051867D01*
X230262107Y-95995029D01*
X230209893Y-95906552D01*
X230064934Y-95733564D01*
X229844752Y-95493678D01*
X229566871Y-95204509D01*
X229248813Y-94883672D01*
X228908102Y-94548781D01*
X228562261Y-94217450D01*
X228228813Y-93907294D01*
X227925280Y-93635926D01*
X227854106Y-93574482D01*
X227490958Y-93270908D01*
X227099551Y-92956037D01*
X226697792Y-92642969D01*
X226303592Y-92344802D01*
X225934858Y-92074639D01*
X225609499Y-91845577D01*
X225345423Y-91670718D01*
X225160540Y-91563162D01*
X225072759Y-91536008D01*
X225070153Y-91538048D01*
X225068164Y-91619573D01*
X224132165Y-91619573D01*
X224117122Y-91451436D01*
X224062403Y-90860749D01*
X223310923Y-90456351D01*
X222950284Y-90271449D01*
X222503504Y-90056079D01*
X222024082Y-89835354D01*
X221565518Y-89634384D01*
X221507373Y-89609818D01*
X221103599Y-89444959D01*
X220670022Y-89276141D01*
X220229790Y-89111457D01*
X219806052Y-88959004D01*
X219421956Y-88826875D01*
X219100651Y-88723165D01*
X218865285Y-88655970D01*
X218739008Y-88633383D01*
X218725334Y-88636982D01*
X218697022Y-88715976D01*
X218633062Y-88924700D01*
X218537702Y-89247983D01*
X218415194Y-89670650D01*
X218269786Y-90177531D01*
X218105728Y-90753451D01*
X217927270Y-91383238D01*
X217738661Y-92051719D01*
X217544152Y-92743723D01*
X217347992Y-93444075D01*
X217154430Y-94137604D01*
X216967716Y-94809136D01*
X216792100Y-95443499D01*
X216631832Y-96025521D01*
X216491161Y-96540028D01*
X216374337Y-96971848D01*
X216285610Y-97305808D01*
X216229229Y-97526736D01*
X216209444Y-97619458D01*
X216209444Y-97619499D01*
X207803927Y-97619499D01*
X207798704Y-97544761D01*
X207736886Y-97282081D01*
X207717707Y-97212335D01*
X207637909Y-96927337D01*
X210197610Y-96927337D01*
X210215203Y-96963027D01*
X210279178Y-96990418D01*
X210406326Y-97010554D01*
X210613440Y-97024479D01*
X210917312Y-97033237D01*
X211334733Y-97037871D01*
X211882497Y-97039426D01*
X212001160Y-97039460D01*
X212575965Y-97038335D01*
X213017194Y-97034275D01*
X213341551Y-97026253D01*
X213565744Y-97013241D01*
X213706479Y-96994211D01*
X213780463Y-96968136D01*
X213804401Y-96933988D01*
X213804710Y-96928529D01*
X213763229Y-96836029D01*
X213649400Y-96647945D01*
X213479141Y-96386825D01*
X213268373Y-96075221D01*
X213033016Y-95735683D01*
X212788989Y-95390762D01*
X212552212Y-95063009D01*
X212338605Y-94774973D01*
X212164088Y-94549207D01*
X212044580Y-94408260D01*
X211999705Y-94371708D01*
X211934295Y-94430494D01*
X211801493Y-94591801D01*
X211617216Y-94833059D01*
X211397379Y-95131695D01*
X211157900Y-95465138D01*
X210914694Y-95810816D01*
X210683679Y-96146158D01*
X210480770Y-96448590D01*
X210321885Y-96695542D01*
X210222939Y-96864442D01*
X210197610Y-96927337D01*
X207637909Y-96927337D01*
X207512766Y-96480394D01*
X207297571Y-95714138D01*
X207075889Y-94926802D01*
X206851486Y-94131623D01*
X206628127Y-93341836D01*
X206409579Y-92570677D01*
X206199607Y-91831382D01*
X206158507Y-91687014D01*
X209238859Y-91687014D01*
X209245048Y-91779653D01*
X209276185Y-91998839D01*
X209328770Y-92323543D01*
X209399304Y-92732732D01*
X209484286Y-93205376D01*
X209554965Y-93586539D01*
X209649442Y-94092446D01*
X209733918Y-94550070D01*
X209804608Y-94938471D01*
X209857727Y-95236710D01*
X209889489Y-95423848D01*
X209897018Y-95478624D01*
X209914907Y-95530450D01*
X209974589Y-95504119D01*
X210085081Y-95389485D01*
X210255404Y-95176406D01*
X210494578Y-94854739D01*
X210680802Y-94597152D01*
X210908193Y-94271004D01*
X211097794Y-93980928D01*
X211234448Y-93751562D01*
X211302999Y-93607545D01*
X211303272Y-93605858D01*
X212715065Y-93605858D01*
X212755275Y-93713396D01*
X212863939Y-93904799D01*
X213023108Y-94154865D01*
X213214833Y-94438396D01*
X213421165Y-94730189D01*
X213624156Y-95005047D01*
X213805855Y-95237767D01*
X213948314Y-95403150D01*
X214033585Y-95475995D01*
X214046452Y-95475114D01*
X214075519Y-95388302D01*
X214127106Y-95174375D01*
X214196807Y-94854084D01*
X214280214Y-94448178D01*
X214372923Y-93977408D01*
X214446425Y-93591490D01*
X214540014Y-93084325D01*
X214621700Y-92624729D01*
X214687997Y-92233745D01*
X214735417Y-91932416D01*
X214760474Y-91741784D01*
X214762474Y-91684054D01*
X214701741Y-91700175D01*
X214555854Y-91804753D01*
X214344895Y-91978938D01*
X214088946Y-92203882D01*
X213808088Y-92460736D01*
X213522401Y-92730650D01*
X213251967Y-92994776D01*
X213016867Y-93234263D01*
X212837182Y-93430263D01*
X212732993Y-93563927D01*
X212715065Y-93605858D01*
X211303272Y-93605858D01*
X211307772Y-93578048D01*
X211249578Y-93491079D01*
X211104179Y-93331507D01*
X210892037Y-93118038D01*
X210633614Y-92869372D01*
X210349373Y-92604213D01*
X210059774Y-92341264D01*
X209785281Y-92099228D01*
X209546355Y-91896808D01*
X209363458Y-91752706D01*
X209257053Y-91685625D01*
X209238859Y-91687014D01*
X206158507Y-91687014D01*
X206001977Y-91137187D01*
X205820455Y-90501328D01*
X205658807Y-89937040D01*
X205520798Y-89457560D01*
X205410196Y-89076123D01*
X205330765Y-88805964D01*
X205286271Y-88660321D01*
X205278171Y-88638168D01*
X205193594Y-88645354D01*
X204993015Y-88698402D01*
X204700633Y-88789015D01*
X204340642Y-88908894D01*
X203937242Y-89049741D01*
X203514628Y-89203259D01*
X203096997Y-89361150D01*
X202708547Y-89515115D01*
X202645243Y-89541090D01*
X202259561Y-89706530D01*
X201842471Y-89896002D01*
X201416691Y-90097991D01*
X201004941Y-90300977D01*
X200629939Y-90493444D01*
X200314403Y-90663874D01*
X200081052Y-90800748D01*
X199952604Y-90892550D01*
X199935401Y-90914904D01*
X199924489Y-91003396D01*
X199902860Y-91226049D01*
X199871875Y-91567213D01*
X199832898Y-92011240D01*
X199787291Y-92542480D01*
X199736416Y-93145285D01*
X199681635Y-93804006D01*
X199644233Y-94258987D01*
X199586740Y-94957043D01*
X199531534Y-95618811D01*
X199480102Y-96227068D01*
X199433930Y-96764593D01*
X199394507Y-97214166D01*
X199363320Y-97558565D01*
X199341855Y-97780569D01*
X199334336Y-97847300D01*
X199291951Y-98166679D01*
X198403382Y-98166679D01*
X198424614Y-97986915D01*
X198457822Y-97660693D01*
X198497530Y-97240120D01*
X198542236Y-96743634D01*
X198590438Y-96189669D01*
X198640636Y-95596662D01*
X198691328Y-94983049D01*
X198741015Y-94367266D01*
X198788193Y-93767748D01*
X198831363Y-93202932D01*
X198869024Y-92691254D01*
X198899674Y-92251150D01*
X198921812Y-91901056D01*
X198933937Y-91659407D01*
X198934548Y-91544641D01*
X198932835Y-91538048D01*
X198854889Y-91557163D01*
X198678228Y-91657761D01*
X198420879Y-91826672D01*
X198100872Y-92050725D01*
X197736236Y-92316749D01*
X197344998Y-92611572D01*
X196945189Y-92922023D01*
X196554836Y-93234932D01*
X196191968Y-93537128D01*
X196165310Y-93559895D01*
X195826605Y-93857650D01*
X195467377Y-94187089D01*
X195104007Y-94531679D01*
X194752879Y-94874884D01*
X194430374Y-95200173D01*
X194152874Y-95491010D01*
X193936762Y-95730862D01*
X193798420Y-95903196D01*
X193754231Y-95991477D01*
X191986303Y-95991477D01*
X193071029Y-94705947D01*
X194415606Y-93334339D01*
X195866162Y-92060272D01*
X197418379Y-90890126D01*
X199067938Y-89830282D01*
X199338734Y-89672449D01*
X200992847Y-88806610D01*
X202722565Y-88064051D01*
X202931402Y-87992222D01*
X208534619Y-87992222D01*
X208557244Y-88185106D01*
X208598264Y-88461479D01*
X208652252Y-88789370D01*
X208713786Y-89136814D01*
X208777440Y-89471841D01*
X208837791Y-89762484D01*
X208879124Y-89937981D01*
X208945802Y-90036322D01*
X209106125Y-90213945D01*
X209340699Y-90451083D01*
X209630127Y-90727967D01*
X209874469Y-90952478D01*
X210240705Y-91285061D01*
X210614842Y-91627880D01*
X210962631Y-91949350D01*
X211249821Y-92217884D01*
X211359816Y-92322265D01*
X211598037Y-92539576D01*
X211805914Y-92710095D01*
X211954103Y-92810688D01*
X212001160Y-92827876D01*
X212103937Y-92778541D01*
X212280283Y-92647002D01*
X212498162Y-92457991D01*
X212581177Y-92380085D01*
X212870908Y-92105944D01*
X213189858Y-91809522D01*
X213471235Y-91552868D01*
X213482952Y-91542343D01*
X213733012Y-91315518D01*
X214042566Y-91031251D01*
X214361876Y-90735329D01*
X214514924Y-90592360D01*
X215112416Y-90032303D01*
X215311588Y-89008219D01*
X215380652Y-88633850D01*
X215432684Y-88313472D01*
X215463646Y-88075236D01*
X215469502Y-87947290D01*
X215465575Y-87934408D01*
X215355445Y-87891945D01*
X215115735Y-87850118D01*
X214767160Y-87810370D01*
X214330434Y-87774144D01*
X213826271Y-87742883D01*
X213275385Y-87718030D01*
X212698490Y-87701030D01*
X212116301Y-87693324D01*
X212001160Y-87693026D01*
X211468194Y-87697749D01*
X210918346Y-87711657D01*
X210374672Y-87733277D01*
X209860229Y-87761131D01*
X209398074Y-87793745D01*
X209011263Y-87829643D01*
X208722852Y-87867349D01*
X208555899Y-87905388D01*
X208535813Y-87914793D01*
X208534619Y-87992222D01*
X202931402Y-87992222D01*
X204512545Y-87448393D01*
X206347444Y-86963258D01*
X208211922Y-86612269D01*
X210090636Y-86399048D01*
X211968244Y-86327218D01*
X213339600Y-86366736D01*
X215334706Y-86554883D01*
X217280483Y-86883987D01*
X219173491Y-87352542D01*
X221010289Y-87959045D01*
X222787435Y-88701991D01*
X224501488Y-89579874D01*
X226149009Y-90591192D01*
X227726555Y-91734438D01*
X229230687Y-93008109D01*
X229839933Y-93581805D01*
X231178945Y-94985256D01*
X232399282Y-96475875D01*
X233498204Y-98045701D01*
X234472970Y-99686773D01*
X235320840Y-101391127D01*
X236039072Y-103150804D01*
X236624927Y-104957840D01*
X237075663Y-106804275D01*
X237388540Y-108682146D01*
X237560817Y-110583492D01*
X237589754Y-112500351D01*
X237472610Y-114424761D01*
X237354850Y-115412914D01*
X237010084Y-117353882D01*
X236524219Y-119245632D01*
X235899797Y-121083164D01*
X235139364Y-122861478D01*
X234245465Y-124575574D01*
X233220642Y-126220450D01*
X232067441Y-127791107D01*
X230788406Y-129282545D01*
X229764398Y-130330337D01*
X228324405Y-131621890D01*
X226795038Y-132796372D01*
X225185007Y-133849763D01*
X223503020Y-134778040D01*
X221757785Y-135577182D01*
X219958011Y-136243170D01*
X218112406Y-136771981D01*
X216229680Y-137159596D01*
X214481042Y-137387213D01*
X214013154Y-137423950D01*
X213460548Y-137455647D01*
X212863744Y-137481043D01*
X212263267Y-137498881D01*
X211699636Y-137507902D01*
X211213376Y-137506846D01*
X210911515Y-137498105D01*
X208932480Y-137329379D01*
X206992788Y-137017032D01*
X205097810Y-136563388D01*
X203252916Y-135970768D01*
X201463479Y-135241495D01*
X199734870Y-134377893D01*
X198072459Y-133382285D01*
X196481619Y-132256992D01*
X194967720Y-131004339D01*
X194162508Y-130254845D01*
X194013632Y-130098948D01*
X195994651Y-130098948D01*
X196051830Y-130173520D01*
X196210007Y-130321052D01*
X196449139Y-130525406D01*
X196749185Y-130770445D01*
X197090103Y-131040029D01*
X197451852Y-131318023D01*
X197814389Y-131588286D01*
X198098793Y-131793234D01*
X198812698Y-132298089D01*
X198838934Y-132084307D01*
X198841166Y-131951808D01*
X198833545Y-131692611D01*
X198817201Y-131329911D01*
X198793269Y-130886906D01*
X198762879Y-130386790D01*
X198736780Y-129991827D01*
X198700609Y-129476831D01*
X198666191Y-129013396D01*
X198635199Y-128622002D01*
X198609307Y-128323130D01*
X198590188Y-128137257D01*
X198580852Y-128083633D01*
X198508146Y-128096571D01*
X198457562Y-128129987D01*
X198370658Y-128197752D01*
X198184662Y-128342087D01*
X197919388Y-128547641D01*
X197594652Y-128799060D01*
X197230268Y-129080992D01*
X197178231Y-129121240D01*
X196816771Y-129403789D01*
X196499868Y-129657224D01*
X196245507Y-129866688D01*
X196071677Y-130017321D01*
X195996363Y-130094266D01*
X195994651Y-130098948D01*
X194013632Y-130098948D01*
X192822746Y-128851901D01*
X191611362Y-127373233D01*
G37*
G36*
X230019470Y-76482410D02*
G01*
X230204254Y-76573082D01*
X230462701Y-76706278D01*
X230706238Y-76835389D01*
X232829659Y-78058505D01*
X234865068Y-79401837D01*
X236808139Y-80860957D01*
X238654546Y-82431433D01*
X240399962Y-84108837D01*
X242040061Y-85888737D01*
X243570516Y-87766705D01*
X244987001Y-89738310D01*
X246285189Y-91799123D01*
X247460754Y-93944713D01*
X247509128Y-94040074D01*
X248530200Y-96222820D01*
X249411450Y-98456263D01*
X250153643Y-100743047D01*
X250757543Y-103085816D01*
X251223913Y-105487213D01*
X251553517Y-107949882D01*
X251567595Y-108086206D01*
X251592485Y-108380627D01*
X251617832Y-108769917D01*
X251643022Y-109234465D01*
X251667442Y-109754657D01*
X251690479Y-110310883D01*
X251711519Y-110883531D01*
X251729948Y-111452989D01*
X251745154Y-111999646D01*
X251756523Y-112503890D01*
X251763441Y-112946110D01*
X251765295Y-113306694D01*
X251761472Y-113566031D01*
X251751357Y-113704508D01*
X251743883Y-113722300D01*
X251715902Y-113653414D01*
X251663970Y-113465299D01*
X251595222Y-113185775D01*
X251516791Y-112842659D01*
X251507772Y-112801738D01*
X251070850Y-111115530D01*
X250496498Y-109398463D01*
X249791286Y-107662722D01*
X248961781Y-105920496D01*
X248014553Y-104183971D01*
X246956171Y-102465335D01*
X245793204Y-100776774D01*
X244532221Y-99130477D01*
X243437673Y-97829701D01*
X243135723Y-97454525D01*
X242834439Y-97027620D01*
X242582948Y-96619472D01*
X242542314Y-96545104D01*
X241761461Y-95112957D01*
X241013513Y-93817515D01*
X240292699Y-92650248D01*
X239593248Y-91602628D01*
X238909388Y-90666125D01*
X238235347Y-89832210D01*
X237565355Y-89092354D01*
X237352457Y-88875655D01*
X236471012Y-88065368D01*
X235585157Y-87393476D01*
X234675849Y-86848788D01*
X233724045Y-86420118D01*
X232710702Y-86096277D01*
X232554118Y-86056519D01*
X232110867Y-85973741D01*
X231579160Y-85915646D01*
X230997701Y-85882638D01*
X230405194Y-85875121D01*
X229840341Y-85893497D01*
X229341847Y-85938169D01*
X228948414Y-86009542D01*
X228914809Y-86018592D01*
X228244225Y-86261187D01*
X227701811Y-86579241D01*
X227283089Y-86977550D01*
X226983583Y-87460908D01*
X226798814Y-88034113D01*
X226750232Y-88336812D01*
X226692580Y-88831916D01*
X225946390Y-88389848D01*
X225618929Y-88192303D01*
X225386127Y-88035281D01*
X225212098Y-87884827D01*
X225060956Y-87706987D01*
X224896818Y-87467804D01*
X224781597Y-87287711D01*
X224272286Y-86507285D01*
X223778081Y-85801891D01*
X223278392Y-85147851D01*
X222752628Y-84521487D01*
X222180198Y-83899122D01*
X221540510Y-83257079D01*
X220812975Y-82571681D01*
X220192284Y-82010475D01*
X219922666Y-81764523D01*
X219699674Y-81550590D01*
X219544719Y-81389993D01*
X219479212Y-81304048D01*
X219478379Y-81299714D01*
X219544979Y-81242858D01*
X219713643Y-81183864D01*
X219816545Y-81160545D01*
X220272448Y-81064674D01*
X220819043Y-80936850D01*
X221416167Y-80787636D01*
X222023656Y-80627590D01*
X222601349Y-80467273D01*
X223109082Y-80317246D01*
X223480550Y-80197155D01*
X224028670Y-80008566D01*
X224461872Y-79863377D01*
X224807274Y-79755847D01*
X225091992Y-79680238D01*
X225343145Y-79630808D01*
X225587849Y-79601819D01*
X225853222Y-79587530D01*
X226166383Y-79582201D01*
X226391988Y-79580901D01*
X227128833Y-79595715D01*
X227752969Y-79649362D01*
X228139178Y-79711077D01*
X228485305Y-79787491D01*
X228715575Y-79857387D01*
X228822617Y-79915945D01*
X228799059Y-79958344D01*
X228637533Y-79979764D01*
X228552491Y-79981407D01*
X228152089Y-80019106D01*
X227684214Y-80120817D01*
X227192359Y-80271434D01*
X226720013Y-80455850D01*
X226310668Y-80658958D01*
X226008495Y-80865063D01*
X225772725Y-81146261D01*
X225681160Y-81449927D01*
X225731203Y-81766309D01*
X225920254Y-82085656D01*
X226245718Y-82398219D01*
X226456726Y-82547575D01*
X226906180Y-82802079D01*
X227350792Y-82969580D01*
X227837713Y-83062719D01*
X228414093Y-83094138D01*
X228496130Y-83094353D01*
X228947582Y-83081439D01*
X229311447Y-83039297D01*
X229648972Y-82959608D01*
X229773645Y-82920840D01*
X230422135Y-82663749D01*
X230982845Y-82349758D01*
X231437319Y-81991849D01*
X231767102Y-81603001D01*
X231850730Y-81459912D01*
X232014933Y-80979177D01*
X232046837Y-80435024D01*
X231948048Y-79832281D01*
X231720176Y-79175774D01*
X231364829Y-78470331D01*
X230883614Y-77720782D01*
X230386786Y-77064922D01*
X230187940Y-76813406D01*
X230036309Y-76611471D01*
X229949262Y-76482927D01*
X229937522Y-76448927D01*
X230019470Y-76482410D01*
G37*
G36*
X170046903Y-107381399D02*
G01*
X170111886Y-106808691D01*
X170488571Y-104329360D01*
X171008639Y-101889902D01*
X171669222Y-99495560D01*
X172467452Y-97151580D01*
X173400460Y-94863203D01*
X174465378Y-92635675D01*
X175659336Y-90474239D01*
X176979467Y-88384138D01*
X178422902Y-86370617D01*
X179986772Y-84438918D01*
X181668210Y-82594287D01*
X183464345Y-80841965D01*
X185098201Y-79413105D01*
X187061068Y-77878976D01*
X189107371Y-76468097D01*
X191230902Y-75183082D01*
X193425452Y-74026546D01*
X195684812Y-73001104D01*
X198002773Y-72109371D01*
X200373127Y-71353962D01*
X202789664Y-70737493D01*
X205246176Y-70262577D01*
X207567432Y-69949565D01*
X208708337Y-69850852D01*
X209954743Y-69784504D01*
X211265380Y-69750519D01*
X212598980Y-69748897D01*
X213914272Y-69779637D01*
X215169987Y-69842739D01*
X216324857Y-69938203D01*
X216434888Y-69949708D01*
X218923299Y-70289966D01*
X221374036Y-70773566D01*
X223781505Y-71397531D01*
X226140112Y-72158883D01*
X228444263Y-73054644D01*
X230688365Y-74081838D01*
X232866824Y-75237485D01*
X234974047Y-76518610D01*
X237004439Y-77922233D01*
X238952408Y-79445379D01*
X240812360Y-81085068D01*
X242578701Y-82838323D01*
X244245837Y-84702168D01*
X244324421Y-84795739D01*
X245887977Y-86778620D01*
X247324407Y-88839278D01*
X248631468Y-90972559D01*
X249806922Y-93173305D01*
X250848525Y-95436361D01*
X251754039Y-97756569D01*
X252521221Y-100128773D01*
X253147831Y-102547816D01*
X253631627Y-105008543D01*
X253890947Y-106808691D01*
X254060873Y-108555264D01*
X254157584Y-110386043D01*
X254181081Y-112254618D01*
X254131364Y-114114579D01*
X254008436Y-115919515D01*
X253890795Y-117028809D01*
X253513359Y-119502452D01*
X252994024Y-121933277D01*
X252336372Y-124316210D01*
X251543984Y-126646176D01*
X250620440Y-128918100D01*
X249569322Y-131126908D01*
X248394211Y-133267526D01*
X247098688Y-135334877D01*
X245686335Y-137323888D01*
X244160732Y-139229485D01*
X242525460Y-141046591D01*
X240784101Y-142770133D01*
X238940235Y-144395036D01*
X236997445Y-145916225D01*
X234959310Y-147328625D01*
X232829412Y-148627163D01*
X230840748Y-149692420D01*
X228782016Y-150649830D01*
X226631596Y-151503821D01*
X224412947Y-152247567D01*
X222149528Y-152874242D01*
X219864797Y-153377021D01*
X217582213Y-153749078D01*
X216428071Y-153886129D01*
X216062724Y-153919589D01*
X215602704Y-153955082D01*
X215074767Y-153991174D01*
X214505670Y-154026433D01*
X213922171Y-154059423D01*
X213351025Y-154088713D01*
X212818991Y-154112869D01*
X212352824Y-154130457D01*
X211979282Y-154140044D01*
X211725121Y-154140196D01*
X211700568Y-154139383D01*
X211539341Y-154132644D01*
X211258817Y-154120606D01*
X210889846Y-154104607D01*
X210463281Y-154085983D01*
X210122462Y-154071023D01*
X207612735Y-153886128D01*
X205130946Y-153554644D01*
X202682501Y-153078506D01*
X200272803Y-152459648D01*
X197907258Y-151700003D01*
X195591269Y-150801505D01*
X193330242Y-149766089D01*
X191129581Y-148595688D01*
X188994691Y-147292236D01*
X186930975Y-145857668D01*
X186709978Y-145693020D01*
X184743843Y-144125654D01*
X182884534Y-142455177D01*
X181135139Y-140686923D01*
X179498746Y-138826228D01*
X177978446Y-136878424D01*
X176577326Y-134848845D01*
X175298475Y-132742826D01*
X174144982Y-130565701D01*
X173119936Y-128322803D01*
X172226425Y-126019467D01*
X171467539Y-123661027D01*
X170846366Y-121252817D01*
X170365995Y-118800170D01*
X170111373Y-117028809D01*
X169931711Y-115163805D01*
X169835435Y-113220161D01*
X169822544Y-111244279D01*
X169829189Y-111059353D01*
X171151511Y-111059353D01*
X171172804Y-113521873D01*
X171276883Y-115262833D01*
X171550125Y-117713290D01*
X171968924Y-120131419D01*
X172530973Y-122511821D01*
X173233966Y-124849097D01*
X174075594Y-127137845D01*
X175053553Y-129372668D01*
X176165534Y-131548166D01*
X177409231Y-133658938D01*
X178782337Y-135699585D01*
X180282546Y-137664709D01*
X181422206Y-139009578D01*
X181761034Y-139380932D01*
X182185410Y-139827791D01*
X182669632Y-140324609D01*
X183187998Y-140845834D01*
X183714807Y-141365918D01*
X184224356Y-141859312D01*
X184690944Y-142300467D01*
X185088868Y-142663833D01*
X185173349Y-142738424D01*
X186953841Y-144203556D01*
X188839408Y-145577516D01*
X190813201Y-146850894D01*
X192858376Y-148014285D01*
X194958085Y-149058279D01*
X197095482Y-149973470D01*
X199253719Y-150750449D01*
X199868802Y-150944814D01*
X201604410Y-151439179D01*
X203317783Y-151849746D01*
X205042152Y-152182253D01*
X206810745Y-152442439D01*
X208656791Y-152636043D01*
X210347905Y-152754571D01*
X210664833Y-152764843D01*
X211102325Y-152768610D01*
X211630819Y-152766508D01*
X212220755Y-152759173D01*
X212842570Y-152747243D01*
X213466703Y-152731354D01*
X214063593Y-152712141D01*
X214603677Y-152690242D01*
X215057394Y-152666294D01*
X215321956Y-152647476D01*
X217799555Y-152365711D01*
X220239444Y-151939840D01*
X222636775Y-151371885D01*
X224986697Y-150663865D01*
X227284362Y-149817800D01*
X229524919Y-148835712D01*
X231703520Y-147719620D01*
X233815314Y-146471545D01*
X235855452Y-145093507D01*
X237819086Y-143587528D01*
X238565953Y-142963528D01*
X239023957Y-142558790D01*
X239554305Y-142068792D01*
X240129499Y-141520617D01*
X240722043Y-140941347D01*
X241304438Y-140358063D01*
X241849188Y-139797849D01*
X242328796Y-139287785D01*
X242580518Y-139009578D01*
X244158825Y-137118909D01*
X245615893Y-135143151D01*
X246948647Y-133088796D01*
X248154014Y-130962333D01*
X249228919Y-128770252D01*
X250170288Y-126519042D01*
X250975047Y-124215195D01*
X251640123Y-121865199D01*
X252162441Y-119475546D01*
X252351282Y-118381472D01*
X252655949Y-115999150D01*
X252821439Y-113591336D01*
X252848134Y-111174789D01*
X252736418Y-108766266D01*
X252486677Y-106382528D01*
X252099293Y-104040331D01*
X252012985Y-103614904D01*
X251433708Y-101204171D01*
X250715430Y-98847121D01*
X249861276Y-96548546D01*
X248874368Y-94313242D01*
X247757829Y-92146004D01*
X246514780Y-90051624D01*
X245148347Y-88034899D01*
X243661650Y-86100621D01*
X242057813Y-84253586D01*
X240339959Y-82498587D01*
X238511211Y-80840419D01*
X236574691Y-79283877D01*
X235785479Y-78701494D01*
X233753516Y-77329728D01*
X231654264Y-76090253D01*
X229493897Y-74984241D01*
X227278592Y-74012868D01*
X225014524Y-73177307D01*
X222707870Y-72478730D01*
X220364804Y-71918312D01*
X217991502Y-71497227D01*
X215594140Y-71216648D01*
X213178895Y-71077749D01*
X210751940Y-71081703D01*
X208319453Y-71229684D01*
X205887608Y-71522865D01*
X203462582Y-71962421D01*
X202044059Y-72289262D01*
X201381918Y-72460606D01*
X200692050Y-72650790D01*
X200011569Y-72848810D01*
X199377589Y-73043664D01*
X198827222Y-73224350D01*
X198512107Y-73336316D01*
X198225933Y-73441284D01*
X197972044Y-73532029D01*
X197803337Y-73589657D01*
X197798201Y-73591294D01*
X197346114Y-73749831D01*
X196783808Y-73972197D01*
X196132383Y-74249112D01*
X195412939Y-74571301D01*
X194646575Y-74929486D01*
X193854391Y-75314388D01*
X193663278Y-75409455D01*
X191536945Y-76555375D01*
X189475747Y-77833674D01*
X187488124Y-79237538D01*
X185582519Y-80760150D01*
X183767372Y-82394697D01*
X182051127Y-84134364D01*
X180442225Y-85972336D01*
X180180278Y-86293726D01*
X178692140Y-88257304D01*
X177331841Y-90296765D01*
X176101257Y-92406006D01*
X175002266Y-94578920D01*
X174036742Y-96809402D01*
X173206563Y-99091349D01*
X172513606Y-101418653D01*
X171959745Y-103785211D01*
X171546859Y-106184917D01*
X171276822Y-108611666D01*
X171151511Y-111059353D01*
X169829189Y-111059353D01*
X169893034Y-109282558D01*
X170046903Y-107381399D01*
G37*
G36*
X236679096Y-96212441D02*
G01*
X237239362Y-96435399D01*
X237787816Y-96804595D01*
X238321661Y-97318063D01*
X238838100Y-97973839D01*
X238942622Y-98127258D01*
X239227616Y-98580502D01*
X239484204Y-99046996D01*
X239724823Y-99554573D01*
X239961908Y-100131066D01*
X240207896Y-100804305D01*
X240420883Y-101435614D01*
X240619539Y-102021828D01*
X240793202Y-102482378D01*
X240954099Y-102837213D01*
X241114457Y-103106282D01*
X241286502Y-103309536D01*
X241482461Y-103466925D01*
X241714560Y-103598397D01*
X241759775Y-103620214D01*
X242016193Y-103806271D01*
X242286544Y-104117123D01*
X242557631Y-104529738D01*
X242816256Y-105021083D01*
X243049220Y-105568127D01*
X243243326Y-106147838D01*
X243276881Y-106267741D01*
X243372030Y-106744523D01*
X243427139Y-107290116D01*
X243440702Y-107850263D01*
X243411216Y-108370709D01*
X243346082Y-108762537D01*
X243110907Y-109432738D01*
X242744574Y-110099107D01*
X242264779Y-110737049D01*
X241689220Y-111321967D01*
X241246090Y-111681350D01*
X240915842Y-111912286D01*
X240562176Y-112139376D01*
X240208618Y-112349874D01*
X239878694Y-112531036D01*
X239595928Y-112670115D01*
X239383845Y-112754366D01*
X239265972Y-112771044D01*
X239252714Y-112761330D01*
X239246836Y-112663363D01*
X239265743Y-112466684D01*
X239292811Y-112288835D01*
X239326066Y-111962076D01*
X239307152Y-111613075D01*
X239255312Y-111286736D01*
X239198281Y-110916178D01*
X239194020Y-110619662D01*
X239252524Y-110347526D01*
X239383786Y-110050105D01*
X239569784Y-109724094D01*
X239753382Y-109393523D01*
X239942107Y-109013641D01*
X240070376Y-108724963D01*
X240166930Y-108474370D01*
X240229998Y-108256194D01*
X240266776Y-108024933D01*
X240284463Y-107735083D01*
X240290256Y-107341142D01*
X240290286Y-107334726D01*
X240289131Y-106948544D01*
X240276948Y-106670640D01*
X240247083Y-106459057D01*
X240192880Y-106271840D01*
X240107681Y-106067034D01*
X240079353Y-106005123D01*
X239867326Y-105649169D01*
X239562230Y-105267201D01*
X239204829Y-104901599D01*
X238835890Y-104594745D01*
X238549674Y-104414810D01*
X238413470Y-104340719D01*
X238313512Y-104262314D01*
X238233202Y-104150743D01*
X238155942Y-103977159D01*
X238065131Y-103712711D01*
X237967278Y-103402589D01*
X237862940Y-103059510D01*
X237777879Y-102762967D01*
X237721150Y-102545707D01*
X237701752Y-102442635D01*
X237773796Y-102227862D01*
X237978596Y-102040673D01*
X238299155Y-101895899D01*
X238344013Y-101882249D01*
X238566276Y-101807328D01*
X238715104Y-101737419D01*
X238753823Y-101699065D01*
X238709369Y-101605209D01*
X238599023Y-101452173D01*
X238563494Y-101408822D01*
X238267803Y-101170215D01*
X237890983Y-101050866D01*
X237480676Y-101052202D01*
X237125962Y-101099256D01*
X236774229Y-100328086D01*
X236633227Y-100011410D01*
X236519330Y-99741270D01*
X236445334Y-99548971D01*
X236423367Y-99469661D01*
X236485613Y-99349497D01*
X236640306Y-99203360D01*
X236842245Y-99065619D01*
X237046226Y-98970645D01*
X237098768Y-98956128D01*
X237257281Y-98902156D01*
X237325935Y-98840812D01*
X237326012Y-98839036D01*
X237264617Y-98753278D01*
X237105120Y-98625090D01*
X236884552Y-98477832D01*
X236639945Y-98334859D01*
X236408328Y-98219530D01*
X236251459Y-98161256D01*
X236028264Y-98121732D01*
X235844976Y-98123890D01*
X235821219Y-98129687D01*
X235736315Y-98129171D01*
X235639174Y-98060170D01*
X235510496Y-97902648D01*
X235330984Y-97636567D01*
X235300212Y-97588756D01*
X235095233Y-97252851D01*
X234975720Y-97005805D01*
X234934405Y-96818204D01*
X234964021Y-96660630D01*
X235038562Y-96529716D01*
X235252190Y-96321135D01*
X235554190Y-96193922D01*
X235965337Y-96140473D01*
X236109817Y-96137685D01*
X236679096Y-96212441D01*
G37*
G36*
X167406667Y-111881176D02*
G01*
X167410728Y-110930294D01*
X167421790Y-110100742D01*
X167441715Y-109363644D01*
X167472364Y-108690123D01*
X167515599Y-108051301D01*
X167573282Y-107418302D01*
X167647274Y-106762248D01*
X167739437Y-106054262D01*
X167818458Y-105493602D01*
X168258949Y-102962184D01*
X168842124Y-100472492D01*
X169564882Y-98029718D01*
X170424117Y-95639060D01*
X171416726Y-93305713D01*
X172539606Y-91034871D01*
X173789652Y-88831730D01*
X175163761Y-86701485D01*
X176658829Y-84649332D01*
X178271752Y-82680465D01*
X179999427Y-80800080D01*
X181838750Y-79013372D01*
X183786617Y-77325537D01*
X185398793Y-76066473D01*
X187491599Y-74599404D01*
X189657553Y-73261398D01*
X191890261Y-72053997D01*
X194183331Y-70978742D01*
X196530370Y-70037173D01*
X198924984Y-69230832D01*
X201360780Y-68561259D01*
X203831365Y-68029995D01*
X206330346Y-67638582D01*
X208851329Y-67388560D01*
X211387923Y-67281469D01*
X213933732Y-67318852D01*
X216482365Y-67502249D01*
X219027429Y-67833201D01*
X219343669Y-67884801D01*
X221892499Y-68385320D01*
X224394130Y-69027497D01*
X226844114Y-69809259D01*
X229238003Y-70728538D01*
X231571350Y-71783262D01*
X233839705Y-72971362D01*
X236038620Y-74290768D01*
X238163647Y-75739408D01*
X240210338Y-77315214D01*
X240969708Y-77949574D01*
X242788767Y-79594370D01*
X244526258Y-81348523D01*
X246170300Y-83197493D01*
X247709007Y-85126743D01*
X249130498Y-87121737D01*
X250422889Y-89167937D01*
X251076463Y-90313720D01*
X252219399Y-92527944D01*
X253224872Y-94758860D01*
X254096898Y-97019492D01*
X254839494Y-99322864D01*
X255456676Y-101682000D01*
X255952460Y-104109922D01*
X256330863Y-106619656D01*
X256464586Y-107785614D01*
X256502808Y-108198683D01*
X256533346Y-108638212D01*
X256556849Y-109124983D01*
X256573964Y-109679777D01*
X256585340Y-110323377D01*
X256591624Y-111076563D01*
X256593468Y-111918750D01*
X256590700Y-112862888D01*
X256581190Y-113685180D01*
X256563131Y-114413992D01*
X256534713Y-115077693D01*
X256494129Y-115704650D01*
X256439569Y-116323232D01*
X256369225Y-116961806D01*
X256281289Y-117648739D01*
X256183862Y-118343898D01*
X255743099Y-120873658D01*
X255156621Y-123372082D01*
X254427053Y-125831979D01*
X253557025Y-128246156D01*
X252549163Y-130607422D01*
X251406095Y-132908586D01*
X250130448Y-135142454D01*
X249923883Y-135477626D01*
X248507746Y-137612668D01*
X246971280Y-139663496D01*
X245321247Y-141623116D01*
X243564406Y-143484536D01*
X241707517Y-145240761D01*
X239757342Y-146884799D01*
X237720639Y-148409656D01*
X236837550Y-149015209D01*
X234624193Y-150405782D01*
X232362030Y-151654603D01*
X230049906Y-152762064D01*
X227686665Y-153728554D01*
X225271154Y-154554465D01*
X222802216Y-155240188D01*
X220278697Y-155786113D01*
X217699443Y-156192632D01*
X215063297Y-156460136D01*
X214781633Y-156480280D01*
X214415164Y-156499215D01*
X213933541Y-156514843D01*
X213366302Y-156527028D01*
X212742984Y-156535633D01*
X212093125Y-156540522D01*
X211446263Y-156541559D01*
X210831935Y-156538608D01*
X210279678Y-156531531D01*
X209819030Y-156520193D01*
X209483704Y-156504734D01*
X208924839Y-156462678D01*
X208278174Y-156405596D01*
X207588647Y-156338134D01*
X206901193Y-156264939D01*
X206260748Y-156190658D01*
X205712247Y-156119937D01*
X205576012Y-156100644D01*
X203037877Y-155656879D01*
X200546315Y-155072245D01*
X198106109Y-154350242D01*
X195722046Y-153494371D01*
X193398909Y-152508132D01*
X191141484Y-151395025D01*
X188954555Y-150158551D01*
X186842906Y-148802211D01*
X184811323Y-147329504D01*
X182864590Y-145743932D01*
X181007493Y-144048994D01*
X179244815Y-142248192D01*
X177581341Y-140345025D01*
X176021857Y-138342995D01*
X174571146Y-136245601D01*
X173233994Y-134056344D01*
X172015186Y-131778724D01*
X171836928Y-131417509D01*
X170819768Y-129180825D01*
X169936166Y-126910003D01*
X169183016Y-124593936D01*
X168557209Y-122221518D01*
X168055638Y-119781644D01*
X167675195Y-117263207D01*
X167537617Y-116051886D01*
X167498283Y-115626634D01*
X167466992Y-115189926D01*
X167443040Y-114719315D01*
X167425724Y-114192356D01*
X167414336Y-113586604D01*
X167408174Y-112879615D01*
X167406663Y-112114893D01*
X168750126Y-112114893D01*
X168756026Y-112985363D01*
X168770297Y-113823987D01*
X168792942Y-114604878D01*
X168823963Y-115302151D01*
X168863364Y-115889920D01*
X168889417Y-116164608D01*
X169246053Y-118780525D01*
X169738717Y-121332535D01*
X170367445Y-123820724D01*
X171132273Y-126245178D01*
X172033238Y-128605984D01*
X173070376Y-130903226D01*
X174243723Y-133136991D01*
X175553316Y-135307365D01*
X176999189Y-137414433D01*
X178581380Y-139458281D01*
X178831843Y-139761058D01*
X179280505Y-140280214D01*
X179818272Y-140872036D01*
X180420227Y-141511270D01*
X181061454Y-142172663D01*
X181717037Y-142830961D01*
X182362060Y-143460910D01*
X182971607Y-144037257D01*
X183520762Y-144534748D01*
X183670391Y-144665173D01*
X185671034Y-146292869D01*
X187743770Y-147789140D01*
X189885563Y-149152732D01*
X192093378Y-150382392D01*
X194364180Y-151476865D01*
X196694934Y-152434900D01*
X199082606Y-153255243D01*
X201524160Y-153936639D01*
X204016561Y-154477836D01*
X206556775Y-154877581D01*
X208995243Y-155123972D01*
X209432614Y-155148490D01*
X209989170Y-155167465D01*
X210633899Y-155180880D01*
X211335793Y-155188718D01*
X212063840Y-155190963D01*
X212787032Y-155187598D01*
X213474357Y-155178606D01*
X214094806Y-155163972D01*
X214617369Y-155143679D01*
X214894355Y-155127120D01*
X217491408Y-154866515D01*
X220037701Y-154464900D01*
X222532147Y-153922644D01*
X224973662Y-153240118D01*
X227361159Y-152417691D01*
X229693552Y-151455734D01*
X231969755Y-150354617D01*
X234188683Y-149114709D01*
X236111360Y-147896850D01*
X237872609Y-146643056D01*
X239611686Y-145260507D01*
X241305900Y-143770741D01*
X242932562Y-142195298D01*
X244468982Y-140555718D01*
X245892470Y-138873540D01*
X246660766Y-137882359D01*
X248136419Y-135788520D01*
X249476673Y-133629579D01*
X250681260Y-131406223D01*
X251749913Y-129119136D01*
X252682366Y-126769006D01*
X253478352Y-124356518D01*
X254137604Y-121882356D01*
X254659855Y-119347207D01*
X255044838Y-116751757D01*
X255111967Y-116164608D01*
X255156232Y-115646658D01*
X255192143Y-115005241D01*
X255219698Y-114266241D01*
X255238893Y-113455545D01*
X255249726Y-112599039D01*
X255252194Y-111722607D01*
X255246294Y-110852137D01*
X255232023Y-110013513D01*
X255209378Y-109232622D01*
X255178357Y-108535349D01*
X255138956Y-107947580D01*
X255112902Y-107672892D01*
X254780837Y-105187645D01*
X254334112Y-102789191D01*
X253768361Y-100462227D01*
X253079222Y-98191449D01*
X252262327Y-95961553D01*
X251313314Y-93757235D01*
X250890612Y-92868750D01*
X249741540Y-90676099D01*
X248481736Y-88576774D01*
X247104366Y-86561135D01*
X245602595Y-84619536D01*
X243969590Y-82742337D01*
X242962107Y-81681804D01*
X241135207Y-79912651D01*
X239255341Y-78281196D01*
X237313754Y-76781488D01*
X235301687Y-75407579D01*
X233210386Y-74153519D01*
X231031093Y-73013358D01*
X228755053Y-71981148D01*
X228571278Y-71904201D01*
X226228306Y-71010071D01*
X223836474Y-70256705D01*
X221401776Y-69644936D01*
X218930201Y-69175599D01*
X216427741Y-68849528D01*
X213900388Y-68667556D01*
X211354133Y-68630518D01*
X208794967Y-68739248D01*
X207003823Y-68902010D01*
X204573491Y-69246329D01*
X202156613Y-69737727D01*
X199761656Y-70373073D01*
X197397084Y-71149232D01*
X195071363Y-72063071D01*
X192792960Y-73111458D01*
X190570339Y-74291260D01*
X188411967Y-75599343D01*
X187774878Y-76018574D01*
X186125229Y-77193480D01*
X184482309Y-78497531D01*
X182867634Y-79910306D01*
X181302722Y-81411383D01*
X179809091Y-82980340D01*
X178408257Y-84596757D01*
X177411562Y-85854090D01*
X176532832Y-87064404D01*
X175653540Y-88379465D01*
X174799894Y-89756126D01*
X173998101Y-91151241D01*
X173274367Y-92521663D01*
X172916682Y-93254311D01*
X172689450Y-93735932D01*
X172511108Y-94117798D01*
X172366048Y-94435909D01*
X172238665Y-94726263D01*
X172113352Y-95024861D01*
X171974504Y-95367700D01*
X171806513Y-95790782D01*
X171699270Y-96062537D01*
X170919253Y-98200891D01*
X170259016Y-100361625D01*
X169713254Y-102566656D01*
X169276666Y-104837903D01*
X168943950Y-107197284D01*
X168890353Y-107672892D01*
X168846088Y-108190841D01*
X168810177Y-108832259D01*
X168782622Y-109571258D01*
X168763427Y-110381955D01*
X168752594Y-111238461D01*
X168750126Y-112114893D01*
X167406663Y-112114893D01*
X167406533Y-112048941D01*
X167406667Y-111881176D01*
G37*
G36*
X173601828Y-121303822D02*
G01*
X173697381Y-121458160D01*
X173825662Y-121692791D01*
X173905865Y-121849287D01*
X174347239Y-122663901D01*
X174780073Y-123329925D01*
X175205411Y-123848758D01*
X175624294Y-124221802D01*
X175723497Y-124289484D01*
X175894865Y-124420653D01*
X175994800Y-124538138D01*
X176005302Y-124572446D01*
X176042323Y-124708969D01*
X176145608Y-124952387D01*
X176303494Y-125281080D01*
X176504315Y-125673429D01*
X176736406Y-126107814D01*
X176988104Y-126562616D01*
X177247743Y-127016216D01*
X177503658Y-127446994D01*
X177744185Y-127833331D01*
X177861652Y-128013002D01*
X178589585Y-129064364D01*
X179309324Y-130028583D01*
X180013481Y-130897552D01*
X180694670Y-131663160D01*
X181345502Y-132317301D01*
X181958592Y-132851865D01*
X182526551Y-133258744D01*
X182769863Y-133400393D01*
X183283682Y-133617396D01*
X183758350Y-133702250D01*
X184183684Y-133656518D01*
X184549502Y-133481759D01*
X184845623Y-133179535D01*
X184915156Y-133071438D01*
X185055055Y-132741017D01*
X185059759Y-132434009D01*
X184926971Y-132118513D01*
X184837012Y-131985725D01*
X184576505Y-131707629D01*
X184197336Y-131405748D01*
X183725742Y-131096217D01*
X183187959Y-130795171D01*
X182610224Y-130518745D01*
X182141032Y-130327719D01*
X181854992Y-130210035D01*
X181709932Y-130124822D01*
X181706970Y-130074069D01*
X181847223Y-130059769D01*
X181995925Y-130069080D01*
X182217031Y-130089398D01*
X182541423Y-130119091D01*
X182922710Y-130153919D01*
X183257077Y-130184408D01*
X184448787Y-130328963D01*
X185511289Y-130533263D01*
X186443175Y-130796502D01*
X187243038Y-131117869D01*
X187909470Y-131496558D01*
X188441062Y-131931760D01*
X188836407Y-132422667D01*
X189094097Y-132968470D01*
X189212725Y-133568361D01*
X189215326Y-133605068D01*
X189227632Y-133907478D01*
X189209582Y-134122810D01*
X189149317Y-134313141D01*
X189037476Y-134535959D01*
X188760445Y-134931673D01*
X188387785Y-135267129D01*
X187908994Y-135547525D01*
X187313571Y-135778060D01*
X186591014Y-135963934D01*
X185909048Y-136084768D01*
X185585717Y-136136269D01*
X185321242Y-136184334D01*
X185148795Y-136222582D01*
X185100357Y-136240336D01*
X185133582Y-136307076D01*
X185261424Y-136452561D01*
X185464073Y-136658091D01*
X185721720Y-136904966D01*
X186014554Y-137174487D01*
X186322767Y-137447953D01*
X186626548Y-137706665D01*
X186823961Y-137867389D01*
X187664355Y-138493432D01*
X188613302Y-139119402D01*
X189610096Y-139712751D01*
X190552464Y-140249689D01*
X190845191Y-140794427D01*
X191089766Y-141219354D01*
X191404609Y-141721554D01*
X191763668Y-142262926D01*
X192140890Y-142805368D01*
X192510222Y-143310779D01*
X192845613Y-143741057D01*
X192928478Y-143841202D01*
X193229339Y-144181300D01*
X193626830Y-144603643D01*
X194104095Y-145091939D01*
X194644279Y-145629893D01*
X195230526Y-146201213D01*
X195845981Y-146789605D01*
X196473788Y-147378777D01*
X197097092Y-147952434D01*
X197699037Y-148494284D01*
X198170131Y-148907998D01*
X198364718Y-149084873D01*
X198498611Y-149222667D01*
X198545959Y-149294494D01*
X198544569Y-149297432D01*
X198467071Y-149281713D01*
X198276433Y-149215384D01*
X197997333Y-149107794D01*
X197654450Y-148968292D01*
X197458866Y-148886129D01*
X195281908Y-147881287D01*
X193158950Y-146740313D01*
X191097455Y-145469987D01*
X189104892Y-144077088D01*
X187188726Y-142568396D01*
X185356422Y-140950690D01*
X183615447Y-139230749D01*
X181973267Y-137415352D01*
X180437348Y-135511279D01*
X179015155Y-133525310D01*
X177714156Y-131464223D01*
X177114092Y-130412451D01*
X176073398Y-128386560D01*
X175165575Y-126331467D01*
X174397525Y-124263403D01*
X174088305Y-123296546D01*
X173896753Y-122654670D01*
X173745357Y-122125274D01*
X173635886Y-121715129D01*
X173570110Y-121431008D01*
X173549800Y-121279686D01*
X173555307Y-121257305D01*
X173601828Y-121303822D01*
G37*
G36*
X199056569Y-76714332D02*
G01*
X199648090Y-76395327D01*
X200255067Y-76099358D01*
X200834935Y-75849365D01*
X200841692Y-75846683D01*
X201167280Y-75727037D01*
X201560042Y-75597135D01*
X201988282Y-75465864D01*
X202420301Y-75342114D01*
X202824401Y-75234773D01*
X203168885Y-75152730D01*
X203422054Y-75104873D01*
X203517797Y-75096265D01*
X203657705Y-75105100D01*
X203683911Y-75160240D01*
X203618172Y-75302921D01*
X203531300Y-75578217D01*
X203506529Y-75909200D01*
X203541307Y-76236587D01*
X203633077Y-76501095D01*
X203672357Y-76560621D01*
X203953818Y-76798166D01*
X204342500Y-76935869D01*
X204832660Y-76973020D01*
X205418551Y-76908909D01*
X205803862Y-76824052D01*
X206267596Y-76679540D01*
X206729239Y-76489350D01*
X207166685Y-76267544D01*
X207557830Y-76028182D01*
X207880568Y-75785326D01*
X208112794Y-75553037D01*
X208232404Y-75345376D01*
X208243763Y-75272023D01*
X208169516Y-75071662D01*
X207948829Y-74889002D01*
X207584791Y-74726538D01*
X207557417Y-74717135D01*
X207375957Y-74652235D01*
X207279264Y-74598543D01*
X207278552Y-74544025D01*
X207385034Y-74476649D01*
X207609922Y-74384382D01*
X207964431Y-74255193D01*
X207999680Y-74242561D01*
X208641653Y-74028602D01*
X209271483Y-73854758D01*
X209918798Y-73715949D01*
X210613225Y-73607100D01*
X211384392Y-73523132D01*
X212261924Y-73458967D01*
X212715065Y-73434427D01*
X214023469Y-73393040D01*
X215284798Y-73403182D01*
X216533942Y-73467593D01*
X217805791Y-73589016D01*
X219135235Y-73770190D01*
X220557165Y-74013857D01*
X220888230Y-74076578D01*
X221711860Y-74229422D01*
X222421866Y-74345549D01*
X223050165Y-74425749D01*
X223628674Y-74470812D01*
X224189310Y-74481531D01*
X224763989Y-74458696D01*
X225384629Y-74403098D01*
X226083145Y-74315528D01*
X226730154Y-74221368D01*
X226932417Y-74194480D01*
X227012386Y-74202815D01*
X226995920Y-74256312D01*
X226955598Y-74308012D01*
X226813841Y-74421348D01*
X226561536Y-74566567D01*
X226231086Y-74729134D01*
X225854892Y-74894517D01*
X225465354Y-75048179D01*
X225094875Y-75175588D01*
X224889030Y-75235004D01*
X224070318Y-75419020D01*
X223125366Y-75579037D01*
X222076736Y-75712209D01*
X220946988Y-75815690D01*
X219758682Y-75886634D01*
X219703823Y-75889032D01*
X218641686Y-75955412D01*
X217715901Y-76058814D01*
X216916497Y-76201928D01*
X216233503Y-76387440D01*
X215656951Y-76618039D01*
X215176869Y-76896413D01*
X214796522Y-77212057D01*
X214462229Y-77620873D01*
X214263677Y-78060894D01*
X214195682Y-78422844D01*
X214189692Y-78651839D01*
X214230394Y-78866198D01*
X214331781Y-79123325D01*
X214402510Y-79271491D01*
X214725309Y-79761357D01*
X215166468Y-80176798D01*
X215707243Y-80504957D01*
X216328885Y-80732977D01*
X216630429Y-80799563D01*
X216837884Y-80842370D01*
X216999794Y-80899991D01*
X217151292Y-80995489D01*
X217327511Y-81151925D01*
X217563584Y-81392359D01*
X217614108Y-81445251D01*
X217985564Y-81843503D01*
X218385206Y-82287322D01*
X218801150Y-82762087D01*
X219221511Y-83253177D01*
X219634405Y-83745969D01*
X220027946Y-84225842D01*
X220390249Y-84678175D01*
X220709431Y-85088346D01*
X220973605Y-85441733D01*
X221170889Y-85723716D01*
X221289396Y-85919671D01*
X221319503Y-86003926D01*
X221317242Y-86035875D01*
X221295790Y-86052872D01*
X221233140Y-86050743D01*
X221107285Y-86025311D01*
X220896221Y-85972402D01*
X220577941Y-85887840D01*
X220267432Y-85804310D01*
X219845231Y-85683470D01*
X219413413Y-85547715D01*
X219025982Y-85414671D01*
X218764474Y-85313760D01*
X218204884Y-85080516D01*
X217746390Y-84897296D01*
X217353296Y-84751853D01*
X216989910Y-84631940D01*
X216620538Y-84525309D01*
X216209487Y-84419713D01*
X216036206Y-84377616D01*
X214779359Y-84107161D01*
X213601279Y-83921743D01*
X212460695Y-83815953D01*
X211512698Y-83784744D01*
X211017573Y-83783680D01*
X210639624Y-83790229D01*
X210345808Y-83807209D01*
X210103082Y-83837439D01*
X209878403Y-83883736D01*
X209659801Y-83942779D01*
X209044546Y-84145144D01*
X208513678Y-84368013D01*
X208093632Y-84599586D01*
X207938155Y-84711152D01*
X207670121Y-84925594D01*
X207285348Y-84790091D01*
X206540093Y-84453017D01*
X205843031Y-83992598D01*
X205218794Y-83430898D01*
X204692010Y-82789983D01*
X204297308Y-82113199D01*
X204198259Y-81890081D01*
X204138186Y-81727308D01*
X204129255Y-81665605D01*
X204206443Y-81680117D01*
X204392383Y-81742393D01*
X204657306Y-81841879D01*
X204905038Y-81940727D01*
X205627795Y-82217127D01*
X206265937Y-82416613D01*
X206858276Y-82548034D01*
X207443625Y-82620234D01*
X207980746Y-82641787D01*
X208380175Y-82641636D01*
X208666327Y-82630805D01*
X208876107Y-82604389D01*
X209046422Y-82557483D01*
X209214179Y-82485184D01*
X209234696Y-82475158D01*
X209617138Y-82234527D01*
X209908642Y-81944955D01*
X210096380Y-81628907D01*
X210167519Y-81308847D01*
X210109230Y-81007239D01*
X210092704Y-80972919D01*
X209854631Y-80656338D01*
X209486647Y-80354746D01*
X209008920Y-80075044D01*
X208441618Y-79824134D01*
X207804909Y-79608920D01*
X207118960Y-79436303D01*
X206403938Y-79313186D01*
X205680012Y-79246472D01*
X205031097Y-79240576D01*
X204632756Y-79260230D01*
X204348847Y-79291072D01*
X204143594Y-79339184D01*
X203981221Y-79410647D01*
X203960331Y-79422593D01*
X203792805Y-79538467D01*
X203715053Y-79665919D01*
X203691546Y-79869173D01*
X203690498Y-79910356D01*
X203683683Y-80243898D01*
X202916664Y-80231472D01*
X201999849Y-80158034D01*
X201031649Y-79972639D01*
X200048983Y-79684946D01*
X199088771Y-79304617D01*
X198737550Y-79137859D01*
X198411173Y-78969100D01*
X198073876Y-78784411D01*
X197751802Y-78599385D01*
X197471095Y-78429618D01*
X197257898Y-78290704D01*
X197138355Y-78198237D01*
X197121870Y-78174101D01*
X197181918Y-78083403D01*
X197353968Y-77918577D01*
X197625878Y-77690212D01*
X197985504Y-77408895D01*
X198090154Y-77329682D01*
X198478533Y-77063907D01*
X208844947Y-77063907D01*
X208909399Y-77131502D01*
X209076240Y-77228991D01*
X209305695Y-77337498D01*
X209557990Y-77438144D01*
X209784296Y-77509727D01*
X210128419Y-77545606D01*
X210504728Y-77502953D01*
X210836874Y-77392340D01*
X210905344Y-77354516D01*
X211098226Y-77190111D01*
X211273467Y-76970111D01*
X211302188Y-76922315D01*
X211390177Y-76723383D01*
X211475253Y-76463054D01*
X211547740Y-76183012D01*
X211597962Y-75924943D01*
X211616245Y-75730534D01*
X211598538Y-75645516D01*
X211486334Y-75626337D01*
X211268723Y-75661047D01*
X210976778Y-75740588D01*
X210641570Y-75855901D01*
X210294172Y-75997928D01*
X210131926Y-76073071D01*
X209828159Y-76237498D01*
X209522934Y-76432325D01*
X209244346Y-76635923D01*
X209020491Y-76826661D01*
X208879463Y-76982907D01*
X208844947Y-77063907D01*
X198478533Y-77063907D01*
X198523068Y-77033431D01*
X199056569Y-76714332D01*
G37*
G36*
X231227870Y-87298463D02*
G01*
X232114865Y-87422284D01*
X232983356Y-87665849D01*
X233843562Y-88033886D01*
X234705708Y-88531122D01*
X235580015Y-89162284D01*
X236476705Y-89932102D01*
X236903853Y-90338327D01*
X237988692Y-91494244D01*
X239013488Y-92773598D01*
X239969048Y-94158392D01*
X240846182Y-95630631D01*
X241635696Y-97172318D01*
X242328399Y-98765458D01*
X242915098Y-100392054D01*
X243386601Y-102034112D01*
X243733717Y-103673635D01*
X243742969Y-103727626D01*
X243805532Y-104123319D01*
X243860941Y-104525216D01*
X243906404Y-104906035D01*
X243939131Y-105238491D01*
X243956331Y-105495299D01*
X243955213Y-105649177D01*
X243942795Y-105681105D01*
X243902588Y-105614659D01*
X243826613Y-105435492D01*
X243726904Y-105173376D01*
X243646620Y-104948413D01*
X243300167Y-104011998D01*
X242891419Y-103006279D01*
X242440161Y-101975086D01*
X241966180Y-100962254D01*
X241489260Y-100011613D01*
X241066737Y-99232859D01*
X240455403Y-98209834D01*
X239849321Y-97309146D01*
X239229528Y-96504796D01*
X238577060Y-95770790D01*
X238432469Y-95621476D01*
X237958992Y-95164148D01*
X237506290Y-94786095D01*
X237028945Y-94454714D01*
X236481542Y-94137399D01*
X236067232Y-93923537D01*
X235195203Y-93515177D01*
X234414679Y-93207437D01*
X233709787Y-92995780D01*
X233064651Y-92875665D01*
X232463399Y-92842554D01*
X232305422Y-92848002D01*
X231652343Y-92883206D01*
X230837863Y-92104511D01*
X230489889Y-91782199D01*
X230065499Y-91405064D01*
X229607291Y-91010070D01*
X229157862Y-90634179D01*
X228931105Y-90449979D01*
X227838827Y-89574141D01*
X227877337Y-89149437D01*
X227993339Y-88618171D01*
X228237442Y-88164868D01*
X228523016Y-87860700D01*
X228856588Y-87623641D01*
X229234178Y-87456957D01*
X229688558Y-87350186D01*
X230252502Y-87292869D01*
X230312147Y-87289658D01*
X231227870Y-87298463D01*
G37*
G36*
X220530450Y-76770337D02*
G01*
X221051383Y-76790328D01*
X221650146Y-76819556D01*
X222254844Y-76854188D01*
X222793580Y-76890391D01*
X222822462Y-76892546D01*
X223344192Y-76930188D01*
X223925832Y-76969631D01*
X224499644Y-77006417D01*
X224997890Y-77036090D01*
X225039326Y-77038405D01*
X226091397Y-77096739D01*
X225665176Y-77301686D01*
X225379855Y-77428683D01*
X225095977Y-77529470D01*
X224792023Y-77606710D01*
X224446473Y-77663068D01*
X224037808Y-77701208D01*
X223544510Y-77723795D01*
X222945057Y-77733493D01*
X222217932Y-77732967D01*
X222183704Y-77732758D01*
X221301501Y-77733145D01*
X220555812Y-77747070D01*
X219933372Y-77775618D01*
X219420914Y-77819877D01*
X219005174Y-77880934D01*
X218672885Y-77959877D01*
X218453975Y-78038461D01*
X218176934Y-78203568D01*
X218030379Y-78397596D01*
X218022466Y-78606837D01*
X218062599Y-78696209D01*
X218251399Y-78879676D01*
X218580279Y-79041697D01*
X219040260Y-79180066D01*
X219622364Y-79292578D01*
X220317611Y-79377029D01*
X221040893Y-79427626D01*
X221409672Y-79449592D01*
X221711947Y-79475033D01*
X221922692Y-79501250D01*
X222016881Y-79525545D01*
X222017816Y-79532971D01*
X221923967Y-79569172D01*
X221714969Y-79625733D01*
X221423235Y-79694464D01*
X221131633Y-79756908D01*
X220665570Y-79833429D01*
X220115312Y-79893270D01*
X219515948Y-79935434D01*
X218902565Y-79958921D01*
X218310253Y-79962732D01*
X217774098Y-79945867D01*
X217329190Y-79907328D01*
X217111219Y-79871400D01*
X216443183Y-79695508D01*
X215918061Y-79482377D01*
X215532564Y-79229614D01*
X215283406Y-78934828D01*
X215167301Y-78595628D01*
X215157373Y-78449845D01*
X215230146Y-78158029D01*
X215440127Y-77883335D01*
X215774811Y-77629671D01*
X216221692Y-77400947D01*
X216768264Y-77201071D01*
X217402023Y-77033953D01*
X218110462Y-76903502D01*
X218881076Y-76813626D01*
X219701360Y-76768235D01*
X220530450Y-76770337D01*
G37*
G36*
X187390213Y-81503154D02*
G01*
X187397654Y-81814822D01*
X187428065Y-82028457D01*
X187493578Y-82195929D01*
X187586202Y-82341119D01*
X187899722Y-82686251D01*
X188301614Y-82954988D01*
X188805039Y-83152655D01*
X189423161Y-83284579D01*
X190082509Y-83351141D01*
X191000704Y-83371575D01*
X192006224Y-83324637D01*
X193105132Y-83209250D01*
X194303490Y-83024336D01*
X195607358Y-82768820D01*
X197022798Y-82441623D01*
X198555872Y-82041669D01*
X200212641Y-81567880D01*
X200352049Y-81526355D01*
X200688361Y-81428787D01*
X200968320Y-81353041D01*
X201162962Y-81306571D01*
X201243324Y-81296827D01*
X201243489Y-81296977D01*
X201237748Y-81377928D01*
X201191760Y-81553354D01*
X201150736Y-81681022D01*
X201037059Y-82143445D01*
X201035724Y-82524895D01*
X201144726Y-82817963D01*
X201362062Y-83015241D01*
X201529568Y-83080907D01*
X201851506Y-83167012D01*
X201233877Y-83512723D01*
X199861227Y-84351316D01*
X198604731Y-85263999D01*
X197468804Y-86246153D01*
X196457858Y-87293160D01*
X195576308Y-88400402D01*
X194828567Y-89563259D01*
X194219048Y-90777114D01*
X194160061Y-90914904D01*
X194073194Y-91083027D01*
X193938836Y-91275338D01*
X193742120Y-91509064D01*
X193468178Y-91801430D01*
X193102142Y-92169662D01*
X192937175Y-92331729D01*
X192544929Y-92708172D01*
X192224515Y-93000903D01*
X191984230Y-93202831D01*
X191832375Y-93306863D01*
X191783300Y-93317742D01*
X191702640Y-93220894D01*
X191596765Y-93035768D01*
X191539273Y-92915413D01*
X191472229Y-92737409D01*
X191423959Y-92531185D01*
X191390195Y-92264882D01*
X191366670Y-91906638D01*
X191351846Y-91516087D01*
X191336290Y-91131645D01*
X191315994Y-90801283D01*
X191293259Y-90553974D01*
X191270391Y-90418688D01*
X191263419Y-90403786D01*
X191197375Y-90434046D01*
X191062641Y-90568246D01*
X190874827Y-90785901D01*
X190649547Y-91066525D01*
X190402412Y-91389633D01*
X190149033Y-91734738D01*
X189905024Y-92081356D01*
X189685997Y-92408999D01*
X189507562Y-92697184D01*
X189482336Y-92740870D01*
X188999381Y-93690987D01*
X188642262Y-94621851D01*
X188413274Y-95523313D01*
X188314710Y-96385226D01*
X188348866Y-97197441D01*
X188402455Y-97517056D01*
X188441611Y-97723138D01*
X188449200Y-97877034D01*
X188414503Y-98024538D01*
X188326805Y-98211444D01*
X188176910Y-98480863D01*
X188031574Y-98735224D01*
X187915268Y-98934483D01*
X187846972Y-99046283D01*
X187837960Y-99058726D01*
X187769150Y-99032438D01*
X187623113Y-98934753D01*
X187512499Y-98850585D01*
X187157295Y-98493500D01*
X186854477Y-98044592D01*
X186642597Y-97561694D01*
X186633137Y-97531321D01*
X186582408Y-97323406D01*
X186521114Y-97012915D01*
X186456294Y-96643461D01*
X186394989Y-96258659D01*
X186344239Y-95902121D01*
X186311083Y-95617461D01*
X186302035Y-95480140D01*
X186277069Y-95396051D01*
X186201174Y-95420159D01*
X186066487Y-95559085D01*
X185865143Y-95819456D01*
X185811293Y-95893454D01*
X185274518Y-96726961D01*
X184807379Y-97633943D01*
X184417357Y-98588669D01*
X184111934Y-99565410D01*
X183898591Y-100538433D01*
X183784808Y-101482011D01*
X183778069Y-102370411D01*
X183814107Y-102762366D01*
X183924214Y-103368467D01*
X184080789Y-103831669D01*
X184283902Y-104152025D01*
X184533621Y-104329591D01*
X184830015Y-104364420D01*
X185173153Y-104256567D01*
X185470209Y-104075647D01*
X185666417Y-103940001D01*
X185803508Y-103855382D01*
X185849681Y-103839682D01*
X185830568Y-103922693D01*
X185778841Y-104118919D01*
X185702912Y-104396985D01*
X185631071Y-104654877D01*
X185282228Y-106075818D01*
X185004054Y-107584575D01*
X184802529Y-109133301D01*
X184683632Y-110674153D01*
X184653341Y-112159284D01*
X184658294Y-112439407D01*
X184665503Y-112832516D01*
X184667086Y-113166271D01*
X184663282Y-113414801D01*
X184654330Y-113552234D01*
X184647829Y-113571213D01*
X184592290Y-113507083D01*
X184483167Y-113331308D01*
X184332867Y-113067280D01*
X184153795Y-112738387D01*
X183958358Y-112368021D01*
X183758961Y-111979571D01*
X183568010Y-111596427D01*
X183397911Y-111241981D01*
X183305048Y-111039498D01*
X182994147Y-110291060D01*
X182724724Y-109520872D01*
X182491966Y-108707781D01*
X182291058Y-107830638D01*
X182117184Y-106868290D01*
X181965530Y-105799585D01*
X181831281Y-104603374D01*
X181824505Y-104535466D01*
X181791959Y-104281677D01*
X181754570Y-104099754D01*
X181720310Y-104028257D01*
X181719623Y-104028217D01*
X181669614Y-104098945D01*
X181598170Y-104297911D01*
X181509657Y-104605286D01*
X181408438Y-105001245D01*
X181298880Y-105465959D01*
X181185347Y-105979602D01*
X181072205Y-106522346D01*
X180963818Y-107074363D01*
X180864553Y-107615827D01*
X180778773Y-108126911D01*
X180710845Y-108587786D01*
X180703427Y-108643952D01*
X180583571Y-109835203D01*
X180536712Y-110985150D01*
X180560853Y-112081246D01*
X180653998Y-113110949D01*
X180814151Y-114061713D01*
X181039315Y-114920994D01*
X181327494Y-115676248D01*
X181676691Y-116314930D01*
X181989249Y-116723118D01*
X182295077Y-117029725D01*
X182567022Y-117220029D01*
X182837376Y-117312673D01*
X183039595Y-117329401D01*
X183365118Y-117255532D01*
X183684893Y-117039039D01*
X183992218Y-116687588D01*
X184280391Y-116208847D01*
X184542709Y-115610484D01*
X184543193Y-115609200D01*
X184656099Y-115318027D01*
X184736780Y-115151940D01*
X184796156Y-115115778D01*
X184845144Y-115214383D01*
X184894665Y-115452594D01*
X184948485Y-115788868D01*
X184997061Y-116069354D01*
X185069801Y-116447356D01*
X185156974Y-116873963D01*
X185248853Y-117300266D01*
X185251493Y-117312148D01*
X185770391Y-119311299D01*
X186421814Y-121248572D01*
X187201274Y-123118518D01*
X188104281Y-124915687D01*
X189126348Y-126634630D01*
X190262986Y-128269896D01*
X191509707Y-129816037D01*
X192862022Y-131267602D01*
X194315444Y-132619143D01*
X195865483Y-133865210D01*
X197507652Y-135000353D01*
X199237463Y-136019122D01*
X201050426Y-136916069D01*
X201593172Y-137153500D01*
X201969905Y-137307988D01*
X202405358Y-137477494D01*
X202875283Y-137653533D01*
X203355431Y-137827619D01*
X203821551Y-137991266D01*
X204249395Y-138135991D01*
X204614714Y-138253307D01*
X204893259Y-138334730D01*
X205060779Y-138371773D01*
X205078604Y-138373106D01*
X205158733Y-138384993D01*
X205098534Y-138432036D01*
X205087550Y-138438203D01*
X204963311Y-138475442D01*
X204708648Y-138526425D01*
X204342500Y-138588179D01*
X203883807Y-138657728D01*
X203351507Y-138732097D01*
X202764540Y-138808310D01*
X202607669Y-138827771D01*
X202272953Y-138857918D01*
X201812434Y-138883488D01*
X201250538Y-138904369D01*
X200611692Y-138920452D01*
X199920322Y-138931626D01*
X199200854Y-138937781D01*
X198477715Y-138938808D01*
X197775330Y-138934595D01*
X197118127Y-138925032D01*
X196530532Y-138910010D01*
X196036971Y-138889418D01*
X195661870Y-138863145D01*
X195622913Y-138859289D01*
X194663590Y-138749524D01*
X193786107Y-138624709D01*
X192922064Y-138473813D01*
X192003057Y-138285807D01*
X191825215Y-138246886D01*
X191445080Y-138156697D01*
X191003819Y-138041796D01*
X190524774Y-137909342D01*
X190031288Y-137766493D01*
X189546704Y-137620406D01*
X189094366Y-137478240D01*
X188697617Y-137347154D01*
X188379799Y-137234304D01*
X188164257Y-137146851D01*
X188079255Y-137098190D01*
X188109964Y-137049349D01*
X188254242Y-136987724D01*
X188417421Y-136942335D01*
X189303010Y-136699922D01*
X190097617Y-136410924D01*
X190791311Y-136081482D01*
X191374159Y-135717742D01*
X191836227Y-135325848D01*
X192167585Y-134911942D01*
X192350690Y-134509369D01*
X192425502Y-134157994D01*
X192425088Y-133832384D01*
X192343316Y-133486226D01*
X192174056Y-133073208D01*
X192155228Y-133033091D01*
X191772089Y-132375627D01*
X191254566Y-131723966D01*
X190618501Y-131088495D01*
X189879734Y-130479602D01*
X189054109Y-129907675D01*
X188157465Y-129383101D01*
X187205646Y-128916267D01*
X186214493Y-128517563D01*
X185199847Y-128197374D01*
X184534592Y-128036139D01*
X184214672Y-127981298D01*
X183800377Y-127928990D01*
X183347584Y-127885471D01*
X182951814Y-127858912D01*
X182536052Y-127835308D01*
X182232327Y-127808269D01*
X182002437Y-127770275D01*
X181808180Y-127713805D01*
X181611353Y-127631338D01*
X181483443Y-127569854D01*
X181100004Y-127337876D01*
X180658410Y-126996533D01*
X180179239Y-126564486D01*
X179683064Y-126060396D01*
X179190462Y-125502922D01*
X179147409Y-125451254D01*
X178921920Y-125175716D01*
X178736531Y-124942339D01*
X178609839Y-124775024D01*
X178560439Y-124697676D01*
X178560331Y-124696650D01*
X178630472Y-124678386D01*
X178820898Y-124664058D01*
X179101622Y-124655209D01*
X179405746Y-124653199D01*
X179812036Y-124649470D01*
X180104020Y-124631856D01*
X180317386Y-124595983D01*
X180487822Y-124537478D01*
X180536275Y-124514682D01*
X180809003Y-124328750D01*
X180968434Y-124093559D01*
X181013164Y-123802819D01*
X180941790Y-123450241D01*
X180752909Y-123029533D01*
X180445118Y-122534408D01*
X180017013Y-121958574D01*
X179946205Y-121869672D01*
X179144050Y-120819234D01*
X178464995Y-119815673D01*
X177898189Y-118837701D01*
X177432783Y-117864030D01*
X177057926Y-116873375D01*
X176762768Y-115844447D01*
X176669825Y-115441655D01*
X176611077Y-115151312D01*
X176567472Y-114879055D01*
X176536863Y-114594399D01*
X176517103Y-114266863D01*
X176506046Y-113865961D01*
X176501543Y-113361212D01*
X176501079Y-113045969D01*
X176506632Y-112342178D01*
X176526634Y-111744122D01*
X176566345Y-111210520D01*
X176631025Y-110700088D01*
X176725936Y-110171547D01*
X176856337Y-109583614D01*
X177027490Y-108895008D01*
X177032565Y-108875259D01*
X177475786Y-107383093D01*
X178053783Y-105828790D01*
X178765491Y-104214534D01*
X179609848Y-102542505D01*
X180585789Y-100814886D01*
X181692253Y-99033857D01*
X182214815Y-98241827D01*
X182523973Y-97782118D01*
X182820065Y-97343522D01*
X183088275Y-96947857D01*
X183313787Y-96616941D01*
X183481782Y-96372595D01*
X183561720Y-96258431D01*
X183694701Y-96058682D01*
X183775259Y-95910853D01*
X183787270Y-95853775D01*
X183715597Y-95882321D01*
X183550713Y-95994681D01*
X183312043Y-96175160D01*
X183019014Y-96408064D01*
X182691050Y-96677698D01*
X182347577Y-96968369D01*
X182008020Y-97264381D01*
X181720796Y-97523332D01*
X180411863Y-98822641D01*
X179204366Y-100217319D01*
X178104970Y-101695691D01*
X177120339Y-103246083D01*
X176257135Y-104856824D01*
X175522024Y-106516238D01*
X174921669Y-108212653D01*
X174462732Y-109934396D01*
X174361203Y-110415791D01*
X174110657Y-111974873D01*
X173959424Y-113607329D01*
X173908396Y-115272941D01*
X173958469Y-116931494D01*
X174110535Y-118542772D01*
X174170969Y-118976356D01*
X174213066Y-119285053D01*
X174239184Y-119533776D01*
X174246118Y-119688120D01*
X174240289Y-119720646D01*
X174191346Y-119678227D01*
X174098688Y-119521249D01*
X173973736Y-119274973D01*
X173827907Y-118964659D01*
X173672620Y-118615565D01*
X173519295Y-118252953D01*
X173379349Y-117902083D01*
X173264203Y-117588214D01*
X173229728Y-117485147D01*
X173013388Y-116744088D01*
X172810934Y-115916583D01*
X172636771Y-115066479D01*
X172511235Y-114300343D01*
X172408720Y-113315456D01*
X172357514Y-112216801D01*
X172355043Y-111030917D01*
X172398737Y-109784341D01*
X172486022Y-108503613D01*
X172614326Y-107215269D01*
X172781077Y-105945849D01*
X172983703Y-104721891D01*
X173219632Y-103569932D01*
X173486290Y-102516510D01*
X173729048Y-101736206D01*
X174070522Y-100884775D01*
X174524416Y-99974671D01*
X175076158Y-99027607D01*
X175711178Y-98065297D01*
X176414904Y-97109456D01*
X177172766Y-96181799D01*
X177970193Y-95304039D01*
X178209539Y-95059134D01*
X179400326Y-93952122D01*
X180648488Y-92973005D01*
X181980113Y-92102676D01*
X183069207Y-91499550D01*
X183903944Y-91087649D01*
X184657417Y-90758208D01*
X185364928Y-90498812D01*
X186061781Y-90297047D01*
X186783277Y-90140498D01*
X187081420Y-90088618D01*
X187382662Y-90035056D01*
X187624414Y-89983954D01*
X187770393Y-89943351D01*
X187795326Y-89930481D01*
X187738766Y-89917429D01*
X187554097Y-89910107D01*
X187263401Y-89908608D01*
X186888759Y-89913027D01*
X186452251Y-89923457D01*
X186413290Y-89924615D01*
X185484350Y-89971831D01*
X184653398Y-90058994D01*
X183871503Y-90194376D01*
X183089732Y-90386252D01*
X182356335Y-90610606D01*
X181100578Y-91090192D01*
X179939705Y-91673867D01*
X178852444Y-92374508D01*
X177817521Y-93204992D01*
X177339178Y-93647658D01*
X177104812Y-93865933D01*
X176915519Y-94027042D01*
X176792766Y-94113716D01*
X176756781Y-94116059D01*
X176790799Y-93949395D01*
X176883942Y-93680635D01*
X177022845Y-93339338D01*
X177194144Y-92955066D01*
X177384472Y-92557381D01*
X177580466Y-92175843D01*
X177768760Y-91840015D01*
X177834776Y-91731709D01*
X178621832Y-90616679D01*
X179520720Y-89601504D01*
X180530342Y-88686862D01*
X181649603Y-87873430D01*
X182877404Y-87161887D01*
X184212649Y-86552910D01*
X185654243Y-86047177D01*
X187201087Y-85645365D01*
X187916249Y-85501391D01*
X188215342Y-85444435D01*
X188452100Y-85395987D01*
X188592275Y-85363218D01*
X188615442Y-85354955D01*
X188558887Y-85329981D01*
X188388368Y-85282703D01*
X188136940Y-85222045D01*
X188051832Y-85202829D01*
X187373075Y-85009240D01*
X186800377Y-84756865D01*
X186459602Y-84539049D01*
X186134197Y-84210830D01*
X185944954Y-83828408D01*
X185890846Y-83398959D01*
X185970845Y-82929664D01*
X186183923Y-82427699D01*
X186529053Y-81900245D01*
X186899695Y-81464590D01*
X187390213Y-80940930D01*
X187390213Y-81503154D01*
G37*
G36*
X229711486Y-133136424D02*
G01*
X229782001Y-133145365D01*
X230037886Y-133209604D01*
X230205615Y-133326957D01*
X230297439Y-133521162D01*
X230325609Y-133815959D01*
X230308483Y-134165464D01*
X230289274Y-134509798D01*
X230301347Y-134708423D01*
X230337759Y-134763720D01*
X230427718Y-134717902D01*
X230599165Y-134595721D01*
X230820744Y-134420091D01*
X230909121Y-134346180D01*
X231183128Y-134126621D01*
X231374888Y-134016528D01*
X231506957Y-134017643D01*
X231601891Y-134131707D01*
X231682248Y-134360459D01*
X231694992Y-134406826D01*
X231742093Y-134667794D01*
X231717592Y-134892601D01*
X231607226Y-135114748D01*
X231396733Y-135367733D01*
X231203860Y-135560362D01*
X230807812Y-136011111D01*
X230465479Y-136556471D01*
X230171244Y-137209167D01*
X229919492Y-137981925D01*
X229704606Y-138887472D01*
X229679144Y-139015311D01*
X229548201Y-139685910D01*
X228796722Y-139731999D01*
X227808700Y-139857101D01*
X226831415Y-140104226D01*
X225897108Y-140461903D01*
X225038019Y-140918660D01*
X224572875Y-141234908D01*
X224352308Y-141386603D01*
X224165551Y-141492216D01*
X224062895Y-141527034D01*
X223957107Y-141493760D01*
X223745218Y-141402148D01*
X223453780Y-141264515D01*
X223109347Y-141093176D01*
X222939716Y-141006066D01*
X222417825Y-140725596D01*
X221860274Y-140408815D01*
X221290839Y-140070729D01*
X220733293Y-139726345D01*
X220211410Y-139390669D01*
X219748966Y-139078707D01*
X219369734Y-138805466D01*
X219097490Y-138585951D01*
X219078707Y-138569032D01*
X218904479Y-138410103D01*
X220442349Y-137930199D01*
X220882992Y-138152634D01*
X221161441Y-138280371D01*
X221519858Y-138427134D01*
X221894695Y-138567310D01*
X222016687Y-138609627D01*
X222715636Y-138790218D01*
X223392354Y-138856698D01*
X224021105Y-138808360D01*
X224495371Y-138677728D01*
X224966337Y-138421151D01*
X225395789Y-138045634D01*
X225752008Y-137582214D01*
X225907812Y-137295591D01*
X226044422Y-136946268D01*
X226170760Y-136522460D01*
X226273252Y-136080698D01*
X226338328Y-135677513D01*
X226354414Y-135435438D01*
X226378195Y-135294986D01*
X226468371Y-135166928D01*
X226653192Y-135016484D01*
X226748941Y-134949734D01*
X227143468Y-134680868D01*
X227789669Y-135373444D01*
X228109368Y-135703732D01*
X228343323Y-135916828D01*
X228495510Y-136016120D01*
X228550884Y-136021886D01*
X228679896Y-135895242D01*
X228787921Y-135626764D01*
X228873308Y-135223662D01*
X228934405Y-134693149D01*
X228963021Y-134222450D01*
X229006614Y-133192719D01*
X229227978Y-133144099D01*
X229445197Y-133124641D01*
X229711486Y-133136424D01*
G37*
G36*
X192919982Y-141558712D02*
G01*
X193158206Y-141639870D01*
X193195391Y-141654014D01*
X194537215Y-142127612D01*
X195996176Y-142563530D01*
X197542527Y-142955923D01*
X199146519Y-143298948D01*
X200778406Y-143586763D01*
X202408438Y-143813523D01*
X204006868Y-143973385D01*
X205425716Y-144056415D01*
X206703231Y-144103128D01*
X207830450Y-144688066D01*
X208807098Y-145182262D01*
X209837960Y-145680889D01*
X210891025Y-146169610D01*
X211934284Y-146634086D01*
X212935726Y-147059981D01*
X213863342Y-147432956D01*
X214464445Y-147659552D01*
X215176574Y-147891353D01*
X216019231Y-148118184D01*
X216972654Y-148336705D01*
X218017084Y-148543580D01*
X219132761Y-148735469D01*
X220299925Y-148909035D01*
X221498815Y-149060940D01*
X222709672Y-149187844D01*
X223912735Y-149286411D01*
X224212698Y-149306407D01*
X224629662Y-149335971D01*
X224905867Y-149365499D01*
X225050774Y-149399607D01*
X225073850Y-149442910D01*
X224984556Y-149500024D01*
X224792358Y-149575565D01*
X224776308Y-149581302D01*
X223796458Y-149903721D01*
X222699996Y-150217679D01*
X221520602Y-150515677D01*
X220291955Y-150790215D01*
X219047738Y-151033793D01*
X217821629Y-151238911D01*
X216647310Y-151398068D01*
X216585184Y-151405306D01*
X215592055Y-151501930D01*
X214491217Y-151577452D01*
X213323905Y-151630892D01*
X212131352Y-151661274D01*
X210954792Y-151667619D01*
X209835458Y-151648948D01*
X208814585Y-151604285D01*
X208647398Y-151593607D01*
X207097128Y-151421695D01*
X205602032Y-151119693D01*
X204175056Y-150690445D01*
X203664413Y-150498944D01*
X202306023Y-149891191D01*
X200938076Y-149143494D01*
X199572494Y-148264664D01*
X198221200Y-147263510D01*
X196896118Y-146148844D01*
X195609170Y-144929474D01*
X194420821Y-143668750D01*
X194049530Y-143246985D01*
X193697279Y-142836463D01*
X193377408Y-142453691D01*
X193103263Y-142115173D01*
X192888185Y-141837413D01*
X192745518Y-141636918D01*
X192688604Y-141530191D01*
X192688142Y-141525478D01*
X192751832Y-141517677D01*
X192919982Y-141558712D01*
G37*
G36*
X244705027Y-107106359D02*
G01*
X244767170Y-107292054D01*
X244840822Y-107579903D01*
X244923263Y-107958290D01*
X245011774Y-108415600D01*
X245103637Y-108940215D01*
X245196132Y-109520519D01*
X245286540Y-110144896D01*
X245287624Y-110152774D01*
X245374391Y-110802861D01*
X245445444Y-111386836D01*
X245502284Y-111930795D01*
X245546412Y-112460835D01*
X245579329Y-113003051D01*
X245602535Y-113583540D01*
X245617531Y-114228398D01*
X245625818Y-114963722D01*
X245628897Y-115815607D01*
X245629029Y-116089460D01*
X245626492Y-117017663D01*
X245617742Y-117821277D01*
X245600945Y-118525948D01*
X245574265Y-119157318D01*
X245535866Y-119741033D01*
X245483912Y-120302737D01*
X245416568Y-120868073D01*
X245331998Y-121462685D01*
X245228366Y-122112218D01*
X245175322Y-122427500D01*
X244779082Y-124376692D01*
X244266297Y-126264392D01*
X243640935Y-128081767D01*
X242906967Y-129819984D01*
X242068363Y-131470208D01*
X241129092Y-133023607D01*
X240093124Y-134471346D01*
X239364966Y-135357065D01*
X239126408Y-135622734D01*
X238848648Y-135917766D01*
X238546801Y-136227746D01*
X238235981Y-136538263D01*
X237931303Y-136834900D01*
X237647883Y-137103246D01*
X237400835Y-137328885D01*
X237205274Y-137497405D01*
X237076314Y-137594392D01*
X237029071Y-137605432D01*
X237041782Y-137572483D01*
X237094999Y-137481958D01*
X237205762Y-137296066D01*
X237354135Y-137048223D01*
X237424196Y-136931488D01*
X237600752Y-136623601D01*
X237820689Y-136219297D01*
X238063514Y-135758207D01*
X238308732Y-135279961D01*
X238535852Y-134824191D01*
X238724380Y-134430528D01*
X238778320Y-134312833D01*
X239112021Y-133505915D01*
X239433538Y-132603104D01*
X239725543Y-131658714D01*
X239970708Y-130727060D01*
X240082132Y-130226036D01*
X240149110Y-129888230D01*
X240199691Y-129593410D01*
X240236227Y-129310793D01*
X240261071Y-129009596D01*
X240276574Y-128659034D01*
X240285090Y-128228325D01*
X240288971Y-127686685D01*
X240289545Y-127511945D01*
X240283976Y-126704451D01*
X240259715Y-126013003D01*
X240212756Y-125404072D01*
X240139090Y-124844127D01*
X240034709Y-124299638D01*
X239895605Y-123737074D01*
X239796251Y-123385247D01*
X239629854Y-122885750D01*
X239420102Y-122360314D01*
X239184300Y-121844989D01*
X238939751Y-121375825D01*
X238703758Y-120988873D01*
X238543326Y-120774924D01*
X238336627Y-120534818D01*
X238204091Y-120361922D01*
X238138418Y-120215760D01*
X238132311Y-120055857D01*
X238178468Y-119841734D01*
X238269591Y-119532918D01*
X238300631Y-119429147D01*
X238521630Y-118606974D01*
X238732215Y-117672499D01*
X238925195Y-116663682D01*
X239093379Y-115618484D01*
X239229576Y-114574865D01*
X239243242Y-114453234D01*
X239291112Y-114019374D01*
X239755160Y-113785965D01*
X240631735Y-113277658D01*
X241465673Y-112663179D01*
X242236537Y-111963592D01*
X242923892Y-111199959D01*
X243507300Y-110393344D01*
X243966324Y-109564809D01*
X244064293Y-109344803D01*
X244224956Y-108924814D01*
X244371284Y-108470567D01*
X244492252Y-108023433D01*
X244576839Y-107624786D01*
X244614022Y-107315998D01*
X244614835Y-107278365D01*
X244626140Y-107087899D01*
X244657110Y-107034435D01*
X244705027Y-107106359D01*
G37*
G36*
X236961819Y-125067870D02*
G01*
X237324581Y-125281247D01*
X237672588Y-125624470D01*
X237995094Y-126087390D01*
X238226575Y-126535022D01*
X238512980Y-127330116D01*
X238698167Y-128217590D01*
X238782468Y-129179024D01*
X238766217Y-130195999D01*
X238649746Y-131250098D01*
X238433390Y-132322901D01*
X238117479Y-133395990D01*
X238101712Y-133441731D01*
X237867052Y-134066078D01*
X237628722Y-134582543D01*
X237365093Y-135032462D01*
X237054537Y-135457171D01*
X237033556Y-135483229D01*
X236781326Y-135752576D01*
X236490787Y-135997498D01*
X236197862Y-136193082D01*
X235938475Y-136314415D01*
X235795528Y-136341827D01*
X235735836Y-136350972D01*
X235690035Y-136395081D01*
X235650194Y-136499158D01*
X235608378Y-136688213D01*
X235556656Y-136987250D01*
X235521372Y-137206028D01*
X235295590Y-138185710D01*
X234947612Y-139080488D01*
X234482526Y-139885374D01*
X233905422Y-140595385D01*
X233221389Y-141205535D01*
X232435515Y-141710839D01*
X231552890Y-142106311D01*
X230578602Y-142386966D01*
X230149385Y-142468415D01*
X229685379Y-142522781D01*
X229127073Y-142555713D01*
X228528604Y-142566705D01*
X227944109Y-142555251D01*
X227427726Y-142520844D01*
X227218616Y-142495834D01*
X226585346Y-142384693D01*
X225963108Y-142239380D01*
X225418651Y-142075652D01*
X225377491Y-142061175D01*
X224964178Y-141913755D01*
X225943072Y-141908264D01*
X227127728Y-141857973D01*
X228193447Y-141719657D01*
X229144621Y-141491193D01*
X229985640Y-141170460D01*
X230720896Y-140755335D01*
X231354778Y-140243696D01*
X231891679Y-139633419D01*
X232335990Y-138922382D01*
X232406175Y-138784135D01*
X232729517Y-137958698D01*
X232911341Y-137091852D01*
X232951676Y-136192706D01*
X232850555Y-135270370D01*
X232608008Y-134333953D01*
X232388834Y-133755507D01*
X232120083Y-132998764D01*
X231963244Y-132266699D01*
X231920787Y-131579621D01*
X231995183Y-130957837D01*
X232031593Y-130817500D01*
X232091962Y-130648593D01*
X232183178Y-130471722D01*
X232320471Y-130265450D01*
X232519074Y-130008339D01*
X232794217Y-129678952D01*
X233054263Y-129378124D01*
X233617565Y-128720829D01*
X234091089Y-128141398D01*
X234493934Y-127614084D01*
X234845200Y-127113145D01*
X235163985Y-126612835D01*
X235386469Y-126234430D01*
X235644880Y-125792077D01*
X235853488Y-125467152D01*
X236029138Y-125242373D01*
X236188674Y-125100457D01*
X236348943Y-125024123D01*
X236526787Y-124996089D01*
X236595051Y-124994490D01*
X236961819Y-125067870D01*
G37*
G36*
X194480383Y-76361689D02*
G01*
X194349077Y-76497401D01*
X194147156Y-76686947D01*
X193956631Y-76856592D01*
X193560805Y-77224313D01*
X193187557Y-77612574D01*
X192860291Y-77993921D01*
X192602415Y-78340901D01*
X192437334Y-78626062D01*
X192426187Y-78651657D01*
X192322242Y-78984946D01*
X192331958Y-79248881D01*
X192461513Y-79479161D01*
X192591927Y-79609553D01*
X193011419Y-79900761D01*
X193561768Y-80159785D01*
X194226204Y-80382615D01*
X194987952Y-80565237D01*
X195830238Y-80703638D01*
X196736290Y-80793807D01*
X197689334Y-80831730D01*
X197701376Y-80831855D01*
X198091405Y-80839040D01*
X198417211Y-80851319D01*
X198654581Y-80867266D01*
X198779306Y-80885457D01*
X198791021Y-80895999D01*
X198700234Y-80929194D01*
X198484171Y-80984999D01*
X198165354Y-81058726D01*
X197766302Y-81145684D01*
X197309538Y-81241185D01*
X196817580Y-81340540D01*
X196312950Y-81439058D01*
X195818169Y-81532052D01*
X195355757Y-81614831D01*
X195257766Y-81631691D01*
X194388681Y-81768176D01*
X193532502Y-81880349D01*
X192711216Y-81966547D01*
X191946807Y-82025109D01*
X191261262Y-82054374D01*
X190676566Y-82052680D01*
X190214704Y-82018364D01*
X190188449Y-82014824D01*
X189639509Y-81904592D01*
X189230286Y-81743584D01*
X188957311Y-81526702D01*
X188817116Y-81248853D01*
X188806232Y-80904939D01*
X188921191Y-80489866D01*
X189010387Y-80284136D01*
X189292921Y-79822362D01*
X189712299Y-79333851D01*
X190259020Y-78826103D01*
X190923582Y-78306619D01*
X191696484Y-77782903D01*
X192568227Y-77262453D01*
X193401292Y-76817324D01*
X193767782Y-76634190D01*
X194085551Y-76481183D01*
X194331501Y-76368963D01*
X194482534Y-76308188D01*
X194519083Y-76301514D01*
X194480383Y-76361689D01*
G37*
G36*
X238739580Y-137788751D02*
G01*
X238732358Y-137977757D01*
X238668590Y-138271748D01*
X238558248Y-138640940D01*
X238411309Y-139055547D01*
X238237747Y-139485782D01*
X238047538Y-139901859D01*
X237999842Y-139997637D01*
X237491846Y-140900061D01*
X236904825Y-141749971D01*
X236214835Y-142579500D01*
X235586367Y-143236416D01*
X235092165Y-143717932D01*
X234650840Y-144125723D01*
X234227045Y-144488546D01*
X233785428Y-144835154D01*
X233290642Y-145194303D01*
X232707336Y-145594747D01*
X232591692Y-145672440D01*
X231771500Y-146194655D01*
X230995439Y-146625843D01*
X230228305Y-146979700D01*
X229434893Y-147269924D01*
X228580001Y-147510212D01*
X227628424Y-147714262D01*
X227105894Y-147806892D01*
X226819138Y-147842288D01*
X226413685Y-147875263D01*
X225921125Y-147904811D01*
X225373051Y-147929926D01*
X224801053Y-147949600D01*
X224236724Y-147962829D01*
X223711653Y-147968605D01*
X223257434Y-147965923D01*
X222905657Y-147953775D01*
X222784888Y-147944529D01*
X222122225Y-147876981D01*
X221568436Y-147816192D01*
X221082570Y-147756980D01*
X220623679Y-147694161D01*
X220150816Y-147622553D01*
X219816545Y-147568836D01*
X218637090Y-147351662D01*
X217430027Y-147083572D01*
X216217194Y-146771741D01*
X215020432Y-146423341D01*
X213861578Y-146045548D01*
X212762472Y-145645534D01*
X211744953Y-145230475D01*
X210830861Y-144807544D01*
X210042035Y-144383915D01*
X209944503Y-144325962D01*
X209703468Y-144168436D01*
X209593378Y-144063357D01*
X209606338Y-144004293D01*
X209709102Y-143971237D01*
X209934289Y-143912470D01*
X210257399Y-143833935D01*
X210653930Y-143741573D01*
X211099382Y-143641330D01*
X211136959Y-143633024D01*
X212386740Y-143347531D01*
X213593565Y-143052956D01*
X214739571Y-142754270D01*
X215806901Y-142456445D01*
X216777693Y-142164452D01*
X217634088Y-141883264D01*
X218313586Y-141635279D01*
X219008828Y-141411516D01*
X219625507Y-141312842D01*
X220169322Y-141339890D01*
X220645968Y-141493296D01*
X221061144Y-141773694D01*
X221247535Y-141961795D01*
X221486450Y-142306883D01*
X221666063Y-142709608D01*
X221761202Y-143107890D01*
X221769972Y-143250289D01*
X221714061Y-143634225D01*
X221564637Y-144034308D01*
X221437277Y-144255339D01*
X221361418Y-144367225D01*
X221320031Y-144450713D01*
X221330293Y-144513784D01*
X221409383Y-144564419D01*
X221574479Y-144610597D01*
X221842761Y-144660298D01*
X222231405Y-144721504D01*
X222543416Y-144769200D01*
X223077709Y-144834204D01*
X223717390Y-144884869D01*
X224426957Y-144920665D01*
X225170910Y-144941064D01*
X225913749Y-144945538D01*
X226619972Y-144933556D01*
X227254079Y-144904590D01*
X227780569Y-144858112D01*
X227857373Y-144848357D01*
X228681758Y-144714277D01*
X229559393Y-144530666D01*
X230419086Y-144313720D01*
X231088734Y-144113180D01*
X231664606Y-143900766D01*
X232307174Y-143623551D01*
X232973583Y-143303080D01*
X233620976Y-142960894D01*
X234206495Y-142618535D01*
X234657019Y-142319531D01*
X235518431Y-141634517D01*
X236353844Y-140847868D01*
X237132553Y-139993143D01*
X237823856Y-139103903D01*
X238368971Y-138262366D01*
X238531164Y-137999169D01*
X238654525Y-137831033D01*
X238726820Y-137773591D01*
X238739580Y-137788751D01*
G37*
M02*
